<?xml version="1.0" standalone="no"?>
 <!DOCTYPE svg PUBLIC "-//W3C//DTD SVG 1.1//EN" 
 "http://www.w3.org/Graphics/SVG/1.1/DTD/svg11.dtd"> 
<svg
  xmlns:svg="http://www.w3.org/2000/svg"
  xmlns="http://www.w3.org/2000/svg"
  xmlns:xlink="http://www.w3.org/1999/xlink"
  version="1.1"
  width="21.000720cm" height="14.800580cm" viewBox="0 0 210007200 148005800">
<title>SVG Picture created as PORTABLE_ECG_MACHINE-B_Silkscreen.svg date 2022/05/19 15:45:05 </title>
  <desc>Picture generated by PCBNEW </desc>
<g style="fill:#000000; fill-opacity:1.000000;stroke:#000000; stroke-opacity:1.000000;
stroke-linecap:round; stroke-linejoin:round;"
 transform="translate(0 0) scale(1 1)">
</g>
<g style="fill:#000000; fill-opacity:0.0; 
stroke:#000000; stroke-width:0.000000; stroke-opacity:1; 
stroke-linecap:round; stroke-linejoin:round;">
</g>
<g style="fill:#000000; fill-opacity:0.0; 
stroke:#000000; stroke-width:21200.000000; stroke-opacity:1; 
stroke-linecap:round; stroke-linejoin:round;">
</g>
<g style="fill:#000000; fill-opacity:0.0; 
stroke:#000000; stroke-width:150000.000000; stroke-opacity:1; 
stroke-linecap:round; stroke-linejoin:round;">
<rect x="90007200.000000" y="104005800.000000" width="108000000.000000" height="32000000.000000" rx="0.000000" />
</g>
<g style="fill:#000000; fill-opacity:0.0; 
stroke:#000000; stroke-width:21200.000000; stroke-opacity:1; 
stroke-linecap:round; stroke-linejoin:round;">
</g>
<g style="fill:#000000; fill-opacity:0.0; 
stroke:#000000; stroke-width:150000.000000; stroke-opacity:1; 
stroke-linecap:round; stroke-linejoin:round;">
<rect x="10000000.000000" y="10000000.000000" width="190007200.000000" height="128005800.000000" rx="0.000000" />
</g>
<g style="fill:#000000; fill-opacity:0.0; 
stroke:#000000; stroke-width:21200.000000; stroke-opacity:1; 
stroke-linecap:round; stroke-linejoin:round;">
</g>
<g style="fill:#000000; fill-opacity:0.0; 
stroke:#000000; stroke-width:150000.000000; stroke-opacity:1; 
stroke-linecap:round; stroke-linejoin:round;">
<rect x="12000000.000000" y="12000000.000000" width="186007200.000000" height="124005800.000000" rx="0.000000" />
</g>
<g style="fill:#000000; fill-opacity:0.0; 
stroke:#000000; stroke-width:21200.000000; stroke-opacity:1; 
stroke-linecap:round; stroke-linejoin:round;">
</g>
<g style="fill:#000000; fill-opacity:0.0; 
stroke:#000000; stroke-width:150000.000000; stroke-opacity:1; 
stroke-linecap:round; stroke-linejoin:round;">
<path d="M60000000 12000000
L60000000 10000000
" />
</g>
<g style="fill:#000000; fill-opacity:0.0; 
stroke:#000000; stroke-width:21200.000000; stroke-opacity:1; 
stroke-linecap:round; stroke-linejoin:round;">
</g>
<g style="fill:#000000; fill-opacity:0.0; 
stroke:#000000; stroke-width:150000.000000; stroke-opacity:1; 
stroke-linecap:round; stroke-linejoin:round;">
<path d="M110000000 12000000
L110000000 10000000
" />
</g>
<g style="fill:#000000; fill-opacity:0.0; 
stroke:#000000; stroke-width:21200.000000; stroke-opacity:1; 
stroke-linecap:round; stroke-linejoin:round;">
</g>
<g style="fill:#000000; fill-opacity:0.0; 
stroke:#000000; stroke-width:150000.000000; stroke-opacity:1; 
stroke-linecap:round; stroke-linejoin:round;">
<path d="M160000000 12000000
L160000000 10000000
" />
</g>
<g style="fill:#000000; fill-opacity:0.0; 
stroke:#000000; stroke-width:21200.000000; stroke-opacity:1; 
stroke-linecap:round; stroke-linejoin:round;">
</g>
<g style="fill:#000000; fill-opacity:0.0; 
stroke:#000000; stroke-width:150000.000000; stroke-opacity:1; 
stroke-linecap:round; stroke-linejoin:round;">
<text x="35000000.000000" y="11650000.000000"
textLength="1388095.000000" font-size="1733333.000000" lengthAdjust="spacingAndGlyphs"
text-anchor="start" opacity="0">1</text>
<g class="stroked-text"><desc>1</desc>
<path d="M36065476 11588095
L35322619 11588095
" />
<path d="M35694047 11588095
L35694047 10288095
L35570238 10473809
L35446428 10597619
L35322619 10659523
" />
</g></g>
<g style="fill:#000000; fill-opacity:0.0; 
stroke:#000000; stroke-width:21200.000000; stroke-opacity:1; 
stroke-linecap:round; stroke-linejoin:round;">
</g>
<g style="fill:#000000; fill-opacity:0.0; 
stroke:#000000; stroke-width:150000.000000; stroke-opacity:1; 
stroke-linecap:round; stroke-linejoin:round;">
<text x="85000000.000000" y="11650000.000000"
textLength="1388095.000000" font-size="1733333.000000" lengthAdjust="spacingAndGlyphs"
text-anchor="start" opacity="0">2</text>
<g class="stroked-text"><desc>2</desc>
<path d="M85322619 10411904
L85384523 10350000
L85508333 10288095
L85817857 10288095
L85941666 10350000
L86003571 10411904
L86065476 10535714
L86065476 10659523
L86003571 10845238
L85260714 11588095
L86065476 11588095
" />
</g></g>
<g style="fill:#000000; fill-opacity:0.0; 
stroke:#000000; stroke-width:21200.000000; stroke-opacity:1; 
stroke-linecap:round; stroke-linejoin:round;">
</g>
<g style="fill:#000000; fill-opacity:0.0; 
stroke:#000000; stroke-width:150000.000000; stroke-opacity:1; 
stroke-linecap:round; stroke-linejoin:round;">
<text x="135000000.000000" y="11650000.000000"
textLength="1388095.000000" font-size="1733333.000000" lengthAdjust="spacingAndGlyphs"
text-anchor="start" opacity="0">3</text>
<g class="stroked-text"><desc>3</desc>
<path d="M135260714 10288095
L136065476 10288095
L135632142 10783333
L135817857 10783333
L135941666 10845238
L136003571 10907142
L136065476 11030952
L136065476 11340476
L136003571 11464285
L135941666 11526190
L135817857 11588095
L135446428 11588095
L135322619 11526190
L135260714 11464285
" />
</g></g>
<g style="fill:#000000; fill-opacity:0.0; 
stroke:#000000; stroke-width:21200.000000; stroke-opacity:1; 
stroke-linecap:round; stroke-linejoin:round;">
</g>
<g style="fill:#000000; fill-opacity:0.0; 
stroke:#000000; stroke-width:150000.000000; stroke-opacity:1; 
stroke-linecap:round; stroke-linejoin:round;">
<text x="185000000.000000" y="11650000.000000"
textLength="1388095.000000" font-size="1733333.000000" lengthAdjust="spacingAndGlyphs"
text-anchor="start" opacity="0">4</text>
<g class="stroked-text"><desc>4</desc>
<path d="M185941666 10721428
L185941666 11588095
" />
<path d="M185632142 10226190
L185322619 11154761
L186127380 11154761
" />
</g></g>
<g style="fill:#000000; fill-opacity:0.0; 
stroke:#000000; stroke-width:21200.000000; stroke-opacity:1; 
stroke-linecap:round; stroke-linejoin:round;">
</g>
<g style="fill:#000000; fill-opacity:0.0; 
stroke:#000000; stroke-width:150000.000000; stroke-opacity:1; 
stroke-linecap:round; stroke-linejoin:round;">
<path d="M60000000 136005800
L60000000 138005800
" />
</g>
<g style="fill:#000000; fill-opacity:0.0; 
stroke:#000000; stroke-width:21200.000000; stroke-opacity:1; 
stroke-linecap:round; stroke-linejoin:round;">
</g>
<g style="fill:#000000; fill-opacity:0.0; 
stroke:#000000; stroke-width:150000.000000; stroke-opacity:1; 
stroke-linecap:round; stroke-linejoin:round;">
<path d="M110000000 136005800
L110000000 138005800
" />
</g>
<g style="fill:#000000; fill-opacity:0.0; 
stroke:#000000; stroke-width:21200.000000; stroke-opacity:1; 
stroke-linecap:round; stroke-linejoin:round;">
</g>
<g style="fill:#000000; fill-opacity:0.0; 
stroke:#000000; stroke-width:150000.000000; stroke-opacity:1; 
stroke-linecap:round; stroke-linejoin:round;">
<path d="M160000000 136005800
L160000000 138005800
" />
</g>
<g style="fill:#000000; fill-opacity:0.0; 
stroke:#000000; stroke-width:21200.000000; stroke-opacity:1; 
stroke-linecap:round; stroke-linejoin:round;">
</g>
<g style="fill:#000000; fill-opacity:0.0; 
stroke:#000000; stroke-width:150000.000000; stroke-opacity:1; 
stroke-linecap:round; stroke-linejoin:round;">
<text x="35000000.000000" y="137655800.000000"
textLength="1388095.000000" font-size="1733333.000000" lengthAdjust="spacingAndGlyphs"
text-anchor="start" opacity="0">1</text>
<g class="stroked-text"><desc>1</desc>
<path d="M36065476 137593895
L35322619 137593895
" />
<path d="M35694047 137593895
L35694047 136293895
L35570238 136479609
L35446428 136603419
L35322619 136665323
" />
</g></g>
<g style="fill:#000000; fill-opacity:0.0; 
stroke:#000000; stroke-width:21200.000000; stroke-opacity:1; 
stroke-linecap:round; stroke-linejoin:round;">
</g>
<g style="fill:#000000; fill-opacity:0.0; 
stroke:#000000; stroke-width:150000.000000; stroke-opacity:1; 
stroke-linecap:round; stroke-linejoin:round;">
<text x="85000000.000000" y="137655800.000000"
textLength="1388095.000000" font-size="1733333.000000" lengthAdjust="spacingAndGlyphs"
text-anchor="start" opacity="0">2</text>
<g class="stroked-text"><desc>2</desc>
<path d="M85322619 136417704
L85384523 136355800
L85508333 136293895
L85817857 136293895
L85941666 136355800
L86003571 136417704
L86065476 136541514
L86065476 136665323
L86003571 136851038
L85260714 137593895
L86065476 137593895
" />
</g></g>
<g style="fill:#000000; fill-opacity:0.0; 
stroke:#000000; stroke-width:21200.000000; stroke-opacity:1; 
stroke-linecap:round; stroke-linejoin:round;">
</g>
<g style="fill:#000000; fill-opacity:0.0; 
stroke:#000000; stroke-width:150000.000000; stroke-opacity:1; 
stroke-linecap:round; stroke-linejoin:round;">
<text x="135000000.000000" y="137655800.000000"
textLength="1388095.000000" font-size="1733333.000000" lengthAdjust="spacingAndGlyphs"
text-anchor="start" opacity="0">3</text>
<g class="stroked-text"><desc>3</desc>
<path d="M135260714 136293895
L136065476 136293895
L135632142 136789133
L135817857 136789133
L135941666 136851038
L136003571 136912942
L136065476 137036752
L136065476 137346276
L136003571 137470085
L135941666 137531990
L135817857 137593895
L135446428 137593895
L135322619 137531990
L135260714 137470085
" />
</g></g>
<g style="fill:#000000; fill-opacity:0.0; 
stroke:#000000; stroke-width:21200.000000; stroke-opacity:1; 
stroke-linecap:round; stroke-linejoin:round;">
</g>
<g style="fill:#000000; fill-opacity:0.0; 
stroke:#000000; stroke-width:150000.000000; stroke-opacity:1; 
stroke-linecap:round; stroke-linejoin:round;">
<text x="185000000.000000" y="137655800.000000"
textLength="1388095.000000" font-size="1733333.000000" lengthAdjust="spacingAndGlyphs"
text-anchor="start" opacity="0">4</text>
<g class="stroked-text"><desc>4</desc>
<path d="M185941666 136727228
L185941666 137593895
" />
<path d="M185632142 136231990
L185322619 137160561
L186127380 137160561
" />
</g></g>
<g style="fill:#000000; fill-opacity:0.0; 
stroke:#000000; stroke-width:21200.000000; stroke-opacity:1; 
stroke-linecap:round; stroke-linejoin:round;">
</g>
<g style="fill:#000000; fill-opacity:0.0; 
stroke:#000000; stroke-width:150000.000000; stroke-opacity:1; 
stroke-linecap:round; stroke-linejoin:round;">
<path d="M10000000 60000000
L12000000 60000000
" />
</g>
<g style="fill:#000000; fill-opacity:0.0; 
stroke:#000000; stroke-width:21200.000000; stroke-opacity:1; 
stroke-linecap:round; stroke-linejoin:round;">
</g>
<g style="fill:#000000; fill-opacity:0.0; 
stroke:#000000; stroke-width:150000.000000; stroke-opacity:1; 
stroke-linecap:round; stroke-linejoin:round;">
<path d="M10000000 110000000
L12000000 110000000
" />
</g>
<g style="fill:#000000; fill-opacity:0.0; 
stroke:#000000; stroke-width:21200.000000; stroke-opacity:1; 
stroke-linecap:round; stroke-linejoin:round;">
</g>
<g style="fill:#000000; fill-opacity:0.0; 
stroke:#000000; stroke-width:150000.000000; stroke-opacity:1; 
stroke-linecap:round; stroke-linejoin:round;">
<text x="11000000.000000" y="35650000.000000"
textLength="1264286.000000" font-size="1733333.000000" lengthAdjust="spacingAndGlyphs"
text-anchor="middle" opacity="0">A</text>
<g class="stroked-text"><desc>A</desc>
<path d="M10690476 35216666
L11309523 35216666
" />
<path d="M10566666 35588095
L11000000 34288095
L11433333 35588095
" />
</g></g>
<g style="fill:#000000; fill-opacity:0.0; 
stroke:#000000; stroke-width:21200.000000; stroke-opacity:1; 
stroke-linecap:round; stroke-linejoin:round;">
</g>
<g style="fill:#000000; fill-opacity:0.0; 
stroke:#000000; stroke-width:150000.000000; stroke-opacity:1; 
stroke-linecap:round; stroke-linejoin:round;">
<text x="11000000.000000" y="85650000.000000"
textLength="1450000.000000" font-size="1733333.000000" lengthAdjust="spacingAndGlyphs"
text-anchor="middle" opacity="0">B</text>
<g class="stroked-text"><desc>B</desc>
<path d="M11092857 84907142
L11278571 84969047
L11340476 85030952
L11402380 85154761
L11402380 85340476
L11340476 85464285
L11278571 85526190
L11154761 85588095
L10659523 85588095
L10659523 84288095
L11092857 84288095
L11216666 84350000
L11278571 84411904
L11340476 84535714
L11340476 84659523
L11278571 84783333
L11216666 84845238
L11092857 84907142
L10659523 84907142
" />
</g></g>
<g style="fill:#000000; fill-opacity:0.0; 
stroke:#000000; stroke-width:21200.000000; stroke-opacity:1; 
stroke-linecap:round; stroke-linejoin:round;">
</g>
<g style="fill:#000000; fill-opacity:0.0; 
stroke:#000000; stroke-width:150000.000000; stroke-opacity:1; 
stroke-linecap:round; stroke-linejoin:round;">
<text x="11000000.000000" y="135650000.000000"
textLength="1450000.000000" font-size="1733333.000000" lengthAdjust="spacingAndGlyphs"
text-anchor="middle" opacity="0">C</text>
<g class="stroked-text"><desc>C</desc>
<path d="M11402380 135464285
L11340476 135526190
L11154761 135588095
L11030952 135588095
L10845238 135526190
L10721428 135402380
L10659523 135278571
L10597619 135030952
L10597619 134845238
L10659523 134597619
L10721428 134473809
L10845238 134350000
L11030952 134288095
L11154761 134288095
L11340476 134350000
L11402380 134411904
" />
</g></g>
<g style="fill:#000000; fill-opacity:0.0; 
stroke:#000000; stroke-width:21200.000000; stroke-opacity:1; 
stroke-linecap:round; stroke-linejoin:round;">
</g>
<g style="fill:#000000; fill-opacity:0.0; 
stroke:#000000; stroke-width:150000.000000; stroke-opacity:1; 
stroke-linecap:round; stroke-linejoin:round;">
<path d="M200007200 60000000
L198007200 60000000
" />
</g>
<g style="fill:#000000; fill-opacity:0.0; 
stroke:#000000; stroke-width:21200.000000; stroke-opacity:1; 
stroke-linecap:round; stroke-linejoin:round;">
</g>
<g style="fill:#000000; fill-opacity:0.0; 
stroke:#000000; stroke-width:150000.000000; stroke-opacity:1; 
stroke-linecap:round; stroke-linejoin:round;">
<path d="M200007200 110000000
L198007200 110000000
" />
</g>
<g style="fill:#000000; fill-opacity:0.0; 
stroke:#000000; stroke-width:21200.000000; stroke-opacity:1; 
stroke-linecap:round; stroke-linejoin:round;">
</g>
<g style="fill:#000000; fill-opacity:0.0; 
stroke:#000000; stroke-width:150000.000000; stroke-opacity:1; 
stroke-linecap:round; stroke-linejoin:round;">
<text x="199007200.000000" y="35650000.000000"
textLength="1264286.000000" font-size="1733333.000000" lengthAdjust="spacingAndGlyphs"
text-anchor="middle" opacity="0">A</text>
<g class="stroked-text"><desc>A</desc>
<path d="M198697676 35216666
L199316723 35216666
" />
<path d="M198573866 35588095
L199007200 34288095
L199440533 35588095
" />
</g></g>
<g style="fill:#000000; fill-opacity:0.0; 
stroke:#000000; stroke-width:21200.000000; stroke-opacity:1; 
stroke-linecap:round; stroke-linejoin:round;">
</g>
<g style="fill:#000000; fill-opacity:0.0; 
stroke:#000000; stroke-width:150000.000000; stroke-opacity:1; 
stroke-linecap:round; stroke-linejoin:round;">
<text x="199007200.000000" y="85650000.000000"
textLength="1450000.000000" font-size="1733333.000000" lengthAdjust="spacingAndGlyphs"
text-anchor="middle" opacity="0">B</text>
<g class="stroked-text"><desc>B</desc>
<path d="M199100057 84907142
L199285771 84969047
L199347676 85030952
L199409580 85154761
L199409580 85340476
L199347676 85464285
L199285771 85526190
L199161961 85588095
L198666723 85588095
L198666723 84288095
L199100057 84288095
L199223866 84350000
L199285771 84411904
L199347676 84535714
L199347676 84659523
L199285771 84783333
L199223866 84845238
L199100057 84907142
L198666723 84907142
" />
</g></g>
<g style="fill:#000000; fill-opacity:0.0; 
stroke:#000000; stroke-width:21200.000000; stroke-opacity:1; 
stroke-linecap:round; stroke-linejoin:round;">
</g>
<g style="fill:#000000; fill-opacity:0.0; 
stroke:#000000; stroke-width:150000.000000; stroke-opacity:1; 
stroke-linecap:round; stroke-linejoin:round;">
<text x="199007200.000000" y="135650000.000000"
textLength="1450000.000000" font-size="1733333.000000" lengthAdjust="spacingAndGlyphs"
text-anchor="middle" opacity="0">C</text>
<g class="stroked-text"><desc>C</desc>
<path d="M199409580 135464285
L199347676 135526190
L199161961 135588095
L199038152 135588095
L198852438 135526190
L198728628 135402380
L198666723 135278571
L198604819 135030952
L198604819 134845238
L198666723 134597619
L198728628 134473809
L198852438 134350000
L199038152 134288095
L199161961 134288095
L199347676 134350000
L199409580 134411904
" />
</g></g>
<g style="fill:#000000; fill-opacity:0.0; 
stroke:#000000; stroke-width:21200.000000; stroke-opacity:1; 
stroke-linecap:round; stroke-linejoin:round;">
</g>
<g style="fill:#000000; fill-opacity:0.0; 
stroke:#000000; stroke-width:150000.000000; stroke-opacity:1; 
stroke-linecap:round; stroke-linejoin:round;">
<text x="113007200.000000" y="131855800.000000"
textLength="7007143.000000" font-size="2000000.000000" lengthAdjust="spacingAndGlyphs"
text-anchor="start" opacity="0">Date: </text>
<g class="stroked-text"><desc>Date: </desc>
<path d="M113439342 131784371
L113439342 130284371
L113796485 130284371
L114010771 130355800
L114153628 130498657
L114225057 130641514
L114296485 130927228
L114296485 131141514
L114225057 131427228
L114153628 131570085
L114010771 131712942
L113796485 131784371
L113439342 131784371
" />
<path d="M115582200 131784371
L115582200 130998657
L115510771 130855800
L115367914 130784371
L115082200 130784371
L114939342 130855800
" />
<path d="M115582200 131712942
L115439342 131784371
L115082200 131784371
L114939342 131712942
L114867914 131570085
L114867914 131427228
L114939342 131284371
L115082200 131212942
L115439342 131212942
L115582200 131141514
" />
<path d="M116082200 130784371
L116653628 130784371
" />
<path d="M116296485 130284371
L116296485 131570085
L116367914 131712942
L116510771 131784371
L116653628 131784371
" />
<path d="M117725057 131712942
L117582200 131784371
L117296485 131784371
L117153628 131712942
L117082200 131570085
L117082200 130998657
L117153628 130855800
L117296485 130784371
L117582200 130784371
L117725057 130855800
L117796485 130998657
L117796485 131141514
L117082200 131284371
" />
<path d="M118439342 131641514
L118510771 131712942
L118439342 131784371
L118367914 131712942
L118439342 131641514
L118439342 131784371
" />
<path d="M118439342 130855800
L118510771 130927228
L118439342 130998657
L118367914 130927228
L118439342 130855800
L118439342 130998657
" />
</g></g>
<g style="fill:#000000; fill-opacity:0.0; 
stroke:#000000; stroke-width:21200.000000; stroke-opacity:1; 
stroke-linecap:round; stroke-linejoin:round;">
</g>
<g style="fill:#000000; fill-opacity:0.0; 
stroke:#000000; stroke-width:150000.000000; stroke-opacity:1; 
stroke-linecap:round; stroke-linejoin:round;">
<path d="M90007200 132505800
L198007200 132505800
" />
</g>
<g style="fill:#000000; fill-opacity:0.0; 
stroke:#000000; stroke-width:21200.000000; stroke-opacity:1; 
stroke-linecap:round; stroke-linejoin:round;">
</g>
<g style="fill:#000000; fill-opacity:0.0; 
stroke:#000000; stroke-width:150000.000000; stroke-opacity:1; 
stroke-linecap:round; stroke-linejoin:round;">
<text x="91007200.000000" y="134655800.000000"
textLength="31078571.000000" font-size="2000000.000000" lengthAdjust="spacingAndGlyphs"
text-anchor="start" opacity="0">KiCad E.D.A.  kicad (6.0.5)</text>
<g class="stroked-text"><desc>KiCad E.D.A.  kicad (6.0.5)</desc>
<path d="M91439342 134584371
L91439342 133084371
" />
<path d="M92296485 134584371
L91653628 133727228
" />
<path d="M92296485 133084371
L91439342 133941514
" />
<path d="M92939342 134584371
L92939342 133584371
" />
<path d="M92939342 133084371
L92867914 133155800
L92939342 133227228
L93010771 133155800
L92939342 133084371
L92939342 133227228
" />
<path d="M94510771 134441514
L94439342 134512942
L94225057 134584371
L94082200 134584371
L93867914 134512942
L93725057 134370085
L93653628 134227228
L93582200 133941514
L93582200 133727228
L93653628 133441514
L93725057 133298657
L93867914 133155800
L94082200 133084371
L94225057 133084371
L94439342 133155800
L94510771 133227228
" />
<path d="M95796485 134584371
L95796485 133798657
L95725057 133655800
L95582200 133584371
L95296485 133584371
L95153628 133655800
" />
<path d="M95796485 134512942
L95653628 134584371
L95296485 134584371
L95153628 134512942
L95082200 134370085
L95082200 134227228
L95153628 134084371
L95296485 134012942
L95653628 134012942
L95796485 133941514
" />
<path d="M97153628 134584371
L97153628 133084371
" />
<path d="M97153628 134512942
L97010771 134584371
L96725057 134584371
L96582200 134512942
L96510771 134441514
L96439342 134298657
L96439342 133870085
L96510771 133727228
L96582200 133655800
L96725057 133584371
L97010771 133584371
L97153628 133655800
" />
<path d="M99010771 133798657
L99510771 133798657
" />
<path d="M99725057 134584371
L99010771 134584371
L99010771 133084371
L99725057 133084371
" />
<path d="M100367914 134441514
L100439342 134512942
L100367914 134584371
L100296485 134512942
L100367914 134441514
L100367914 134584371
" />
<path d="M101082200 134584371
L101082200 133084371
L101439342 133084371
L101653628 133155800
L101796485 133298657
L101867914 133441514
L101939342 133727228
L101939342 133941514
L101867914 134227228
L101796485 134370085
L101653628 134512942
L101439342 134584371
L101082200 134584371
" />
<path d="M102582200 134441514
L102653628 134512942
L102582200 134584371
L102510771 134512942
L102582200 134441514
L102582200 134584371
" />
<path d="M103225057 134155800
L103939342 134155800
" />
<path d="M103082200 134584371
L103582200 133084371
L104082200 134584371
" />
<path d="M104582200 134441514
L104653628 134512942
L104582200 134584371
L104510771 134512942
L104582200 134441514
L104582200 134584371
" />
<path d="M107582200 134584371
L107582200 133084371
" />
<path d="M107725057 134012942
L108153628 134584371
" />
<path d="M108153628 133584371
L107582200 134155800
" />
<path d="M108796485 134584371
L108796485 133584371
" />
<path d="M108796485 133084371
L108725057 133155800
L108796485 133227228
L108867914 133155800
L108796485 133084371
L108796485 133227228
" />
<path d="M110153628 134512942
L110010771 134584371
L109725057 134584371
L109582200 134512942
L109510771 134441514
L109439342 134298657
L109439342 133870085
L109510771 133727228
L109582200 133655800
L109725057 133584371
L110010771 133584371
L110153628 133655800
" />
<path d="M111439342 134584371
L111439342 133798657
L111367914 133655800
L111225057 133584371
L110939342 133584371
L110796485 133655800
" />
<path d="M111439342 134512942
L111296485 134584371
L110939342 134584371
L110796485 134512942
L110725057 134370085
L110725057 134227228
L110796485 134084371
L110939342 134012942
L111296485 134012942
L111439342 133941514
" />
<path d="M112796485 134584371
L112796485 133084371
" />
<path d="M112796485 134512942
L112653628 134584371
L112367914 134584371
L112225057 134512942
L112153628 134441514
L112082200 134298657
L112082200 133870085
L112153628 133727228
L112225057 133655800
L112367914 133584371
L112653628 133584371
L112796485 133655800
" />
<path d="M115082200 135155800
L115010771 135084371
L114867914 134870085
L114796485 134727228
L114725057 134512942
L114653628 134155800
L114653628 133870085
L114725057 133512942
L114796485 133298657
L114867914 133155800
L115010771 132941514
L115082200 132870085
" />
<path d="M116296485 133084371
L116010771 133084371
L115867914 133155800
L115796485 133227228
L115653628 133441514
L115582200 133727228
L115582200 134298657
L115653628 134441514
L115725057 134512942
L115867914 134584371
L116153628 134584371
L116296485 134512942
L116367914 134441514
L116439342 134298657
L116439342 133941514
L116367914 133798657
L116296485 133727228
L116153628 133655800
L115867914 133655800
L115725057 133727228
L115653628 133798657
L115582200 133941514
" />
<path d="M117082200 134441514
L117153628 134512942
L117082200 134584371
L117010771 134512942
L117082200 134441514
L117082200 134584371
" />
<path d="M118082200 133084371
L118225057 133084371
L118367914 133155800
L118439342 133227228
L118510771 133370085
L118582200 133655800
L118582200 134012942
L118510771 134298657
L118439342 134441514
L118367914 134512942
L118225057 134584371
L118082200 134584371
L117939342 134512942
L117867914 134441514
L117796485 134298657
L117725057 134012942
L117725057 133655800
L117796485 133370085
L117867914 133227228
L117939342 133155800
L118082200 133084371
" />
<path d="M119225057 134441514
L119296485 134512942
L119225057 134584371
L119153628 134512942
L119225057 134441514
L119225057 134584371
" />
<path d="M120653628 133084371
L119939342 133084371
L119867914 133798657
L119939342 133727228
L120082200 133655800
L120439342 133655800
L120582200 133727228
L120653628 133798657
L120725057 133941514
L120725057 134298657
L120653628 134441514
L120582200 134512942
L120439342 134584371
L120082200 134584371
L119939342 134512942
L119867914 134441514
" />
<path d="M121225057 135155800
L121296485 135084371
L121439342 134870085
L121510771 134727228
L121582200 134512942
L121653628 134155800
L121653628 133870085
L121582200 133512942
L121510771 133298657
L121439342 133155800
L121296485 132941514
L121225057 132870085
" />
</g></g>
<g style="fill:#000000; fill-opacity:0.0; 
stroke:#000000; stroke-width:21200.000000; stroke-opacity:1; 
stroke-linecap:round; stroke-linejoin:round;">
</g>
<g style="fill:#000000; fill-opacity:0.0; 
stroke:#000000; stroke-width:150000.000000; stroke-opacity:1; 
stroke-linecap:round; stroke-linejoin:round;">
<path d="M90007200 129505800
L198007200 129505800
" />
</g>
<g style="fill:#000000; fill-opacity:0.0; 
stroke:#000000; stroke-width:21200.000000; stroke-opacity:1; 
stroke-linecap:round; stroke-linejoin:round;">
</g>
<g style="fill:#000000; fill-opacity:0.0; 
stroke:#000000; stroke-width:300000.000000; stroke-opacity:1; 
stroke-linecap:round; stroke-linejoin:round;">
<text x="176007200.000000" y="131855800.000000"
textLength="5935714.000000" font-size="2000000.000000" lengthAdjust="spacingAndGlyphs"
text-anchor="start" opacity="0">Rev: </text>
<g class="stroked-text"><desc>Rev: </desc>
<path d="M177416485 131784371
L176916485 131070085
" />
<path d="M176559342 131784371
L176559342 130284371
L177130771 130284371
L177273628 130355800
L177345057 130427228
L177416485 130570085
L177416485 130784371
L177345057 130927228
L177273628 130998657
L177130771 131070085
L176559342 131070085
" />
<path d="M178630771 131712942
L178487914 131784371
L178202200 131784371
L178059342 131712942
L177987914 131570085
L177987914 130998657
L178059342 130855800
L178202200 130784371
L178487914 130784371
L178630771 130855800
L178702200 130998657
L178702200 131141514
L177987914 131284371
" />
<path d="M179202200 130784371
L179559342 131784371
L179916485 130784371
" />
<path d="M180487914 131641514
L180559342 131712942
L180487914 131784371
L180416485 131712942
L180487914 131641514
L180487914 131784371
" />
<path d="M180487914 130855800
L180559342 130927228
L180487914 130998657
L180416485 130927228
L180487914 130855800
L180487914 130998657
" />
</g></g>
<g style="fill:#000000; fill-opacity:0.0; 
stroke:#000000; stroke-width:21200.000000; stroke-opacity:1; 
stroke-linecap:round; stroke-linejoin:round;">
</g>
<g style="fill:#000000; fill-opacity:0.0; 
stroke:#000000; stroke-width:150000.000000; stroke-opacity:1; 
stroke-linecap:round; stroke-linejoin:round;">
<text x="91007200.000000" y="131855800.000000"
textLength="9604286.000000" font-size="2000000.000000" lengthAdjust="spacingAndGlyphs"
text-anchor="start" opacity="0">Size: A5</text>
<g class="stroked-text"><desc>Size: A5</desc>
<path d="M91367914 131712942
L91582200 131784371
L91939342 131784371
L92082200 131712942
L92153628 131641514
L92225057 131498657
L92225057 131355800
L92153628 131212942
L92082200 131141514
L91939342 131070085
L91653628 130998657
L91510771 130927228
L91439342 130855800
L91367914 130712942
L91367914 130570085
L91439342 130427228
L91510771 130355800
L91653628 130284371
L92010771 130284371
L92225057 130355800
" />
<path d="M92867914 131784371
L92867914 130784371
" />
<path d="M92867914 130284371
L92796485 130355800
L92867914 130427228
L92939342 130355800
L92867914 130284371
L92867914 130427228
" />
<path d="M93439342 130784371
L94225057 130784371
L93439342 131784371
L94225057 131784371
" />
<path d="M95367914 131712942
L95225057 131784371
L94939342 131784371
L94796485 131712942
L94725057 131570085
L94725057 130998657
L94796485 130855800
L94939342 130784371
L95225057 130784371
L95367914 130855800
L95439342 130998657
L95439342 131141514
L94725057 131284371
" />
<path d="M96082200 131641514
L96153628 131712942
L96082200 131784371
L96010771 131712942
L96082200 131641514
L96082200 131784371
" />
<path d="M96082200 130855800
L96153628 130927228
L96082200 130998657
L96010771 130927228
L96082200 130855800
L96082200 130998657
" />
<path d="M97867914 131355800
L98582200 131355800
" />
<path d="M97725057 131784371
L98225057 130284371
L98725057 131784371
" />
<path d="M99939342 130284371
L99225057 130284371
L99153628 130998657
L99225057 130927228
L99367914 130855800
L99725057 130855800
L99867914 130927228
L99939342 130998657
L100010771 131141514
L100010771 131498657
L99939342 131641514
L99867914 131712942
L99725057 131784371
L99367914 131784371
L99225057 131712942
L99153628 131641514
" />
</g></g>
<g style="fill:#000000; fill-opacity:0.0; 
stroke:#000000; stroke-width:21200.000000; stroke-opacity:1; 
stroke-linecap:round; stroke-linejoin:round;">
</g>
<g style="fill:#000000; fill-opacity:0.0; 
stroke:#000000; stroke-width:150000.000000; stroke-opacity:1; 
stroke-linecap:round; stroke-linejoin:round;">
<text x="176007200.000000" y="134655800.000000"
textLength="8507143.000000" font-size="2000000.000000" lengthAdjust="spacingAndGlyphs"
text-anchor="start" opacity="0">Id: 1/1</text>
<g class="stroked-text"><desc>Id: 1/1</desc>
<path d="M176439342 134584371
L176439342 133084371
" />
<path d="M177796485 134584371
L177796485 133084371
" />
<path d="M177796485 134512942
L177653628 134584371
L177367914 134584371
L177225057 134512942
L177153628 134441514
L177082200 134298657
L177082200 133870085
L177153628 133727228
L177225057 133655800
L177367914 133584371
L177653628 133584371
L177796485 133655800
" />
<path d="M178510771 134441514
L178582200 134512942
L178510771 134584371
L178439342 134512942
L178510771 134441514
L178510771 134584371
" />
<path d="M178510771 133655800
L178582200 133727228
L178510771 133798657
L178439342 133727228
L178510771 133655800
L178510771 133798657
" />
<path d="M181153628 134584371
L180296485 134584371
" />
<path d="M180725057 134584371
L180725057 133084371
L180582200 133298657
L180439342 133441514
L180296485 133512942
" />
<path d="M182867914 133012942
L181582200 134941514
" />
<path d="M184153628 134584371
L183296485 134584371
" />
<path d="M183725057 134584371
L183725057 133084371
L183582200 133298657
L183439342 133441514
L183296485 133512942
" />
</g></g>
<g style="fill:#000000; fill-opacity:0.0; 
stroke:#000000; stroke-width:21200.000000; stroke-opacity:1; 
stroke-linecap:round; stroke-linejoin:round;">
</g>
<g style="fill:#000000; fill-opacity:0.0; 
stroke:#000000; stroke-width:150000.000000; stroke-opacity:1; 
stroke-linecap:round; stroke-linejoin:round;">
<path d="M90007200 125505800
L198007200 125505800
" />
</g>
<g style="fill:#000000; fill-opacity:0.0; 
stroke:#000000; stroke-width:21200.000000; stroke-opacity:1; 
stroke-linecap:round; stroke-linejoin:round;">
</g>
<g style="fill:#000000; fill-opacity:0.0; 
stroke:#000000; stroke-width:400000.000000; stroke-opacity:1; 
stroke-linecap:round; stroke-linejoin:round;">
<text x="91007200.000000" y="128305800.000000"
textLength="9409643.000000" font-size="2666666.000000" lengthAdjust="spacingAndGlyphs"
text-anchor="start" opacity="0">Title: </text>
<g class="stroked-text"><desc>Title: </desc>
<path d="M91719580 126210561
L92862438 126210561
" />
<path d="M92041009 128210561
L92291009 126210561
" />
<path d="M93279104 128210561
L93445771 126877228
" />
<path d="M93529104 126210561
L93421961 126305800
L93505295 126401038
L93612438 126305800
L93529104 126210561
L93505295 126401038
" />
<path d="M94112438 126877228
L94874342 126877228
" />
<path d="M94481485 126210561
L94267200 127924847
L94338628 128115323
L94517200 128210561
L94707676 128210561
" />
<path d="M95660057 128210561
L95481485 128115323
L95410057 127924847
L95624342 126210561
" />
<path d="M97195771 128115323
L96993390 128210561
L96612438 128210561
L96433866 128115323
L96362438 127924847
L96457676 127162942
L96576723 126972466
L96779104 126877228
L97160057 126877228
L97338628 126972466
L97410057 127162942
L97386247 127353419
L96410057 127543895
" />
<path d="M98160057 128020085
L98243390 128115323
L98136247 128210561
L98052914 128115323
L98160057 128020085
L98136247 128210561
" />
<path d="M98291009 126972466
L98374342 127067704
L98267200 127162942
L98183866 127067704
L98291009 126972466
L98267200 127162942
" />
</g></g>
<g style="fill:#000000; fill-opacity:0.0; 
stroke:#000000; stroke-width:21200.000000; stroke-opacity:1; 
stroke-linecap:round; stroke-linejoin:round;">
</g>
<g style="fill:#000000; fill-opacity:0.0; 
stroke:#000000; stroke-width:150000.000000; stroke-opacity:1; 
stroke-linecap:round; stroke-linejoin:round;">
<text x="91007200.000000" y="124455800.000000"
textLength="45662857.000000" font-size="2000000.000000" lengthAdjust="spacingAndGlyphs"
text-anchor="start" opacity="0">File: PORTABLE_ECG_MACHINE.kicad_pcb</text>
<g class="stroked-text"><desc>File: PORTABLE_ECG_MACHINE.kicad_pcb</desc>
<path d="M91939342 123598657
L91439342 123598657
" />
<path d="M91439342 124384371
L91439342 122884371
L92153628 122884371
" />
<path d="M92725057 124384371
L92725057 123384371
" />
<path d="M92725057 122884371
L92653628 122955800
L92725057 123027228
L92796485 122955800
L92725057 122884371
L92725057 123027228
" />
<path d="M93653628 124384371
L93510771 124312942
L93439342 124170085
L93439342 122884371
" />
<path d="M94796485 124312942
L94653628 124384371
L94367914 124384371
L94225057 124312942
L94153628 124170085
L94153628 123598657
L94225057 123455800
L94367914 123384371
L94653628 123384371
L94796485 123455800
L94867914 123598657
L94867914 123741514
L94153628 123884371
" />
<path d="M95510771 124241514
L95582200 124312942
L95510771 124384371
L95439342 124312942
L95510771 124241514
L95510771 124384371
" />
<path d="M95510771 123455800
L95582200 123527228
L95510771 123598657
L95439342 123527228
L95510771 123455800
L95510771 123598657
" />
<path d="M97367914 124384371
L97367914 122884371
L97939342 122884371
L98082200 122955800
L98153628 123027228
L98225057 123170085
L98225057 123384371
L98153628 123527228
L98082200 123598657
L97939342 123670085
L97367914 123670085
" />
<path d="M99153628 122884371
L99439342 122884371
L99582200 122955800
L99725057 123098657
L99796485 123384371
L99796485 123884371
L99725057 124170085
L99582200 124312942
L99439342 124384371
L99153628 124384371
L99010771 124312942
L98867914 124170085
L98796485 123884371
L98796485 123384371
L98867914 123098657
L99010771 122955800
L99153628 122884371
" />
<path d="M101296485 124384371
L100796485 123670085
" />
<path d="M100439342 124384371
L100439342 122884371
L101010771 122884371
L101153628 122955800
L101225057 123027228
L101296485 123170085
L101296485 123384371
L101225057 123527228
L101153628 123598657
L101010771 123670085
L100439342 123670085
" />
<path d="M101725057 122884371
L102582200 122884371
" />
<path d="M102153628 124384371
L102153628 122884371
" />
<path d="M103010771 123955800
L103725057 123955800
" />
<path d="M102867914 124384371
L103367914 122884371
L103867914 124384371
" />
<path d="M104867914 123598657
L105082200 123670085
L105153628 123741514
L105225057 123884371
L105225057 124098657
L105153628 124241514
L105082200 124312942
L104939342 124384371
L104367914 124384371
L104367914 122884371
L104867914 122884371
L105010771 122955800
L105082200 123027228
L105153628 123170085
L105153628 123312942
L105082200 123455800
L105010771 123527228
L104867914 123598657
L104367914 123598657
" />
<path d="M106582200 124384371
L105867914 124384371
L105867914 122884371
" />
<path d="M107082200 123598657
L107582200 123598657
" />
<path d="M107796485 124384371
L107082200 124384371
L107082200 122884371
L107796485 122884371
" />
<path d="M108082200 124527228
L109225057 124527228
" />
<path d="M109582200 123598657
L110082200 123598657
" />
<path d="M110296485 124384371
L109582200 124384371
L109582200 122884371
L110296485 122884371
" />
<path d="M111796485 124241514
L111725057 124312942
L111510771 124384371
L111367914 124384371
L111153628 124312942
L111010771 124170085
L110939342 124027228
L110867914 123741514
L110867914 123527228
L110939342 123241514
L111010771 123098657
L111153628 122955800
L111367914 122884371
L111510771 122884371
L111725057 122955800
L111796485 123027228
" />
<path d="M113225057 122955800
L113082200 122884371
L112867914 122884371
L112653628 122955800
L112510771 123098657
L112439342 123241514
L112367914 123527228
L112367914 123741514
L112439342 124027228
L112510771 124170085
L112653628 124312942
L112867914 124384371
L113010771 124384371
L113225057 124312942
L113296485 124241514
L113296485 123741514
L113010771 123741514
" />
<path d="M113582200 124527228
L114725057 124527228
" />
<path d="M115082200 124384371
L115082200 122884371
L115582200 123955800
L116082200 122884371
L116082200 124384371
" />
<path d="M116725057 123955800
L117439342 123955800
" />
<path d="M116582200 124384371
L117082200 122884371
L117582200 124384371
" />
<path d="M118939342 124241514
L118867914 124312942
L118653628 124384371
L118510771 124384371
L118296485 124312942
L118153628 124170085
L118082200 124027228
L118010771 123741514
L118010771 123527228
L118082200 123241514
L118153628 123098657
L118296485 122955800
L118510771 122884371
L118653628 122884371
L118867914 122955800
L118939342 123027228
" />
<path d="M119582200 124384371
L119582200 122884371
" />
<path d="M119582200 123598657
L120439342 123598657
" />
<path d="M120439342 124384371
L120439342 122884371
" />
<path d="M121153628 124384371
L121153628 122884371
" />
<path d="M121867914 124384371
L121867914 122884371
L122725057 124384371
L122725057 122884371
" />
<path d="M123439342 123598657
L123939342 123598657
" />
<path d="M124153628 124384371
L123439342 124384371
L123439342 122884371
L124153628 122884371
" />
<path d="M124796485 124241514
L124867914 124312942
L124796485 124384371
L124725057 124312942
L124796485 124241514
L124796485 124384371
" />
<path d="M125510771 124384371
L125510771 122884371
" />
<path d="M125653628 123812942
L126082200 124384371
" />
<path d="M126082200 123384371
L125510771 123955800
" />
<path d="M126725057 124384371
L126725057 123384371
" />
<path d="M126725057 122884371
L126653628 122955800
L126725057 123027228
L126796485 122955800
L126725057 122884371
L126725057 123027228
" />
<path d="M128082200 124312942
L127939342 124384371
L127653628 124384371
L127510771 124312942
L127439342 124241514
L127367914 124098657
L127367914 123670085
L127439342 123527228
L127510771 123455800
L127653628 123384371
L127939342 123384371
L128082200 123455800
" />
<path d="M129367914 124384371
L129367914 123598657
L129296485 123455800
L129153628 123384371
L128867914 123384371
L128725057 123455800
" />
<path d="M129367914 124312942
L129225057 124384371
L128867914 124384371
L128725057 124312942
L128653628 124170085
L128653628 124027228
L128725057 123884371
L128867914 123812942
L129225057 123812942
L129367914 123741514
" />
<path d="M130725057 124384371
L130725057 122884371
" />
<path d="M130725057 124312942
L130582200 124384371
L130296485 124384371
L130153628 124312942
L130082200 124241514
L130010771 124098657
L130010771 123670085
L130082200 123527228
L130153628 123455800
L130296485 123384371
L130582200 123384371
L130725057 123455800
" />
<path d="M131082200 124527228
L132225057 124527228
" />
<path d="M132582200 123384371
L132582200 124884371
" />
<path d="M132582200 123455800
L132725057 123384371
L133010771 123384371
L133153628 123455800
L133225057 123527228
L133296485 123670085
L133296485 124098657
L133225057 124241514
L133153628 124312942
L133010771 124384371
L132725057 124384371
L132582200 124312942
" />
<path d="M134582200 124312942
L134439342 124384371
L134153628 124384371
L134010771 124312942
L133939342 124241514
L133867914 124098657
L133867914 123670085
L133939342 123527228
L134010771 123455800
L134153628 123384371
L134439342 123384371
L134582200 123455800
" />
<path d="M135225057 124384371
L135225057 122884371
" />
<path d="M135225057 123455800
L135367914 123384371
L135653628 123384371
L135796485 123455800
L135867914 123527228
L135939342 123670085
L135939342 124098657
L135867914 124241514
L135796485 124312942
L135653628 124384371
L135367914 124384371
L135225057 124312942
" />
</g></g>
<g style="fill:#000000; fill-opacity:0.0; 
stroke:#000000; stroke-width:21200.000000; stroke-opacity:1; 
stroke-linecap:round; stroke-linejoin:round;">
</g>
<g style="fill:#000000; fill-opacity:0.0; 
stroke:#000000; stroke-width:150000.000000; stroke-opacity:1; 
stroke-linecap:round; stroke-linejoin:round;">
<path d="M90007200 119505800
L198007200 119505800
" />
</g>
<g style="fill:#000000; fill-opacity:0.0; 
stroke:#000000; stroke-width:21200.000000; stroke-opacity:1; 
stroke-linecap:round; stroke-linejoin:round;">
</g>
<g style="fill:#000000; fill-opacity:0.0; 
stroke:#000000; stroke-width:150000.000000; stroke-opacity:1; 
stroke-linecap:round; stroke-linejoin:round;">
<text x="91007200.000000" y="121755800.000000"
textLength="8221429.000000" font-size="2000000.000000" lengthAdjust="spacingAndGlyphs"
text-anchor="start" opacity="0">Sheet: </text>
<g class="stroked-text"><desc>Sheet: </desc>
<path d="M91367914 121612942
L91582200 121684371
L91939342 121684371
L92082200 121612942
L92153628 121541514
L92225057 121398657
L92225057 121255800
L92153628 121112942
L92082200 121041514
L91939342 120970085
L91653628 120898657
L91510771 120827228
L91439342 120755800
L91367914 120612942
L91367914 120470085
L91439342 120327228
L91510771 120255800
L91653628 120184371
L92010771 120184371
L92225057 120255800
" />
<path d="M92867914 121684371
L92867914 120184371
" />
<path d="M93510771 121684371
L93510771 120898657
L93439342 120755800
L93296485 120684371
L93082200 120684371
L92939342 120755800
L92867914 120827228
" />
<path d="M94796485 121612942
L94653628 121684371
L94367914 121684371
L94225057 121612942
L94153628 121470085
L94153628 120898657
L94225057 120755800
L94367914 120684371
L94653628 120684371
L94796485 120755800
L94867914 120898657
L94867914 121041514
L94153628 121184371
" />
<path d="M96082200 121612942
L95939342 121684371
L95653628 121684371
L95510771 121612942
L95439342 121470085
L95439342 120898657
L95510771 120755800
L95653628 120684371
L95939342 120684371
L96082200 120755800
L96153628 120898657
L96153628 121041514
L95439342 121184371
" />
<path d="M96582200 120684371
L97153628 120684371
" />
<path d="M96796485 120184371
L96796485 121470085
L96867914 121612942
L97010771 121684371
L97153628 121684371
" />
<path d="M97653628 121541514
L97725057 121612942
L97653628 121684371
L97582200 121612942
L97653628 121541514
L97653628 121684371
" />
<path d="M97653628 120755800
L97725057 120827228
L97653628 120898657
L97582200 120827228
L97653628 120755800
L97653628 120898657
" />
</g></g>
<g style="fill:#000000; fill-opacity:0.0; 
stroke:#000000; stroke-width:21200.000000; stroke-opacity:1; 
stroke-linecap:round; stroke-linejoin:round;">
</g>
<g style="fill:#000000; fill-opacity:0.0; 
stroke:#000000; stroke-width:300000.000000; stroke-opacity:1; 
stroke-linecap:round; stroke-linejoin:round;">
<text x="91007200.000000" y="118755800.000000"
textLength="150000.000000" font-size="2000000.000000" lengthAdjust="spacingAndGlyphs"
text-anchor="start" opacity="0"></text>
<g class="stroked-text"><desc></desc>
</g></g>
<g style="fill:#000000; fill-opacity:0.0; 
stroke:#000000; stroke-width:21200.000000; stroke-opacity:1; 
stroke-linecap:round; stroke-linejoin:round;">
</g>
<g style="fill:#000000; fill-opacity:0.0; 
stroke:#000000; stroke-width:150000.000000; stroke-opacity:1; 
stroke-linecap:round; stroke-linejoin:round;">
<text x="91007200.000000" y="115755800.000000"
textLength="300000.000000" font-size="2000000.000000" lengthAdjust="spacingAndGlyphs"
text-anchor="start" opacity="0"></text>
<g class="stroked-text"><desc></desc>
</g></g>
<g style="fill:#000000; fill-opacity:0.0; 
stroke:#000000; stroke-width:21200.000000; stroke-opacity:1; 
stroke-linecap:round; stroke-linejoin:round;">
</g>
<g style="fill:#000000; fill-opacity:0.0; 
stroke:#000000; stroke-width:150000.000000; stroke-opacity:1; 
stroke-linecap:round; stroke-linejoin:round;">
<text x="91007200.000000" y="112755800.000000"
textLength="150000.000000" font-size="2000000.000000" lengthAdjust="spacingAndGlyphs"
text-anchor="start" opacity="0"></text>
<g class="stroked-text"><desc></desc>
</g></g>
<g style="fill:#000000; fill-opacity:0.0; 
stroke:#000000; stroke-width:21200.000000; stroke-opacity:1; 
stroke-linecap:round; stroke-linejoin:round;">
</g>
<g style="fill:#000000; fill-opacity:0.0; 
stroke:#000000; stroke-width:150000.000000; stroke-opacity:1; 
stroke-linecap:round; stroke-linejoin:round;">
<text x="91007200.000000" y="109755800.000000"
textLength="150000.000000" font-size="2000000.000000" lengthAdjust="spacingAndGlyphs"
text-anchor="start" opacity="0"></text>
<g class="stroked-text"><desc></desc>
</g></g>
<g style="fill:#000000; fill-opacity:0.0; 
stroke:#000000; stroke-width:21200.000000; stroke-opacity:1; 
stroke-linecap:round; stroke-linejoin:round;">
</g>
<g style="fill:#000000; fill-opacity:0.0; 
stroke:#000000; stroke-width:150000.000000; stroke-opacity:1; 
stroke-linecap:round; stroke-linejoin:round;">
<text x="91007200.000000" y="106755800.000000"
textLength="150000.000000" font-size="2000000.000000" lengthAdjust="spacingAndGlyphs"
text-anchor="start" opacity="0"></text>
<g class="stroked-text"><desc></desc>
</g></g>
<g style="fill:#000000; fill-opacity:0.0; 
stroke:#000000; stroke-width:21200.000000; stroke-opacity:1; 
stroke-linecap:round; stroke-linejoin:round;">
</g>
<g style="fill:#000000; fill-opacity:0.0; 
stroke:#000000; stroke-width:150000.000000; stroke-opacity:1; 
stroke-linecap:round; stroke-linejoin:round;">
<path d="M110007200 129505800
L110007200 132505800
" />
</g>
<g style="fill:#000000; fill-opacity:0.0; 
stroke:#000000; stroke-width:21200.000000; stroke-opacity:1; 
stroke-linecap:round; stroke-linejoin:round;">
</g>
<g style="fill:#000000; fill-opacity:0.0; 
stroke:#000000; stroke-width:150000.000000; stroke-opacity:1; 
stroke-linecap:round; stroke-linejoin:round;">
<path d="M174007200 129505800
L174007200 136005800
" />
</g>
<g style="fill:#AAAAE0; fill-opacity:0.0; 
stroke:#AAAAE0; stroke-width:150000.000000; stroke-opacity:1; 
stroke-linecap:round; stroke-linejoin:round;">
<text x="103124000.000000" y="84828000.000000"
transform="scale(-1 1) translate(-206248000.000000 0)"
textLength="1088095.000000" font-size="1333333.000000" lengthAdjust="spacingAndGlyphs"
text-anchor="middle" opacity="0">+</text>
<g class="stroked-text"><desc>+</desc>
<path d="M103504952 84399428
L102743047 84399428
" />
<path d="M103124000 84780380
L103124000 84018476
" />
</g></g>
<g style="fill:#AAAAE0; fill-opacity:0.0; 
stroke:#AAAAE0; stroke-width:200000.000000; stroke-opacity:1; 
stroke-linecap:round; stroke-linejoin:round;">
<text x="101346000.000000" y="39616000.000000"
transform="scale(-1 1) translate(-202692000.000000 0)"
textLength="9947857.000000" font-size="1333333.000000" lengthAdjust="spacingAndGlyphs"
text-anchor="middle" opacity="0">GROUP NO. 5</text>
<g class="stroked-text"><desc>GROUP NO. 5</desc>
<path d="M105655523 38616000
L105750761 38568380
L105893619 38568380
L106036476 38616000
L106131714 38711238
L106179333 38806476
L106226952 38996952
L106226952 39139809
L106179333 39330285
L106131714 39425523
L106036476 39520761
L105893619 39568380
L105798380 39568380
L105655523 39520761
L105607904 39473142
L105607904 39139809
L105798380 39139809
" />
<path d="M104607904 39568380
L104941238 39092190
" />
<path d="M105179333 39568380
L105179333 38568380
L104798380 38568380
L104703142 38616000
L104655523 38663619
L104607904 38758857
L104607904 38901714
L104655523 38996952
L104703142 39044571
L104798380 39092190
L105179333 39092190
" />
<path d="M103988857 38568380
L103798380 38568380
L103703142 38616000
L103607904 38711238
L103560285 38901714
L103560285 39235047
L103607904 39425523
L103703142 39520761
L103798380 39568380
L103988857 39568380
L104084095 39520761
L104179333 39425523
L104226952 39235047
L104226952 38901714
L104179333 38711238
L104084095 38616000
L103988857 38568380
" />
<path d="M103131714 38568380
L103131714 39377904
L103084095 39473142
L103036476 39520761
L102941238 39568380
L102750761 39568380
L102655523 39520761
L102607904 39473142
L102560285 39377904
L102560285 38568380
" />
<path d="M102084095 39568380
L102084095 38568380
L101703142 38568380
L101607904 38616000
L101560285 38663619
L101512666 38758857
L101512666 38901714
L101560285 38996952
L101607904 39044571
L101703142 39092190
L102084095 39092190
" />
<path d="M100322190 39568380
L100322190 38568380
L99750761 39568380
L99750761 38568380
" />
<path d="M99084095 38568380
L98893619 38568380
L98798380 38616000
L98703142 38711238
L98655523 38901714
L98655523 39235047
L98703142 39425523
L98798380 39520761
L98893619 39568380
L99084095 39568380
L99179333 39520761
L99274571 39425523
L99322190 39235047
L99322190 38901714
L99274571 38711238
L99179333 38616000
L99084095 38568380
" />
<path d="M98226952 39473142
L98179333 39520761
L98226952 39568380
L98274571 39520761
L98226952 39473142
L98226952 39568380
" />
<path d="M96512666 38568380
L96988857 38568380
L97036476 39044571
L96988857 38996952
L96893619 38949333
L96655523 38949333
L96560285 38996952
L96512666 39044571
L96465047 39139809
L96465047 39377904
L96512666 39473142
L96560285 39520761
L96655523 39568380
L96893619 39568380
L96988857 39520761
L97036476 39473142
" />
</g></g>
<g style="fill:#AAAAE0; fill-opacity:0.0; 
stroke:#AAAAE0; stroke-width:150000.000000; stroke-opacity:1; 
stroke-linecap:round; stroke-linejoin:round;">
<text x="103124000.000000" y="41956000.000000"
transform="scale(-1 1) translate(-206248000.000000 0)"
textLength="6625714.000000" font-size="800000.000000" lengthAdjust="spacingAndGlyphs"
text-anchor="middle" opacity="0">TEAM MEMBERS</text>
<g class="stroked-text"><desc>TEAM MEMBERS</desc>
<path d="M106509714 41327428
L106166857 41327428
" />
<path d="M106338285 41927428
L106338285 41327428
" />
<path d="M105966857 41613142
L105766857 41613142
" />
<path d="M105681142 41927428
L105966857 41927428
L105966857 41327428
L105681142 41327428
" />
<path d="M105452571 41756000
L105166857 41756000
" />
<path d="M105509714 41927428
L105309714 41327428
L105109714 41927428
" />
<path d="M104909714 41927428
L104909714 41327428
L104709714 41756000
L104509714 41327428
L104509714 41927428
" />
<path d="M103766857 41927428
L103766857 41327428
L103566857 41756000
L103366857 41327428
L103366857 41927428
" />
<path d="M103081142 41613142
L102881142 41613142
" />
<path d="M102795428 41927428
L103081142 41927428
L103081142 41327428
L102795428 41327428
" />
<path d="M102538285 41927428
L102538285 41327428
L102338285 41756000
L102138285 41327428
L102138285 41927428
" />
<path d="M101652571 41613142
L101566857 41641714
L101538285 41670285
L101509714 41727428
L101509714 41813142
L101538285 41870285
L101566857 41898857
L101624000 41927428
L101852571 41927428
L101852571 41327428
L101652571 41327428
L101595428 41356000
L101566857 41384571
L101538285 41441714
L101538285 41498857
L101566857 41556000
L101595428 41584571
L101652571 41613142
L101852571 41613142
" />
<path d="M101252571 41613142
L101052571 41613142
" />
<path d="M100966857 41927428
L101252571 41927428
L101252571 41327428
L100966857 41327428
" />
<path d="M100366857 41927428
L100566857 41641714
" />
<path d="M100709714 41927428
L100709714 41327428
L100481142 41327428
L100424000 41356000
L100395428 41384571
L100366857 41441714
L100366857 41527428
L100395428 41584571
L100424000 41613142
L100481142 41641714
L100709714 41641714
" />
<path d="M100138285 41898857
L100052571 41927428
L99909714 41927428
L99852571 41898857
L99824000 41870285
L99795428 41813142
L99795428 41756000
L99824000 41698857
L99852571 41670285
L99909714 41641714
L100024000 41613142
L100081142 41584571
L100109714 41556000
L100138285 41498857
L100138285 41441714
L100109714 41384571
L100081142 41356000
L100024000 41327428
L99881142 41327428
L99795428 41356000
" />
</g><text x="101092000.000000" y="87876000.000000"
transform="scale(-1 1) translate(-202184000.000000 0)"
textLength="5566905.000000" font-size="1333333.000000" lengthAdjust="spacingAndGlyphs"
text-anchor="middle" opacity="0">BAT 3.7</text>
<g class="stroked-text"><desc>BAT 3.7</desc>
<path d="M103401523 87304571
L103258666 87352190
L103211047 87399809
L103163428 87495047
L103163428 87637904
L103211047 87733142
L103258666 87780761
L103353904 87828380
L103734857 87828380
L103734857 86828380
L103401523 86828380
L103306285 86876000
L103258666 86923619
L103211047 87018857
L103211047 87114095
L103258666 87209333
L103306285 87256952
L103401523 87304571
L103734857 87304571
" />
<path d="M102782476 87542666
L102306285 87542666
" />
<path d="M102877714 87828380
L102544380 86828380
L102211047 87828380
" />
<path d="M102020571 86828380
L101449142 86828380
" />
<path d="M101734857 87828380
L101734857 86828380
" />
<path d="M100449142 86828380
L99830095 86828380
L100163428 87209333
L100020571 87209333
L99925333 87256952
L99877714 87304571
L99830095 87399809
L99830095 87637904
L99877714 87733142
L99925333 87780761
L100020571 87828380
L100306285 87828380
L100401523 87780761
L100449142 87733142
" />
<path d="M99401523 87733142
L99353904 87780761
L99401523 87828380
L99449142 87780761
L99401523 87733142
L99401523 87828380
" />
<path d="M99020571 86828380
L98353904 86828380
L98782476 87828380
" />
</g></g>
<g style="fill:#AAAAE0; fill-opacity:0.0; 
stroke:#AAAAE0; stroke-width:125000.000000; stroke-opacity:1; 
stroke-linecap:round; stroke-linejoin:round;">
<text x="99822000.000000" y="58924000.000000"
transform="scale(-1 1) translate(-199644000.000000 0)"
textLength="6043095.000000" font-size="666666.000000" lengthAdjust="spacingAndGlyphs"
text-anchor="middle" opacity="0">ATMEGA328PB-A</text>
<g class="stroked-text"><desc>ATMEGA328PB-A</desc>
<path d="M102845809 58757333
L102607714 58757333
" />
<path d="M102893428 58900190
L102726761 58400190
L102560095 58900190
" />
<path d="M102464857 58400190
L102179142 58400190
" />
<path d="M102322000 58900190
L102322000 58400190
" />
<path d="M102012476 58900190
L102012476 58400190
L101845809 58757333
L101679142 58400190
L101679142 58900190
" />
<path d="M101441047 58638285
L101274380 58638285
" />
<path d="M101202952 58900190
L101441047 58900190
L101441047 58400190
L101202952 58400190
" />
<path d="M100726761 58424000
L100774380 58400190
L100845809 58400190
L100917238 58424000
L100964857 58471619
L100988666 58519238
L101012476 58614476
L101012476 58685904
L100988666 58781142
L100964857 58828761
L100917238 58876380
L100845809 58900190
L100798190 58900190
L100726761 58876380
L100702952 58852571
L100702952 58685904
L100798190 58685904
" />
<path d="M100512476 58757333
L100274380 58757333
" />
<path d="M100560095 58900190
L100393428 58400190
L100226761 58900190
" />
<path d="M100107714 58400190
L99798190 58400190
L99964857 58590666
L99893428 58590666
L99845809 58614476
L99822000 58638285
L99798190 58685904
L99798190 58804952
L99822000 58852571
L99845809 58876380
L99893428 58900190
L100036285 58900190
L100083904 58876380
L100107714 58852571
" />
<path d="M99607714 58447809
L99583904 58424000
L99536285 58400190
L99417238 58400190
L99369619 58424000
L99345809 58447809
L99322000 58495428
L99322000 58543047
L99345809 58614476
L99631523 58900190
L99322000 58900190
" />
<path d="M99036285 58614476
L99083904 58590666
L99107714 58566857
L99131523 58519238
L99131523 58495428
L99107714 58447809
L99083904 58424000
L99036285 58400190
L98941047 58400190
L98893428 58424000
L98869619 58447809
L98845809 58495428
L98845809 58519238
L98869619 58566857
L98893428 58590666
L98941047 58614476
L99036285 58614476
L99083904 58638285
L99107714 58662095
L99131523 58709714
L99131523 58804952
L99107714 58852571
L99083904 58876380
L99036285 58900190
L98941047 58900190
L98893428 58876380
L98869619 58852571
L98845809 58804952
L98845809 58709714
L98869619 58662095
L98893428 58638285
L98941047 58614476
" />
<path d="M98631523 58900190
L98631523 58400190
L98441047 58400190
L98393428 58424000
L98369619 58447809
L98345809 58495428
L98345809 58566857
L98369619 58614476
L98393428 58638285
L98441047 58662095
L98631523 58662095
" />
<path d="M97964857 58638285
L97893428 58662095
L97869619 58685904
L97845809 58733523
L97845809 58804952
L97869619 58852571
L97893428 58876380
L97941047 58900190
L98131523 58900190
L98131523 58400190
L97964857 58400190
L97917238 58424000
L97893428 58447809
L97869619 58495428
L97869619 58543047
L97893428 58590666
L97917238 58614476
L97964857 58638285
L98131523 58638285
" />
<path d="M97631523 58709714
L97250571 58709714
" />
<path d="M97036285 58757333
L96798190 58757333
" />
<path d="M97083904 58900190
L96917238 58400190
L96750571 58900190
" />
</g></g>
<g style="fill:#AAAAE0; fill-opacity:0.0; 
stroke:#AAAAE0; stroke-width:100000.000000; stroke-opacity:1; 
stroke-linecap:round; stroke-linejoin:round;">
<text x="103378000.000000" y="46682000.000000"
transform="scale(-1 1) translate(-206756000.000000 0)"
textLength="4523214.000000" font-size="533333.000000" lengthAdjust="spacingAndGlyphs"
text-anchor="middle" opacity="0">GOURI KRISHNA</text>
<g class="stroked-text"><desc>GOURI KRISHNA</desc>
<path d="M105416095 46282000
L105454190 46262952
L105511333 46262952
L105568476 46282000
L105606571 46320095
L105625619 46358190
L105644666 46434380
L105644666 46491523
L105625619 46567714
L105606571 46605809
L105568476 46643904
L105511333 46662952
L105473238 46662952
L105416095 46643904
L105397047 46624857
L105397047 46491523
L105473238 46491523
" />
<path d="M105149428 46262952
L105073238 46262952
L105035142 46282000
L104997047 46320095
L104978000 46396285
L104978000 46529619
L104997047 46605809
L105035142 46643904
L105073238 46662952
L105149428 46662952
L105187523 46643904
L105225619 46605809
L105244666 46529619
L105244666 46396285
L105225619 46320095
L105187523 46282000
L105149428 46262952
" />
<path d="M104806571 46262952
L104806571 46586761
L104787523 46624857
L104768476 46643904
L104730380 46662952
L104654190 46662952
L104616095 46643904
L104597047 46624857
L104578000 46586761
L104578000 46262952
" />
<path d="M104158952 46662952
L104292285 46472476
" />
<path d="M104387523 46662952
L104387523 46262952
L104235142 46262952
L104197047 46282000
L104178000 46301047
L104158952 46339142
L104158952 46396285
L104178000 46434380
L104197047 46453428
L104235142 46472476
L104387523 46472476
" />
<path d="M103987523 46662952
L103987523 46262952
" />
<path d="M103492285 46662952
L103492285 46262952
" />
<path d="M103263714 46662952
L103435142 46434380
" />
<path d="M103263714 46262952
L103492285 46491523
" />
<path d="M102863714 46662952
L102997047 46472476
" />
<path d="M103092285 46662952
L103092285 46262952
L102939904 46262952
L102901809 46282000
L102882761 46301047
L102863714 46339142
L102863714 46396285
L102882761 46434380
L102901809 46453428
L102939904 46472476
L103092285 46472476
" />
<path d="M102692285 46662952
L102692285 46262952
" />
<path d="M102520857 46643904
L102463714 46662952
L102368476 46662952
L102330380 46643904
L102311333 46624857
L102292285 46586761
L102292285 46548666
L102311333 46510571
L102330380 46491523
L102368476 46472476
L102444666 46453428
L102482761 46434380
L102501809 46415333
L102520857 46377238
L102520857 46339142
L102501809 46301047
L102482761 46282000
L102444666 46262952
L102349428 46262952
L102292285 46282000
" />
<path d="M102120857 46662952
L102120857 46262952
" />
<path d="M102120857 46453428
L101892285 46453428
" />
<path d="M101892285 46662952
L101892285 46262952
" />
<path d="M101701809 46662952
L101701809 46262952
L101473238 46662952
L101473238 46262952
" />
<path d="M101301809 46548666
L101111333 46548666
" />
<path d="M101339904 46662952
L101206571 46262952
L101073238 46662952
" />
</g></g>
<g style="fill:#AAAAE0; fill-opacity:0.0; 
stroke:#AAAAE0; stroke-width:150000.000000; stroke-opacity:1; 
stroke-linecap:round; stroke-linejoin:round;">
<text x="101854000.000000" y="84828000.000000"
transform="scale(-1 1) translate(-203708000.000000 0)"
textLength="1108095.000000" font-size="1333333.000000" lengthAdjust="spacingAndGlyphs"
text-anchor="middle" opacity="0">-</text>
<g class="stroked-text"><desc>-</desc>
<path d="M102234952 84399428
L101473047 84399428
" />
</g></g>
<g style="fill:#AAAAE0; fill-opacity:0.0; 
stroke:#AAAAE0; stroke-width:100000.000000; stroke-opacity:1; 
stroke-linecap:round; stroke-linejoin:round;">
<text x="103378000.000000" y="43634000.000000"
transform="scale(-1 1) translate(-206756000.000000 0)"
textLength="4776429.000000" font-size="533333.000000" lengthAdjust="spacingAndGlyphs"
text-anchor="middle" opacity="0">ARUN JYOTHISH </text>
<g class="stroked-text"><desc>ARUN JYOTHISH </desc>
<path d="M105787523 43500666
L105597047 43500666
" />
<path d="M105825619 43614952
L105692285 43214952
L105558952 43614952
" />
<path d="M105197047 43614952
L105330380 43424476
" />
<path d="M105425619 43614952
L105425619 43214952
L105273238 43214952
L105235142 43234000
L105216095 43253047
L105197047 43291142
L105197047 43348285
L105216095 43386380
L105235142 43405428
L105273238 43424476
L105425619 43424476
" />
<path d="M105025619 43214952
L105025619 43538761
L105006571 43576857
L104987523 43595904
L104949428 43614952
L104873238 43614952
L104835142 43595904
L104816095 43576857
L104797047 43538761
L104797047 43214952
" />
<path d="M104606571 43614952
L104606571 43214952
L104378000 43614952
L104378000 43214952
" />
<path d="M103768476 43214952
L103768476 43500666
L103787523 43557809
L103825619 43595904
L103882761 43614952
L103920857 43614952
" />
<path d="M103501809 43424476
L103501809 43614952
" />
<path d="M103635142 43214952
L103501809 43424476
L103368476 43214952
" />
<path d="M103158952 43214952
L103082761 43214952
L103044666 43234000
L103006571 43272095
L102987523 43348285
L102987523 43481619
L103006571 43557809
L103044666 43595904
L103082761 43614952
L103158952 43614952
L103197047 43595904
L103235142 43557809
L103254190 43481619
L103254190 43348285
L103235142 43272095
L103197047 43234000
L103158952 43214952
" />
<path d="M102873238 43214952
L102644666 43214952
" />
<path d="M102758952 43614952
L102758952 43214952
" />
<path d="M102511333 43614952
L102511333 43214952
" />
<path d="M102511333 43405428
L102282761 43405428
" />
<path d="M102282761 43614952
L102282761 43214952
" />
<path d="M102092285 43614952
L102092285 43214952
" />
<path d="M101920857 43595904
L101863714 43614952
L101768476 43614952
L101730380 43595904
L101711333 43576857
L101692285 43538761
L101692285 43500666
L101711333 43462571
L101730380 43443523
L101768476 43424476
L101844666 43405428
L101882761 43386380
L101901809 43367333
L101920857 43329238
L101920857 43291142
L101901809 43253047
L101882761 43234000
L101844666 43214952
L101749428 43214952
L101692285 43234000
" />
<path d="M101520857 43614952
L101520857 43214952
" />
<path d="M101520857 43405428
L101292285 43405428
" />
<path d="M101292285 43614952
L101292285 43214952
" />
</g><text x="103378000.000000" y="44650000.000000"
transform="scale(-1 1) translate(-206756000.000000 0)"
textLength="5546190.000000" font-size="533333.000000" lengthAdjust="spacingAndGlyphs"
text-anchor="middle" opacity="0">AMIT TONY JOSEPH</text>
<g class="stroked-text"><desc>AMIT TONY JOSEPH</desc>
<path d="M106139904 44516666
L105949428 44516666
" />
<path d="M106178000 44630952
L106044666 44230952
L105911333 44630952
" />
<path d="M105778000 44630952
L105778000 44230952
L105644666 44516666
L105511333 44230952
L105511333 44630952
" />
<path d="M105320857 44630952
L105320857 44230952
" />
<path d="M105187523 44230952
L104958952 44230952
" />
<path d="M105073238 44630952
L105073238 44230952
" />
<path d="M104578000 44230952
L104349428 44230952
" />
<path d="M104463714 44630952
L104463714 44230952
" />
<path d="M104139904 44230952
L104063714 44230952
L104025619 44250000
L103987523 44288095
L103968476 44364285
L103968476 44497619
L103987523 44573809
L104025619 44611904
L104063714 44630952
L104139904 44630952
L104178000 44611904
L104216095 44573809
L104235142 44497619
L104235142 44364285
L104216095 44288095
L104178000 44250000
L104139904 44230952
" />
<path d="M103797047 44630952
L103797047 44230952
L103568476 44630952
L103568476 44230952
" />
<path d="M103301809 44440476
L103301809 44630952
" />
<path d="M103435142 44230952
L103301809 44440476
L103168476 44230952
" />
<path d="M102616095 44230952
L102616095 44516666
L102635142 44573809
L102673238 44611904
L102730380 44630952
L102768476 44630952
" />
<path d="M102349428 44230952
L102273238 44230952
L102235142 44250000
L102197047 44288095
L102178000 44364285
L102178000 44497619
L102197047 44573809
L102235142 44611904
L102273238 44630952
L102349428 44630952
L102387523 44611904
L102425619 44573809
L102444666 44497619
L102444666 44364285
L102425619 44288095
L102387523 44250000
L102349428 44230952
" />
<path d="M102025619 44611904
L101968476 44630952
L101873238 44630952
L101835142 44611904
L101816095 44592857
L101797047 44554761
L101797047 44516666
L101816095 44478571
L101835142 44459523
L101873238 44440476
L101949428 44421428
L101987523 44402380
L102006571 44383333
L102025619 44345238
L102025619 44307142
L102006571 44269047
L101987523 44250000
L101949428 44230952
L101854190 44230952
L101797047 44250000
" />
<path d="M101625619 44421428
L101492285 44421428
" />
<path d="M101435142 44630952
L101625619 44630952
L101625619 44230952
L101435142 44230952
" />
<path d="M101263714 44630952
L101263714 44230952
L101111333 44230952
L101073238 44250000
L101054190 44269047
L101035142 44307142
L101035142 44364285
L101054190 44402380
L101073238 44421428
L101111333 44440476
L101263714 44440476
" />
<path d="M100863714 44630952
L100863714 44230952
" />
<path d="M100863714 44421428
L100635142 44421428
" />
<path d="M100635142 44630952
L100635142 44230952
" />
</g><text x="103378000.000000" y="45666000.000000"
transform="scale(-1 1) translate(-206756000.000000 0)"
textLength="5450952.000000" font-size="533333.000000" lengthAdjust="spacingAndGlyphs"
text-anchor="middle" opacity="0">BHARATH SRINIVAS</text>
<g class="stroked-text"><desc>BHARATH SRINIVAS</desc>
<path d="M105939904 45437428
L105882761 45456476
L105863714 45475523
L105844666 45513619
L105844666 45570761
L105863714 45608857
L105882761 45627904
L105920857 45646952
L106073238 45646952
L106073238 45246952
L105939904 45246952
L105901809 45266000
L105882761 45285047
L105863714 45323142
L105863714 45361238
L105882761 45399333
L105901809 45418380
L105939904 45437428
L106073238 45437428
" />
<path d="M105673238 45646952
L105673238 45246952
" />
<path d="M105673238 45437428
L105444666 45437428
" />
<path d="M105444666 45646952
L105444666 45246952
" />
<path d="M105273238 45532666
L105082761 45532666
" />
<path d="M105311333 45646952
L105178000 45246952
L105044666 45646952
" />
<path d="M104682761 45646952
L104816095 45456476
" />
<path d="M104911333 45646952
L104911333 45246952
L104758952 45246952
L104720857 45266000
L104701809 45285047
L104682761 45323142
L104682761 45380285
L104701809 45418380
L104720857 45437428
L104758952 45456476
L104911333 45456476
" />
<path d="M104530380 45532666
L104339904 45532666
" />
<path d="M104568476 45646952
L104435142 45246952
L104301809 45646952
" />
<path d="M104225619 45246952
L103997047 45246952
" />
<path d="M104111333 45646952
L104111333 45246952
" />
<path d="M103863714 45646952
L103863714 45246952
" />
<path d="M103863714 45437428
L103635142 45437428
" />
<path d="M103635142 45646952
L103635142 45246952
" />
<path d="M103158952 45627904
L103101809 45646952
L103006571 45646952
L102968476 45627904
L102949428 45608857
L102930380 45570761
L102930380 45532666
L102949428 45494571
L102968476 45475523
L103006571 45456476
L103082761 45437428
L103120857 45418380
L103139904 45399333
L103158952 45361238
L103158952 45323142
L103139904 45285047
L103120857 45266000
L103082761 45246952
L102987523 45246952
L102930380 45266000
" />
<path d="M102530380 45646952
L102663714 45456476
" />
<path d="M102758952 45646952
L102758952 45246952
L102606571 45246952
L102568476 45266000
L102549428 45285047
L102530380 45323142
L102530380 45380285
L102549428 45418380
L102568476 45437428
L102606571 45456476
L102758952 45456476
" />
<path d="M102358952 45646952
L102358952 45246952
" />
<path d="M102168476 45646952
L102168476 45246952
L101939904 45646952
L101939904 45246952
" />
<path d="M101749428 45646952
L101749428 45246952
" />
<path d="M101616095 45246952
L101482761 45646952
L101349428 45246952
" />
<path d="M101235142 45532666
L101044666 45532666
" />
<path d="M101273238 45646952
L101139904 45246952
L101006571 45646952
" />
<path d="M100892285 45627904
L100835142 45646952
L100739904 45646952
L100701809 45627904
L100682761 45608857
L100663714 45570761
L100663714 45532666
L100682761 45494571
L100701809 45475523
L100739904 45456476
L100816095 45437428
L100854190 45418380
L100873238 45399333
L100892285 45361238
L100892285 45323142
L100873238 45285047
L100854190 45266000
L100816095 45246952
L100720857 45246952
L100663714 45266000
" />
</g></g>
<g style="fill:#AAAAE0; fill-opacity:0.0; 
stroke:#AAAAE0; stroke-width:375000.000000; stroke-opacity:1; 
stroke-linecap:round; stroke-linejoin:round;">
<g transform="rotate(-270.000000 85598000.000000 53594000.000000)">
<text x="85598000.000000" y="54344000.000000"
transform="scale(-1 1) translate(-171196000.000000 0)"
textLength="27298571.000000" font-size="2000000.000000" lengthAdjust="spacingAndGlyphs"
text-anchor="middle" opacity="0">PORTABLE ECG MACHINE</text>
</g>
<g class="stroked-text"><desc>PORTABLE ECG MACHINE</desc>
<path d="M84919428 66951142
L86419428 66951142
L86419428 66379714
L86348000 66236857
L86276571 66165428
L86133714 66094000
L85919428 66094000
L85776571 66165428
L85705142 66236857
L85633714 66379714
L85633714 66951142
" />
<path d="M86419428 65165428
L86419428 64879714
L86348000 64736857
L86205142 64594000
L85919428 64522571
L85419428 64522571
L85133714 64594000
L84990857 64736857
L84919428 64879714
L84919428 65165428
L84990857 65308285
L85133714 65451142
L85419428 65522571
L85919428 65522571
L86205142 65451142
L86348000 65308285
L86419428 65165428
" />
<path d="M84919428 63022571
L85633714 63522571
" />
<path d="M84919428 63879714
L86419428 63879714
L86419428 63308285
L86348000 63165428
L86276571 63094000
L86133714 63022571
L85919428 63022571
L85776571 63094000
L85705142 63165428
L85633714 63308285
L85633714 63879714
" />
<path d="M86419428 62594000
L86419428 61736857
" />
<path d="M84919428 62165428
L86419428 62165428
" />
<path d="M85348000 61308285
L85348000 60594000
" />
<path d="M84919428 61451142
L86419428 60951142
L84919428 60451142
" />
<path d="M85705142 59451142
L85633714 59236857
L85562285 59165428
L85419428 59094000
L85205142 59094000
L85062285 59165428
L84990857 59236857
L84919428 59379714
L84919428 59951142
L86419428 59951142
L86419428 59451142
L86348000 59308285
L86276571 59236857
L86133714 59165428
L85990857 59165428
L85848000 59236857
L85776571 59308285
L85705142 59451142
L85705142 59951142
" />
<path d="M84919428 57736857
L84919428 58451142
L86419428 58451142
" />
<path d="M85705142 57236857
L85705142 56736857
" />
<path d="M84919428 56522571
L84919428 57236857
L86419428 57236857
L86419428 56522571
" />
<path d="M85705142 54736857
L85705142 54236857
" />
<path d="M84919428 54022571
L84919428 54736857
L86419428 54736857
L86419428 54022571
" />
<path d="M85062285 52522571
L84990857 52594000
L84919428 52808285
L84919428 52951142
L84990857 53165428
L85133714 53308285
L85276571 53379714
L85562285 53451142
L85776571 53451142
L86062285 53379714
L86205142 53308285
L86348000 53165428
L86419428 52951142
L86419428 52808285
L86348000 52594000
L86276571 52522571
" />
<path d="M86348000 51094000
L86419428 51236857
L86419428 51451142
L86348000 51665428
L86205142 51808285
L86062285 51879714
L85776571 51951142
L85562285 51951142
L85276571 51879714
L85133714 51808285
L84990857 51665428
L84919428 51451142
L84919428 51308285
L84990857 51094000
L85062285 51022571
L85562285 51022571
L85562285 51308285
" />
<path d="M84919428 49236857
L86419428 49236857
L85348000 48736857
L86419428 48236857
L84919428 48236857
" />
<path d="M85348000 47594000
L85348000 46879714
" />
<path d="M84919428 47736857
L86419428 47236857
L84919428 46736857
" />
<path d="M85062285 45379714
L84990857 45451142
L84919428 45665428
L84919428 45808285
L84990857 46022571
L85133714 46165428
L85276571 46236857
L85562285 46308285
L85776571 46308285
L86062285 46236857
L86205142 46165428
L86348000 46022571
L86419428 45808285
L86419428 45665428
L86348000 45451142
L86276571 45379714
" />
<path d="M84919428 44736857
L86419428 44736857
" />
<path d="M85705142 44736857
L85705142 43879714
" />
<path d="M84919428 43879714
L86419428 43879714
" />
<path d="M84919428 43165428
L86419428 43165428
" />
<path d="M84919428 42451142
L86419428 42451142
L84919428 41594000
L86419428 41594000
" />
<path d="M85705142 40879714
L85705142 40379714
" />
<path d="M84919428 40165428
L84919428 40879714
L86419428 40879714
L86419428 40165428
" />
</g></g>
<g style="fill:#AAAAE0; fill-opacity:0.0; 
stroke:#AAAAE0; stroke-width:200000.000000; stroke-opacity:1; 
stroke-linecap:round; stroke-linejoin:round;">
<text x="93980000.000000" y="68318000.000000"
transform="scale(-1 1) translate(-187960000.000000 0)"
textLength="274405.000000" font-size="1333333.000000" lengthAdjust="spacingAndGlyphs"
text-anchor="middle" opacity="0">*</text>
<g class="stroked-text"><desc>*</desc>
<path d="M93980000 67270380
L93980000 67508476
" />
<path d="M94218095 67413238
L93980000 67508476
L93741904 67413238
" />
<path d="M94122857 67698952
L93980000 67508476
L93837142 67698952
" />
</g></g>
<g style="fill:#AAAAE0; fill-opacity:0.0; 
stroke:#AAAAE0; stroke-width:150000.000000; stroke-opacity:1; 
stroke-linecap:round; stroke-linejoin:round;">
<text x="104902000.000000" y="59690000.000000"
transform="scale(-1 1) translate(-209804000.000000 0)"
textLength="1454286.000000" font-size="1333333.000000" lengthAdjust="spacingAndGlyphs"
text-anchor="middle" opacity="0">J5</text>
<g class="stroked-text"><desc>J5</desc>
<path d="M105235333 58642380
L105235333 59356666
L105282952 59499523
L105378190 59594761
L105521047 59642380
L105616285 59642380
" />
<path d="M104282952 58642380
L104759142 58642380
L104806761 59118571
L104759142 59070952
L104663904 59023333
L104425809 59023333
L104330571 59070952
L104282952 59118571
L104235333 59213809
L104235333 59451904
L104282952 59547142
L104330571 59594761
L104425809 59642380
L104663904 59642380
L104759142 59594761
L104806761 59547142
" />
</g></g>
<g style="fill:#AAAAE0; fill-opacity:0.0; 
stroke:#AAAAE0; stroke-width:125000.000000; stroke-opacity:1; 
stroke-linecap:round; stroke-linejoin:round;">
<g transform="rotate(-90.000000 92767000.000000 83312000.000000)">
<text x="92767000.000000" y="83562000.000000"
transform="scale(-1 1) translate(-185534000.000000 0)"
textLength="662143.000000" font-size="666666.000000" lengthAdjust="spacingAndGlyphs"
text-anchor="middle" opacity="0">J4</text>
</g>
<g class="stroked-text"><desc>J4</desc>
<path d="M92493190 83145333
L92850333 83145333
L92921761 83121523
L92969380 83073904
L92993190 83002476
L92993190 82954857
" />
<path d="M92659857 83597714
L92993190 83597714
" />
<path d="M92469380 83478666
L92826523 83359619
L92826523 83669142
" />
</g><g transform="rotate(-90.000000 86712000.000000 63246000.000000)">
<text x="86712000.000000" y="63496000.000000"
transform="scale(-1 1) translate(-173424000.000000 0)"
textLength="742262.000000" font-size="666666.000000" lengthAdjust="spacingAndGlyphs"
text-anchor="middle" opacity="0">Y1</text>
</g>
<g class="stroked-text"><desc>Y1</desc>
<path d="M86700095 63007904
L86938190 63007904
" />
<path d="M86438190 62841238
L86700095 63007904
L86438190 63174571
" />
<path d="M86938190 63603142
L86938190 63317428
" />
<path d="M86938190 63460285
L86438190 63460285
L86509619 63412666
L86557238 63365047
L86581047 63317428
" />
</g><text x="87227000.000000" y="75156000.000000"
transform="scale(-1 1) translate(-174454000.000000 0)"
textLength="694643.000000" font-size="666666.000000" lengthAdjust="spacingAndGlyphs"
text-anchor="middle" opacity="0">J1</text>
<g class="stroked-text"><desc>J1</desc>
<path d="M87393666 74632190
L87393666 74989333
L87417476 75060761
L87465095 75108380
L87536523 75132190
L87584142 75132190
" />
<path d="M86893666 75132190
L87179380 75132190
" />
<path d="M87036523 75132190
L87036523 74632190
L87084142 74703619
L87131761 74751238
L87179380 74775047
" />
</g><text x="107442000.000000" y="69338000.000000"
transform="scale(-1 1) translate(-214884000.000000 0)"
textLength="1289881.000000" font-size="666666.000000" lengthAdjust="spacingAndGlyphs"
text-anchor="middle" opacity="0">C12</text>
<g class="stroked-text"><desc>C12</desc>
<path d="M107763428 69266571
L107787238 69290380
L107858666 69314190
L107906285 69314190
L107977714 69290380
L108025333 69242761
L108049142 69195142
L108072952 69099904
L108072952 69028476
L108049142 68933238
L108025333 68885619
L107977714 68838000
L107906285 68814190
L107858666 68814190
L107787238 68838000
L107763428 68861809
" />
<path d="M107287238 69314190
L107572952 69314190
" />
<path d="M107430095 69314190
L107430095 68814190
L107477714 68885619
L107525333 68933238
L107572952 68957047
" />
<path d="M107096761 68861809
L107072952 68838000
L107025333 68814190
L106906285 68814190
L106858666 68838000
L106834857 68861809
L106811047 68909428
L106811047 68957047
L106834857 69028476
L107120571 69314190
L106811047 69314190
" />
</g><text x="94742000.000000" y="73054000.000000"
transform="scale(-1 1) translate(-189484000.000000 0)"
textLength="1289881.000000" font-size="666666.000000" lengthAdjust="spacingAndGlyphs"
text-anchor="middle" opacity="0">R11</text>
<g class="stroked-text"><desc>R11</desc>
<path d="M95063428 73030190
L95230095 72792095
" />
<path d="M95349142 73030190
L95349142 72530190
L95158666 72530190
L95111047 72554000
L95087238 72577809
L95063428 72625428
L95063428 72696857
L95087238 72744476
L95111047 72768285
L95158666 72792095
L95349142 72792095
" />
<path d="M94587238 73030190
L94872952 73030190
" />
<path d="M94730095 73030190
L94730095 72530190
L94777714 72601619
L94825333 72649238
L94872952 72673047
" />
<path d="M94111047 73030190
L94396761 73030190
" />
<path d="M94253904 73030190
L94253904 72530190
L94301523 72601619
L94349142 72649238
L94396761 72673047
" />
</g><text x="91440000.000000" y="68830000.000000"
transform="scale(-1 1) translate(-182880000.000000 0)"
textLength="1289881.000000" font-size="666666.000000" lengthAdjust="spacingAndGlyphs"
text-anchor="middle" opacity="0">C13</text>
<g class="stroked-text"><desc>C13</desc>
<path d="M91761428 68758571
L91785238 68782380
L91856666 68806190
L91904285 68806190
L91975714 68782380
L92023333 68734761
L92047142 68687142
L92070952 68591904
L92070952 68520476
L92047142 68425238
L92023333 68377619
L91975714 68330000
L91904285 68306190
L91856666 68306190
L91785238 68330000
L91761428 68353809
" />
<path d="M91285238 68806190
L91570952 68806190
" />
<path d="M91428095 68806190
L91428095 68306190
L91475714 68377619
L91523333 68425238
L91570952 68449047
" />
<path d="M91118571 68306190
L90809047 68306190
L90975714 68496666
L90904285 68496666
L90856666 68520476
L90832857 68544285
L90809047 68591904
L90809047 68710952
L90832857 68758571
L90856666 68782380
L90904285 68806190
L91047142 68806190
L91094761 68782380
L91118571 68758571
" />
</g><text x="99822000.000000" y="71070000.000000"
transform="scale(-1 1) translate(-199644000.000000 0)"
textLength="837500.000000" font-size="666666.000000" lengthAdjust="spacingAndGlyphs"
text-anchor="middle" opacity="0">U3</text>
<g class="stroked-text"><desc>U3</desc>
<path d="M100202952 70546190
L100202952 70950952
L100179142 70998571
L100155333 71022380
L100107714 71046190
L100012476 71046190
L99964857 71022380
L99941047 70998571
L99917238 70950952
L99917238 70546190
" />
<path d="M99726761 70546190
L99417238 70546190
L99583904 70736666
L99512476 70736666
L99464857 70760476
L99441047 70784285
L99417238 70831904
L99417238 70950952
L99441047 70998571
L99464857 71022380
L99512476 71046190
L99655333 71046190
L99702952 71022380
L99726761 70998571
" />
</g><text x="92964000.000000" y="57124000.000000"
transform="scale(-1 1) translate(-185928000.000000 0)"
textLength="1289881.000000" font-size="666666.000000" lengthAdjust="spacingAndGlyphs"
text-anchor="middle" opacity="0">C14</text>
<g class="stroked-text"><desc>C14</desc>
<path d="M93285428 57052571
L93309238 57076380
L93380666 57100190
L93428285 57100190
L93499714 57076380
L93547333 57028761
L93571142 56981142
L93594952 56885904
L93594952 56814476
L93571142 56719238
L93547333 56671619
L93499714 56624000
L93428285 56600190
L93380666 56600190
L93309238 56624000
L93285428 56647809
" />
<path d="M92809238 57100190
L93094952 57100190
" />
<path d="M92952095 57100190
L92952095 56600190
L92999714 56671619
L93047333 56719238
L93094952 56743047
" />
<path d="M92380666 56766857
L92380666 57100190
" />
<path d="M92499714 56576380
L92618761 56933523
L92309238 56933523
" />
</g><g transform="rotate(-90.000000 80600000.000000 30000000.000000)">
<text x="80600000.000000" y="30250000.000000"
transform="scale(-1 1) translate(-161200000.000000 0)"
textLength="694643.000000" font-size="666666.000000" lengthAdjust="spacingAndGlyphs"
text-anchor="middle" opacity="0">J2</text>
</g>
<g class="stroked-text"><desc>J2</desc>
<path d="M80326190 29833333
L80683333 29833333
L80754761 29809523
L80802380 29761904
L80826190 29690476
L80826190 29642857
" />
<path d="M80373809 30047619
L80350000 30071428
L80326190 30119047
L80326190 30238095
L80350000 30285714
L80373809 30309523
L80421428 30333333
L80469047 30333333
L80540476 30309523
L80826190 30023809
L80826190 30333333
" />
</g></g>
<g style="fill:#AAAAE0; fill-opacity:0.0; 
stroke:#AAAAE0; stroke-width:120000.000000; stroke-opacity:1; 
stroke-linecap:round; stroke-linejoin:round;">
<path d="M89022000 78612000
L87022000 78612000
" />
<path d="M83222000 88012000
L83222000 78612000
" />
<path d="M85122000 78612000
L83222000 78612000
" />
<path d="M85122000 88012000
L83222000 88012000
" />
<path d="M89022000 88012000
L87022000 88012000
" />
<path d="M87712000 66446000
L87712000 59896000
" />
<path d="M87712000 59896000
L91612000 59896000
" />
<path d="M91612000 59896000
L91612000 66446000
" />
<path d="M89162000 73196000
L87162000 73196000
" />
<path d="M89162000 72616000
L89162000 72196000
" />
<path d="M89162000 71196000
L87162000 71196000
" />
<path d="M87162000 70616000
L89162000 70616000
" />
<path d="M87162000 73966000
L87162000 68846000
" />
<path d="M86320215 69906000
L87162000 69906000
" />
<path d="M89162000 72196000
L87162000 72196000
" />
<path d="M87162000 72616000
L89162000 72616000
" />
<path d="M87162000 68846000
L86246493 68846000
" />
<path d="M87162000 69616000
L89162000 69616000
" />
<path d="M86320215 71906000
L87162000 71906000
" />
<path d="M86537000 72906000
L87162000 72906000
" />
<path d="M87162000 73556000
L89162000 73556000
" />
<path d="M87162000 73616000
L89162000 73616000
" />
<path d="M86537000 73966000
L87162000 73966000
" />
<path d="M89162000 71616000
L89162000 71196000
" />
<path d="M89162000 69616000
L89162000 69196000
" />
<path d="M85167000 74091000
L85852000 74091000
" />
<path d="M89162000 70616000
L89162000 70196000
" />
<path d="M89162000 73616000
L89162000 73196000
" />
<path d="M89162000 69196000
L87162000 69196000
" />
<path d="M87162000 71616000
L89162000 71616000
" />
<path d="M87162000 73436000
L89162000 73436000
" />
<path d="M86320215 70906000
L87162000 70906000
" />
<path d="M89162000 70196000
L87162000 70196000
" />
<path d="M85167000 73406000
L85167000 74091000
" />
<path d="M87162000 73316000
L89162000 73316000
" />
<path d="M108162000 66970580
L108162000 66689420
" />
<path d="M107142000 66970580
L107142000 66689420
" />
<path d="M94504742 71896500
L94979258 71896500
" />
<path d="M94504742 70851500
L94979258 70851500
" />
<path d="M89152000 68439420
L89152000 68720580
" />
<path d="M90172000 68439420
L90172000 68720580
" />
</g>
<g style="fill:#AAAAE0; fill-opacity:0.0; 
stroke:#AAAAE0; stroke-width:150000.000000; stroke-opacity:1; 
stroke-linecap:round; stroke-linejoin:round;">
<path d="M103447000 68395000
L103122000 68395000
" />
<path d="M103447000 68395000
L103447000 68070000
" />
<path d="M96197000 68170000
L94772000 68170000
" />
<path d="M96197000 68395000
L96197000 68170000
" />
<path d="M96197000 61145000
L96522000 61145000
" />
<path d="M96197000 61145000
L96197000 61470000
" />
<path d="M96197000 68395000
L96522000 68395000
" />
<path d="M103447000 61145000
L103447000 61470000
" />
<path d="M103447000 61145000
L103122000 61145000
" />
</g>
<g style="fill:#AAAAE0; fill-opacity:0.0; 
stroke:#AAAAE0; stroke-width:120000.000000; stroke-opacity:1; 
stroke-linecap:round; stroke-linejoin:round;">
<path d="M94164000 57874000
L94164000 59474000
" />
<path d="M94164000 59474000
L91764000 59474000
" />
<path d="M91764000 57874000
L94164000 57874000
" />
<path d="M99100000 33100000
L99100000 32350000
" />
<path d="M99100000 26900000
L97900000 26900000
" />
<path d="M84400000 27400000
L81900000 27400000
" />
<path d="M88200000 26900000
L88200000 24900000
" />
<path d="M84400000 33100000
L87600000 33100000
" />
<path d="M90200000 33100000
L99100000 33100000
" />
<path d="M94700000 26900000
L88200000 26900000
" />
<path d="M84400000 32600000
L84400000 33100000
" />
<path d="M85600000 26900000
L85600000 24900000
" />
<path d="M84400000 26900000
L84400000 27400000
" />
<path d="M81900000 32600000
L84400000 32600000
" />
<path d="M99100000 29150000
L99100000 26900000
" />
<path d="M85600000 26900000
L84400000 26900000
" />
<path d="M81900000 27400000
L81900000 32600000
" />
<g >
</g>
<g >
</g>
<g >
</g>
<g >
</g>
<g >
</g>
<g >
</g>
<g >
</g>
<g >
</g>
<g >
</g>
<g >
</g>
<g >
</g>
<g >
</g>
<g >
</g>
<g >
</g>
<g >
</g>
<g >
</g>
<g >
</g>
<g >
</g>
<g >
</g>
<g >
</g>
<g >
</g>
<g >
</g>
<g >
</g>
<g >
</g>
<g >
</g>
<g >
</g>
<g >
</g>
<g >
</g>
<g >
</g>
<g >
</g>
<g >
</g>
<g >
</g>
<g >
</g>
<g >
</g>
<g >
</g>
<g >
</g>
<g >
</g>
<g >
</g>
<g >
</g>
<g >
</g>
<g >
</g>
<g >
</g>
<g >
</g>
<g >
</g>
<g >
</g>
<g >
</g>
<g >
</g>
<g >
</g>
<g >
</g>
<g >
</g>
<g >
</g>
<g >
</g>
<g >
</g>
<g >
</g>
<g >
</g>
<g >
</g>
<g >
</g>
<g >
</g>
<g >
</g>
<g >
</g>
<g >
</g>
<g >
</g>
<g >
</g>
<g >
</g>
<g >
</g>
<g >
</g>
<g >
</g>
<g >
</g>
<g >
</g>
<g >
</g>
<g >
</g>
<g >
</g>
<g >
</g>
<g >
</g>
<g >
</g>
<g >
</g>
<g >
</g>
<g >
</g>
<g >
</g>
<g >
</g>
<g >
</g>
<g >
</g>
<g >
</g>
<g >
</g>
<g >
</g>
<g >
</g>
<g >
</g>
</g>
<g style="fill:#000000; fill-opacity:0.0; 
stroke:#000000; stroke-width:120000.000000; stroke-opacity:1; 
stroke-linecap:round; stroke-linejoin:round;">
</g>
<g style="fill:#A0A0A0; fill-opacity:0.0; 
stroke:#A0A0A0; stroke-width:120000.000000; stroke-opacity:1; 
stroke-linecap:round; stroke-linejoin:round;">
</g>
<g style="fill:#A0A0A0; fill-opacity:0.0; 
stroke:#A0A0A0; stroke-width:100000.000000; stroke-opacity:1; 
stroke-linecap:round; stroke-linejoin:round;">
<path d="M84000000 51000000
L84000000 87250000
" />
<path d="M86250000 89250000
L107250000 89250000
" />
<path d="M86249995.952408 24500025.652080 A1947879.000000 1947879.000000 0.0 0 0 84000000.300447 26499999.988284" />
<path d="M109500000 26500000
L109500000 87000000
" />
<path d="M84000012.301620 87249999.799538 A2043759.000000 2043759.000000 0.0 0 0 86249999.992833 89249999.929435" />
<path d="M107249999.988171 89250000.459231 A2194228.000000 2194228.000000 0.0 0 0 109500000.459231 86999999.988171" />
<path d="M109500012.699437 26500000.006940 A2012913.000000 2012913.000000 0.0 0 0 107249999.967068 24499999.722359" />
<path d="M86250000 24500000
L107250000 24500000
" />
<path d="M84000000 51000000
L84000000 26500000
" />
<g >
</g>
<g >
</g>
<g >
</g>
<g >
</g>
<g >
</g>
<g >
</g>
<g >
</g>
<g >
</g>
<g >
</g>
<g >
</g>
<g >
</g>
<g >
</g>
<g >
</g>
<g >
</g>
<g >
</g>
<g >
</g>
<g >
</g>
<g >
</g>
<g >
</g>
<g >
</g>
<g >
</g>
<g >
</g>
<g >
</g>
<g >
</g>
<g >
</g>
<g >
</g>
<g >
</g>
<g >
</g>
<g >
</g>
<g >
</g>
<g >
</g>
<g >
</g>
<g >
</g>
<g >
</g>
<g >
</g>
<g >
</g>
<g >
</g>
<g >
</g>
<g >
</g>
<g >
</g>
<g >
</g>
<g >
</g>
<g >
</g>
<g >
</g>
<g >
</g>
<g >
</g>
<g >
</g>
<g >
</g>
<g >
</g>
<g >
</g>
<g >
</g>
<g >
</g>
<g >
</g>
<g >
</g>
<g >
</g>
<g >
</g>
<g >
</g>
<g >
</g>
<g >
</g>
<g >
</g>
<g >
</g>
<g >
</g>
<g >
</g>
<g >
</g>
<g >
</g>
<g >
</g>
<g >
</g>
<g >
</g>
<g >
</g>
<g >
</g>
<g >
</g>
<g >
</g>
<g >
</g>
<g >
</g>
<g >
</g>
<g >
</g>
<g >
</g>
<g >
</g>
<g >
</g>
<g >
</g>
<g >
</g>
<g >
</g>
<g >
</g>
<g >
</g>
<g >
</g>
<g >
</g>
<g >
</g>
</g> 
</svg>
