%TF.GenerationSoftware,KiCad,Pcbnew,(6.0.5)*%
%TF.CreationDate,2022-06-05T00:42:26+05:30*%
%TF.ProjectId,PORTABLE_ECG_MACHINE,504f5254-4142-44c4-955f-4543475f4d41,rev-1*%
%TF.SameCoordinates,Original*%
%TF.FileFunction,Legend,Top*%
%TF.FilePolarity,Positive*%
%FSLAX46Y46*%
G04 Gerber Fmt 4.6, Leading zero omitted, Abs format (unit mm)*
G04 Created by KiCad (PCBNEW (6.0.5)) date 2022-06-05 00:42:26*
%MOMM*%
%LPD*%
G01*
G04 APERTURE LIST*
%ADD10C,0.175000*%
%ADD11C,0.150000*%
%ADD12C,0.100000*%
%ADD13C,0.120000*%
%ADD14C,0.127000*%
%ADD15C,0.200000*%
%ADD16C,0.250000*%
G04 APERTURE END LIST*
D10*
X99925013Y-74631544D02*
X100058346Y-74631544D01*
X100125013Y-74664878D01*
X100191680Y-74731544D01*
X100225013Y-74864878D01*
X100225013Y-75098211D01*
X100191680Y-75231544D01*
X100125013Y-75298211D01*
X100058346Y-75331544D01*
X99925013Y-75331544D01*
X99858346Y-75298211D01*
X99791680Y-75231544D01*
X99758346Y-75098211D01*
X99758346Y-74864878D01*
X99791680Y-74731544D01*
X99858346Y-74664878D01*
X99925013Y-74631544D01*
X100858346Y-75331544D02*
X100525013Y-75331544D01*
X100525013Y-74631544D01*
X101091680Y-74964878D02*
X101325013Y-74964878D01*
X101425013Y-75331544D02*
X101091680Y-75331544D01*
X101091680Y-74631544D01*
X101425013Y-74631544D01*
X101725013Y-75331544D02*
X101725013Y-74631544D01*
X101891680Y-74631544D01*
X101991680Y-74664878D01*
X102058346Y-74731544D01*
X102091680Y-74798211D01*
X102125013Y-74931544D01*
X102125013Y-75031544D01*
X102091680Y-75164878D01*
X102058346Y-75231544D01*
X101991680Y-75298211D01*
X101891680Y-75331544D01*
X101725013Y-75331544D01*
X103325013Y-75331544D02*
X102925013Y-75331544D01*
X103125013Y-75331544D02*
X103125013Y-74631544D01*
X103058346Y-74731544D01*
X102991680Y-74798211D01*
X102925013Y-74831544D01*
X103591680Y-74698211D02*
X103625013Y-74664878D01*
X103691680Y-74631544D01*
X103858346Y-74631544D01*
X103925013Y-74664878D01*
X103958346Y-74698211D01*
X103991680Y-74764878D01*
X103991680Y-74831544D01*
X103958346Y-74931544D01*
X103558346Y-75331544D01*
X103991680Y-75331544D01*
X104391680Y-74931544D02*
X104325013Y-74898211D01*
X104291680Y-74864878D01*
X104258346Y-74798211D01*
X104258346Y-74764878D01*
X104291680Y-74698211D01*
X104325013Y-74664878D01*
X104391680Y-74631544D01*
X104525013Y-74631544D01*
X104591680Y-74664878D01*
X104625013Y-74698211D01*
X104658346Y-74764878D01*
X104658346Y-74798211D01*
X104625013Y-74864878D01*
X104591680Y-74898211D01*
X104525013Y-74931544D01*
X104391680Y-74931544D01*
X104325013Y-74964878D01*
X104291680Y-74998211D01*
X104258346Y-75064878D01*
X104258346Y-75198211D01*
X104291680Y-75264878D01*
X104325013Y-75298211D01*
X104391680Y-75331544D01*
X104525013Y-75331544D01*
X104591680Y-75298211D01*
X104625013Y-75264878D01*
X104658346Y-75198211D01*
X104658346Y-75064878D01*
X104625013Y-74998211D01*
X104591680Y-74964878D01*
X104525013Y-74931544D01*
X105058346Y-74631544D02*
X105058346Y-74798211D01*
X104891680Y-74731544D02*
X105058346Y-74798211D01*
X105225013Y-74731544D01*
X104958346Y-74931544D02*
X105058346Y-74798211D01*
X105158346Y-74931544D01*
X105791680Y-74631544D02*
X105658346Y-74631544D01*
X105591680Y-74664878D01*
X105558346Y-74698211D01*
X105491680Y-74798211D01*
X105458346Y-74931544D01*
X105458346Y-75198211D01*
X105491680Y-75264878D01*
X105525013Y-75298211D01*
X105591680Y-75331544D01*
X105725013Y-75331544D01*
X105791680Y-75298211D01*
X105825013Y-75264878D01*
X105858346Y-75198211D01*
X105858346Y-75031544D01*
X105825013Y-74964878D01*
X105791680Y-74931544D01*
X105725013Y-74898211D01*
X105591680Y-74898211D01*
X105525013Y-74931544D01*
X105491680Y-74964878D01*
X105458346Y-75031544D01*
X106458346Y-74864878D02*
X106458346Y-75331544D01*
X106291680Y-74598211D02*
X106125013Y-75098211D01*
X106558346Y-75098211D01*
D11*
X74202060Y-81547180D02*
X73630632Y-81547180D01*
X73916346Y-81547180D02*
X73916346Y-80547180D01*
X73821108Y-80690038D01*
X73725870Y-80785276D01*
X73630632Y-80832895D01*
X74535394Y-80547180D02*
X75202060Y-80547180D01*
X74773489Y-81547180D01*
X75583013Y-81451942D02*
X75630632Y-81499561D01*
X75583013Y-81547180D01*
X75535394Y-81499561D01*
X75583013Y-81451942D01*
X75583013Y-81547180D01*
X75963965Y-80547180D02*
X76630632Y-80547180D01*
X76202060Y-81547180D01*
X77154441Y-80975752D02*
X77059203Y-80928133D01*
X77011584Y-80880514D01*
X76963965Y-80785276D01*
X76963965Y-80737657D01*
X77011584Y-80642419D01*
X77059203Y-80594800D01*
X77154441Y-80547180D01*
X77344918Y-80547180D01*
X77440156Y-80594800D01*
X77487775Y-80642419D01*
X77535394Y-80737657D01*
X77535394Y-80785276D01*
X77487775Y-80880514D01*
X77440156Y-80928133D01*
X77344918Y-80975752D01*
X77154441Y-80975752D01*
X77059203Y-81023371D01*
X77011584Y-81070990D01*
X76963965Y-81166228D01*
X76963965Y-81356704D01*
X77011584Y-81451942D01*
X77059203Y-81499561D01*
X77154441Y-81547180D01*
X77344918Y-81547180D01*
X77440156Y-81499561D01*
X77487775Y-81451942D01*
X77535394Y-81356704D01*
X77535394Y-81166228D01*
X77487775Y-81070990D01*
X77440156Y-81023371D01*
X77344918Y-80975752D01*
X78154441Y-80547180D02*
X78249680Y-80547180D01*
X78344918Y-80594800D01*
X78392537Y-80642419D01*
X78440156Y-80737657D01*
X78487775Y-80928133D01*
X78487775Y-81166228D01*
X78440156Y-81356704D01*
X78392537Y-81451942D01*
X78344918Y-81499561D01*
X78249680Y-81547180D01*
X78154441Y-81547180D01*
X78059203Y-81499561D01*
X78011584Y-81451942D01*
X77963965Y-81356704D01*
X77916346Y-81166228D01*
X77916346Y-80928133D01*
X77963965Y-80737657D01*
X78011584Y-80642419D01*
X78059203Y-80594800D01*
X78154441Y-80547180D01*
X79106822Y-80547180D02*
X79202060Y-80547180D01*
X79297299Y-80594800D01*
X79344918Y-80642419D01*
X79392537Y-80737657D01*
X79440156Y-80928133D01*
X79440156Y-81166228D01*
X79392537Y-81356704D01*
X79344918Y-81451942D01*
X79297299Y-81499561D01*
X79202060Y-81547180D01*
X79106822Y-81547180D01*
X79011584Y-81499561D01*
X78963965Y-81451942D01*
X78916346Y-81356704D01*
X78868727Y-81166228D01*
X78868727Y-80928133D01*
X78916346Y-80737657D01*
X78963965Y-80642419D01*
X79011584Y-80594800D01*
X79106822Y-80547180D01*
X80630632Y-81547180D02*
X80630632Y-80880514D01*
X80630632Y-80975752D02*
X80678251Y-80928133D01*
X80773489Y-80880514D01*
X80916346Y-80880514D01*
X81011584Y-80928133D01*
X81059203Y-81023371D01*
X81059203Y-81547180D01*
X81059203Y-81023371D02*
X81106822Y-80928133D01*
X81202060Y-80880514D01*
X81344918Y-80880514D01*
X81440156Y-80928133D01*
X81487775Y-81023371D01*
X81487775Y-81547180D01*
X81963965Y-81547180D02*
X81963965Y-80880514D01*
X81963965Y-80975752D02*
X82011584Y-80928133D01*
X82106822Y-80880514D01*
X82249680Y-80880514D01*
X82344918Y-80928133D01*
X82392537Y-81023371D01*
X82392537Y-81547180D01*
X82392537Y-81023371D02*
X82440156Y-80928133D01*
X82535394Y-80880514D01*
X82678251Y-80880514D01*
X82773489Y-80928133D01*
X82821108Y-81023371D01*
X82821108Y-81547180D01*
X87139680Y-74616800D02*
X87139680Y-82831220D01*
X69359680Y-74616800D02*
X69359680Y-82831220D01*
X87139680Y-82244800D02*
X69359680Y-82244800D01*
X87139680Y-82244800D02*
X69359680Y-82244800D01*
X87139680Y-82244800D02*
X86013176Y-81658379D01*
X87139680Y-82244800D02*
X86013176Y-82831221D01*
X69359680Y-82244800D02*
X70486184Y-82831221D01*
X69359680Y-82244800D02*
X70486184Y-81658379D01*
X97728822Y-84357180D02*
X97538346Y-84357180D01*
X97443108Y-84404800D01*
X97395489Y-84452419D01*
X97300251Y-84595276D01*
X97252632Y-84785752D01*
X97252632Y-85166704D01*
X97300251Y-85261942D01*
X97347870Y-85309561D01*
X97443108Y-85357180D01*
X97633584Y-85357180D01*
X97728822Y-85309561D01*
X97776441Y-85261942D01*
X97824060Y-85166704D01*
X97824060Y-84928609D01*
X97776441Y-84833371D01*
X97728822Y-84785752D01*
X97633584Y-84738133D01*
X97443108Y-84738133D01*
X97347870Y-84785752D01*
X97300251Y-84833371D01*
X97252632Y-84928609D01*
X98728822Y-84357180D02*
X98252632Y-84357180D01*
X98205013Y-84833371D01*
X98252632Y-84785752D01*
X98347870Y-84738133D01*
X98585965Y-84738133D01*
X98681203Y-84785752D01*
X98728822Y-84833371D01*
X98776441Y-84928609D01*
X98776441Y-85166704D01*
X98728822Y-85261942D01*
X98681203Y-85309561D01*
X98585965Y-85357180D01*
X98347870Y-85357180D01*
X98252632Y-85309561D01*
X98205013Y-85261942D01*
X99205013Y-85261942D02*
X99252632Y-85309561D01*
X99205013Y-85357180D01*
X99157394Y-85309561D01*
X99205013Y-85261942D01*
X99205013Y-85357180D01*
X99871680Y-84357180D02*
X99966918Y-84357180D01*
X100062156Y-84404800D01*
X100109775Y-84452419D01*
X100157394Y-84547657D01*
X100205013Y-84738133D01*
X100205013Y-84976228D01*
X100157394Y-85166704D01*
X100109775Y-85261942D01*
X100062156Y-85309561D01*
X99966918Y-85357180D01*
X99871680Y-85357180D01*
X99776441Y-85309561D01*
X99728822Y-85261942D01*
X99681203Y-85166704D01*
X99633584Y-84976228D01*
X99633584Y-84738133D01*
X99681203Y-84547657D01*
X99728822Y-84452419D01*
X99776441Y-84404800D01*
X99871680Y-84357180D01*
X100585965Y-84452419D02*
X100633584Y-84404800D01*
X100728822Y-84357180D01*
X100966918Y-84357180D01*
X101062156Y-84404800D01*
X101109775Y-84452419D01*
X101157394Y-84547657D01*
X101157394Y-84642895D01*
X101109775Y-84785752D01*
X100538346Y-85357180D01*
X101157394Y-85357180D01*
X102014537Y-84690514D02*
X102014537Y-85357180D01*
X101776441Y-84309561D02*
X101538346Y-85023847D01*
X102157394Y-85023847D01*
X102728822Y-84357180D02*
X102824060Y-84357180D01*
X102919299Y-84404800D01*
X102966918Y-84452419D01*
X103014537Y-84547657D01*
X103062156Y-84738133D01*
X103062156Y-84976228D01*
X103014537Y-85166704D01*
X102966918Y-85261942D01*
X102919299Y-85309561D01*
X102824060Y-85357180D01*
X102728822Y-85357180D01*
X102633584Y-85309561D01*
X102585965Y-85261942D01*
X102538346Y-85166704D01*
X102490727Y-84976228D01*
X102490727Y-84738133D01*
X102538346Y-84547657D01*
X102585965Y-84452419D01*
X102633584Y-84404800D01*
X102728822Y-84357180D01*
X104252632Y-85357180D02*
X104252632Y-84690514D01*
X104252632Y-84785752D02*
X104300251Y-84738133D01*
X104395489Y-84690514D01*
X104538346Y-84690514D01*
X104633584Y-84738133D01*
X104681203Y-84833371D01*
X104681203Y-85357180D01*
X104681203Y-84833371D02*
X104728822Y-84738133D01*
X104824060Y-84690514D01*
X104966918Y-84690514D01*
X105062156Y-84738133D01*
X105109775Y-84833371D01*
X105109775Y-85357180D01*
X105585965Y-85357180D02*
X105585965Y-84690514D01*
X105585965Y-84785752D02*
X105633584Y-84738133D01*
X105728822Y-84690514D01*
X105871680Y-84690514D01*
X105966918Y-84738133D01*
X106014537Y-84833371D01*
X106014537Y-85357180D01*
X106014537Y-84833371D02*
X106062156Y-84738133D01*
X106157394Y-84690514D01*
X106300251Y-84690514D01*
X106395489Y-84738133D01*
X106443108Y-84833371D01*
X106443108Y-85357180D01*
X134383680Y-70806800D02*
X134383680Y-86641220D01*
X69359680Y-70806800D02*
X69359680Y-86641220D01*
X134383680Y-86054800D02*
X69359680Y-86054800D01*
X134383680Y-86054800D02*
X69359680Y-86054800D01*
X134383680Y-86054800D02*
X133257176Y-85468379D01*
X134383680Y-86054800D02*
X133257176Y-86641221D01*
X69359680Y-86054800D02*
X70486184Y-86641221D01*
X69359680Y-86054800D02*
X70486184Y-85468379D01*
X143195299Y-65400847D02*
X143147680Y-65353228D01*
X143100060Y-65257990D01*
X143100060Y-65019895D01*
X143147680Y-64924657D01*
X143195299Y-64877038D01*
X143290537Y-64829419D01*
X143385775Y-64829419D01*
X143528632Y-64877038D01*
X144100060Y-65448466D01*
X144100060Y-64829419D01*
X143100060Y-63924657D02*
X143100060Y-64400847D01*
X143576251Y-64448466D01*
X143528632Y-64400847D01*
X143481013Y-64305609D01*
X143481013Y-64067514D01*
X143528632Y-63972276D01*
X143576251Y-63924657D01*
X143671489Y-63877038D01*
X143909584Y-63877038D01*
X144004822Y-63924657D01*
X144052441Y-63972276D01*
X144100060Y-64067514D01*
X144100060Y-64305609D01*
X144052441Y-64400847D01*
X144004822Y-64448466D01*
X144004822Y-63448466D02*
X144052441Y-63400847D01*
X144100060Y-63448466D01*
X144052441Y-63496085D01*
X144004822Y-63448466D01*
X144100060Y-63448466D01*
X143100060Y-62543704D02*
X143100060Y-62734180D01*
X143147680Y-62829419D01*
X143195299Y-62877038D01*
X143338156Y-62972276D01*
X143528632Y-63019895D01*
X143909584Y-63019895D01*
X144004822Y-62972276D01*
X144052441Y-62924657D01*
X144100060Y-62829419D01*
X144100060Y-62638942D01*
X144052441Y-62543704D01*
X144004822Y-62496085D01*
X143909584Y-62448466D01*
X143671489Y-62448466D01*
X143576251Y-62496085D01*
X143528632Y-62543704D01*
X143481013Y-62638942D01*
X143481013Y-62829419D01*
X143528632Y-62924657D01*
X143576251Y-62972276D01*
X143671489Y-63019895D01*
X143100060Y-61543704D02*
X143100060Y-62019895D01*
X143576251Y-62067514D01*
X143528632Y-62019895D01*
X143481013Y-61924657D01*
X143481013Y-61686561D01*
X143528632Y-61591323D01*
X143576251Y-61543704D01*
X143671489Y-61496085D01*
X143909584Y-61496085D01*
X144004822Y-61543704D01*
X144052441Y-61591323D01*
X144100060Y-61686561D01*
X144100060Y-61924657D01*
X144052441Y-62019895D01*
X144004822Y-62067514D01*
X143433394Y-60638942D02*
X144100060Y-60638942D01*
X143052441Y-60877038D02*
X143766727Y-61115133D01*
X143766727Y-60496085D01*
X143100060Y-59924657D02*
X143100060Y-59829419D01*
X143147680Y-59734180D01*
X143195299Y-59686561D01*
X143290537Y-59638942D01*
X143481013Y-59591323D01*
X143719108Y-59591323D01*
X143909584Y-59638942D01*
X144004822Y-59686561D01*
X144052441Y-59734180D01*
X144100060Y-59829419D01*
X144100060Y-59924657D01*
X144052441Y-60019895D01*
X144004822Y-60067514D01*
X143909584Y-60115133D01*
X143719108Y-60162752D01*
X143481013Y-60162752D01*
X143290537Y-60115133D01*
X143195299Y-60067514D01*
X143147680Y-60019895D01*
X143100060Y-59924657D01*
X144100060Y-58400847D02*
X143433394Y-58400847D01*
X143528632Y-58400847D02*
X143481013Y-58353228D01*
X143433394Y-58257990D01*
X143433394Y-58115133D01*
X143481013Y-58019895D01*
X143576251Y-57972276D01*
X144100060Y-57972276D01*
X143576251Y-57972276D02*
X143481013Y-57924657D01*
X143433394Y-57829419D01*
X143433394Y-57686561D01*
X143481013Y-57591323D01*
X143576251Y-57543704D01*
X144100060Y-57543704D01*
X144100060Y-57067514D02*
X143433394Y-57067514D01*
X143528632Y-57067514D02*
X143481013Y-57019895D01*
X143433394Y-56924657D01*
X143433394Y-56781800D01*
X143481013Y-56686561D01*
X143576251Y-56638942D01*
X144100060Y-56638942D01*
X143576251Y-56638942D02*
X143481013Y-56591323D01*
X143433394Y-56496085D01*
X143433394Y-56353228D01*
X143481013Y-56257990D01*
X143576251Y-56210371D01*
X144100060Y-56210371D01*
X136153680Y-73608800D02*
X145384100Y-73608800D01*
X136153680Y-47954800D02*
X145384100Y-47954800D01*
X144797680Y-73608800D02*
X144797680Y-47954800D01*
X144797680Y-73608800D02*
X144797680Y-47954800D01*
X144797680Y-73608800D02*
X145384101Y-72482296D01*
X144797680Y-73608800D02*
X144211259Y-72482296D01*
X144797680Y-47954800D02*
X144211259Y-49081304D01*
X144797680Y-47954800D02*
X145384101Y-49081304D01*
X71916060Y-32017180D02*
X71344632Y-32017180D01*
X71630346Y-32017180D02*
X71630346Y-31017180D01*
X71535108Y-31160038D01*
X71439870Y-31255276D01*
X71344632Y-31302895D01*
X72249394Y-31017180D02*
X72868441Y-31017180D01*
X72535108Y-31398133D01*
X72677965Y-31398133D01*
X72773203Y-31445752D01*
X72820822Y-31493371D01*
X72868441Y-31588609D01*
X72868441Y-31826704D01*
X72820822Y-31921942D01*
X72773203Y-31969561D01*
X72677965Y-32017180D01*
X72392251Y-32017180D01*
X72297013Y-31969561D01*
X72249394Y-31921942D01*
X73297013Y-31921942D02*
X73344632Y-31969561D01*
X73297013Y-32017180D01*
X73249394Y-31969561D01*
X73297013Y-31921942D01*
X73297013Y-32017180D01*
X73725584Y-31112419D02*
X73773203Y-31064800D01*
X73868441Y-31017180D01*
X74106537Y-31017180D01*
X74201775Y-31064800D01*
X74249394Y-31112419D01*
X74297013Y-31207657D01*
X74297013Y-31302895D01*
X74249394Y-31445752D01*
X73677965Y-32017180D01*
X74297013Y-32017180D01*
X74916060Y-31017180D02*
X75011299Y-31017180D01*
X75106537Y-31064800D01*
X75154156Y-31112419D01*
X75201775Y-31207657D01*
X75249394Y-31398133D01*
X75249394Y-31636228D01*
X75201775Y-31826704D01*
X75154156Y-31921942D01*
X75106537Y-31969561D01*
X75011299Y-32017180D01*
X74916060Y-32017180D01*
X74820822Y-31969561D01*
X74773203Y-31921942D01*
X74725584Y-31826704D01*
X74677965Y-31636228D01*
X74677965Y-31398133D01*
X74725584Y-31207657D01*
X74773203Y-31112419D01*
X74820822Y-31064800D01*
X74916060Y-31017180D01*
X75820822Y-31445752D02*
X75725584Y-31398133D01*
X75677965Y-31350514D01*
X75630346Y-31255276D01*
X75630346Y-31207657D01*
X75677965Y-31112419D01*
X75725584Y-31064800D01*
X75820822Y-31017180D01*
X76011299Y-31017180D01*
X76106537Y-31064800D01*
X76154156Y-31112419D01*
X76201775Y-31207657D01*
X76201775Y-31255276D01*
X76154156Y-31350514D01*
X76106537Y-31398133D01*
X76011299Y-31445752D01*
X75820822Y-31445752D01*
X75725584Y-31493371D01*
X75677965Y-31540990D01*
X75630346Y-31636228D01*
X75630346Y-31826704D01*
X75677965Y-31921942D01*
X75725584Y-31969561D01*
X75820822Y-32017180D01*
X76011299Y-32017180D01*
X76106537Y-31969561D01*
X76154156Y-31921942D01*
X76201775Y-31826704D01*
X76201775Y-31636228D01*
X76154156Y-31540990D01*
X76106537Y-31493371D01*
X76011299Y-31445752D01*
X76820822Y-31017180D02*
X76916060Y-31017180D01*
X77011299Y-31064800D01*
X77058918Y-31112419D01*
X77106537Y-31207657D01*
X77154156Y-31398133D01*
X77154156Y-31636228D01*
X77106537Y-31826704D01*
X77058918Y-31921942D01*
X77011299Y-31969561D01*
X76916060Y-32017180D01*
X76820822Y-32017180D01*
X76725584Y-31969561D01*
X76677965Y-31921942D01*
X76630346Y-31826704D01*
X76582727Y-31636228D01*
X76582727Y-31398133D01*
X76630346Y-31207657D01*
X76677965Y-31112419D01*
X76725584Y-31064800D01*
X76820822Y-31017180D01*
X78344632Y-32017180D02*
X78344632Y-31350514D01*
X78344632Y-31445752D02*
X78392251Y-31398133D01*
X78487489Y-31350514D01*
X78630346Y-31350514D01*
X78725584Y-31398133D01*
X78773203Y-31493371D01*
X78773203Y-32017180D01*
X78773203Y-31493371D02*
X78820822Y-31398133D01*
X78916060Y-31350514D01*
X79058918Y-31350514D01*
X79154156Y-31398133D01*
X79201775Y-31493371D01*
X79201775Y-32017180D01*
X79677965Y-32017180D02*
X79677965Y-31350514D01*
X79677965Y-31445752D02*
X79725584Y-31398133D01*
X79820822Y-31350514D01*
X79963680Y-31350514D01*
X80058918Y-31398133D01*
X80106537Y-31493371D01*
X80106537Y-32017180D01*
X80106537Y-31493371D02*
X80154156Y-31398133D01*
X80249394Y-31350514D01*
X80392251Y-31350514D01*
X80487489Y-31398133D01*
X80535108Y-31493371D01*
X80535108Y-32017180D01*
X82567680Y-45422800D02*
X82567680Y-32128380D01*
X69359680Y-45422800D02*
X69359680Y-32128380D01*
X82567680Y-32714800D02*
X69359680Y-32714800D01*
X82567680Y-32714800D02*
X69359680Y-32714800D01*
X82567680Y-32714800D02*
X81441176Y-32128379D01*
X82567680Y-32714800D02*
X81441176Y-33301221D01*
X69359680Y-32714800D02*
X70486184Y-33301221D01*
X69359680Y-32714800D02*
X70486184Y-32128379D01*
X125256060Y-81039180D02*
X124684632Y-81039180D01*
X124970346Y-81039180D02*
X124970346Y-80039180D01*
X124875108Y-80182038D01*
X124779870Y-80277276D01*
X124684632Y-80324895D01*
X125875108Y-80039180D02*
X125970346Y-80039180D01*
X126065584Y-80086800D01*
X126113203Y-80134419D01*
X126160822Y-80229657D01*
X126208441Y-80420133D01*
X126208441Y-80658228D01*
X126160822Y-80848704D01*
X126113203Y-80943942D01*
X126065584Y-80991561D01*
X125970346Y-81039180D01*
X125875108Y-81039180D01*
X125779870Y-80991561D01*
X125732251Y-80943942D01*
X125684632Y-80848704D01*
X125637013Y-80658228D01*
X125637013Y-80420133D01*
X125684632Y-80229657D01*
X125732251Y-80134419D01*
X125779870Y-80086800D01*
X125875108Y-80039180D01*
X126637013Y-80943942D02*
X126684632Y-80991561D01*
X126637013Y-81039180D01*
X126589394Y-80991561D01*
X126637013Y-80943942D01*
X126637013Y-81039180D01*
X127637013Y-81039180D02*
X127065584Y-81039180D01*
X127351299Y-81039180D02*
X127351299Y-80039180D01*
X127256060Y-80182038D01*
X127160822Y-80277276D01*
X127065584Y-80324895D01*
X128494156Y-80039180D02*
X128303680Y-80039180D01*
X128208441Y-80086800D01*
X128160822Y-80134419D01*
X128065584Y-80277276D01*
X128017965Y-80467752D01*
X128017965Y-80848704D01*
X128065584Y-80943942D01*
X128113203Y-80991561D01*
X128208441Y-81039180D01*
X128398918Y-81039180D01*
X128494156Y-80991561D01*
X128541775Y-80943942D01*
X128589394Y-80848704D01*
X128589394Y-80610609D01*
X128541775Y-80515371D01*
X128494156Y-80467752D01*
X128398918Y-80420133D01*
X128208441Y-80420133D01*
X128113203Y-80467752D01*
X128065584Y-80515371D01*
X128017965Y-80610609D01*
X129208441Y-80039180D02*
X129303680Y-80039180D01*
X129398918Y-80086800D01*
X129446537Y-80134419D01*
X129494156Y-80229657D01*
X129541775Y-80420133D01*
X129541775Y-80658228D01*
X129494156Y-80848704D01*
X129446537Y-80943942D01*
X129398918Y-80991561D01*
X129303680Y-81039180D01*
X129208441Y-81039180D01*
X129113203Y-80991561D01*
X129065584Y-80943942D01*
X129017965Y-80848704D01*
X128970346Y-80658228D01*
X128970346Y-80420133D01*
X129017965Y-80229657D01*
X129065584Y-80134419D01*
X129113203Y-80086800D01*
X129208441Y-80039180D01*
X130160822Y-80039180D02*
X130256060Y-80039180D01*
X130351299Y-80086800D01*
X130398918Y-80134419D01*
X130446537Y-80229657D01*
X130494156Y-80420133D01*
X130494156Y-80658228D01*
X130446537Y-80848704D01*
X130398918Y-80943942D01*
X130351299Y-80991561D01*
X130256060Y-81039180D01*
X130160822Y-81039180D01*
X130065584Y-80991561D01*
X130017965Y-80943942D01*
X129970346Y-80848704D01*
X129922727Y-80658228D01*
X129922727Y-80420133D01*
X129970346Y-80229657D01*
X130017965Y-80134419D01*
X130065584Y-80086800D01*
X130160822Y-80039180D01*
X131684632Y-81039180D02*
X131684632Y-80372514D01*
X131684632Y-80467752D02*
X131732251Y-80420133D01*
X131827489Y-80372514D01*
X131970346Y-80372514D01*
X132065584Y-80420133D01*
X132113203Y-80515371D01*
X132113203Y-81039180D01*
X132113203Y-80515371D02*
X132160822Y-80420133D01*
X132256060Y-80372514D01*
X132398918Y-80372514D01*
X132494156Y-80420133D01*
X132541775Y-80515371D01*
X132541775Y-81039180D01*
X133017965Y-81039180D02*
X133017965Y-80372514D01*
X133017965Y-80467752D02*
X133065584Y-80420133D01*
X133160822Y-80372514D01*
X133303680Y-80372514D01*
X133398918Y-80420133D01*
X133446537Y-80515371D01*
X133446537Y-81039180D01*
X133446537Y-80515371D02*
X133494156Y-80420133D01*
X133589394Y-80372514D01*
X133732251Y-80372514D01*
X133827489Y-80420133D01*
X133875108Y-80515371D01*
X133875108Y-81039180D01*
X124223680Y-74108800D02*
X124223680Y-82323220D01*
X134383680Y-74108800D02*
X134383680Y-82323220D01*
X124223680Y-81736800D02*
X134383680Y-81736800D01*
X124223680Y-81736800D02*
X134383680Y-81736800D01*
X124223680Y-81736800D02*
X125350184Y-82323221D01*
X124223680Y-81736800D02*
X125350184Y-81150379D01*
X134383680Y-81736800D02*
X133257176Y-81150379D01*
X134383680Y-81736800D02*
X133257176Y-82323221D01*
X123478060Y-34811180D02*
X122906632Y-34811180D01*
X123192346Y-34811180D02*
X123192346Y-33811180D01*
X123097108Y-33954038D01*
X123001870Y-34049276D01*
X122906632Y-34096895D01*
X123811394Y-33811180D02*
X124430441Y-33811180D01*
X124097108Y-34192133D01*
X124239965Y-34192133D01*
X124335203Y-34239752D01*
X124382822Y-34287371D01*
X124430441Y-34382609D01*
X124430441Y-34620704D01*
X124382822Y-34715942D01*
X124335203Y-34763561D01*
X124239965Y-34811180D01*
X123954251Y-34811180D01*
X123859013Y-34763561D01*
X123811394Y-34715942D01*
X124859013Y-34715942D02*
X124906632Y-34763561D01*
X124859013Y-34811180D01*
X124811394Y-34763561D01*
X124859013Y-34715942D01*
X124859013Y-34811180D01*
X125239965Y-33811180D02*
X125906632Y-33811180D01*
X125478060Y-34811180D01*
X126811394Y-34811180D02*
X126239965Y-34811180D01*
X126525680Y-34811180D02*
X126525680Y-33811180D01*
X126430441Y-33954038D01*
X126335203Y-34049276D01*
X126239965Y-34096895D01*
X127668537Y-33811180D02*
X127478060Y-33811180D01*
X127382822Y-33858800D01*
X127335203Y-33906419D01*
X127239965Y-34049276D01*
X127192346Y-34239752D01*
X127192346Y-34620704D01*
X127239965Y-34715942D01*
X127287584Y-34763561D01*
X127382822Y-34811180D01*
X127573299Y-34811180D01*
X127668537Y-34763561D01*
X127716156Y-34715942D01*
X127763775Y-34620704D01*
X127763775Y-34382609D01*
X127716156Y-34287371D01*
X127668537Y-34239752D01*
X127573299Y-34192133D01*
X127382822Y-34192133D01*
X127287584Y-34239752D01*
X127239965Y-34287371D01*
X127192346Y-34382609D01*
X128382822Y-33811180D02*
X128478060Y-33811180D01*
X128573299Y-33858800D01*
X128620918Y-33906419D01*
X128668537Y-34001657D01*
X128716156Y-34192133D01*
X128716156Y-34430228D01*
X128668537Y-34620704D01*
X128620918Y-34715942D01*
X128573299Y-34763561D01*
X128478060Y-34811180D01*
X128382822Y-34811180D01*
X128287584Y-34763561D01*
X128239965Y-34715942D01*
X128192346Y-34620704D01*
X128144727Y-34430228D01*
X128144727Y-34192133D01*
X128192346Y-34001657D01*
X128239965Y-33906419D01*
X128287584Y-33858800D01*
X128382822Y-33811180D01*
X129906632Y-34811180D02*
X129906632Y-34144514D01*
X129906632Y-34239752D02*
X129954251Y-34192133D01*
X130049489Y-34144514D01*
X130192346Y-34144514D01*
X130287584Y-34192133D01*
X130335203Y-34287371D01*
X130335203Y-34811180D01*
X130335203Y-34287371D02*
X130382822Y-34192133D01*
X130478060Y-34144514D01*
X130620918Y-34144514D01*
X130716156Y-34192133D01*
X130763775Y-34287371D01*
X130763775Y-34811180D01*
X131239965Y-34811180D02*
X131239965Y-34144514D01*
X131239965Y-34239752D02*
X131287584Y-34192133D01*
X131382822Y-34144514D01*
X131525680Y-34144514D01*
X131620918Y-34192133D01*
X131668537Y-34287371D01*
X131668537Y-34811180D01*
X131668537Y-34287371D02*
X131716156Y-34192133D01*
X131811394Y-34144514D01*
X131954251Y-34144514D01*
X132049489Y-34192133D01*
X132097108Y-34287371D01*
X132097108Y-34811180D01*
X120667680Y-47708800D02*
X120667680Y-34922380D01*
X134383680Y-47708800D02*
X134383680Y-34922380D01*
X120667680Y-35508800D02*
X134383680Y-35508800D01*
X120667680Y-35508800D02*
X134383680Y-35508800D01*
X120667680Y-35508800D02*
X121794184Y-36095221D01*
X120667680Y-35508800D02*
X121794184Y-34922379D01*
X134383680Y-35508800D02*
X133257176Y-34922379D01*
X134383680Y-35508800D02*
X133257176Y-36095221D01*
X153609299Y-65527847D02*
X153561680Y-65480228D01*
X153514060Y-65384990D01*
X153514060Y-65146895D01*
X153561680Y-65051657D01*
X153609299Y-65004038D01*
X153704537Y-64956419D01*
X153799775Y-64956419D01*
X153942632Y-65004038D01*
X154514060Y-65575466D01*
X154514060Y-64956419D01*
X153514060Y-64337371D02*
X153514060Y-64242133D01*
X153561680Y-64146895D01*
X153609299Y-64099276D01*
X153704537Y-64051657D01*
X153895013Y-64004038D01*
X154133108Y-64004038D01*
X154323584Y-64051657D01*
X154418822Y-64099276D01*
X154466441Y-64146895D01*
X154514060Y-64242133D01*
X154514060Y-64337371D01*
X154466441Y-64432609D01*
X154418822Y-64480228D01*
X154323584Y-64527847D01*
X154133108Y-64575466D01*
X153895013Y-64575466D01*
X153704537Y-64527847D01*
X153609299Y-64480228D01*
X153561680Y-64432609D01*
X153514060Y-64337371D01*
X154418822Y-63575466D02*
X154466441Y-63527847D01*
X154514060Y-63575466D01*
X154466441Y-63623085D01*
X154418822Y-63575466D01*
X154514060Y-63575466D01*
X153942632Y-62956419D02*
X153895013Y-63051657D01*
X153847394Y-63099276D01*
X153752156Y-63146895D01*
X153704537Y-63146895D01*
X153609299Y-63099276D01*
X153561680Y-63051657D01*
X153514060Y-62956419D01*
X153514060Y-62765942D01*
X153561680Y-62670704D01*
X153609299Y-62623085D01*
X153704537Y-62575466D01*
X153752156Y-62575466D01*
X153847394Y-62623085D01*
X153895013Y-62670704D01*
X153942632Y-62765942D01*
X153942632Y-62956419D01*
X153990251Y-63051657D01*
X154037870Y-63099276D01*
X154133108Y-63146895D01*
X154323584Y-63146895D01*
X154418822Y-63099276D01*
X154466441Y-63051657D01*
X154514060Y-62956419D01*
X154514060Y-62765942D01*
X154466441Y-62670704D01*
X154418822Y-62623085D01*
X154323584Y-62575466D01*
X154133108Y-62575466D01*
X154037870Y-62623085D01*
X153990251Y-62670704D01*
X153942632Y-62765942D01*
X153609299Y-62194514D02*
X153561680Y-62146895D01*
X153514060Y-62051657D01*
X153514060Y-61813561D01*
X153561680Y-61718323D01*
X153609299Y-61670704D01*
X153704537Y-61623085D01*
X153799775Y-61623085D01*
X153942632Y-61670704D01*
X154514060Y-62242133D01*
X154514060Y-61623085D01*
X153942632Y-61051657D02*
X153895013Y-61146895D01*
X153847394Y-61194514D01*
X153752156Y-61242133D01*
X153704537Y-61242133D01*
X153609299Y-61194514D01*
X153561680Y-61146895D01*
X153514060Y-61051657D01*
X153514060Y-60861180D01*
X153561680Y-60765942D01*
X153609299Y-60718323D01*
X153704537Y-60670704D01*
X153752156Y-60670704D01*
X153847394Y-60718323D01*
X153895013Y-60765942D01*
X153942632Y-60861180D01*
X153942632Y-61051657D01*
X153990251Y-61146895D01*
X154037870Y-61194514D01*
X154133108Y-61242133D01*
X154323584Y-61242133D01*
X154418822Y-61194514D01*
X154466441Y-61146895D01*
X154514060Y-61051657D01*
X154514060Y-60861180D01*
X154466441Y-60765942D01*
X154418822Y-60718323D01*
X154323584Y-60670704D01*
X154133108Y-60670704D01*
X154037870Y-60718323D01*
X153990251Y-60765942D01*
X153942632Y-60861180D01*
X153514060Y-60051657D02*
X153514060Y-59956419D01*
X153561680Y-59861180D01*
X153609299Y-59813561D01*
X153704537Y-59765942D01*
X153895013Y-59718323D01*
X154133108Y-59718323D01*
X154323584Y-59765942D01*
X154418822Y-59813561D01*
X154466441Y-59861180D01*
X154514060Y-59956419D01*
X154514060Y-60051657D01*
X154466441Y-60146895D01*
X154418822Y-60194514D01*
X154323584Y-60242133D01*
X154133108Y-60289752D01*
X153895013Y-60289752D01*
X153704537Y-60242133D01*
X153609299Y-60194514D01*
X153561680Y-60146895D01*
X153514060Y-60051657D01*
X154514060Y-58527847D02*
X153847394Y-58527847D01*
X153942632Y-58527847D02*
X153895013Y-58480228D01*
X153847394Y-58384990D01*
X153847394Y-58242133D01*
X153895013Y-58146895D01*
X153990251Y-58099276D01*
X154514060Y-58099276D01*
X153990251Y-58099276D02*
X153895013Y-58051657D01*
X153847394Y-57956419D01*
X153847394Y-57813561D01*
X153895013Y-57718323D01*
X153990251Y-57670704D01*
X154514060Y-57670704D01*
X154514060Y-57194514D02*
X153847394Y-57194514D01*
X153942632Y-57194514D02*
X153895013Y-57146895D01*
X153847394Y-57051657D01*
X153847394Y-56908800D01*
X153895013Y-56813561D01*
X153990251Y-56765942D01*
X154514060Y-56765942D01*
X153990251Y-56765942D02*
X153895013Y-56718323D01*
X153847394Y-56623085D01*
X153847394Y-56480228D01*
X153895013Y-56384990D01*
X153990251Y-56337371D01*
X154514060Y-56337371D01*
X139963680Y-71322800D02*
X155798100Y-71322800D01*
X155798100Y-50494800D02*
X136407680Y-50494800D01*
X155211680Y-71322800D02*
X155211680Y-50494800D01*
X155211680Y-71322800D02*
X155211680Y-50494800D01*
X155211680Y-71322800D02*
X155798101Y-70196296D01*
X155211680Y-71322800D02*
X154625259Y-70196296D01*
X155211680Y-50494800D02*
X154625259Y-51621304D01*
X155211680Y-50494800D02*
X155798101Y-51621304D01*
X60645299Y-65146847D02*
X60597680Y-65099228D01*
X60550060Y-65003990D01*
X60550060Y-64765895D01*
X60597680Y-64670657D01*
X60645299Y-64623038D01*
X60740537Y-64575419D01*
X60835775Y-64575419D01*
X60978632Y-64623038D01*
X61550060Y-65194466D01*
X61550060Y-64575419D01*
X61550060Y-63623038D02*
X61550060Y-64194466D01*
X61550060Y-63908752D02*
X60550060Y-63908752D01*
X60692918Y-64003990D01*
X60788156Y-64099228D01*
X60835775Y-64194466D01*
X61454822Y-63194466D02*
X61502441Y-63146847D01*
X61550060Y-63194466D01*
X61502441Y-63242085D01*
X61454822Y-63194466D01*
X61550060Y-63194466D01*
X60550060Y-62242085D02*
X60550060Y-62718276D01*
X61026251Y-62765895D01*
X60978632Y-62718276D01*
X60931013Y-62623038D01*
X60931013Y-62384942D01*
X60978632Y-62289704D01*
X61026251Y-62242085D01*
X61121489Y-62194466D01*
X61359584Y-62194466D01*
X61454822Y-62242085D01*
X61502441Y-62289704D01*
X61550060Y-62384942D01*
X61550060Y-62623038D01*
X61502441Y-62718276D01*
X61454822Y-62765895D01*
X61550060Y-61718276D02*
X61550060Y-61527800D01*
X61502441Y-61432561D01*
X61454822Y-61384942D01*
X61311965Y-61289704D01*
X61121489Y-61242085D01*
X60740537Y-61242085D01*
X60645299Y-61289704D01*
X60597680Y-61337323D01*
X60550060Y-61432561D01*
X60550060Y-61623038D01*
X60597680Y-61718276D01*
X60645299Y-61765895D01*
X60740537Y-61813514D01*
X60978632Y-61813514D01*
X61073870Y-61765895D01*
X61121489Y-61718276D01*
X61169108Y-61623038D01*
X61169108Y-61432561D01*
X61121489Y-61337323D01*
X61073870Y-61289704D01*
X60978632Y-61242085D01*
X60550060Y-60623038D02*
X60550060Y-60527800D01*
X60597680Y-60432561D01*
X60645299Y-60384942D01*
X60740537Y-60337323D01*
X60931013Y-60289704D01*
X61169108Y-60289704D01*
X61359584Y-60337323D01*
X61454822Y-60384942D01*
X61502441Y-60432561D01*
X61550060Y-60527800D01*
X61550060Y-60623038D01*
X61502441Y-60718276D01*
X61454822Y-60765895D01*
X61359584Y-60813514D01*
X61169108Y-60861133D01*
X60931013Y-60861133D01*
X60740537Y-60813514D01*
X60645299Y-60765895D01*
X60597680Y-60718276D01*
X60550060Y-60623038D01*
X60550060Y-59670657D02*
X60550060Y-59575419D01*
X60597680Y-59480180D01*
X60645299Y-59432561D01*
X60740537Y-59384942D01*
X60931013Y-59337323D01*
X61169108Y-59337323D01*
X61359584Y-59384942D01*
X61454822Y-59432561D01*
X61502441Y-59480180D01*
X61550060Y-59575419D01*
X61550060Y-59670657D01*
X61502441Y-59765895D01*
X61454822Y-59813514D01*
X61359584Y-59861133D01*
X61169108Y-59908752D01*
X60931013Y-59908752D01*
X60740537Y-59861133D01*
X60645299Y-59813514D01*
X60597680Y-59765895D01*
X60550060Y-59670657D01*
X61550060Y-58146847D02*
X60883394Y-58146847D01*
X60978632Y-58146847D02*
X60931013Y-58099228D01*
X60883394Y-58003990D01*
X60883394Y-57861133D01*
X60931013Y-57765895D01*
X61026251Y-57718276D01*
X61550060Y-57718276D01*
X61026251Y-57718276D02*
X60931013Y-57670657D01*
X60883394Y-57575419D01*
X60883394Y-57432561D01*
X60931013Y-57337323D01*
X61026251Y-57289704D01*
X61550060Y-57289704D01*
X61550060Y-56813514D02*
X60883394Y-56813514D01*
X60978632Y-56813514D02*
X60931013Y-56765895D01*
X60883394Y-56670657D01*
X60883394Y-56527800D01*
X60931013Y-56432561D01*
X61026251Y-56384942D01*
X61550060Y-56384942D01*
X61026251Y-56384942D02*
X60931013Y-56337323D01*
X60883394Y-56242085D01*
X60883394Y-56099228D01*
X60931013Y-56003990D01*
X61026251Y-55956371D01*
X61550060Y-55956371D01*
X68097680Y-71322800D02*
X61661260Y-71322800D01*
X61661260Y-49732800D02*
X67843680Y-49732800D01*
X62247680Y-71322800D02*
X62247680Y-49732800D01*
X62247680Y-71322800D02*
X62247680Y-49732800D01*
X62247680Y-71322800D02*
X62834101Y-70196296D01*
X62247680Y-71322800D02*
X61661259Y-70196296D01*
X62247680Y-49732800D02*
X61661259Y-50859304D01*
X62247680Y-49732800D02*
X62834101Y-50859304D01*
D12*
%TO.C,R3*%
X96718632Y-67969544D02*
X96528156Y-68102878D01*
X96718632Y-68198116D02*
X96318632Y-68198116D01*
X96318632Y-68045735D01*
X96337680Y-68007639D01*
X96356727Y-67988592D01*
X96394822Y-67969544D01*
X96451965Y-67969544D01*
X96490060Y-67988592D01*
X96509108Y-68007639D01*
X96528156Y-68045735D01*
X96528156Y-68198116D01*
X96318632Y-67836211D02*
X96318632Y-67588592D01*
X96471013Y-67721925D01*
X96471013Y-67664782D01*
X96490060Y-67626687D01*
X96509108Y-67607639D01*
X96547203Y-67588592D01*
X96642441Y-67588592D01*
X96680537Y-67607639D01*
X96699584Y-67626687D01*
X96718632Y-67664782D01*
X96718632Y-67779068D01*
X96699584Y-67817163D01*
X96680537Y-67836211D01*
%TO.C,JP1*%
X87104727Y-66299544D02*
X86819013Y-66299544D01*
X86761870Y-66280497D01*
X86723775Y-66242401D01*
X86704727Y-66185258D01*
X86704727Y-66147163D01*
X86704727Y-66490020D02*
X87104727Y-66490020D01*
X87104727Y-66642401D01*
X87085680Y-66680497D01*
X87066632Y-66699544D01*
X87028537Y-66718592D01*
X86971394Y-66718592D01*
X86933299Y-66699544D01*
X86914251Y-66680497D01*
X86895203Y-66642401D01*
X86895203Y-66490020D01*
X86704727Y-67099544D02*
X86704727Y-66870973D01*
X86704727Y-66985258D02*
X87104727Y-66985258D01*
X87047584Y-66947163D01*
X87009489Y-66909068D01*
X86990441Y-66870973D01*
%TO.C,R14*%
X124658632Y-61302020D02*
X124468156Y-61435354D01*
X124658632Y-61530592D02*
X124258632Y-61530592D01*
X124258632Y-61378211D01*
X124277680Y-61340116D01*
X124296727Y-61321068D01*
X124334822Y-61302020D01*
X124391965Y-61302020D01*
X124430060Y-61321068D01*
X124449108Y-61340116D01*
X124468156Y-61378211D01*
X124468156Y-61530592D01*
X124658632Y-60921068D02*
X124658632Y-61149639D01*
X124658632Y-61035354D02*
X124258632Y-61035354D01*
X124315775Y-61073449D01*
X124353870Y-61111544D01*
X124372918Y-61149639D01*
X124391965Y-60578211D02*
X124658632Y-60578211D01*
X124239584Y-60673449D02*
X124525299Y-60768687D01*
X124525299Y-60521068D01*
%TO.C,RST_CP1*%
X78080952Y-73461904D02*
X77890476Y-73595238D01*
X78080952Y-73690476D02*
X77680952Y-73690476D01*
X77680952Y-73538095D01*
X77700000Y-73500000D01*
X77719047Y-73480952D01*
X77757142Y-73461904D01*
X77814285Y-73461904D01*
X77852380Y-73480952D01*
X77871428Y-73500000D01*
X77890476Y-73538095D01*
X77890476Y-73690476D01*
X78061904Y-73309523D02*
X78080952Y-73252380D01*
X78080952Y-73157142D01*
X78061904Y-73119047D01*
X78042857Y-73100000D01*
X78004761Y-73080952D01*
X77966666Y-73080952D01*
X77928571Y-73100000D01*
X77909523Y-73119047D01*
X77890476Y-73157142D01*
X77871428Y-73233333D01*
X77852380Y-73271428D01*
X77833333Y-73290476D01*
X77795238Y-73309523D01*
X77757142Y-73309523D01*
X77719047Y-73290476D01*
X77700000Y-73271428D01*
X77680952Y-73233333D01*
X77680952Y-73138095D01*
X77700000Y-73080952D01*
X77680952Y-72966666D02*
X77680952Y-72738095D01*
X78080952Y-72852380D02*
X77680952Y-72852380D01*
X78119047Y-72700000D02*
X78119047Y-72395238D01*
X78042857Y-72071428D02*
X78061904Y-72090476D01*
X78080952Y-72147619D01*
X78080952Y-72185714D01*
X78061904Y-72242857D01*
X78023809Y-72280952D01*
X77985714Y-72300000D01*
X77909523Y-72319047D01*
X77852380Y-72319047D01*
X77776190Y-72300000D01*
X77738095Y-72280952D01*
X77700000Y-72242857D01*
X77680952Y-72185714D01*
X77680952Y-72147619D01*
X77700000Y-72090476D01*
X77719047Y-72071428D01*
X78080952Y-71900000D02*
X77680952Y-71900000D01*
X77680952Y-71747619D01*
X77700000Y-71709523D01*
X77719047Y-71690476D01*
X77757142Y-71671428D01*
X77814285Y-71671428D01*
X77852380Y-71690476D01*
X77871428Y-71709523D01*
X77890476Y-71747619D01*
X77890476Y-71900000D01*
X78080952Y-71290476D02*
X78080952Y-71519047D01*
X78080952Y-71404761D02*
X77680952Y-71404761D01*
X77738095Y-71442857D01*
X77776190Y-71480952D01*
X77795238Y-71519047D01*
%TO.C,R23*%
X109148632Y-60868020D02*
X108958156Y-61001354D01*
X109148632Y-61096592D02*
X108748632Y-61096592D01*
X108748632Y-60944211D01*
X108767680Y-60906116D01*
X108786727Y-60887068D01*
X108824822Y-60868020D01*
X108881965Y-60868020D01*
X108920060Y-60887068D01*
X108939108Y-60906116D01*
X108958156Y-60944211D01*
X108958156Y-61096592D01*
X108786727Y-60715639D02*
X108767680Y-60696592D01*
X108748632Y-60658497D01*
X108748632Y-60563258D01*
X108767680Y-60525163D01*
X108786727Y-60506116D01*
X108824822Y-60487068D01*
X108862918Y-60487068D01*
X108920060Y-60506116D01*
X109148632Y-60734687D01*
X109148632Y-60487068D01*
X108748632Y-60353735D02*
X108748632Y-60106116D01*
X108901013Y-60239449D01*
X108901013Y-60182306D01*
X108920060Y-60144211D01*
X108939108Y-60125163D01*
X108977203Y-60106116D01*
X109072441Y-60106116D01*
X109110537Y-60125163D01*
X109129584Y-60144211D01*
X109148632Y-60182306D01*
X109148632Y-60296592D01*
X109129584Y-60334687D01*
X109110537Y-60353735D01*
%TO.C,C22*%
X94902537Y-53809020D02*
X94921584Y-53828068D01*
X94940632Y-53885211D01*
X94940632Y-53923306D01*
X94921584Y-53980449D01*
X94883489Y-54018544D01*
X94845394Y-54037592D01*
X94769203Y-54056639D01*
X94712060Y-54056639D01*
X94635870Y-54037592D01*
X94597775Y-54018544D01*
X94559680Y-53980449D01*
X94540632Y-53923306D01*
X94540632Y-53885211D01*
X94559680Y-53828068D01*
X94578727Y-53809020D01*
X94578727Y-53656639D02*
X94559680Y-53637592D01*
X94540632Y-53599497D01*
X94540632Y-53504258D01*
X94559680Y-53466163D01*
X94578727Y-53447116D01*
X94616822Y-53428068D01*
X94654918Y-53428068D01*
X94712060Y-53447116D01*
X94940632Y-53675687D01*
X94940632Y-53428068D01*
X94578727Y-53275687D02*
X94559680Y-53256639D01*
X94540632Y-53218544D01*
X94540632Y-53123306D01*
X94559680Y-53085211D01*
X94578727Y-53066163D01*
X94616822Y-53047116D01*
X94654918Y-53047116D01*
X94712060Y-53066163D01*
X94940632Y-53294735D01*
X94940632Y-53047116D01*
%TO.C,D-1*%
X84450632Y-63111735D02*
X84050632Y-63111735D01*
X84050632Y-63016497D01*
X84069680Y-62959354D01*
X84107775Y-62921258D01*
X84145870Y-62902211D01*
X84222060Y-62883163D01*
X84279203Y-62883163D01*
X84355394Y-62902211D01*
X84393489Y-62921258D01*
X84431584Y-62959354D01*
X84450632Y-63016497D01*
X84450632Y-63111735D01*
X84298251Y-62711735D02*
X84298251Y-62406973D01*
X84450632Y-62006973D02*
X84450632Y-62235544D01*
X84450632Y-62121258D02*
X84050632Y-62121258D01*
X84107775Y-62159354D01*
X84145870Y-62197449D01*
X84164918Y-62235544D01*
%TO.C,C15*%
X132494537Y-66128020D02*
X132513584Y-66147068D01*
X132532632Y-66204211D01*
X132532632Y-66242306D01*
X132513584Y-66299449D01*
X132475489Y-66337544D01*
X132437394Y-66356592D01*
X132361203Y-66375639D01*
X132304060Y-66375639D01*
X132227870Y-66356592D01*
X132189775Y-66337544D01*
X132151680Y-66299449D01*
X132132632Y-66242306D01*
X132132632Y-66204211D01*
X132151680Y-66147068D01*
X132170727Y-66128020D01*
X132532632Y-65747068D02*
X132532632Y-65975639D01*
X132532632Y-65861354D02*
X132132632Y-65861354D01*
X132189775Y-65899449D01*
X132227870Y-65937544D01*
X132246918Y-65975639D01*
X132132632Y-65385163D02*
X132132632Y-65575639D01*
X132323108Y-65594687D01*
X132304060Y-65575639D01*
X132285013Y-65537544D01*
X132285013Y-65442306D01*
X132304060Y-65404211D01*
X132323108Y-65385163D01*
X132361203Y-65366116D01*
X132456441Y-65366116D01*
X132494537Y-65385163D01*
X132513584Y-65404211D01*
X132532632Y-65442306D01*
X132532632Y-65537544D01*
X132513584Y-65575639D01*
X132494537Y-65594687D01*
%TO.C,R13*%
X124150632Y-57238020D02*
X123960156Y-57371354D01*
X124150632Y-57466592D02*
X123750632Y-57466592D01*
X123750632Y-57314211D01*
X123769680Y-57276116D01*
X123788727Y-57257068D01*
X123826822Y-57238020D01*
X123883965Y-57238020D01*
X123922060Y-57257068D01*
X123941108Y-57276116D01*
X123960156Y-57314211D01*
X123960156Y-57466592D01*
X124150632Y-56857068D02*
X124150632Y-57085639D01*
X124150632Y-56971354D02*
X123750632Y-56971354D01*
X123807775Y-57009449D01*
X123845870Y-57047544D01*
X123864918Y-57085639D01*
X123750632Y-56723735D02*
X123750632Y-56476116D01*
X123903013Y-56609449D01*
X123903013Y-56552306D01*
X123922060Y-56514211D01*
X123941108Y-56495163D01*
X123979203Y-56476116D01*
X124074441Y-56476116D01*
X124112537Y-56495163D01*
X124131584Y-56514211D01*
X124150632Y-56552306D01*
X124150632Y-56666592D01*
X124131584Y-56704687D01*
X124112537Y-56723735D01*
%TO.C,REF\u002A\u002A*%
X87320632Y-80882211D02*
X87130156Y-81015544D01*
X87320632Y-81110782D02*
X86920632Y-81110782D01*
X86920632Y-80958401D01*
X86939680Y-80920306D01*
X86958727Y-80901258D01*
X86996822Y-80882211D01*
X87053965Y-80882211D01*
X87092060Y-80901258D01*
X87111108Y-80920306D01*
X87130156Y-80958401D01*
X87130156Y-81110782D01*
X87111108Y-80710782D02*
X87111108Y-80577449D01*
X87320632Y-80520306D02*
X87320632Y-80710782D01*
X86920632Y-80710782D01*
X86920632Y-80520306D01*
X87111108Y-80215544D02*
X87111108Y-80348878D01*
X87320632Y-80348878D02*
X86920632Y-80348878D01*
X86920632Y-80158401D01*
X86920632Y-79948878D02*
X87015870Y-79948878D01*
X86977775Y-80044116D02*
X87015870Y-79948878D01*
X86977775Y-79853639D01*
X87092060Y-80006020D02*
X87015870Y-79948878D01*
X87092060Y-79891735D01*
X86920632Y-79644116D02*
X87015870Y-79644116D01*
X86977775Y-79739354D02*
X87015870Y-79644116D01*
X86977775Y-79548878D01*
X87092060Y-79701258D02*
X87015870Y-79644116D01*
X87092060Y-79586973D01*
%TO.C,R22*%
X97894632Y-54190020D02*
X97704156Y-54323354D01*
X97894632Y-54418592D02*
X97494632Y-54418592D01*
X97494632Y-54266211D01*
X97513680Y-54228116D01*
X97532727Y-54209068D01*
X97570822Y-54190020D01*
X97627965Y-54190020D01*
X97666060Y-54209068D01*
X97685108Y-54228116D01*
X97704156Y-54266211D01*
X97704156Y-54418592D01*
X97532727Y-54037639D02*
X97513680Y-54018592D01*
X97494632Y-53980497D01*
X97494632Y-53885258D01*
X97513680Y-53847163D01*
X97532727Y-53828116D01*
X97570822Y-53809068D01*
X97608918Y-53809068D01*
X97666060Y-53828116D01*
X97894632Y-54056687D01*
X97894632Y-53809068D01*
X97532727Y-53656687D02*
X97513680Y-53637639D01*
X97494632Y-53599544D01*
X97494632Y-53504306D01*
X97513680Y-53466211D01*
X97532727Y-53447163D01*
X97570822Y-53428116D01*
X97608918Y-53428116D01*
X97666060Y-53447163D01*
X97894632Y-53675735D01*
X97894632Y-53428116D01*
%TO.C,C20*%
X89129137Y-58228620D02*
X89148184Y-58247668D01*
X89167232Y-58304811D01*
X89167232Y-58342906D01*
X89148184Y-58400049D01*
X89110089Y-58438144D01*
X89071994Y-58457192D01*
X88995803Y-58476239D01*
X88938660Y-58476239D01*
X88862470Y-58457192D01*
X88824375Y-58438144D01*
X88786280Y-58400049D01*
X88767232Y-58342906D01*
X88767232Y-58304811D01*
X88786280Y-58247668D01*
X88805327Y-58228620D01*
X88805327Y-58076239D02*
X88786280Y-58057192D01*
X88767232Y-58019097D01*
X88767232Y-57923858D01*
X88786280Y-57885763D01*
X88805327Y-57866716D01*
X88843422Y-57847668D01*
X88881518Y-57847668D01*
X88938660Y-57866716D01*
X89167232Y-58095287D01*
X89167232Y-57847668D01*
X88767232Y-57600049D02*
X88767232Y-57561954D01*
X88786280Y-57523858D01*
X88805327Y-57504811D01*
X88843422Y-57485763D01*
X88919613Y-57466716D01*
X89014851Y-57466716D01*
X89091041Y-57485763D01*
X89129137Y-57504811D01*
X89148184Y-57523858D01*
X89167232Y-57561954D01*
X89167232Y-57600049D01*
X89148184Y-57638144D01*
X89129137Y-57657192D01*
X89091041Y-57676239D01*
X89014851Y-57695287D01*
X88919613Y-57695287D01*
X88843422Y-57676239D01*
X88805327Y-57657192D01*
X88786280Y-57638144D01*
X88767232Y-57600049D01*
%TO.C,R8*%
X127452632Y-71017544D02*
X127262156Y-71150878D01*
X127452632Y-71246116D02*
X127052632Y-71246116D01*
X127052632Y-71093735D01*
X127071680Y-71055639D01*
X127090727Y-71036592D01*
X127128822Y-71017544D01*
X127185965Y-71017544D01*
X127224060Y-71036592D01*
X127243108Y-71055639D01*
X127262156Y-71093735D01*
X127262156Y-71246116D01*
X127224060Y-70788973D02*
X127205013Y-70827068D01*
X127185965Y-70846116D01*
X127147870Y-70865163D01*
X127128822Y-70865163D01*
X127090727Y-70846116D01*
X127071680Y-70827068D01*
X127052632Y-70788973D01*
X127052632Y-70712782D01*
X127071680Y-70674687D01*
X127090727Y-70655639D01*
X127128822Y-70636592D01*
X127147870Y-70636592D01*
X127185965Y-70655639D01*
X127205013Y-70674687D01*
X127224060Y-70712782D01*
X127224060Y-70788973D01*
X127243108Y-70827068D01*
X127262156Y-70846116D01*
X127300251Y-70865163D01*
X127376441Y-70865163D01*
X127414537Y-70846116D01*
X127433584Y-70827068D01*
X127452632Y-70788973D01*
X127452632Y-70712782D01*
X127433584Y-70674687D01*
X127414537Y-70655639D01*
X127376441Y-70636592D01*
X127300251Y-70636592D01*
X127262156Y-70655639D01*
X127243108Y-70674687D01*
X127224060Y-70712782D01*
%TO.C,R20*%
X118184632Y-70582020D02*
X117994156Y-70715354D01*
X118184632Y-70810592D02*
X117784632Y-70810592D01*
X117784632Y-70658211D01*
X117803680Y-70620116D01*
X117822727Y-70601068D01*
X117860822Y-70582020D01*
X117917965Y-70582020D01*
X117956060Y-70601068D01*
X117975108Y-70620116D01*
X117994156Y-70658211D01*
X117994156Y-70810592D01*
X117822727Y-70429639D02*
X117803680Y-70410592D01*
X117784632Y-70372497D01*
X117784632Y-70277258D01*
X117803680Y-70239163D01*
X117822727Y-70220116D01*
X117860822Y-70201068D01*
X117898918Y-70201068D01*
X117956060Y-70220116D01*
X118184632Y-70448687D01*
X118184632Y-70201068D01*
X117784632Y-69953449D02*
X117784632Y-69915354D01*
X117803680Y-69877258D01*
X117822727Y-69858211D01*
X117860822Y-69839163D01*
X117937013Y-69820116D01*
X118032251Y-69820116D01*
X118108441Y-69839163D01*
X118146537Y-69858211D01*
X118165584Y-69877258D01*
X118184632Y-69915354D01*
X118184632Y-69953449D01*
X118165584Y-69991544D01*
X118146537Y-70010592D01*
X118108441Y-70029639D01*
X118032251Y-70048687D01*
X117937013Y-70048687D01*
X117860822Y-70029639D01*
X117822727Y-70010592D01*
X117803680Y-69991544D01*
X117784632Y-69953449D01*
%TO.C,R26*%
X98348632Y-59268020D02*
X98158156Y-59401354D01*
X98348632Y-59496592D02*
X97948632Y-59496592D01*
X97948632Y-59344211D01*
X97967680Y-59306116D01*
X97986727Y-59287068D01*
X98024822Y-59268020D01*
X98081965Y-59268020D01*
X98120060Y-59287068D01*
X98139108Y-59306116D01*
X98158156Y-59344211D01*
X98158156Y-59496592D01*
X97986727Y-59115639D02*
X97967680Y-59096592D01*
X97948632Y-59058497D01*
X97948632Y-58963258D01*
X97967680Y-58925163D01*
X97986727Y-58906116D01*
X98024822Y-58887068D01*
X98062918Y-58887068D01*
X98120060Y-58906116D01*
X98348632Y-59134687D01*
X98348632Y-58887068D01*
X97948632Y-58544211D02*
X97948632Y-58620401D01*
X97967680Y-58658497D01*
X97986727Y-58677544D01*
X98043870Y-58715639D01*
X98120060Y-58734687D01*
X98272441Y-58734687D01*
X98310537Y-58715639D01*
X98329584Y-58696592D01*
X98348632Y-58658497D01*
X98348632Y-58582306D01*
X98329584Y-58544211D01*
X98310537Y-58525163D01*
X98272441Y-58506116D01*
X98177203Y-58506116D01*
X98139108Y-58525163D01*
X98120060Y-58544211D01*
X98101013Y-58582306D01*
X98101013Y-58658497D01*
X98120060Y-58696592D01*
X98139108Y-58715639D01*
X98177203Y-58734687D01*
%TO.C,Q1*%
X105172727Y-68410973D02*
X105153680Y-68449068D01*
X105115584Y-68487163D01*
X105058441Y-68544306D01*
X105039394Y-68582401D01*
X105039394Y-68620497D01*
X105134632Y-68601449D02*
X105115584Y-68639544D01*
X105077489Y-68677639D01*
X105001299Y-68696687D01*
X104867965Y-68696687D01*
X104791775Y-68677639D01*
X104753680Y-68639544D01*
X104734632Y-68601449D01*
X104734632Y-68525258D01*
X104753680Y-68487163D01*
X104791775Y-68449068D01*
X104867965Y-68430020D01*
X105001299Y-68430020D01*
X105077489Y-68449068D01*
X105115584Y-68487163D01*
X105134632Y-68525258D01*
X105134632Y-68601449D01*
X105134632Y-68049068D02*
X105134632Y-68277639D01*
X105134632Y-68163354D02*
X104734632Y-68163354D01*
X104791775Y-68201449D01*
X104829870Y-68239544D01*
X104848918Y-68277639D01*
%TO.C,REF\u002A\u002A*%
X124404632Y-79358211D02*
X124214156Y-79491544D01*
X124404632Y-79586782D02*
X124004632Y-79586782D01*
X124004632Y-79434401D01*
X124023680Y-79396306D01*
X124042727Y-79377258D01*
X124080822Y-79358211D01*
X124137965Y-79358211D01*
X124176060Y-79377258D01*
X124195108Y-79396306D01*
X124214156Y-79434401D01*
X124214156Y-79586782D01*
X124195108Y-79186782D02*
X124195108Y-79053449D01*
X124404632Y-78996306D02*
X124404632Y-79186782D01*
X124004632Y-79186782D01*
X124004632Y-78996306D01*
X124195108Y-78691544D02*
X124195108Y-78824878D01*
X124404632Y-78824878D02*
X124004632Y-78824878D01*
X124004632Y-78634401D01*
X124004632Y-78424878D02*
X124099870Y-78424878D01*
X124061775Y-78520116D02*
X124099870Y-78424878D01*
X124061775Y-78329639D01*
X124176060Y-78482020D02*
X124099870Y-78424878D01*
X124176060Y-78367735D01*
X124004632Y-78120116D02*
X124099870Y-78120116D01*
X124061775Y-78215354D02*
X124099870Y-78120116D01*
X124061775Y-78024878D01*
X124176060Y-78177258D02*
X124099870Y-78120116D01*
X124176060Y-78062973D01*
%TO.C,R7*%
X78880952Y-75266666D02*
X78690476Y-75400000D01*
X78880952Y-75495238D02*
X78480952Y-75495238D01*
X78480952Y-75342857D01*
X78500000Y-75304761D01*
X78519047Y-75285714D01*
X78557142Y-75266666D01*
X78614285Y-75266666D01*
X78652380Y-75285714D01*
X78671428Y-75304761D01*
X78690476Y-75342857D01*
X78690476Y-75495238D01*
X78480952Y-75133333D02*
X78480952Y-74866666D01*
X78880952Y-75038095D01*
%TO.C,C11*%
X129269957Y-69430020D02*
X129289004Y-69449068D01*
X129308052Y-69506211D01*
X129308052Y-69544306D01*
X129289004Y-69601449D01*
X129250909Y-69639544D01*
X129212814Y-69658592D01*
X129136623Y-69677639D01*
X129079480Y-69677639D01*
X129003290Y-69658592D01*
X128965195Y-69639544D01*
X128927100Y-69601449D01*
X128908052Y-69544306D01*
X128908052Y-69506211D01*
X128927100Y-69449068D01*
X128946147Y-69430020D01*
X129308052Y-69049068D02*
X129308052Y-69277639D01*
X129308052Y-69163354D02*
X128908052Y-69163354D01*
X128965195Y-69201449D01*
X129003290Y-69239544D01*
X129022338Y-69277639D01*
X129308052Y-68668116D02*
X129308052Y-68896687D01*
X129308052Y-68782401D02*
X128908052Y-68782401D01*
X128965195Y-68820497D01*
X129003290Y-68858592D01*
X129022338Y-68896687D01*
%TO.C,R25*%
X112212632Y-56768620D02*
X112022156Y-56901954D01*
X112212632Y-56997192D02*
X111812632Y-56997192D01*
X111812632Y-56844811D01*
X111831680Y-56806716D01*
X111850727Y-56787668D01*
X111888822Y-56768620D01*
X111945965Y-56768620D01*
X111984060Y-56787668D01*
X112003108Y-56806716D01*
X112022156Y-56844811D01*
X112022156Y-56997192D01*
X111850727Y-56616239D02*
X111831680Y-56597192D01*
X111812632Y-56559097D01*
X111812632Y-56463858D01*
X111831680Y-56425763D01*
X111850727Y-56406716D01*
X111888822Y-56387668D01*
X111926918Y-56387668D01*
X111984060Y-56406716D01*
X112212632Y-56635287D01*
X112212632Y-56387668D01*
X111812632Y-56025763D02*
X111812632Y-56216239D01*
X112003108Y-56235287D01*
X111984060Y-56216239D01*
X111965013Y-56178144D01*
X111965013Y-56082906D01*
X111984060Y-56044811D01*
X112003108Y-56025763D01*
X112041203Y-56006716D01*
X112136441Y-56006716D01*
X112174537Y-56025763D01*
X112193584Y-56044811D01*
X112212632Y-56082906D01*
X112212632Y-56178144D01*
X112193584Y-56216239D01*
X112174537Y-56235287D01*
%TO.C,U5*%
X106548632Y-61915639D02*
X106872441Y-61915639D01*
X106910537Y-61896592D01*
X106929584Y-61877544D01*
X106948632Y-61839449D01*
X106948632Y-61763258D01*
X106929584Y-61725163D01*
X106910537Y-61706116D01*
X106872441Y-61687068D01*
X106548632Y-61687068D01*
X106548632Y-61306116D02*
X106548632Y-61496592D01*
X106739108Y-61515639D01*
X106720060Y-61496592D01*
X106701013Y-61458497D01*
X106701013Y-61363258D01*
X106720060Y-61325163D01*
X106739108Y-61306116D01*
X106777203Y-61287068D01*
X106872441Y-61287068D01*
X106910537Y-61306116D01*
X106929584Y-61325163D01*
X106948632Y-61363258D01*
X106948632Y-61458497D01*
X106929584Y-61496592D01*
X106910537Y-61515639D01*
%TO.C,R9*%
X131770632Y-72795544D02*
X131580156Y-72928878D01*
X131770632Y-73024116D02*
X131370632Y-73024116D01*
X131370632Y-72871735D01*
X131389680Y-72833639D01*
X131408727Y-72814592D01*
X131446822Y-72795544D01*
X131503965Y-72795544D01*
X131542060Y-72814592D01*
X131561108Y-72833639D01*
X131580156Y-72871735D01*
X131580156Y-73024116D01*
X131770632Y-72605068D02*
X131770632Y-72528878D01*
X131751584Y-72490782D01*
X131732537Y-72471735D01*
X131675394Y-72433639D01*
X131599203Y-72414592D01*
X131446822Y-72414592D01*
X131408727Y-72433639D01*
X131389680Y-72452687D01*
X131370632Y-72490782D01*
X131370632Y-72566973D01*
X131389680Y-72605068D01*
X131408727Y-72624116D01*
X131446822Y-72643163D01*
X131542060Y-72643163D01*
X131580156Y-72624116D01*
X131599203Y-72605068D01*
X131618251Y-72566973D01*
X131618251Y-72490782D01*
X131599203Y-72452687D01*
X131580156Y-72433639D01*
X131542060Y-72414592D01*
%TO.C,U4*%
X97334632Y-62119639D02*
X97658441Y-62119639D01*
X97696537Y-62100592D01*
X97715584Y-62081544D01*
X97734632Y-62043449D01*
X97734632Y-61967258D01*
X97715584Y-61929163D01*
X97696537Y-61910116D01*
X97658441Y-61891068D01*
X97334632Y-61891068D01*
X97467965Y-61529163D02*
X97734632Y-61529163D01*
X97315584Y-61624401D02*
X97601299Y-61719639D01*
X97601299Y-61472020D01*
%TO.C,SELECT1*%
X128630717Y-58788262D02*
X128687860Y-58807310D01*
X128783098Y-58807310D01*
X128821193Y-58788262D01*
X128840241Y-58769215D01*
X128859289Y-58731119D01*
X128859289Y-58693024D01*
X128840241Y-58654929D01*
X128821193Y-58635881D01*
X128783098Y-58616834D01*
X128706908Y-58597786D01*
X128668812Y-58578738D01*
X128649765Y-58559691D01*
X128630717Y-58521596D01*
X128630717Y-58483500D01*
X128649765Y-58445405D01*
X128668812Y-58426358D01*
X128706908Y-58407310D01*
X128802146Y-58407310D01*
X128859289Y-58426358D01*
X129030717Y-58597786D02*
X129164050Y-58597786D01*
X129221193Y-58807310D02*
X129030717Y-58807310D01*
X129030717Y-58407310D01*
X129221193Y-58407310D01*
X129583098Y-58807310D02*
X129392622Y-58807310D01*
X129392622Y-58407310D01*
X129716431Y-58597786D02*
X129849765Y-58597786D01*
X129906908Y-58807310D02*
X129716431Y-58807310D01*
X129716431Y-58407310D01*
X129906908Y-58407310D01*
X130306908Y-58769215D02*
X130287860Y-58788262D01*
X130230717Y-58807310D01*
X130192622Y-58807310D01*
X130135479Y-58788262D01*
X130097384Y-58750167D01*
X130078336Y-58712072D01*
X130059289Y-58635881D01*
X130059289Y-58578738D01*
X130078336Y-58502548D01*
X130097384Y-58464453D01*
X130135479Y-58426358D01*
X130192622Y-58407310D01*
X130230717Y-58407310D01*
X130287860Y-58426358D01*
X130306908Y-58445405D01*
X130421193Y-58407310D02*
X130649765Y-58407310D01*
X130535479Y-58807310D02*
X130535479Y-58407310D01*
X130992622Y-58807310D02*
X130764050Y-58807310D01*
X130878336Y-58807310D02*
X130878336Y-58407310D01*
X130840241Y-58464453D01*
X130802146Y-58502548D01*
X130764050Y-58521596D01*
%TO.C,R12*%
X133548632Y-56222020D02*
X133358156Y-56355354D01*
X133548632Y-56450592D02*
X133148632Y-56450592D01*
X133148632Y-56298211D01*
X133167680Y-56260116D01*
X133186727Y-56241068D01*
X133224822Y-56222020D01*
X133281965Y-56222020D01*
X133320060Y-56241068D01*
X133339108Y-56260116D01*
X133358156Y-56298211D01*
X133358156Y-56450592D01*
X133548632Y-55841068D02*
X133548632Y-56069639D01*
X133548632Y-55955354D02*
X133148632Y-55955354D01*
X133205775Y-55993449D01*
X133243870Y-56031544D01*
X133262918Y-56069639D01*
X133186727Y-55688687D02*
X133167680Y-55669639D01*
X133148632Y-55631544D01*
X133148632Y-55536306D01*
X133167680Y-55498211D01*
X133186727Y-55479163D01*
X133224822Y-55460116D01*
X133262918Y-55460116D01*
X133320060Y-55479163D01*
X133548632Y-55707735D01*
X133548632Y-55460116D01*
%TO.C,C21*%
X94902537Y-55968020D02*
X94921584Y-55987068D01*
X94940632Y-56044211D01*
X94940632Y-56082306D01*
X94921584Y-56139449D01*
X94883489Y-56177544D01*
X94845394Y-56196592D01*
X94769203Y-56215639D01*
X94712060Y-56215639D01*
X94635870Y-56196592D01*
X94597775Y-56177544D01*
X94559680Y-56139449D01*
X94540632Y-56082306D01*
X94540632Y-56044211D01*
X94559680Y-55987068D01*
X94578727Y-55968020D01*
X94578727Y-55815639D02*
X94559680Y-55796592D01*
X94540632Y-55758497D01*
X94540632Y-55663258D01*
X94559680Y-55625163D01*
X94578727Y-55606116D01*
X94616822Y-55587068D01*
X94654918Y-55587068D01*
X94712060Y-55606116D01*
X94940632Y-55834687D01*
X94940632Y-55587068D01*
X94940632Y-55206116D02*
X94940632Y-55434687D01*
X94940632Y-55320401D02*
X94540632Y-55320401D01*
X94597775Y-55358497D01*
X94635870Y-55396592D01*
X94654918Y-55434687D01*
%TO.C,REF\u002A\u002A*%
X82748632Y-46338211D02*
X82558156Y-46471544D01*
X82748632Y-46566782D02*
X82348632Y-46566782D01*
X82348632Y-46414401D01*
X82367680Y-46376306D01*
X82386727Y-46357258D01*
X82424822Y-46338211D01*
X82481965Y-46338211D01*
X82520060Y-46357258D01*
X82539108Y-46376306D01*
X82558156Y-46414401D01*
X82558156Y-46566782D01*
X82539108Y-46166782D02*
X82539108Y-46033449D01*
X82748632Y-45976306D02*
X82748632Y-46166782D01*
X82348632Y-46166782D01*
X82348632Y-45976306D01*
X82539108Y-45671544D02*
X82539108Y-45804878D01*
X82748632Y-45804878D02*
X82348632Y-45804878D01*
X82348632Y-45614401D01*
X82348632Y-45404878D02*
X82443870Y-45404878D01*
X82405775Y-45500116D02*
X82443870Y-45404878D01*
X82405775Y-45309639D01*
X82520060Y-45462020D02*
X82443870Y-45404878D01*
X82520060Y-45347735D01*
X82348632Y-45100116D02*
X82443870Y-45100116D01*
X82405775Y-45195354D02*
X82443870Y-45100116D01*
X82405775Y-45004878D01*
X82520060Y-45157258D02*
X82443870Y-45100116D01*
X82520060Y-45042973D01*
%TO.C,C2*%
X78392537Y-67715544D02*
X78411584Y-67734592D01*
X78430632Y-67791735D01*
X78430632Y-67829830D01*
X78411584Y-67886973D01*
X78373489Y-67925068D01*
X78335394Y-67944116D01*
X78259203Y-67963163D01*
X78202060Y-67963163D01*
X78125870Y-67944116D01*
X78087775Y-67925068D01*
X78049680Y-67886973D01*
X78030632Y-67829830D01*
X78030632Y-67791735D01*
X78049680Y-67734592D01*
X78068727Y-67715544D01*
X78068727Y-67563163D02*
X78049680Y-67544116D01*
X78030632Y-67506020D01*
X78030632Y-67410782D01*
X78049680Y-67372687D01*
X78068727Y-67353639D01*
X78106822Y-67334592D01*
X78144918Y-67334592D01*
X78202060Y-67353639D01*
X78430632Y-67582211D01*
X78430632Y-67334592D01*
%TO.C,U6*%
X103852918Y-73017830D02*
X103852918Y-73341639D01*
X103871965Y-73379735D01*
X103891013Y-73398782D01*
X103929108Y-73417830D01*
X104005299Y-73417830D01*
X104043394Y-73398782D01*
X104062441Y-73379735D01*
X104081489Y-73341639D01*
X104081489Y-73017830D01*
X104443394Y-73017830D02*
X104367203Y-73017830D01*
X104329108Y-73036878D01*
X104310060Y-73055925D01*
X104271965Y-73113068D01*
X104252918Y-73189258D01*
X104252918Y-73341639D01*
X104271965Y-73379735D01*
X104291013Y-73398782D01*
X104329108Y-73417830D01*
X104405299Y-73417830D01*
X104443394Y-73398782D01*
X104462441Y-73379735D01*
X104481489Y-73341639D01*
X104481489Y-73246401D01*
X104462441Y-73208306D01*
X104443394Y-73189258D01*
X104405299Y-73170211D01*
X104329108Y-73170211D01*
X104291013Y-73189258D01*
X104271965Y-73208306D01*
X104252918Y-73246401D01*
%TO.C,R5*%
X113994832Y-64667544D02*
X113804356Y-64800878D01*
X113994832Y-64896116D02*
X113594832Y-64896116D01*
X113594832Y-64743735D01*
X113613880Y-64705639D01*
X113632927Y-64686592D01*
X113671022Y-64667544D01*
X113728165Y-64667544D01*
X113766260Y-64686592D01*
X113785308Y-64705639D01*
X113804356Y-64743735D01*
X113804356Y-64896116D01*
X113594832Y-64305639D02*
X113594832Y-64496116D01*
X113785308Y-64515163D01*
X113766260Y-64496116D01*
X113747213Y-64458020D01*
X113747213Y-64362782D01*
X113766260Y-64324687D01*
X113785308Y-64305639D01*
X113823403Y-64286592D01*
X113918641Y-64286592D01*
X113956737Y-64305639D01*
X113975784Y-64324687D01*
X113994832Y-64362782D01*
X113994832Y-64458020D01*
X113975784Y-64496116D01*
X113956737Y-64515163D01*
%TO.C,RA1*%
X128214632Y-52392973D02*
X128024156Y-52526306D01*
X128214632Y-52621544D02*
X127814632Y-52621544D01*
X127814632Y-52469163D01*
X127833680Y-52431068D01*
X127852727Y-52412020D01*
X127890822Y-52392973D01*
X127947965Y-52392973D01*
X127986060Y-52412020D01*
X128005108Y-52431068D01*
X128024156Y-52469163D01*
X128024156Y-52621544D01*
X128100346Y-52240592D02*
X128100346Y-52050116D01*
X128214632Y-52278687D02*
X127814632Y-52145354D01*
X128214632Y-52012020D01*
X128214632Y-51669163D02*
X128214632Y-51897735D01*
X128214632Y-51783449D02*
X127814632Y-51783449D01*
X127871775Y-51821544D01*
X127909870Y-51859639D01*
X127928918Y-51897735D01*
%TO.C,C17*%
X132240537Y-74510020D02*
X132259584Y-74529068D01*
X132278632Y-74586211D01*
X132278632Y-74624306D01*
X132259584Y-74681449D01*
X132221489Y-74719544D01*
X132183394Y-74738592D01*
X132107203Y-74757639D01*
X132050060Y-74757639D01*
X131973870Y-74738592D01*
X131935775Y-74719544D01*
X131897680Y-74681449D01*
X131878632Y-74624306D01*
X131878632Y-74586211D01*
X131897680Y-74529068D01*
X131916727Y-74510020D01*
X132278632Y-74129068D02*
X132278632Y-74357639D01*
X132278632Y-74243354D02*
X131878632Y-74243354D01*
X131935775Y-74281449D01*
X131973870Y-74319544D01*
X131992918Y-74357639D01*
X131878632Y-73995735D02*
X131878632Y-73729068D01*
X132278632Y-73900497D01*
%TO.C,D+1*%
X84450632Y-65397735D02*
X84050632Y-65397735D01*
X84050632Y-65302497D01*
X84069680Y-65245354D01*
X84107775Y-65207258D01*
X84145870Y-65188211D01*
X84222060Y-65169163D01*
X84279203Y-65169163D01*
X84355394Y-65188211D01*
X84393489Y-65207258D01*
X84431584Y-65245354D01*
X84450632Y-65302497D01*
X84450632Y-65397735D01*
X84298251Y-64997735D02*
X84298251Y-64692973D01*
X84450632Y-64845354D02*
X84145870Y-64845354D01*
X84450632Y-64292973D02*
X84450632Y-64521544D01*
X84450632Y-64407258D02*
X84050632Y-64407258D01*
X84107775Y-64445354D01*
X84145870Y-64483449D01*
X84164918Y-64521544D01*
%TO.C,C24*%
X109997857Y-63337542D02*
X110016904Y-63356590D01*
X110035952Y-63413733D01*
X110035952Y-63451828D01*
X110016904Y-63508971D01*
X109978809Y-63547066D01*
X109940714Y-63566114D01*
X109864523Y-63585161D01*
X109807380Y-63585161D01*
X109731190Y-63566114D01*
X109693095Y-63547066D01*
X109655000Y-63508971D01*
X109635952Y-63451828D01*
X109635952Y-63413733D01*
X109655000Y-63356590D01*
X109674047Y-63337542D01*
X109674047Y-63185161D02*
X109655000Y-63166114D01*
X109635952Y-63128019D01*
X109635952Y-63032780D01*
X109655000Y-62994685D01*
X109674047Y-62975638D01*
X109712142Y-62956590D01*
X109750238Y-62956590D01*
X109807380Y-62975638D01*
X110035952Y-63204209D01*
X110035952Y-62956590D01*
X109769285Y-62613733D02*
X110035952Y-62613733D01*
X109616904Y-62708971D02*
X109902619Y-62804209D01*
X109902619Y-62556590D01*
%TO.C,C10*%
X129192537Y-75018020D02*
X129211584Y-75037068D01*
X129230632Y-75094211D01*
X129230632Y-75132306D01*
X129211584Y-75189449D01*
X129173489Y-75227544D01*
X129135394Y-75246592D01*
X129059203Y-75265639D01*
X129002060Y-75265639D01*
X128925870Y-75246592D01*
X128887775Y-75227544D01*
X128849680Y-75189449D01*
X128830632Y-75132306D01*
X128830632Y-75094211D01*
X128849680Y-75037068D01*
X128868727Y-75018020D01*
X129230632Y-74637068D02*
X129230632Y-74865639D01*
X129230632Y-74751354D02*
X128830632Y-74751354D01*
X128887775Y-74789449D01*
X128925870Y-74827544D01*
X128944918Y-74865639D01*
X128830632Y-74389449D02*
X128830632Y-74351354D01*
X128849680Y-74313258D01*
X128868727Y-74294211D01*
X128906822Y-74275163D01*
X128983013Y-74256116D01*
X129078251Y-74256116D01*
X129154441Y-74275163D01*
X129192537Y-74294211D01*
X129211584Y-74313258D01*
X129230632Y-74351354D01*
X129230632Y-74389449D01*
X129211584Y-74427544D01*
X129192537Y-74446592D01*
X129154441Y-74465639D01*
X129078251Y-74484687D01*
X128983013Y-74484687D01*
X128906822Y-74465639D01*
X128868727Y-74446592D01*
X128849680Y-74427544D01*
X128830632Y-74389449D01*
%TO.C,R16*%
X116784632Y-57746020D02*
X116594156Y-57879354D01*
X116784632Y-57974592D02*
X116384632Y-57974592D01*
X116384632Y-57822211D01*
X116403680Y-57784116D01*
X116422727Y-57765068D01*
X116460822Y-57746020D01*
X116517965Y-57746020D01*
X116556060Y-57765068D01*
X116575108Y-57784116D01*
X116594156Y-57822211D01*
X116594156Y-57974592D01*
X116784632Y-57365068D02*
X116784632Y-57593639D01*
X116784632Y-57479354D02*
X116384632Y-57479354D01*
X116441775Y-57517449D01*
X116479870Y-57555544D01*
X116498918Y-57593639D01*
X116384632Y-57022211D02*
X116384632Y-57098401D01*
X116403680Y-57136497D01*
X116422727Y-57155544D01*
X116479870Y-57193639D01*
X116556060Y-57212687D01*
X116708441Y-57212687D01*
X116746537Y-57193639D01*
X116765584Y-57174592D01*
X116784632Y-57136497D01*
X116784632Y-57060306D01*
X116765584Y-57022211D01*
X116746537Y-57003163D01*
X116708441Y-56984116D01*
X116613203Y-56984116D01*
X116575108Y-57003163D01*
X116556060Y-57022211D01*
X116537013Y-57060306D01*
X116537013Y-57136497D01*
X116556060Y-57174592D01*
X116575108Y-57193639D01*
X116613203Y-57212687D01*
%TO.C,C4*%
X94394537Y-69239544D02*
X94413584Y-69258592D01*
X94432632Y-69315735D01*
X94432632Y-69353830D01*
X94413584Y-69410973D01*
X94375489Y-69449068D01*
X94337394Y-69468116D01*
X94261203Y-69487163D01*
X94204060Y-69487163D01*
X94127870Y-69468116D01*
X94089775Y-69449068D01*
X94051680Y-69410973D01*
X94032632Y-69353830D01*
X94032632Y-69315735D01*
X94051680Y-69258592D01*
X94070727Y-69239544D01*
X94165965Y-68896687D02*
X94432632Y-68896687D01*
X94013584Y-68991925D02*
X94299299Y-69087163D01*
X94299299Y-68839544D01*
%TO.C,B_TEMP1*%
X107739108Y-57187068D02*
X107758156Y-57129925D01*
X107777203Y-57110878D01*
X107815299Y-57091830D01*
X107872441Y-57091830D01*
X107910537Y-57110878D01*
X107929584Y-57129925D01*
X107948632Y-57168020D01*
X107948632Y-57320401D01*
X107548632Y-57320401D01*
X107548632Y-57187068D01*
X107567680Y-57148973D01*
X107586727Y-57129925D01*
X107624822Y-57110878D01*
X107662918Y-57110878D01*
X107701013Y-57129925D01*
X107720060Y-57148973D01*
X107739108Y-57187068D01*
X107739108Y-57320401D01*
X107986727Y-57015639D02*
X107986727Y-56710878D01*
X107548632Y-56672782D02*
X107548632Y-56444211D01*
X107948632Y-56558497D02*
X107548632Y-56558497D01*
X107739108Y-56310878D02*
X107739108Y-56177544D01*
X107948632Y-56120401D02*
X107948632Y-56310878D01*
X107548632Y-56310878D01*
X107548632Y-56120401D01*
X107948632Y-55948973D02*
X107548632Y-55948973D01*
X107834346Y-55815639D01*
X107548632Y-55682306D01*
X107948632Y-55682306D01*
X107948632Y-55491830D02*
X107548632Y-55491830D01*
X107548632Y-55339449D01*
X107567680Y-55301354D01*
X107586727Y-55282306D01*
X107624822Y-55263258D01*
X107681965Y-55263258D01*
X107720060Y-55282306D01*
X107739108Y-55301354D01*
X107758156Y-55339449D01*
X107758156Y-55491830D01*
X107948632Y-54882306D02*
X107948632Y-55110878D01*
X107948632Y-54996592D02*
X107548632Y-54996592D01*
X107605775Y-55034687D01*
X107643870Y-55072782D01*
X107662918Y-55110878D01*
%TO.C,RL1*%
X119070632Y-54923449D02*
X118880156Y-55056782D01*
X119070632Y-55152020D02*
X118670632Y-55152020D01*
X118670632Y-54999639D01*
X118689680Y-54961544D01*
X118708727Y-54942497D01*
X118746822Y-54923449D01*
X118803965Y-54923449D01*
X118842060Y-54942497D01*
X118861108Y-54961544D01*
X118880156Y-54999639D01*
X118880156Y-55152020D01*
X119070632Y-54561544D02*
X119070632Y-54752020D01*
X118670632Y-54752020D01*
X119070632Y-54218687D02*
X119070632Y-54447258D01*
X119070632Y-54332973D02*
X118670632Y-54332973D01*
X118727775Y-54371068D01*
X118765870Y-54409163D01*
X118784918Y-54447258D01*
%TO.C,C5*%
X95901013Y-71923735D02*
X95881965Y-71942782D01*
X95824822Y-71961830D01*
X95786727Y-71961830D01*
X95729584Y-71942782D01*
X95691489Y-71904687D01*
X95672441Y-71866592D01*
X95653394Y-71790401D01*
X95653394Y-71733258D01*
X95672441Y-71657068D01*
X95691489Y-71618973D01*
X95729584Y-71580878D01*
X95786727Y-71561830D01*
X95824822Y-71561830D01*
X95881965Y-71580878D01*
X95901013Y-71599925D01*
X96262918Y-71561830D02*
X96072441Y-71561830D01*
X96053394Y-71752306D01*
X96072441Y-71733258D01*
X96110537Y-71714211D01*
X96205775Y-71714211D01*
X96243870Y-71733258D01*
X96262918Y-71752306D01*
X96281965Y-71790401D01*
X96281965Y-71885639D01*
X96262918Y-71923735D01*
X96243870Y-71942782D01*
X96205775Y-71961830D01*
X96110537Y-71961830D01*
X96072441Y-71942782D01*
X96053394Y-71923735D01*
%TO.C,R4*%
X111687890Y-74827544D02*
X111497414Y-74960878D01*
X111687890Y-75056116D02*
X111287890Y-75056116D01*
X111287890Y-74903735D01*
X111306938Y-74865639D01*
X111325985Y-74846592D01*
X111364080Y-74827544D01*
X111421223Y-74827544D01*
X111459318Y-74846592D01*
X111478366Y-74865639D01*
X111497414Y-74903735D01*
X111497414Y-75056116D01*
X111421223Y-74484687D02*
X111687890Y-74484687D01*
X111268842Y-74579925D02*
X111554557Y-74675163D01*
X111554557Y-74427544D01*
%TO.C,R6*%
X107342213Y-63761630D02*
X107208880Y-63571154D01*
X107113641Y-63761630D02*
X107113641Y-63361630D01*
X107266022Y-63361630D01*
X107304118Y-63380678D01*
X107323165Y-63399725D01*
X107342213Y-63437820D01*
X107342213Y-63494963D01*
X107323165Y-63533058D01*
X107304118Y-63552106D01*
X107266022Y-63571154D01*
X107113641Y-63571154D01*
X107685070Y-63361630D02*
X107608880Y-63361630D01*
X107570784Y-63380678D01*
X107551737Y-63399725D01*
X107513641Y-63456868D01*
X107494594Y-63533058D01*
X107494594Y-63685439D01*
X107513641Y-63723535D01*
X107532689Y-63742582D01*
X107570784Y-63761630D01*
X107646975Y-63761630D01*
X107685070Y-63742582D01*
X107704118Y-63723535D01*
X107723165Y-63685439D01*
X107723165Y-63590201D01*
X107704118Y-63552106D01*
X107685070Y-63533058D01*
X107646975Y-63514011D01*
X107570784Y-63514011D01*
X107532689Y-63533058D01*
X107513641Y-63552106D01*
X107494594Y-63590201D01*
%TO.C,R21*%
X116530632Y-66318020D02*
X116340156Y-66451354D01*
X116530632Y-66546592D02*
X116130632Y-66546592D01*
X116130632Y-66394211D01*
X116149680Y-66356116D01*
X116168727Y-66337068D01*
X116206822Y-66318020D01*
X116263965Y-66318020D01*
X116302060Y-66337068D01*
X116321108Y-66356116D01*
X116340156Y-66394211D01*
X116340156Y-66546592D01*
X116168727Y-66165639D02*
X116149680Y-66146592D01*
X116130632Y-66108497D01*
X116130632Y-66013258D01*
X116149680Y-65975163D01*
X116168727Y-65956116D01*
X116206822Y-65937068D01*
X116244918Y-65937068D01*
X116302060Y-65956116D01*
X116530632Y-66184687D01*
X116530632Y-65937068D01*
X116530632Y-65556116D02*
X116530632Y-65784687D01*
X116530632Y-65670401D02*
X116130632Y-65670401D01*
X116187775Y-65708497D01*
X116225870Y-65746592D01*
X116244918Y-65784687D01*
%TO.C,R10*%
X132278632Y-69938020D02*
X132088156Y-70071354D01*
X132278632Y-70166592D02*
X131878632Y-70166592D01*
X131878632Y-70014211D01*
X131897680Y-69976116D01*
X131916727Y-69957068D01*
X131954822Y-69938020D01*
X132011965Y-69938020D01*
X132050060Y-69957068D01*
X132069108Y-69976116D01*
X132088156Y-70014211D01*
X132088156Y-70166592D01*
X132278632Y-69557068D02*
X132278632Y-69785639D01*
X132278632Y-69671354D02*
X131878632Y-69671354D01*
X131935775Y-69709449D01*
X131973870Y-69747544D01*
X131992918Y-69785639D01*
X131878632Y-69309449D02*
X131878632Y-69271354D01*
X131897680Y-69233258D01*
X131916727Y-69214211D01*
X131954822Y-69195163D01*
X132031013Y-69176116D01*
X132126251Y-69176116D01*
X132202441Y-69195163D01*
X132240537Y-69214211D01*
X132259584Y-69233258D01*
X132278632Y-69271354D01*
X132278632Y-69309449D01*
X132259584Y-69347544D01*
X132240537Y-69366592D01*
X132202441Y-69385639D01*
X132126251Y-69404687D01*
X132031013Y-69404687D01*
X131954822Y-69385639D01*
X131916727Y-69366592D01*
X131897680Y-69347544D01*
X131878632Y-69309449D01*
%TO.C,REF\u002A\u002A*%
X120848632Y-49132211D02*
X120658156Y-49265544D01*
X120848632Y-49360782D02*
X120448632Y-49360782D01*
X120448632Y-49208401D01*
X120467680Y-49170306D01*
X120486727Y-49151258D01*
X120524822Y-49132211D01*
X120581965Y-49132211D01*
X120620060Y-49151258D01*
X120639108Y-49170306D01*
X120658156Y-49208401D01*
X120658156Y-49360782D01*
X120639108Y-48960782D02*
X120639108Y-48827449D01*
X120848632Y-48770306D02*
X120848632Y-48960782D01*
X120448632Y-48960782D01*
X120448632Y-48770306D01*
X120639108Y-48465544D02*
X120639108Y-48598878D01*
X120848632Y-48598878D02*
X120448632Y-48598878D01*
X120448632Y-48408401D01*
X120448632Y-48198878D02*
X120543870Y-48198878D01*
X120505775Y-48294116D02*
X120543870Y-48198878D01*
X120505775Y-48103639D01*
X120620060Y-48256020D02*
X120543870Y-48198878D01*
X120620060Y-48141735D01*
X120448632Y-47894116D02*
X120543870Y-47894116D01*
X120505775Y-47989354D02*
X120543870Y-47894116D01*
X120505775Y-47798878D01*
X120620060Y-47951258D02*
X120543870Y-47894116D01*
X120620060Y-47836973D01*
%TO.C,C1*%
X74074537Y-66699544D02*
X74093584Y-66718592D01*
X74112632Y-66775735D01*
X74112632Y-66813830D01*
X74093584Y-66870973D01*
X74055489Y-66909068D01*
X74017394Y-66928116D01*
X73941203Y-66947163D01*
X73884060Y-66947163D01*
X73807870Y-66928116D01*
X73769775Y-66909068D01*
X73731680Y-66870973D01*
X73712632Y-66813830D01*
X73712632Y-66775735D01*
X73731680Y-66718592D01*
X73750727Y-66699544D01*
X74112632Y-66318592D02*
X74112632Y-66547163D01*
X74112632Y-66432878D02*
X73712632Y-66432878D01*
X73769775Y-66470973D01*
X73807870Y-66509068D01*
X73826918Y-66547163D01*
%TO.C,R17*%
X117546632Y-62572020D02*
X117356156Y-62705354D01*
X117546632Y-62800592D02*
X117146632Y-62800592D01*
X117146632Y-62648211D01*
X117165680Y-62610116D01*
X117184727Y-62591068D01*
X117222822Y-62572020D01*
X117279965Y-62572020D01*
X117318060Y-62591068D01*
X117337108Y-62610116D01*
X117356156Y-62648211D01*
X117356156Y-62800592D01*
X117546632Y-62191068D02*
X117546632Y-62419639D01*
X117546632Y-62305354D02*
X117146632Y-62305354D01*
X117203775Y-62343449D01*
X117241870Y-62381544D01*
X117260918Y-62419639D01*
X117146632Y-62057735D02*
X117146632Y-61791068D01*
X117546632Y-61962497D01*
%TO.C,DRIVE1*%
X72988812Y-58807310D02*
X72988812Y-58407310D01*
X73084050Y-58407310D01*
X73141193Y-58426358D01*
X73179289Y-58464453D01*
X73198336Y-58502548D01*
X73217384Y-58578738D01*
X73217384Y-58635881D01*
X73198336Y-58712072D01*
X73179289Y-58750167D01*
X73141193Y-58788262D01*
X73084050Y-58807310D01*
X72988812Y-58807310D01*
X73617384Y-58807310D02*
X73484050Y-58616834D01*
X73388812Y-58807310D02*
X73388812Y-58407310D01*
X73541193Y-58407310D01*
X73579289Y-58426358D01*
X73598336Y-58445405D01*
X73617384Y-58483500D01*
X73617384Y-58540643D01*
X73598336Y-58578738D01*
X73579289Y-58597786D01*
X73541193Y-58616834D01*
X73388812Y-58616834D01*
X73788812Y-58807310D02*
X73788812Y-58407310D01*
X73922146Y-58407310D02*
X74055479Y-58807310D01*
X74188812Y-58407310D01*
X74322146Y-58597786D02*
X74455479Y-58597786D01*
X74512622Y-58807310D02*
X74322146Y-58807310D01*
X74322146Y-58407310D01*
X74512622Y-58407310D01*
X74893574Y-58807310D02*
X74665003Y-58807310D01*
X74779289Y-58807310D02*
X74779289Y-58407310D01*
X74741193Y-58464453D01*
X74703098Y-58502548D01*
X74665003Y-58521596D01*
%TO.C,C18*%
X119286537Y-75272020D02*
X119305584Y-75291068D01*
X119324632Y-75348211D01*
X119324632Y-75386306D01*
X119305584Y-75443449D01*
X119267489Y-75481544D01*
X119229394Y-75500592D01*
X119153203Y-75519639D01*
X119096060Y-75519639D01*
X119019870Y-75500592D01*
X118981775Y-75481544D01*
X118943680Y-75443449D01*
X118924632Y-75386306D01*
X118924632Y-75348211D01*
X118943680Y-75291068D01*
X118962727Y-75272020D01*
X119324632Y-74891068D02*
X119324632Y-75119639D01*
X119324632Y-75005354D02*
X118924632Y-75005354D01*
X118981775Y-75043449D01*
X119019870Y-75081544D01*
X119038918Y-75119639D01*
X119096060Y-74662497D02*
X119077013Y-74700592D01*
X119057965Y-74719639D01*
X119019870Y-74738687D01*
X119000822Y-74738687D01*
X118962727Y-74719639D01*
X118943680Y-74700592D01*
X118924632Y-74662497D01*
X118924632Y-74586306D01*
X118943680Y-74548211D01*
X118962727Y-74529163D01*
X119000822Y-74510116D01*
X119019870Y-74510116D01*
X119057965Y-74529163D01*
X119077013Y-74548211D01*
X119096060Y-74586306D01*
X119096060Y-74662497D01*
X119115108Y-74700592D01*
X119134156Y-74719639D01*
X119172251Y-74738687D01*
X119248441Y-74738687D01*
X119286537Y-74719639D01*
X119305584Y-74700592D01*
X119324632Y-74662497D01*
X119324632Y-74586306D01*
X119305584Y-74548211D01*
X119286537Y-74529163D01*
X119248441Y-74510116D01*
X119172251Y-74510116D01*
X119134156Y-74529163D01*
X119115108Y-74548211D01*
X119096060Y-74586306D01*
%TO.C,Q2*%
X107874527Y-66594773D02*
X107855480Y-66632868D01*
X107817384Y-66670963D01*
X107760241Y-66728106D01*
X107741194Y-66766201D01*
X107741194Y-66804297D01*
X107836432Y-66785249D02*
X107817384Y-66823344D01*
X107779289Y-66861439D01*
X107703099Y-66880487D01*
X107569765Y-66880487D01*
X107493575Y-66861439D01*
X107455480Y-66823344D01*
X107436432Y-66785249D01*
X107436432Y-66709058D01*
X107455480Y-66670963D01*
X107493575Y-66632868D01*
X107569765Y-66613820D01*
X107703099Y-66613820D01*
X107779289Y-66632868D01*
X107817384Y-66670963D01*
X107836432Y-66709058D01*
X107836432Y-66785249D01*
X107474527Y-66461439D02*
X107455480Y-66442392D01*
X107436432Y-66404297D01*
X107436432Y-66309058D01*
X107455480Y-66270963D01*
X107474527Y-66251916D01*
X107512622Y-66232868D01*
X107550718Y-66232868D01*
X107607860Y-66251916D01*
X107836432Y-66480487D01*
X107836432Y-66232868D01*
%TO.C,JP2*%
X88065727Y-69439544D02*
X87780013Y-69439544D01*
X87722870Y-69420497D01*
X87684775Y-69382401D01*
X87665727Y-69325258D01*
X87665727Y-69287163D01*
X87665727Y-69630020D02*
X88065727Y-69630020D01*
X88065727Y-69782401D01*
X88046680Y-69820497D01*
X88027632Y-69839544D01*
X87989537Y-69858592D01*
X87932394Y-69858592D01*
X87894299Y-69839544D01*
X87875251Y-69820497D01*
X87856203Y-69782401D01*
X87856203Y-69630020D01*
X88027632Y-70010973D02*
X88046680Y-70030020D01*
X88065727Y-70068116D01*
X88065727Y-70163354D01*
X88046680Y-70201449D01*
X88027632Y-70220497D01*
X87989537Y-70239544D01*
X87951441Y-70239544D01*
X87894299Y-70220497D01*
X87665727Y-69991925D01*
X87665727Y-70239544D01*
%TO.C,R19*%
X122118632Y-72986020D02*
X121928156Y-73119354D01*
X122118632Y-73214592D02*
X121718632Y-73214592D01*
X121718632Y-73062211D01*
X121737680Y-73024116D01*
X121756727Y-73005068D01*
X121794822Y-72986020D01*
X121851965Y-72986020D01*
X121890060Y-73005068D01*
X121909108Y-73024116D01*
X121928156Y-73062211D01*
X121928156Y-73214592D01*
X122118632Y-72605068D02*
X122118632Y-72833639D01*
X122118632Y-72719354D02*
X121718632Y-72719354D01*
X121775775Y-72757449D01*
X121813870Y-72795544D01*
X121832918Y-72833639D01*
X122118632Y-72414592D02*
X122118632Y-72338401D01*
X122099584Y-72300306D01*
X122080537Y-72281258D01*
X122023394Y-72243163D01*
X121947203Y-72224116D01*
X121794822Y-72224116D01*
X121756727Y-72243163D01*
X121737680Y-72262211D01*
X121718632Y-72300306D01*
X121718632Y-72376497D01*
X121737680Y-72414592D01*
X121756727Y-72433639D01*
X121794822Y-72452687D01*
X121890060Y-72452687D01*
X121928156Y-72433639D01*
X121947203Y-72414592D01*
X121966251Y-72376497D01*
X121966251Y-72300306D01*
X121947203Y-72262211D01*
X121928156Y-72243163D01*
X121890060Y-72224116D01*
%TO.C,R24*%
X114473952Y-61918142D02*
X114283476Y-62051476D01*
X114473952Y-62146714D02*
X114073952Y-62146714D01*
X114073952Y-61994333D01*
X114093000Y-61956238D01*
X114112047Y-61937190D01*
X114150142Y-61918142D01*
X114207285Y-61918142D01*
X114245380Y-61937190D01*
X114264428Y-61956238D01*
X114283476Y-61994333D01*
X114283476Y-62146714D01*
X114112047Y-61765761D02*
X114093000Y-61746714D01*
X114073952Y-61708619D01*
X114073952Y-61613380D01*
X114093000Y-61575285D01*
X114112047Y-61556238D01*
X114150142Y-61537190D01*
X114188238Y-61537190D01*
X114245380Y-61556238D01*
X114473952Y-61784809D01*
X114473952Y-61537190D01*
X114207285Y-61194333D02*
X114473952Y-61194333D01*
X114054904Y-61289571D02*
X114340619Y-61384809D01*
X114340619Y-61137190D01*
%TO.C,SW1*%
X107749584Y-53019211D02*
X107768632Y-52962068D01*
X107768632Y-52866830D01*
X107749584Y-52828735D01*
X107730537Y-52809687D01*
X107692441Y-52790639D01*
X107654346Y-52790639D01*
X107616251Y-52809687D01*
X107597203Y-52828735D01*
X107578156Y-52866830D01*
X107559108Y-52943020D01*
X107540060Y-52981116D01*
X107521013Y-53000163D01*
X107482918Y-53019211D01*
X107444822Y-53019211D01*
X107406727Y-53000163D01*
X107387680Y-52981116D01*
X107368632Y-52943020D01*
X107368632Y-52847782D01*
X107387680Y-52790639D01*
X107368632Y-52657306D02*
X107768632Y-52562068D01*
X107482918Y-52485878D01*
X107768632Y-52409687D01*
X107368632Y-52314449D01*
X107768632Y-51952544D02*
X107768632Y-52181116D01*
X107768632Y-52066830D02*
X107368632Y-52066830D01*
X107425775Y-52104925D01*
X107463870Y-52143020D01*
X107482918Y-52181116D01*
%TO.C,J3*%
X74247632Y-68668211D02*
X74533346Y-68668211D01*
X74590489Y-68687258D01*
X74628584Y-68725354D01*
X74647632Y-68782497D01*
X74647632Y-68820592D01*
X74247632Y-68515830D02*
X74247632Y-68268211D01*
X74400013Y-68401544D01*
X74400013Y-68344401D01*
X74419060Y-68306306D01*
X74438108Y-68287258D01*
X74476203Y-68268211D01*
X74571441Y-68268211D01*
X74609537Y-68287258D01*
X74628584Y-68306306D01*
X74647632Y-68344401D01*
X74647632Y-68458687D01*
X74628584Y-68496782D01*
X74609537Y-68515830D01*
%TO.C,C3*%
X70518537Y-72541544D02*
X70537584Y-72560592D01*
X70556632Y-72617735D01*
X70556632Y-72655830D01*
X70537584Y-72712973D01*
X70499489Y-72751068D01*
X70461394Y-72770116D01*
X70385203Y-72789163D01*
X70328060Y-72789163D01*
X70251870Y-72770116D01*
X70213775Y-72751068D01*
X70175680Y-72712973D01*
X70156632Y-72655830D01*
X70156632Y-72617735D01*
X70175680Y-72560592D01*
X70194727Y-72541544D01*
X70156632Y-72408211D02*
X70156632Y-72160592D01*
X70309013Y-72293925D01*
X70309013Y-72236782D01*
X70328060Y-72198687D01*
X70347108Y-72179639D01*
X70385203Y-72160592D01*
X70480441Y-72160592D01*
X70518537Y-72179639D01*
X70537584Y-72198687D01*
X70556632Y-72236782D01*
X70556632Y-72351068D01*
X70537584Y-72389163D01*
X70518537Y-72408211D01*
%TO.C,R2*%
X116407832Y-64108744D02*
X116217356Y-64242078D01*
X116407832Y-64337316D02*
X116007832Y-64337316D01*
X116007832Y-64184935D01*
X116026880Y-64146839D01*
X116045927Y-64127792D01*
X116084022Y-64108744D01*
X116141165Y-64108744D01*
X116179260Y-64127792D01*
X116198308Y-64146839D01*
X116217356Y-64184935D01*
X116217356Y-64337316D01*
X116045927Y-63956363D02*
X116026880Y-63937316D01*
X116007832Y-63899220D01*
X116007832Y-63803982D01*
X116026880Y-63765887D01*
X116045927Y-63746839D01*
X116084022Y-63727792D01*
X116122118Y-63727792D01*
X116179260Y-63746839D01*
X116407832Y-63975411D01*
X116407832Y-63727792D01*
%TO.C,LA1*%
X131262632Y-52454973D02*
X131262632Y-52645449D01*
X130862632Y-52645449D01*
X131148346Y-52340687D02*
X131148346Y-52150211D01*
X131262632Y-52378782D02*
X130862632Y-52245449D01*
X131262632Y-52112116D01*
X131262632Y-51769258D02*
X131262632Y-51997830D01*
X131262632Y-51883544D02*
X130862632Y-51883544D01*
X130919775Y-51921639D01*
X130957870Y-51959735D01*
X130976918Y-51997830D01*
%TO.C,U2*%
X85172232Y-70453639D02*
X85496041Y-70453639D01*
X85534137Y-70434592D01*
X85553184Y-70415544D01*
X85572232Y-70377449D01*
X85572232Y-70301258D01*
X85553184Y-70263163D01*
X85534137Y-70244116D01*
X85496041Y-70225068D01*
X85172232Y-70225068D01*
X85210327Y-70053639D02*
X85191280Y-70034592D01*
X85172232Y-69996497D01*
X85172232Y-69901258D01*
X85191280Y-69863163D01*
X85210327Y-69844116D01*
X85248422Y-69825068D01*
X85286518Y-69825068D01*
X85343660Y-69844116D01*
X85572232Y-70072687D01*
X85572232Y-69825068D01*
%TO.C,R27*%
X98348632Y-63588020D02*
X98158156Y-63721354D01*
X98348632Y-63816592D02*
X97948632Y-63816592D01*
X97948632Y-63664211D01*
X97967680Y-63626116D01*
X97986727Y-63607068D01*
X98024822Y-63588020D01*
X98081965Y-63588020D01*
X98120060Y-63607068D01*
X98139108Y-63626116D01*
X98158156Y-63664211D01*
X98158156Y-63816592D01*
X97986727Y-63435639D02*
X97967680Y-63416592D01*
X97948632Y-63378497D01*
X97948632Y-63283258D01*
X97967680Y-63245163D01*
X97986727Y-63226116D01*
X98024822Y-63207068D01*
X98062918Y-63207068D01*
X98120060Y-63226116D01*
X98348632Y-63454687D01*
X98348632Y-63207068D01*
X97948632Y-63073735D02*
X97948632Y-62807068D01*
X98348632Y-62978497D01*
%TO.C,C16*%
X119794537Y-59778020D02*
X119813584Y-59797068D01*
X119832632Y-59854211D01*
X119832632Y-59892306D01*
X119813584Y-59949449D01*
X119775489Y-59987544D01*
X119737394Y-60006592D01*
X119661203Y-60025639D01*
X119604060Y-60025639D01*
X119527870Y-60006592D01*
X119489775Y-59987544D01*
X119451680Y-59949449D01*
X119432632Y-59892306D01*
X119432632Y-59854211D01*
X119451680Y-59797068D01*
X119470727Y-59778020D01*
X119832632Y-59397068D02*
X119832632Y-59625639D01*
X119832632Y-59511354D02*
X119432632Y-59511354D01*
X119489775Y-59549449D01*
X119527870Y-59587544D01*
X119546918Y-59625639D01*
X119432632Y-59054211D02*
X119432632Y-59130401D01*
X119451680Y-59168497D01*
X119470727Y-59187544D01*
X119527870Y-59225639D01*
X119604060Y-59244687D01*
X119756441Y-59244687D01*
X119794537Y-59225639D01*
X119813584Y-59206592D01*
X119832632Y-59168497D01*
X119832632Y-59092306D01*
X119813584Y-59054211D01*
X119794537Y-59035163D01*
X119756441Y-59016116D01*
X119661203Y-59016116D01*
X119623108Y-59035163D01*
X119604060Y-59054211D01*
X119585013Y-59092306D01*
X119585013Y-59168497D01*
X119604060Y-59206592D01*
X119623108Y-59225639D01*
X119661203Y-59244687D01*
%TO.C,R1*%
X75080952Y-73766666D02*
X74890476Y-73900000D01*
X75080952Y-73995238D02*
X74680952Y-73995238D01*
X74680952Y-73842857D01*
X74700000Y-73804761D01*
X74719047Y-73785714D01*
X74757142Y-73766666D01*
X74814285Y-73766666D01*
X74852380Y-73785714D01*
X74871428Y-73804761D01*
X74890476Y-73842857D01*
X74890476Y-73995238D01*
X75080952Y-73385714D02*
X75080952Y-73614285D01*
X75080952Y-73500000D02*
X74680952Y-73500000D01*
X74738095Y-73538095D01*
X74776190Y-73576190D01*
X74795238Y-73614285D01*
%TO.C,GREEN1*%
X109910537Y-53892878D02*
X109872441Y-53873830D01*
X109815299Y-53873830D01*
X109758156Y-53892878D01*
X109720060Y-53930973D01*
X109701013Y-53969068D01*
X109681965Y-54045258D01*
X109681965Y-54102401D01*
X109701013Y-54178592D01*
X109720060Y-54216687D01*
X109758156Y-54254782D01*
X109815299Y-54273830D01*
X109853394Y-54273830D01*
X109910537Y-54254782D01*
X109929584Y-54235735D01*
X109929584Y-54102401D01*
X109853394Y-54102401D01*
X110329584Y-54273830D02*
X110196251Y-54083354D01*
X110101013Y-54273830D02*
X110101013Y-53873830D01*
X110253394Y-53873830D01*
X110291489Y-53892878D01*
X110310537Y-53911925D01*
X110329584Y-53950020D01*
X110329584Y-54007163D01*
X110310537Y-54045258D01*
X110291489Y-54064306D01*
X110253394Y-54083354D01*
X110101013Y-54083354D01*
X110501013Y-54064306D02*
X110634346Y-54064306D01*
X110691489Y-54273830D02*
X110501013Y-54273830D01*
X110501013Y-53873830D01*
X110691489Y-53873830D01*
X110862918Y-54064306D02*
X110996251Y-54064306D01*
X111053394Y-54273830D02*
X110862918Y-54273830D01*
X110862918Y-53873830D01*
X111053394Y-53873830D01*
X111224822Y-54273830D02*
X111224822Y-53873830D01*
X111453394Y-54273830D01*
X111453394Y-53873830D01*
X111853394Y-54273830D02*
X111624822Y-54273830D01*
X111739108Y-54273830D02*
X111739108Y-53873830D01*
X111701013Y-53930973D01*
X111662918Y-53969068D01*
X111624822Y-53988116D01*
%TO.C,IC1*%
X125092818Y-68570368D02*
X124692818Y-68570368D01*
X125054723Y-68151320D02*
X125073770Y-68170368D01*
X125092818Y-68227511D01*
X125092818Y-68265606D01*
X125073770Y-68322749D01*
X125035675Y-68360844D01*
X124997580Y-68379892D01*
X124921389Y-68398939D01*
X124864246Y-68398939D01*
X124788056Y-68379892D01*
X124749961Y-68360844D01*
X124711866Y-68322749D01*
X124692818Y-68265606D01*
X124692818Y-68227511D01*
X124711866Y-68170368D01*
X124730913Y-68151320D01*
X125092818Y-67770368D02*
X125092818Y-67998939D01*
X125092818Y-67884653D02*
X124692818Y-67884653D01*
X124749961Y-67922749D01*
X124788056Y-67960844D01*
X124807104Y-67998939D01*
%TO.C,C23*%
X114256537Y-56682020D02*
X114275584Y-56701068D01*
X114294632Y-56758211D01*
X114294632Y-56796306D01*
X114275584Y-56853449D01*
X114237489Y-56891544D01*
X114199394Y-56910592D01*
X114123203Y-56929639D01*
X114066060Y-56929639D01*
X113989870Y-56910592D01*
X113951775Y-56891544D01*
X113913680Y-56853449D01*
X113894632Y-56796306D01*
X113894632Y-56758211D01*
X113913680Y-56701068D01*
X113932727Y-56682020D01*
X113932727Y-56529639D02*
X113913680Y-56510592D01*
X113894632Y-56472497D01*
X113894632Y-56377258D01*
X113913680Y-56339163D01*
X113932727Y-56320116D01*
X113970822Y-56301068D01*
X114008918Y-56301068D01*
X114066060Y-56320116D01*
X114294632Y-56548687D01*
X114294632Y-56301068D01*
X113894632Y-56167735D02*
X113894632Y-55920116D01*
X114047013Y-56053449D01*
X114047013Y-55996306D01*
X114066060Y-55958211D01*
X114085108Y-55939163D01*
X114123203Y-55920116D01*
X114218441Y-55920116D01*
X114256537Y-55939163D01*
X114275584Y-55958211D01*
X114294632Y-55996306D01*
X114294632Y-56110592D01*
X114275584Y-56148687D01*
X114256537Y-56167735D01*
%TO.C,C6*%
X114251013Y-67377735D02*
X114231965Y-67396782D01*
X114174822Y-67415830D01*
X114136727Y-67415830D01*
X114079584Y-67396782D01*
X114041489Y-67358687D01*
X114022441Y-67320592D01*
X114003394Y-67244401D01*
X114003394Y-67187258D01*
X114022441Y-67111068D01*
X114041489Y-67072973D01*
X114079584Y-67034878D01*
X114136727Y-67015830D01*
X114174822Y-67015830D01*
X114231965Y-67034878D01*
X114251013Y-67053925D01*
X114593870Y-67015830D02*
X114517680Y-67015830D01*
X114479584Y-67034878D01*
X114460537Y-67053925D01*
X114422441Y-67111068D01*
X114403394Y-67187258D01*
X114403394Y-67339639D01*
X114422441Y-67377735D01*
X114441489Y-67396782D01*
X114479584Y-67415830D01*
X114555775Y-67415830D01*
X114593870Y-67396782D01*
X114612918Y-67377735D01*
X114631965Y-67339639D01*
X114631965Y-67244401D01*
X114612918Y-67206306D01*
X114593870Y-67187258D01*
X114555775Y-67168211D01*
X114479584Y-67168211D01*
X114441489Y-67187258D01*
X114422441Y-67206306D01*
X114403394Y-67244401D01*
%TO.C,C7*%
X115730537Y-71873544D02*
X115749584Y-71892592D01*
X115768632Y-71949735D01*
X115768632Y-71987830D01*
X115749584Y-72044973D01*
X115711489Y-72083068D01*
X115673394Y-72102116D01*
X115597203Y-72121163D01*
X115540060Y-72121163D01*
X115463870Y-72102116D01*
X115425775Y-72083068D01*
X115387680Y-72044973D01*
X115368632Y-71987830D01*
X115368632Y-71949735D01*
X115387680Y-71892592D01*
X115406727Y-71873544D01*
X115368632Y-71740211D02*
X115368632Y-71473544D01*
X115768632Y-71644973D01*
%TO.C,RED1*%
X113870060Y-54211830D02*
X113736727Y-54021354D01*
X113641489Y-54211830D02*
X113641489Y-53811830D01*
X113793870Y-53811830D01*
X113831965Y-53830878D01*
X113851013Y-53849925D01*
X113870060Y-53888020D01*
X113870060Y-53945163D01*
X113851013Y-53983258D01*
X113831965Y-54002306D01*
X113793870Y-54021354D01*
X113641489Y-54021354D01*
X114041489Y-54002306D02*
X114174822Y-54002306D01*
X114231965Y-54211830D02*
X114041489Y-54211830D01*
X114041489Y-53811830D01*
X114231965Y-53811830D01*
X114403394Y-54211830D02*
X114403394Y-53811830D01*
X114498632Y-53811830D01*
X114555775Y-53830878D01*
X114593870Y-53868973D01*
X114612918Y-53907068D01*
X114631965Y-53983258D01*
X114631965Y-54040401D01*
X114612918Y-54116592D01*
X114593870Y-54154687D01*
X114555775Y-54192782D01*
X114498632Y-54211830D01*
X114403394Y-54211830D01*
X115012918Y-54211830D02*
X114784346Y-54211830D01*
X114898632Y-54211830D02*
X114898632Y-53811830D01*
X114860537Y-53868973D01*
X114822441Y-53907068D01*
X114784346Y-53926116D01*
%TO.C,D1*%
X73580952Y-74795238D02*
X73180952Y-74795238D01*
X73180952Y-74700000D01*
X73200000Y-74642857D01*
X73238095Y-74604761D01*
X73276190Y-74585714D01*
X73352380Y-74566666D01*
X73409523Y-74566666D01*
X73485714Y-74585714D01*
X73523809Y-74604761D01*
X73561904Y-74642857D01*
X73580952Y-74700000D01*
X73580952Y-74795238D01*
X73580952Y-74185714D02*
X73580952Y-74414285D01*
X73580952Y-74300000D02*
X73180952Y-74300000D01*
X73238095Y-74338095D01*
X73276190Y-74376190D01*
X73295238Y-74414285D01*
%TO.C,C19*%
X118524537Y-68300600D02*
X118543584Y-68319648D01*
X118562632Y-68376791D01*
X118562632Y-68414886D01*
X118543584Y-68472029D01*
X118505489Y-68510124D01*
X118467394Y-68529172D01*
X118391203Y-68548219D01*
X118334060Y-68548219D01*
X118257870Y-68529172D01*
X118219775Y-68510124D01*
X118181680Y-68472029D01*
X118162632Y-68414886D01*
X118162632Y-68376791D01*
X118181680Y-68319648D01*
X118200727Y-68300600D01*
X118562632Y-67919648D02*
X118562632Y-68148219D01*
X118562632Y-68033934D02*
X118162632Y-68033934D01*
X118219775Y-68072029D01*
X118257870Y-68110124D01*
X118276918Y-68148219D01*
X118562632Y-67729172D02*
X118562632Y-67652981D01*
X118543584Y-67614886D01*
X118524537Y-67595838D01*
X118467394Y-67557743D01*
X118391203Y-67538696D01*
X118238822Y-67538696D01*
X118200727Y-67557743D01*
X118181680Y-67576791D01*
X118162632Y-67614886D01*
X118162632Y-67691077D01*
X118181680Y-67729172D01*
X118200727Y-67748219D01*
X118238822Y-67767267D01*
X118334060Y-67767267D01*
X118372156Y-67748219D01*
X118391203Y-67729172D01*
X118410251Y-67691077D01*
X118410251Y-67614886D01*
X118391203Y-67576791D01*
X118372156Y-67557743D01*
X118334060Y-67538696D01*
%TO.C,R18*%
X120848632Y-65112020D02*
X120658156Y-65245354D01*
X120848632Y-65340592D02*
X120448632Y-65340592D01*
X120448632Y-65188211D01*
X120467680Y-65150116D01*
X120486727Y-65131068D01*
X120524822Y-65112020D01*
X120581965Y-65112020D01*
X120620060Y-65131068D01*
X120639108Y-65150116D01*
X120658156Y-65188211D01*
X120658156Y-65340592D01*
X120848632Y-64731068D02*
X120848632Y-64959639D01*
X120848632Y-64845354D02*
X120448632Y-64845354D01*
X120505775Y-64883449D01*
X120543870Y-64921544D01*
X120562918Y-64959639D01*
X120620060Y-64502497D02*
X120601013Y-64540592D01*
X120581965Y-64559639D01*
X120543870Y-64578687D01*
X120524822Y-64578687D01*
X120486727Y-64559639D01*
X120467680Y-64540592D01*
X120448632Y-64502497D01*
X120448632Y-64426306D01*
X120467680Y-64388211D01*
X120486727Y-64369163D01*
X120524822Y-64350116D01*
X120543870Y-64350116D01*
X120581965Y-64369163D01*
X120601013Y-64388211D01*
X120620060Y-64426306D01*
X120620060Y-64502497D01*
X120639108Y-64540592D01*
X120658156Y-64559639D01*
X120696251Y-64578687D01*
X120772441Y-64578687D01*
X120810537Y-64559639D01*
X120829584Y-64540592D01*
X120848632Y-64502497D01*
X120848632Y-64426306D01*
X120829584Y-64388211D01*
X120810537Y-64369163D01*
X120772441Y-64350116D01*
X120696251Y-64350116D01*
X120658156Y-64369163D01*
X120639108Y-64388211D01*
X120620060Y-64426306D01*
%TO.C,D2*%
X80016632Y-66420116D02*
X79616632Y-66420116D01*
X79616632Y-66324878D01*
X79635680Y-66267735D01*
X79673775Y-66229639D01*
X79711870Y-66210592D01*
X79788060Y-66191544D01*
X79845203Y-66191544D01*
X79921394Y-66210592D01*
X79959489Y-66229639D01*
X79997584Y-66267735D01*
X80016632Y-66324878D01*
X80016632Y-66420116D01*
X79654727Y-66039163D02*
X79635680Y-66020116D01*
X79616632Y-65982020D01*
X79616632Y-65886782D01*
X79635680Y-65848687D01*
X79654727Y-65829639D01*
X79692822Y-65810592D01*
X79730918Y-65810592D01*
X79788060Y-65829639D01*
X80016632Y-66058211D01*
X80016632Y-65810592D01*
%TO.C,D3*%
X80716632Y-62356116D02*
X80316632Y-62356116D01*
X80316632Y-62260878D01*
X80335680Y-62203735D01*
X80373775Y-62165639D01*
X80411870Y-62146592D01*
X80488060Y-62127544D01*
X80545203Y-62127544D01*
X80621394Y-62146592D01*
X80659489Y-62165639D01*
X80697584Y-62203735D01*
X80716632Y-62260878D01*
X80716632Y-62356116D01*
X80316632Y-61994211D02*
X80316632Y-61746592D01*
X80469013Y-61879925D01*
X80469013Y-61822782D01*
X80488060Y-61784687D01*
X80507108Y-61765639D01*
X80545203Y-61746592D01*
X80640441Y-61746592D01*
X80678537Y-61765639D01*
X80697584Y-61784687D01*
X80716632Y-61822782D01*
X80716632Y-61937068D01*
X80697584Y-61975163D01*
X80678537Y-61994211D01*
%TO.C,R15*%
X131516632Y-56730020D02*
X131326156Y-56863354D01*
X131516632Y-56958592D02*
X131116632Y-56958592D01*
X131116632Y-56806211D01*
X131135680Y-56768116D01*
X131154727Y-56749068D01*
X131192822Y-56730020D01*
X131249965Y-56730020D01*
X131288060Y-56749068D01*
X131307108Y-56768116D01*
X131326156Y-56806211D01*
X131326156Y-56958592D01*
X131516632Y-56349068D02*
X131516632Y-56577639D01*
X131516632Y-56463354D02*
X131116632Y-56463354D01*
X131173775Y-56501449D01*
X131211870Y-56539544D01*
X131230918Y-56577639D01*
X131116632Y-55987163D02*
X131116632Y-56177639D01*
X131307108Y-56196687D01*
X131288060Y-56177639D01*
X131269013Y-56139544D01*
X131269013Y-56044306D01*
X131288060Y-56006211D01*
X131307108Y-55987163D01*
X131345203Y-55968116D01*
X131440441Y-55968116D01*
X131478537Y-55987163D01*
X131497584Y-56006211D01*
X131516632Y-56044306D01*
X131516632Y-56139544D01*
X131497584Y-56177639D01*
X131478537Y-56196687D01*
D13*
%TO.C,R3*%
X98078422Y-68425378D02*
X98552938Y-68425378D01*
X98078422Y-67380378D02*
X98552938Y-67380378D01*
%TO.C,R14*%
X122685180Y-60299620D02*
X122685180Y-60774136D01*
X123730180Y-60299620D02*
X123730180Y-60774136D01*
%TO.C,RST_CP1*%
X77100000Y-72600000D02*
G75*
G03*
X77100000Y-72600000I-700000J0D01*
G01*
%TO.C,R23*%
X107445180Y-59283620D02*
X107445180Y-59758136D01*
X108490180Y-59283620D02*
X108490180Y-59758136D01*
%TO.C,C22*%
X92868260Y-54188878D02*
X92587100Y-54188878D01*
X92868260Y-53168878D02*
X92587100Y-53168878D01*
%TO.C,D-1*%
X83521680Y-62568878D02*
G75*
G03*
X83521680Y-62568878I-700000J0D01*
G01*
%TO.C,C15*%
X132211100Y-66630878D02*
X132492260Y-66630878D01*
X132211100Y-67650878D02*
X132492260Y-67650878D01*
%TO.C,R13*%
X122174938Y-57220378D02*
X121700422Y-57220378D01*
X122174938Y-58265378D02*
X121700422Y-58265378D01*
%TO.C,R22*%
X96806180Y-53695620D02*
X96806180Y-54170136D01*
X95761180Y-53695620D02*
X95761180Y-54170136D01*
%TO.C,C20*%
X90697680Y-56867458D02*
X90697680Y-56586298D01*
X89677680Y-56867458D02*
X89677680Y-56586298D01*
%TO.C,R8*%
X127003180Y-72491620D02*
X127003180Y-72966136D01*
X128048180Y-72491620D02*
X128048180Y-72966136D01*
%TO.C,R20*%
X119888938Y-70711378D02*
X119414422Y-70711378D01*
X119888938Y-69666378D02*
X119414422Y-69666378D01*
%TO.C,R26*%
X98809180Y-58775620D02*
X98809180Y-59250136D01*
X99854180Y-58775620D02*
X99854180Y-59250136D01*
%TO.C,Q1*%
X102667680Y-66050878D02*
X100992680Y-66050878D01*
X102667680Y-69170878D02*
X102017680Y-69170878D01*
X102667680Y-66050878D02*
X103317680Y-66050878D01*
X102667680Y-69170878D02*
X103317680Y-69170878D01*
%TO.C,R7*%
X76962938Y-74238378D02*
X76488422Y-74238378D01*
X76962938Y-75283378D02*
X76488422Y-75283378D01*
%TO.C,C11*%
X129127100Y-69800878D02*
X129408260Y-69800878D01*
X129127100Y-70820878D02*
X129408260Y-70820878D01*
%TO.C,R25*%
X111509180Y-58996136D02*
X111509180Y-58521620D01*
X112554180Y-58996136D02*
X112554180Y-58521620D01*
D14*
%TO.C,U5*%
X100845680Y-62282878D02*
X100845680Y-58282878D01*
X105945680Y-62282878D02*
X105945680Y-58282878D01*
D15*
X100990680Y-64727878D02*
G75*
G03*
X100990680Y-64727878I-100000J0D01*
G01*
D13*
%TO.C,R9*%
X131096180Y-72491620D02*
X131096180Y-72966136D01*
X130051180Y-72491620D02*
X130051180Y-72966136D01*
%TO.C,U4*%
X96899680Y-58214878D02*
X96899680Y-64224878D01*
X96899680Y-64224878D02*
X95639680Y-64224878D01*
X90079680Y-64224878D02*
X91339680Y-64224878D01*
X90079680Y-60464878D02*
X90079680Y-64224878D01*
D14*
%TO.C,SELECT1*%
X132361680Y-61358628D02*
X132361680Y-63271128D01*
X127261680Y-61358628D02*
X127261680Y-63271128D01*
X127899180Y-64864878D02*
X131724180Y-64864878D01*
X127899180Y-59764878D02*
X131724180Y-59764878D01*
X131211680Y-62314878D02*
G75*
G03*
X131211680Y-62314878I-1400000J0D01*
G01*
D13*
%TO.C,R12*%
X132842938Y-53664378D02*
X132368422Y-53664378D01*
X132842938Y-54709378D02*
X132368422Y-54709378D01*
%TO.C,C21*%
X92868260Y-56220878D02*
X92587100Y-56220878D01*
X92868260Y-55200878D02*
X92587100Y-55200878D01*
%TO.C,C2*%
X77489680Y-67508298D02*
X77489680Y-67789458D01*
X76469680Y-67508298D02*
X76469680Y-67789458D01*
%TO.C,U6*%
X92499680Y-72259878D02*
X114799680Y-72259878D01*
X114799680Y-72259878D02*
X114799680Y-70109878D01*
X92499680Y-70109878D02*
X92499680Y-72259878D01*
D12*
X111999680Y-67359878D02*
G75*
G03*
X111999680Y-67359878I-350000J0D01*
G01*
X95999680Y-67359878D02*
G75*
G03*
X95999680Y-67359878I-350000J0D01*
G01*
D13*
%TO.C,R5*%
X113062180Y-64838136D02*
X113062180Y-64363620D01*
X112017180Y-64838136D02*
X112017180Y-64363620D01*
%TO.C,RA1*%
X128467680Y-53310878D02*
G75*
G03*
X128467680Y-53310878I-700000J0D01*
G01*
%TO.C,C17*%
X132603680Y-73123458D02*
X132603680Y-72842298D01*
X133623680Y-73123458D02*
X133623680Y-72842298D01*
%TO.C,D+1*%
X83521680Y-64854878D02*
G75*
G03*
X83521680Y-64854878I-700000J0D01*
G01*
%TO.C,C24*%
X109345000Y-60819420D02*
X109345000Y-61100580D01*
X110365000Y-60819420D02*
X110365000Y-61100580D01*
%TO.C,C10*%
X128539680Y-72588298D02*
X128539680Y-72869458D01*
X129559680Y-72588298D02*
X129559680Y-72869458D01*
%TO.C,R16*%
X116081180Y-59537620D02*
X116081180Y-60012136D01*
X117126180Y-59537620D02*
X117126180Y-60012136D01*
%TO.C,C4*%
X94392260Y-68412878D02*
X94111100Y-68412878D01*
X94392260Y-67392878D02*
X94111100Y-67392878D01*
%TO.C,B_TEMP1*%
X109667680Y-56910878D02*
G75*
G03*
X109667680Y-56910878I-700000J0D01*
G01*
%TO.C,RL1*%
X119081680Y-56218878D02*
G75*
G03*
X119081680Y-56218878I-700000J0D01*
G01*
%TO.C,C5*%
X95827100Y-73720878D02*
X96108260Y-73720878D01*
X95827100Y-72700878D02*
X96108260Y-72700878D01*
%TO.C,R4*%
X111032422Y-72968378D02*
X111506938Y-72968378D01*
X111032422Y-74013378D02*
X111506938Y-74013378D01*
%TO.C,R6*%
X107982180Y-65379620D02*
X107982180Y-65854136D01*
X106937180Y-65379620D02*
X106937180Y-65854136D01*
%TO.C,R21*%
X116995180Y-66298136D02*
X116995180Y-65823620D01*
X118040180Y-66298136D02*
X118040180Y-65823620D01*
%TO.C,R10*%
X133636180Y-69918136D02*
X133636180Y-69443620D01*
X132591180Y-69918136D02*
X132591180Y-69443620D01*
%TO.C,C1*%
X75711680Y-67789458D02*
X75711680Y-67508298D01*
X74691680Y-67789458D02*
X74691680Y-67508298D01*
%TO.C,R17*%
X118906422Y-62837378D02*
X119380938Y-62837378D01*
X118906422Y-61792378D02*
X119380938Y-61792378D01*
D14*
%TO.C,DRIVE1*%
X72019180Y-59764878D02*
X75844180Y-59764878D01*
X72019180Y-64864878D02*
X75844180Y-64864878D01*
X76481680Y-61358628D02*
X76481680Y-63271128D01*
X71381680Y-61358628D02*
X71381680Y-63271128D01*
X75331680Y-62314878D02*
G75*
G03*
X75331680Y-62314878I-1400000J0D01*
G01*
D13*
%TO.C,C18*%
X119158260Y-74508878D02*
X118877100Y-74508878D01*
X119158260Y-73488878D02*
X118877100Y-73488878D01*
%TO.C,Q2*%
X111559680Y-65362878D02*
X111559680Y-63687878D01*
X108439680Y-65362878D02*
X108439680Y-66012878D01*
X108439680Y-65362878D02*
X108439680Y-64712878D01*
X111559680Y-65362878D02*
X111559680Y-66012878D01*
%TO.C,R19*%
X120254938Y-72833378D02*
X119780422Y-72833378D01*
X120254938Y-71788378D02*
X119780422Y-71788378D01*
%TO.C,R24*%
X112157742Y-62117500D02*
X112632258Y-62117500D01*
X112157742Y-61072500D02*
X112632258Y-61072500D01*
%TO.C,SW1*%
X104233680Y-53930878D02*
X102533680Y-53930878D01*
X99183680Y-52090878D02*
X99183680Y-52880878D01*
X102733680Y-49790878D02*
X102733680Y-51080878D01*
X106083680Y-52880878D02*
X106083680Y-52090878D01*
X104033680Y-51080878D02*
X104033680Y-49790878D01*
X103833680Y-49580878D02*
X102933680Y-49580878D01*
X102733680Y-49790878D02*
X102933680Y-49580878D01*
X104033680Y-49790878D02*
X103833680Y-49580878D01*
X105483680Y-51080878D02*
X99783680Y-51080878D01*
X101233680Y-53930878D02*
X101033680Y-53930878D01*
%TO.C,J3*%
X73600680Y-69095878D02*
X72915680Y-69095878D01*
X71605680Y-68560878D02*
X69605680Y-68560878D01*
X69605680Y-68620878D02*
X69605680Y-68200878D01*
X71605680Y-68440878D02*
X69605680Y-68440878D01*
X71605680Y-66850878D02*
X72521187Y-66850878D01*
X71605680Y-68970878D02*
X71605680Y-66850878D01*
X71605680Y-68620878D02*
X69605680Y-68620878D01*
X69605680Y-67200878D02*
X71605680Y-67200878D01*
X69605680Y-67620878D02*
X69605680Y-67200878D01*
X69605680Y-68200878D02*
X71605680Y-68200878D01*
X71605680Y-68320878D02*
X69605680Y-68320878D01*
X71605680Y-67620878D02*
X69605680Y-67620878D01*
X72230680Y-68970878D02*
X71605680Y-68970878D01*
X73600680Y-68410878D02*
X73600680Y-69095878D01*
X72230680Y-67910878D02*
X71605680Y-67910878D01*
%TO.C,C3*%
X71135680Y-72334298D02*
X71135680Y-72615458D01*
X72155680Y-72334298D02*
X72155680Y-72615458D01*
%TO.C,R2*%
X114557180Y-63855620D02*
X114557180Y-64330136D01*
X115602180Y-63855620D02*
X115602180Y-64330136D01*
%TO.C,LA1*%
X130765680Y-52916878D02*
G75*
G03*
X130765680Y-52916878I-700000J0D01*
G01*
D14*
%TO.C,U2*%
X84051680Y-73866878D02*
X84051680Y-74466878D01*
X79051680Y-69466878D02*
X79651680Y-69466878D01*
X83451680Y-69466878D02*
X84051680Y-69466878D01*
X79051680Y-70066878D02*
X79051680Y-69466878D01*
X84051680Y-69466878D02*
X84051680Y-70066878D01*
X84051680Y-74466878D02*
X83451680Y-74466878D01*
X79651680Y-74466878D02*
X79051680Y-74466878D01*
X79051680Y-74466878D02*
X79051680Y-73866878D01*
D15*
X83151680Y-68666878D02*
G75*
G03*
X83151680Y-68666878I-100000J0D01*
G01*
D13*
%TO.C,R27*%
X99854180Y-63093620D02*
X99854180Y-63568136D01*
X98809180Y-63093620D02*
X98809180Y-63568136D01*
%TO.C,C16*%
X119145680Y-58872298D02*
X119145680Y-59153458D01*
X118125680Y-58872298D02*
X118125680Y-59153458D01*
%TO.C,R1*%
X75470180Y-71475620D02*
X75470180Y-71950136D01*
X74425180Y-71475620D02*
X74425180Y-71950136D01*
%TO.C,GREEN1*%
X112252680Y-53397878D02*
X112252680Y-51927878D01*
X109967680Y-53397878D02*
X112252680Y-53397878D01*
X112252680Y-51927878D02*
X109967680Y-51927878D01*
D16*
%TO.C,IC1*%
X126786866Y-65779892D02*
G75*
G03*
X126786866Y-65779892I-125000J0D01*
G01*
D13*
%TO.C,C23*%
X114065680Y-58364298D02*
X114065680Y-58645458D01*
X113045680Y-58364298D02*
X113045680Y-58645458D01*
%TO.C,C6*%
X114177100Y-68154878D02*
X114458260Y-68154878D01*
X114177100Y-69174878D02*
X114458260Y-69174878D01*
%TO.C,C7*%
X115447100Y-72726878D02*
X115728260Y-72726878D01*
X115447100Y-73746878D02*
X115728260Y-73746878D01*
%TO.C,RED1*%
X115067680Y-51927878D02*
X112782680Y-51927878D01*
X112782680Y-53397878D02*
X115067680Y-53397878D01*
X112782680Y-51927878D02*
X112782680Y-53397878D01*
%TO.C,D1*%
X73904680Y-70989878D02*
X72434680Y-70989878D01*
X73904680Y-73274878D02*
X73904680Y-70989878D01*
X72434680Y-70989878D02*
X72434680Y-73274878D01*
%TO.C,C19*%
X119007680Y-68043458D02*
X119007680Y-67762298D01*
X120027680Y-68043458D02*
X120027680Y-67762298D01*
%TO.C,R18*%
X120040180Y-64398620D02*
X120040180Y-64873136D01*
X118995180Y-64398620D02*
X118995180Y-64873136D01*
%TO.C,D2*%
X80382680Y-67113878D02*
X82667680Y-67113878D01*
X82667680Y-65643878D02*
X80382680Y-65643878D01*
X80382680Y-65643878D02*
X80382680Y-67113878D01*
%TO.C,D3*%
X81766680Y-64319878D02*
X81766680Y-62849878D01*
X81766680Y-62849878D02*
X79481680Y-62849878D01*
X79481680Y-64319878D02*
X81766680Y-64319878D01*
%TO.C,R15*%
X129745180Y-56073620D02*
X129745180Y-56548136D01*
X130790180Y-56073620D02*
X130790180Y-56548136D01*
%TD*%
M02*
