%TF.GenerationSoftware,KiCad,Pcbnew,(6.0.5)*%
%TF.CreationDate,2022-06-05T00:42:26+05:30*%
%TF.ProjectId,PORTABLE_ECG_MACHINE,504f5254-4142-44c4-955f-4543475f4d41,rev-1*%
%TF.SameCoordinates,Original*%
%TF.FileFunction,Soldermask,Bot*%
%TF.FilePolarity,Negative*%
%FSLAX46Y46*%
G04 Gerber Fmt 4.6, Leading zero omitted, Abs format (unit mm)*
G04 Created by KiCad (PCBNEW (6.0.5)) date 2022-06-05 00:42:26*
%MOMM*%
%LPD*%
G01*
G04 APERTURE LIST*
G04 Aperture macros list*
%AMRoundRect*
0 Rectangle with rounded corners*
0 $1 Rounding radius*
0 $2 $3 $4 $5 $6 $7 $8 $9 X,Y pos of 4 corners*
0 Add a 4 corners polygon primitive as box body*
4,1,4,$2,$3,$4,$5,$6,$7,$8,$9,$2,$3,0*
0 Add four circle primitives for the rounded corners*
1,1,$1+$1,$2,$3*
1,1,$1+$1,$4,$5*
1,1,$1+$1,$6,$7*
1,1,$1+$1,$8,$9*
0 Add four rect primitives between the rounded corners*
20,1,$1+$1,$2,$3,$4,$5,0*
20,1,$1+$1,$4,$5,$6,$7,0*
20,1,$1+$1,$6,$7,$8,$9,0*
20,1,$1+$1,$8,$9,$2,$3,0*%
G04 Aperture macros list end*
%ADD10O,0.700000X0.800000*%
%ADD11RoundRect,0.225000X-0.225000X-0.250000X0.225000X-0.250000X0.225000X0.250000X-0.225000X0.250000X0*%
%ADD12C,2.100000*%
%ADD13C,0.900000*%
%ADD14R,0.850000X0.850000*%
%ADD15O,0.850000X0.850000*%
%ADD16C,0.650000*%
%ADD17R,0.600000X1.450000*%
%ADD18R,0.300000X1.450000*%
%ADD19O,1.000000X2.100000*%
%ADD20O,1.000000X1.600000*%
%ADD21R,1.900000X2.500000*%
%ADD22O,0.800000X0.700000*%
%ADD23RoundRect,0.500000X0.000000X0.000000X0.000000X0.000000X0.000000X0.000000X0.000000X0.000000X0*%
%ADD24RoundRect,0.500000X0.000000X0.000000X0.000000X0.000000X0.000000X0.000000X0.000000X0.000000X0*%
%ADD25RoundRect,0.200000X-0.275000X0.200000X-0.275000X-0.200000X0.275000X-0.200000X0.275000X0.200000X0*%
%ADD26RoundRect,0.225000X0.225000X0.250000X-0.225000X0.250000X-0.225000X-0.250000X0.225000X-0.250000X0*%
%ADD27R,0.550000X1.600000*%
%ADD28R,1.600000X0.550000*%
%ADD29RoundRect,0.225000X0.250000X-0.225000X0.250000X0.225000X-0.250000X0.225000X-0.250000X-0.225000X0*%
%ADD30C,1.700000*%
%ADD31R,2.800000X2.200000*%
%ADD32R,2.800000X2.800000*%
%ADD33R,2.800000X2.600000*%
%ADD34C,1.000000*%
G04 APERTURE END LIST*
D10*
%TO.C,JP8*%
X84200000Y-68600000D03*
X83300000Y-68600000D03*
%TD*%
D11*
%TO.C,C8*%
X84325000Y-70000000D03*
X85875000Y-70000000D03*
%TD*%
D12*
%TO.C,REF\u002A\u002A*%
X87139680Y-73998878D03*
%TD*%
%TO.C,REF\u002A\u002A*%
X124223680Y-73998878D03*
%TD*%
%TO.C,REF\u002A\u002A*%
X82567680Y-52408878D03*
%TD*%
%TO.C,REF\u002A\u002A*%
X120667680Y-53170878D03*
%TD*%
D13*
%TO.C,SW1*%
X104133680Y-52480878D03*
X101133680Y-52480878D03*
%TD*%
D14*
%TO.C,J3*%
X72915680Y-68410878D03*
D15*
X72915680Y-67410878D03*
%TD*%
D16*
%TO.C,J4*%
X78345680Y-56532878D03*
X72565680Y-56532878D03*
D17*
X72205680Y-57977878D03*
X73005680Y-57977878D03*
D18*
X74205680Y-57977878D03*
X75205680Y-57977878D03*
X75705680Y-57977878D03*
X76705680Y-57977878D03*
D17*
X77905680Y-57977878D03*
X78705680Y-57977878D03*
X78705680Y-57977878D03*
X77905680Y-57977878D03*
D18*
X77205680Y-57977878D03*
X76205680Y-57977878D03*
X74705680Y-57977878D03*
X73705680Y-57977878D03*
D17*
X73005680Y-57977878D03*
X72205680Y-57977878D03*
D19*
X79775680Y-57062878D03*
X71135680Y-57062878D03*
D20*
X71135680Y-52882878D03*
X79775680Y-52882878D03*
%TD*%
D21*
%TO.C,Y1*%
X97213680Y-57488878D03*
X92813680Y-57488878D03*
%TD*%
D14*
%TO.C,J1*%
X85361680Y-52662878D03*
D15*
X86361680Y-52662878D03*
X87361680Y-52662878D03*
X88361680Y-52662878D03*
X89361680Y-52662878D03*
%TD*%
D10*
%TO.C,JP4*%
X110837680Y-71468878D03*
X109837680Y-71468878D03*
%TD*%
D22*
%TO.C,JP7*%
X116700000Y-62700000D03*
X116700000Y-61800000D03*
%TD*%
D23*
%TO.C,J5*%
X102125680Y-71458878D03*
X103141680Y-69934878D03*
X104157680Y-71458878D03*
X105173680Y-69934878D03*
D24*
X106189680Y-71458878D03*
D23*
X107205680Y-69934878D03*
%TD*%
D10*
%TO.C,JP6*%
X121467680Y-73647878D03*
X120467680Y-73647878D03*
%TD*%
D11*
%TO.C,C12*%
X93730680Y-72728878D03*
X95280680Y-72728878D03*
%TD*%
D25*
%TO.C,R11*%
X89425680Y-58695878D03*
X89425680Y-60345878D03*
%TD*%
D26*
%TO.C,C13*%
X90962680Y-56472878D03*
X89412680Y-56472878D03*
%TD*%
D27*
%TO.C,U3*%
X91197680Y-62382878D03*
X91997680Y-62382878D03*
X92797680Y-62382878D03*
X93597680Y-62382878D03*
X94397680Y-62382878D03*
X95197680Y-62382878D03*
X95997680Y-62382878D03*
X96797680Y-62382878D03*
D28*
X98247680Y-63832878D03*
X98247680Y-64632878D03*
X98247680Y-65432878D03*
X98247680Y-66232878D03*
X98247680Y-67032878D03*
X98247680Y-67832878D03*
X98247680Y-68632878D03*
X98247680Y-69432878D03*
D27*
X96797680Y-70882878D03*
X95997680Y-70882878D03*
X95197680Y-70882878D03*
X94397680Y-70882878D03*
X93597680Y-70882878D03*
X92797680Y-70882878D03*
X91997680Y-70882878D03*
X91197680Y-70882878D03*
D28*
X89747680Y-69432878D03*
X89747680Y-68632878D03*
X89747680Y-67832878D03*
X89747680Y-67032878D03*
X89747680Y-66232878D03*
X89747680Y-65432878D03*
X89747680Y-64632878D03*
X89747680Y-63832878D03*
%TD*%
D10*
%TO.C,JP3*%
X116679680Y-75786878D03*
X115679680Y-75786878D03*
%TD*%
%TO.C,JP5*%
X114393680Y-75024878D03*
X113393680Y-75024878D03*
%TD*%
D29*
%TO.C,C14*%
X100093680Y-60549878D03*
X100093680Y-58999878D03*
%TD*%
D30*
%TO.C,J2*%
X128767680Y-54810878D03*
X128767680Y-61810878D03*
D31*
X125067680Y-55710878D03*
X132467680Y-53710878D03*
D32*
X132467680Y-63110878D03*
D33*
X128017680Y-67110878D03*
%TD*%
D34*
%TO.C,TP1*%
X86800000Y-68200000D03*
%TD*%
M02*
