%TF.GenerationSoftware,KiCad,Pcbnew,(6.0.5)*%
%TF.CreationDate,2022-06-05T00:42:26+05:30*%
%TF.ProjectId,PORTABLE_ECG_MACHINE,504f5254-4142-44c4-955f-4543475f4d41,rev-1*%
%TF.SameCoordinates,Original*%
%TF.FileFunction,Legend,Bot*%
%TF.FilePolarity,Positive*%
%FSLAX46Y46*%
G04 Gerber Fmt 4.6, Leading zero omitted, Abs format (unit mm)*
G04 Created by KiCad (PCBNEW (6.0.5)) date 2022-06-05 00:42:26*
%MOMM*%
%LPD*%
G01*
G04 APERTURE LIST*
%ADD10C,0.004000*%
%ADD11C,0.125000*%
%ADD12C,0.150000*%
%ADD13C,0.200000*%
%ADD14C,0.225000*%
%ADD15C,0.100000*%
%ADD16C,0.375000*%
%ADD17C,0.120000*%
G04 APERTURE END LIST*
D10*
G36*
X76722451Y-70804775D02*
G01*
X76722514Y-70807959D01*
X76722700Y-70811119D01*
X76723008Y-70814251D01*
X76723435Y-70817354D01*
X76723980Y-70820424D01*
X76724641Y-70823458D01*
X76725416Y-70826455D01*
X76726302Y-70829410D01*
X76727298Y-70832321D01*
X76728402Y-70835186D01*
X76729612Y-70838001D01*
X76730926Y-70840764D01*
X76732342Y-70843472D01*
X76733858Y-70846122D01*
X76735472Y-70848711D01*
X76737182Y-70851236D01*
X76738986Y-70853696D01*
X76740883Y-70856086D01*
X76742869Y-70858404D01*
X76744944Y-70860647D01*
X76747105Y-70862813D01*
X76749350Y-70864898D01*
X76751677Y-70866900D01*
X76754085Y-70868816D01*
X76756571Y-70870643D01*
X76759134Y-70872379D01*
X76761771Y-70874020D01*
X76764480Y-70875564D01*
X76767260Y-70877008D01*
X76770108Y-70878349D01*
X76773023Y-70879584D01*
X76776003Y-70880711D01*
X77242411Y-71046763D01*
X76151005Y-71401411D01*
X76144968Y-71403644D01*
X76139193Y-71406319D01*
X76133696Y-71409412D01*
X76128495Y-71412902D01*
X76123606Y-71416764D01*
X76119047Y-71420976D01*
X76114835Y-71425514D01*
X76110986Y-71430356D01*
X76107518Y-71435478D01*
X76104448Y-71440857D01*
X76101793Y-71446471D01*
X76099569Y-71452295D01*
X76097795Y-71458307D01*
X76096487Y-71464484D01*
X76095661Y-71470803D01*
X76095336Y-71477240D01*
X76095454Y-71480609D01*
X76095689Y-71483935D01*
X76096039Y-71487219D01*
X76096503Y-71490457D01*
X76097078Y-71493647D01*
X76097764Y-71496787D01*
X76098559Y-71499875D01*
X76099462Y-71502910D01*
X76100470Y-71505889D01*
X76101583Y-71508809D01*
X76102798Y-71511670D01*
X76104115Y-71514468D01*
X76105532Y-71517202D01*
X76107046Y-71519870D01*
X76108658Y-71522469D01*
X76110364Y-71524998D01*
X76112165Y-71527454D01*
X76114057Y-71529836D01*
X76116040Y-71532141D01*
X76118112Y-71534367D01*
X76120272Y-71536512D01*
X76122517Y-71538574D01*
X76124847Y-71540552D01*
X76127260Y-71542442D01*
X76129754Y-71544243D01*
X76132328Y-71545953D01*
X76134981Y-71547570D01*
X76137710Y-71549091D01*
X76140514Y-71550515D01*
X76143392Y-71551839D01*
X76146343Y-71553062D01*
X76149364Y-71554181D01*
X77117422Y-71891895D01*
X76490148Y-72073981D01*
X76484453Y-72075861D01*
X76478966Y-72078135D01*
X76473704Y-72080785D01*
X76468681Y-72083793D01*
X76463912Y-72087141D01*
X76459414Y-72090812D01*
X76455200Y-72094788D01*
X76451287Y-72099051D01*
X76447689Y-72103583D01*
X76444423Y-72108366D01*
X76441502Y-72113383D01*
X76438943Y-72118615D01*
X76436761Y-72124045D01*
X76434971Y-72129655D01*
X76433588Y-72135428D01*
X76432627Y-72141344D01*
X76432307Y-72144357D01*
X76432098Y-72147360D01*
X76432001Y-72150351D01*
X76432013Y-72153329D01*
X76432134Y-72156289D01*
X76432362Y-72159230D01*
X76432695Y-72162150D01*
X76433133Y-72165045D01*
X76433674Y-72167914D01*
X76434318Y-72170754D01*
X76435062Y-72173562D01*
X76435905Y-72176337D01*
X76436847Y-72179075D01*
X76437885Y-72181774D01*
X76439019Y-72184431D01*
X76440247Y-72187045D01*
X76441568Y-72189612D01*
X76442981Y-72192130D01*
X76444485Y-72194597D01*
X76446078Y-72197011D01*
X76447758Y-72199368D01*
X76449525Y-72201666D01*
X76451378Y-72203904D01*
X76453314Y-72206077D01*
X76455334Y-72208185D01*
X76457435Y-72210224D01*
X76459616Y-72212192D01*
X76461876Y-72214086D01*
X76464213Y-72215904D01*
X76466627Y-72217644D01*
X76469117Y-72219303D01*
X76471680Y-72220878D01*
X76753620Y-72386878D01*
X76753620Y-73161366D01*
X76753704Y-73165084D01*
X76753956Y-73168762D01*
X76754372Y-73172397D01*
X76754947Y-73175986D01*
X76755679Y-73179523D01*
X76756565Y-73183005D01*
X76757601Y-73186428D01*
X76758782Y-73189787D01*
X76760107Y-73193080D01*
X76761571Y-73196302D01*
X76763172Y-73199448D01*
X76764905Y-73202515D01*
X76766767Y-73205499D01*
X76768754Y-73208396D01*
X76770864Y-73211202D01*
X76773093Y-73213912D01*
X76775437Y-73216524D01*
X76777893Y-73219032D01*
X76780458Y-73221433D01*
X76783127Y-73223722D01*
X76785898Y-73225896D01*
X76788767Y-73227951D01*
X76791731Y-73229883D01*
X76794786Y-73231688D01*
X76797928Y-73233361D01*
X76801155Y-73234898D01*
X76804463Y-73236297D01*
X76807848Y-73237552D01*
X76811307Y-73238660D01*
X76814837Y-73239616D01*
X76818434Y-73240417D01*
X76822094Y-73241059D01*
X77301043Y-73314031D01*
X76012046Y-73708524D01*
X76008870Y-73709573D01*
X76005763Y-73710741D01*
X76002728Y-73712027D01*
X75999767Y-73713426D01*
X75994073Y-73716552D01*
X75988697Y-73720094D01*
X75983656Y-73724026D01*
X75978968Y-73728321D01*
X75974647Y-73732955D01*
X75970711Y-73737900D01*
X75967176Y-73743131D01*
X75964059Y-73748622D01*
X75961377Y-73754347D01*
X75959145Y-73760279D01*
X75957380Y-73766394D01*
X75956099Y-73772665D01*
X75955318Y-73779066D01*
X75955054Y-73785571D01*
X75955069Y-73787060D01*
X75955113Y-73788549D01*
X75955185Y-73790039D01*
X75955286Y-73791531D01*
X75955413Y-73793025D01*
X75955568Y-73794523D01*
X75955748Y-73796025D01*
X75955954Y-73797530D01*
X75956586Y-73801201D01*
X75957378Y-73804807D01*
X75958327Y-73808347D01*
X75959428Y-73811816D01*
X75960677Y-73815210D01*
X75962070Y-73818528D01*
X75963603Y-73821764D01*
X75965273Y-73824916D01*
X75967074Y-73827980D01*
X75969003Y-73830953D01*
X75971057Y-73833831D01*
X75973230Y-73836611D01*
X75975519Y-73839288D01*
X75977920Y-73841861D01*
X75980428Y-73844325D01*
X75983040Y-73846677D01*
X75985752Y-73848913D01*
X75988560Y-73851029D01*
X75991459Y-73853024D01*
X75994446Y-73854892D01*
X75997516Y-73856631D01*
X76000666Y-73858237D01*
X76003891Y-73859706D01*
X76007188Y-73861035D01*
X76010552Y-73862221D01*
X76013979Y-73863260D01*
X76017466Y-73864149D01*
X76021008Y-73864884D01*
X76024601Y-73865461D01*
X76028241Y-73865878D01*
X76031924Y-73866131D01*
X76035646Y-73866216D01*
X76768701Y-73866216D01*
X76768701Y-74960427D01*
X76756621Y-74951629D01*
X76744636Y-74942733D01*
X76732748Y-74933739D01*
X76720963Y-74924642D01*
X76709285Y-74915442D01*
X76697717Y-74906135D01*
X76686265Y-74896718D01*
X76674933Y-74887190D01*
X76674774Y-74887561D01*
X76662021Y-74876237D01*
X76656571Y-74871495D01*
X76651166Y-74866718D01*
X76640431Y-74857081D01*
X74555779Y-73003833D01*
X74531341Y-72980885D01*
X74508479Y-72956941D01*
X74487195Y-72932068D01*
X74467487Y-72906332D01*
X74449355Y-72879800D01*
X74432800Y-72852537D01*
X74417822Y-72824611D01*
X74404421Y-72796087D01*
X74392596Y-72767033D01*
X74382348Y-72737514D01*
X74373676Y-72707596D01*
X74366581Y-72677347D01*
X74361063Y-72646832D01*
X74357121Y-72616119D01*
X74354756Y-72585272D01*
X74353968Y-72554359D01*
X74354756Y-72523446D01*
X74357121Y-72492600D01*
X74361063Y-72461886D01*
X74366581Y-72431371D01*
X74373676Y-72401122D01*
X74382348Y-72371205D01*
X74392596Y-72341685D01*
X74404421Y-72312631D01*
X74417822Y-72284107D01*
X74432800Y-72256181D01*
X74449355Y-72228919D01*
X74467487Y-72202386D01*
X74487195Y-72176650D01*
X74508479Y-72151777D01*
X74531341Y-72127833D01*
X74555779Y-72104885D01*
X76639266Y-70252643D01*
X76645199Y-70247265D01*
X76651166Y-70241927D01*
X76657163Y-70236629D01*
X76663185Y-70231371D01*
X76674720Y-70221105D01*
X76674879Y-70221475D01*
X76686584Y-70211628D01*
X76698427Y-70201916D01*
X76710390Y-70192312D01*
X76722451Y-70182793D01*
X76722451Y-70804775D01*
G37*
X76722451Y-70804775D02*
X76722514Y-70807959D01*
X76722700Y-70811119D01*
X76723008Y-70814251D01*
X76723435Y-70817354D01*
X76723980Y-70820424D01*
X76724641Y-70823458D01*
X76725416Y-70826455D01*
X76726302Y-70829410D01*
X76727298Y-70832321D01*
X76728402Y-70835186D01*
X76729612Y-70838001D01*
X76730926Y-70840764D01*
X76732342Y-70843472D01*
X76733858Y-70846122D01*
X76735472Y-70848711D01*
X76737182Y-70851236D01*
X76738986Y-70853696D01*
X76740883Y-70856086D01*
X76742869Y-70858404D01*
X76744944Y-70860647D01*
X76747105Y-70862813D01*
X76749350Y-70864898D01*
X76751677Y-70866900D01*
X76754085Y-70868816D01*
X76756571Y-70870643D01*
X76759134Y-70872379D01*
X76761771Y-70874020D01*
X76764480Y-70875564D01*
X76767260Y-70877008D01*
X76770108Y-70878349D01*
X76773023Y-70879584D01*
X76776003Y-70880711D01*
X77242411Y-71046763D01*
X76151005Y-71401411D01*
X76144968Y-71403644D01*
X76139193Y-71406319D01*
X76133696Y-71409412D01*
X76128495Y-71412902D01*
X76123606Y-71416764D01*
X76119047Y-71420976D01*
X76114835Y-71425514D01*
X76110986Y-71430356D01*
X76107518Y-71435478D01*
X76104448Y-71440857D01*
X76101793Y-71446471D01*
X76099569Y-71452295D01*
X76097795Y-71458307D01*
X76096487Y-71464484D01*
X76095661Y-71470803D01*
X76095336Y-71477240D01*
X76095454Y-71480609D01*
X76095689Y-71483935D01*
X76096039Y-71487219D01*
X76096503Y-71490457D01*
X76097078Y-71493647D01*
X76097764Y-71496787D01*
X76098559Y-71499875D01*
X76099462Y-71502910D01*
X76100470Y-71505889D01*
X76101583Y-71508809D01*
X76102798Y-71511670D01*
X76104115Y-71514468D01*
X76105532Y-71517202D01*
X76107046Y-71519870D01*
X76108658Y-71522469D01*
X76110364Y-71524998D01*
X76112165Y-71527454D01*
X76114057Y-71529836D01*
X76116040Y-71532141D01*
X76118112Y-71534367D01*
X76120272Y-71536512D01*
X76122517Y-71538574D01*
X76124847Y-71540552D01*
X76127260Y-71542442D01*
X76129754Y-71544243D01*
X76132328Y-71545953D01*
X76134981Y-71547570D01*
X76137710Y-71549091D01*
X76140514Y-71550515D01*
X76143392Y-71551839D01*
X76146343Y-71553062D01*
X76149364Y-71554181D01*
X77117422Y-71891895D01*
X76490148Y-72073981D01*
X76484453Y-72075861D01*
X76478966Y-72078135D01*
X76473704Y-72080785D01*
X76468681Y-72083793D01*
X76463912Y-72087141D01*
X76459414Y-72090812D01*
X76455200Y-72094788D01*
X76451287Y-72099051D01*
X76447689Y-72103583D01*
X76444423Y-72108366D01*
X76441502Y-72113383D01*
X76438943Y-72118615D01*
X76436761Y-72124045D01*
X76434971Y-72129655D01*
X76433588Y-72135428D01*
X76432627Y-72141344D01*
X76432307Y-72144357D01*
X76432098Y-72147360D01*
X76432001Y-72150351D01*
X76432013Y-72153329D01*
X76432134Y-72156289D01*
X76432362Y-72159230D01*
X76432695Y-72162150D01*
X76433133Y-72165045D01*
X76433674Y-72167914D01*
X76434318Y-72170754D01*
X76435062Y-72173562D01*
X76435905Y-72176337D01*
X76436847Y-72179075D01*
X76437885Y-72181774D01*
X76439019Y-72184431D01*
X76440247Y-72187045D01*
X76441568Y-72189612D01*
X76442981Y-72192130D01*
X76444485Y-72194597D01*
X76446078Y-72197011D01*
X76447758Y-72199368D01*
X76449525Y-72201666D01*
X76451378Y-72203904D01*
X76453314Y-72206077D01*
X76455334Y-72208185D01*
X76457435Y-72210224D01*
X76459616Y-72212192D01*
X76461876Y-72214086D01*
X76464213Y-72215904D01*
X76466627Y-72217644D01*
X76469117Y-72219303D01*
X76471680Y-72220878D01*
X76753620Y-72386878D01*
X76753620Y-73161366D01*
X76753704Y-73165084D01*
X76753956Y-73168762D01*
X76754372Y-73172397D01*
X76754947Y-73175986D01*
X76755679Y-73179523D01*
X76756565Y-73183005D01*
X76757601Y-73186428D01*
X76758782Y-73189787D01*
X76760107Y-73193080D01*
X76761571Y-73196302D01*
X76763172Y-73199448D01*
X76764905Y-73202515D01*
X76766767Y-73205499D01*
X76768754Y-73208396D01*
X76770864Y-73211202D01*
X76773093Y-73213912D01*
X76775437Y-73216524D01*
X76777893Y-73219032D01*
X76780458Y-73221433D01*
X76783127Y-73223722D01*
X76785898Y-73225896D01*
X76788767Y-73227951D01*
X76791731Y-73229883D01*
X76794786Y-73231688D01*
X76797928Y-73233361D01*
X76801155Y-73234898D01*
X76804463Y-73236297D01*
X76807848Y-73237552D01*
X76811307Y-73238660D01*
X76814837Y-73239616D01*
X76818434Y-73240417D01*
X76822094Y-73241059D01*
X77301043Y-73314031D01*
X76012046Y-73708524D01*
X76008870Y-73709573D01*
X76005763Y-73710741D01*
X76002728Y-73712027D01*
X75999767Y-73713426D01*
X75994073Y-73716552D01*
X75988697Y-73720094D01*
X75983656Y-73724026D01*
X75978968Y-73728321D01*
X75974647Y-73732955D01*
X75970711Y-73737900D01*
X75967176Y-73743131D01*
X75964059Y-73748622D01*
X75961377Y-73754347D01*
X75959145Y-73760279D01*
X75957380Y-73766394D01*
X75956099Y-73772665D01*
X75955318Y-73779066D01*
X75955054Y-73785571D01*
X75955069Y-73787060D01*
X75955113Y-73788549D01*
X75955185Y-73790039D01*
X75955286Y-73791531D01*
X75955413Y-73793025D01*
X75955568Y-73794523D01*
X75955748Y-73796025D01*
X75955954Y-73797530D01*
X75956586Y-73801201D01*
X75957378Y-73804807D01*
X75958327Y-73808347D01*
X75959428Y-73811816D01*
X75960677Y-73815210D01*
X75962070Y-73818528D01*
X75963603Y-73821764D01*
X75965273Y-73824916D01*
X75967074Y-73827980D01*
X75969003Y-73830953D01*
X75971057Y-73833831D01*
X75973230Y-73836611D01*
X75975519Y-73839288D01*
X75977920Y-73841861D01*
X75980428Y-73844325D01*
X75983040Y-73846677D01*
X75985752Y-73848913D01*
X75988560Y-73851029D01*
X75991459Y-73853024D01*
X75994446Y-73854892D01*
X75997516Y-73856631D01*
X76000666Y-73858237D01*
X76003891Y-73859706D01*
X76007188Y-73861035D01*
X76010552Y-73862221D01*
X76013979Y-73863260D01*
X76017466Y-73864149D01*
X76021008Y-73864884D01*
X76024601Y-73865461D01*
X76028241Y-73865878D01*
X76031924Y-73866131D01*
X76035646Y-73866216D01*
X76768701Y-73866216D01*
X76768701Y-74960427D01*
X76756621Y-74951629D01*
X76744636Y-74942733D01*
X76732748Y-74933739D01*
X76720963Y-74924642D01*
X76709285Y-74915442D01*
X76697717Y-74906135D01*
X76686265Y-74896718D01*
X76674933Y-74887190D01*
X76674774Y-74887561D01*
X76662021Y-74876237D01*
X76656571Y-74871495D01*
X76651166Y-74866718D01*
X76640431Y-74857081D01*
X74555779Y-73003833D01*
X74531341Y-72980885D01*
X74508479Y-72956941D01*
X74487195Y-72932068D01*
X74467487Y-72906332D01*
X74449355Y-72879800D01*
X74432800Y-72852537D01*
X74417822Y-72824611D01*
X74404421Y-72796087D01*
X74392596Y-72767033D01*
X74382348Y-72737514D01*
X74373676Y-72707596D01*
X74366581Y-72677347D01*
X74361063Y-72646832D01*
X74357121Y-72616119D01*
X74354756Y-72585272D01*
X74353968Y-72554359D01*
X74354756Y-72523446D01*
X74357121Y-72492600D01*
X74361063Y-72461886D01*
X74366581Y-72431371D01*
X74373676Y-72401122D01*
X74382348Y-72371205D01*
X74392596Y-72341685D01*
X74404421Y-72312631D01*
X74417822Y-72284107D01*
X74432800Y-72256181D01*
X74449355Y-72228919D01*
X74467487Y-72202386D01*
X74487195Y-72176650D01*
X74508479Y-72151777D01*
X74531341Y-72127833D01*
X74555779Y-72104885D01*
X76639266Y-70252643D01*
X76645199Y-70247265D01*
X76651166Y-70241927D01*
X76657163Y-70236629D01*
X76663185Y-70231371D01*
X76674720Y-70221105D01*
X76674879Y-70221475D01*
X76686584Y-70211628D01*
X76698427Y-70201916D01*
X76710390Y-70192312D01*
X76722451Y-70182793D01*
X76722451Y-70804775D01*
G36*
X77806809Y-69846736D02*
G01*
X77884191Y-69851967D01*
X77960448Y-69860582D01*
X78035485Y-69872496D01*
X78109205Y-69887623D01*
X78181514Y-69905878D01*
X78252314Y-69927177D01*
X78321511Y-69951433D01*
X78389009Y-69978562D01*
X78454712Y-70008479D01*
X78518523Y-70041099D01*
X78580348Y-70076336D01*
X78640091Y-70114105D01*
X78697655Y-70154321D01*
X78752946Y-70196900D01*
X78805867Y-70241755D01*
X78856322Y-70288803D01*
X78904216Y-70337957D01*
X78949454Y-70389132D01*
X78991938Y-70442244D01*
X79031575Y-70497207D01*
X79068266Y-70553937D01*
X79101918Y-70612347D01*
X79132435Y-70672353D01*
X79159719Y-70733870D01*
X79183677Y-70796813D01*
X79204211Y-70861096D01*
X79221227Y-70926634D01*
X79234628Y-70993343D01*
X79244318Y-71061137D01*
X79250203Y-71129931D01*
X79252186Y-71199640D01*
X79251406Y-71243401D01*
X79249082Y-71286832D01*
X79245238Y-71329912D01*
X79239898Y-71372618D01*
X79233084Y-71414929D01*
X79224820Y-71456824D01*
X79215130Y-71498281D01*
X79204037Y-71539278D01*
X79191564Y-71579793D01*
X79177736Y-71619806D01*
X79162576Y-71659295D01*
X79146107Y-71698237D01*
X79128352Y-71736612D01*
X79109336Y-71774397D01*
X79089082Y-71811571D01*
X79067612Y-71848113D01*
X79021124Y-71919214D01*
X78970058Y-71987525D01*
X78914604Y-72052874D01*
X78854949Y-72115089D01*
X78791281Y-72173996D01*
X78723788Y-72229423D01*
X78652658Y-72281197D01*
X78578080Y-72329146D01*
X78562601Y-72339187D01*
X78548119Y-72350009D01*
X78534637Y-72361559D01*
X78522153Y-72373785D01*
X78510668Y-72386635D01*
X78500182Y-72400058D01*
X78490694Y-72414000D01*
X78482205Y-72428411D01*
X78474715Y-72443237D01*
X78468224Y-72458428D01*
X78462731Y-72473931D01*
X78458237Y-72489694D01*
X78454741Y-72505665D01*
X78452244Y-72521792D01*
X78450746Y-72538023D01*
X78450247Y-72554306D01*
X78450746Y-72570589D01*
X78452244Y-72586820D01*
X78454741Y-72602947D01*
X78458237Y-72618918D01*
X78462731Y-72634681D01*
X78468224Y-72650184D01*
X78474715Y-72665375D01*
X78482205Y-72680201D01*
X78490694Y-72694612D01*
X78500182Y-72708555D01*
X78510668Y-72721977D01*
X78522153Y-72734827D01*
X78534637Y-72747053D01*
X78548119Y-72758603D01*
X78562601Y-72769425D01*
X78578080Y-72779466D01*
X78652659Y-72827415D01*
X78723788Y-72879189D01*
X78791281Y-72934617D01*
X78854950Y-72993526D01*
X78914607Y-73055743D01*
X78970064Y-73121096D01*
X79021133Y-73189412D01*
X79067626Y-73260519D01*
X79109355Y-73334243D01*
X79146132Y-73410414D01*
X79177770Y-73488857D01*
X79204081Y-73569401D01*
X79224876Y-73651873D01*
X79239968Y-73736100D01*
X79249169Y-73821911D01*
X79252291Y-73909131D01*
X79250308Y-73978840D01*
X79244424Y-74047634D01*
X79234734Y-74115427D01*
X79221334Y-74182136D01*
X79204319Y-74247675D01*
X79183786Y-74311958D01*
X79159830Y-74374901D01*
X79132547Y-74436418D01*
X79102032Y-74496424D01*
X79068382Y-74554834D01*
X79031692Y-74611563D01*
X78992057Y-74666527D01*
X78949574Y-74719639D01*
X78904338Y-74770814D01*
X78856446Y-74819968D01*
X78805992Y-74867015D01*
X78753072Y-74911871D01*
X78697782Y-74954449D01*
X78640219Y-74994666D01*
X78580476Y-75032435D01*
X78518652Y-75067672D01*
X78454840Y-75100291D01*
X78389137Y-75130208D01*
X78321639Y-75157337D01*
X78252441Y-75181594D01*
X78181638Y-75202892D01*
X78109328Y-75221147D01*
X78035605Y-75236274D01*
X77960565Y-75248188D01*
X77884305Y-75256803D01*
X77806918Y-75262035D01*
X77728502Y-75263797D01*
X77673801Y-75262936D01*
X77619592Y-75260370D01*
X77565908Y-75256130D01*
X77512779Y-75250247D01*
X77460237Y-75242749D01*
X77408313Y-75233668D01*
X77357039Y-75223033D01*
X77306446Y-75210874D01*
X77256565Y-75197222D01*
X77207429Y-75182105D01*
X77159068Y-75165555D01*
X77111513Y-75147600D01*
X77064797Y-75128272D01*
X77018950Y-75107600D01*
X76974004Y-75085614D01*
X76929990Y-75062344D01*
X76929990Y-73785783D01*
X76929885Y-73781636D01*
X76929574Y-73777544D01*
X76929061Y-73773511D01*
X76928352Y-73769543D01*
X76927452Y-73765644D01*
X76926366Y-73761820D01*
X76925099Y-73758075D01*
X76923656Y-73754415D01*
X76922041Y-73750846D01*
X76920262Y-73747371D01*
X76918321Y-73743996D01*
X76916224Y-73740726D01*
X76913977Y-73737566D01*
X76911584Y-73734521D01*
X76909051Y-73731597D01*
X76906382Y-73728798D01*
X76903583Y-73726129D01*
X76900659Y-73723596D01*
X76897614Y-73721203D01*
X76894455Y-73718956D01*
X76891185Y-73716860D01*
X76887810Y-73714919D01*
X76884335Y-73713139D01*
X76880765Y-73711525D01*
X76877105Y-73710082D01*
X76873361Y-73708814D01*
X76869537Y-73707728D01*
X76865638Y-73706828D01*
X76861670Y-73706119D01*
X76857637Y-73705607D01*
X76853545Y-73705295D01*
X76849398Y-73705191D01*
X76574655Y-73705191D01*
X77686593Y-73364884D01*
X77689929Y-73363782D01*
X77693189Y-73362543D01*
X77696370Y-73361170D01*
X77699470Y-73359669D01*
X77702486Y-73358042D01*
X77705417Y-73356295D01*
X77708259Y-73354431D01*
X77711010Y-73352455D01*
X77716229Y-73348180D01*
X77721055Y-73343504D01*
X77725468Y-73338460D01*
X77729449Y-73333081D01*
X77732977Y-73327398D01*
X77736034Y-73321446D01*
X77738600Y-73315258D01*
X77740655Y-73308865D01*
X77742179Y-73302301D01*
X77743153Y-73295598D01*
X77743428Y-73292206D01*
X77743557Y-73288791D01*
X77743540Y-73285357D01*
X77743372Y-73281910D01*
X77743040Y-73278414D01*
X77742561Y-73274961D01*
X77741938Y-73271555D01*
X77741175Y-73268199D01*
X77740274Y-73264897D01*
X77739239Y-73261651D01*
X77738072Y-73258466D01*
X77736777Y-73255344D01*
X77735356Y-73252290D01*
X77733813Y-73249305D01*
X77732151Y-73246394D01*
X77730373Y-73243559D01*
X77728482Y-73240805D01*
X77726480Y-73238134D01*
X77724372Y-73235549D01*
X77722159Y-73233055D01*
X77719846Y-73230654D01*
X77717435Y-73228350D01*
X77714929Y-73226145D01*
X77712331Y-73224044D01*
X77709644Y-73222049D01*
X77706872Y-73220165D01*
X77704017Y-73218393D01*
X77701083Y-73216738D01*
X77698072Y-73215203D01*
X77694988Y-73213791D01*
X77691833Y-73212506D01*
X77688611Y-73211350D01*
X77685324Y-73210328D01*
X77681977Y-73209441D01*
X77678571Y-73208695D01*
X77675110Y-73208092D01*
X76914962Y-73092257D01*
X76914962Y-72340893D01*
X76914918Y-72338221D01*
X76914787Y-72335563D01*
X76914569Y-72332922D01*
X76914266Y-72330298D01*
X76913879Y-72327695D01*
X76913408Y-72325113D01*
X76912855Y-72322554D01*
X76912221Y-72320021D01*
X76911507Y-72317515D01*
X76910713Y-72315037D01*
X76909842Y-72312590D01*
X76908893Y-72310175D01*
X76907868Y-72307794D01*
X76906767Y-72305450D01*
X76905593Y-72303143D01*
X76904346Y-72300875D01*
X76903026Y-72298649D01*
X76901636Y-72296465D01*
X76900175Y-72294327D01*
X76898645Y-72292235D01*
X76897048Y-72290191D01*
X76895383Y-72288198D01*
X76893652Y-72286256D01*
X76891856Y-72284368D01*
X76889997Y-72282536D01*
X76888074Y-72280761D01*
X76886090Y-72279045D01*
X76884045Y-72277390D01*
X76881939Y-72275797D01*
X76879775Y-72274269D01*
X76877553Y-72272807D01*
X76875275Y-72271414D01*
X76714620Y-72176852D01*
X77404865Y-71976456D01*
X77407995Y-71975478D01*
X77411062Y-71974383D01*
X77417002Y-71971849D01*
X77422667Y-71968878D01*
X77428037Y-71965494D01*
X77433096Y-71961720D01*
X77437825Y-71957579D01*
X77442205Y-71953095D01*
X77446219Y-71948291D01*
X77449849Y-71943191D01*
X77453076Y-71937818D01*
X77455882Y-71932195D01*
X77458249Y-71926346D01*
X77460160Y-71920294D01*
X77461595Y-71914063D01*
X77462537Y-71907675D01*
X77462817Y-71904431D01*
X77462967Y-71901156D01*
X77463023Y-71898054D01*
X77462942Y-71894954D01*
X77462728Y-71891859D01*
X77462382Y-71888773D01*
X77461908Y-71885700D01*
X77461307Y-71882645D01*
X77460582Y-71879612D01*
X77459734Y-71876605D01*
X77458768Y-71873628D01*
X77457684Y-71870684D01*
X77456485Y-71867779D01*
X77455174Y-71864917D01*
X77453753Y-71862101D01*
X77452224Y-71859336D01*
X77450589Y-71856625D01*
X77448852Y-71853974D01*
X77447013Y-71851385D01*
X77445077Y-71848864D01*
X77443044Y-71846415D01*
X77440917Y-71844040D01*
X77438699Y-71841746D01*
X77436392Y-71839535D01*
X77433998Y-71837412D01*
X77431520Y-71835381D01*
X77428960Y-71833446D01*
X77426320Y-71831612D01*
X77423603Y-71829882D01*
X77420811Y-71828261D01*
X77417946Y-71826752D01*
X77415011Y-71825361D01*
X77412008Y-71824090D01*
X77408940Y-71822945D01*
X76428499Y-71480839D01*
X77517525Y-71126985D01*
X77523551Y-71124754D01*
X77529314Y-71122084D01*
X77534799Y-71118999D01*
X77539989Y-71115520D01*
X77544867Y-71111672D01*
X77549416Y-71107475D01*
X77553621Y-71102955D01*
X77557463Y-71098132D01*
X77560928Y-71093031D01*
X77563997Y-71087673D01*
X77566655Y-71082081D01*
X77568885Y-71076279D01*
X77570670Y-71070289D01*
X77571995Y-71064134D01*
X77572841Y-71057837D01*
X77573193Y-71051420D01*
X77573187Y-71048182D01*
X77573053Y-71044970D01*
X77572792Y-71041786D01*
X77572407Y-71038633D01*
X77571899Y-71035514D01*
X77571271Y-71032432D01*
X77570525Y-71029389D01*
X77569662Y-71026389D01*
X77568686Y-71023433D01*
X77567598Y-71020526D01*
X77566400Y-71017669D01*
X77565095Y-71014866D01*
X77563684Y-71012119D01*
X77562170Y-71009431D01*
X77560554Y-71006806D01*
X77558839Y-71004245D01*
X77557027Y-71001751D01*
X77555121Y-70999329D01*
X77553121Y-70996979D01*
X77551031Y-70994705D01*
X77548852Y-70992510D01*
X77546587Y-70990397D01*
X77544237Y-70988368D01*
X77541805Y-70986427D01*
X77539293Y-70984575D01*
X77536703Y-70982817D01*
X77534037Y-70981154D01*
X77531297Y-70979590D01*
X77528485Y-70978127D01*
X77525604Y-70976768D01*
X77522655Y-70975516D01*
X77519641Y-70974373D01*
X76883689Y-70747943D01*
X76883689Y-70072726D01*
X76929584Y-70046493D01*
X76976578Y-70021691D01*
X77024633Y-69998358D01*
X77073710Y-69976530D01*
X77123771Y-69956241D01*
X77174777Y-69937528D01*
X77226690Y-69920427D01*
X77279472Y-69904974D01*
X77333085Y-69891204D01*
X77387489Y-69879154D01*
X77442647Y-69868859D01*
X77498520Y-69860356D01*
X77555070Y-69853680D01*
X77612259Y-69848867D01*
X77670047Y-69845952D01*
X77728398Y-69844973D01*
X77806809Y-69846736D01*
G37*
X77806809Y-69846736D02*
X77884191Y-69851967D01*
X77960448Y-69860582D01*
X78035485Y-69872496D01*
X78109205Y-69887623D01*
X78181514Y-69905878D01*
X78252314Y-69927177D01*
X78321511Y-69951433D01*
X78389009Y-69978562D01*
X78454712Y-70008479D01*
X78518523Y-70041099D01*
X78580348Y-70076336D01*
X78640091Y-70114105D01*
X78697655Y-70154321D01*
X78752946Y-70196900D01*
X78805867Y-70241755D01*
X78856322Y-70288803D01*
X78904216Y-70337957D01*
X78949454Y-70389132D01*
X78991938Y-70442244D01*
X79031575Y-70497207D01*
X79068266Y-70553937D01*
X79101918Y-70612347D01*
X79132435Y-70672353D01*
X79159719Y-70733870D01*
X79183677Y-70796813D01*
X79204211Y-70861096D01*
X79221227Y-70926634D01*
X79234628Y-70993343D01*
X79244318Y-71061137D01*
X79250203Y-71129931D01*
X79252186Y-71199640D01*
X79251406Y-71243401D01*
X79249082Y-71286832D01*
X79245238Y-71329912D01*
X79239898Y-71372618D01*
X79233084Y-71414929D01*
X79224820Y-71456824D01*
X79215130Y-71498281D01*
X79204037Y-71539278D01*
X79191564Y-71579793D01*
X79177736Y-71619806D01*
X79162576Y-71659295D01*
X79146107Y-71698237D01*
X79128352Y-71736612D01*
X79109336Y-71774397D01*
X79089082Y-71811571D01*
X79067612Y-71848113D01*
X79021124Y-71919214D01*
X78970058Y-71987525D01*
X78914604Y-72052874D01*
X78854949Y-72115089D01*
X78791281Y-72173996D01*
X78723788Y-72229423D01*
X78652658Y-72281197D01*
X78578080Y-72329146D01*
X78562601Y-72339187D01*
X78548119Y-72350009D01*
X78534637Y-72361559D01*
X78522153Y-72373785D01*
X78510668Y-72386635D01*
X78500182Y-72400058D01*
X78490694Y-72414000D01*
X78482205Y-72428411D01*
X78474715Y-72443237D01*
X78468224Y-72458428D01*
X78462731Y-72473931D01*
X78458237Y-72489694D01*
X78454741Y-72505665D01*
X78452244Y-72521792D01*
X78450746Y-72538023D01*
X78450247Y-72554306D01*
X78450746Y-72570589D01*
X78452244Y-72586820D01*
X78454741Y-72602947D01*
X78458237Y-72618918D01*
X78462731Y-72634681D01*
X78468224Y-72650184D01*
X78474715Y-72665375D01*
X78482205Y-72680201D01*
X78490694Y-72694612D01*
X78500182Y-72708555D01*
X78510668Y-72721977D01*
X78522153Y-72734827D01*
X78534637Y-72747053D01*
X78548119Y-72758603D01*
X78562601Y-72769425D01*
X78578080Y-72779466D01*
X78652659Y-72827415D01*
X78723788Y-72879189D01*
X78791281Y-72934617D01*
X78854950Y-72993526D01*
X78914607Y-73055743D01*
X78970064Y-73121096D01*
X79021133Y-73189412D01*
X79067626Y-73260519D01*
X79109355Y-73334243D01*
X79146132Y-73410414D01*
X79177770Y-73488857D01*
X79204081Y-73569401D01*
X79224876Y-73651873D01*
X79239968Y-73736100D01*
X79249169Y-73821911D01*
X79252291Y-73909131D01*
X79250308Y-73978840D01*
X79244424Y-74047634D01*
X79234734Y-74115427D01*
X79221334Y-74182136D01*
X79204319Y-74247675D01*
X79183786Y-74311958D01*
X79159830Y-74374901D01*
X79132547Y-74436418D01*
X79102032Y-74496424D01*
X79068382Y-74554834D01*
X79031692Y-74611563D01*
X78992057Y-74666527D01*
X78949574Y-74719639D01*
X78904338Y-74770814D01*
X78856446Y-74819968D01*
X78805992Y-74867015D01*
X78753072Y-74911871D01*
X78697782Y-74954449D01*
X78640219Y-74994666D01*
X78580476Y-75032435D01*
X78518652Y-75067672D01*
X78454840Y-75100291D01*
X78389137Y-75130208D01*
X78321639Y-75157337D01*
X78252441Y-75181594D01*
X78181638Y-75202892D01*
X78109328Y-75221147D01*
X78035605Y-75236274D01*
X77960565Y-75248188D01*
X77884305Y-75256803D01*
X77806918Y-75262035D01*
X77728502Y-75263797D01*
X77673801Y-75262936D01*
X77619592Y-75260370D01*
X77565908Y-75256130D01*
X77512779Y-75250247D01*
X77460237Y-75242749D01*
X77408313Y-75233668D01*
X77357039Y-75223033D01*
X77306446Y-75210874D01*
X77256565Y-75197222D01*
X77207429Y-75182105D01*
X77159068Y-75165555D01*
X77111513Y-75147600D01*
X77064797Y-75128272D01*
X77018950Y-75107600D01*
X76974004Y-75085614D01*
X76929990Y-75062344D01*
X76929990Y-73785783D01*
X76929885Y-73781636D01*
X76929574Y-73777544D01*
X76929061Y-73773511D01*
X76928352Y-73769543D01*
X76927452Y-73765644D01*
X76926366Y-73761820D01*
X76925099Y-73758075D01*
X76923656Y-73754415D01*
X76922041Y-73750846D01*
X76920262Y-73747371D01*
X76918321Y-73743996D01*
X76916224Y-73740726D01*
X76913977Y-73737566D01*
X76911584Y-73734521D01*
X76909051Y-73731597D01*
X76906382Y-73728798D01*
X76903583Y-73726129D01*
X76900659Y-73723596D01*
X76897614Y-73721203D01*
X76894455Y-73718956D01*
X76891185Y-73716860D01*
X76887810Y-73714919D01*
X76884335Y-73713139D01*
X76880765Y-73711525D01*
X76877105Y-73710082D01*
X76873361Y-73708814D01*
X76869537Y-73707728D01*
X76865638Y-73706828D01*
X76861670Y-73706119D01*
X76857637Y-73705607D01*
X76853545Y-73705295D01*
X76849398Y-73705191D01*
X76574655Y-73705191D01*
X77686593Y-73364884D01*
X77689929Y-73363782D01*
X77693189Y-73362543D01*
X77696370Y-73361170D01*
X77699470Y-73359669D01*
X77702486Y-73358042D01*
X77705417Y-73356295D01*
X77708259Y-73354431D01*
X77711010Y-73352455D01*
X77716229Y-73348180D01*
X77721055Y-73343504D01*
X77725468Y-73338460D01*
X77729449Y-73333081D01*
X77732977Y-73327398D01*
X77736034Y-73321446D01*
X77738600Y-73315258D01*
X77740655Y-73308865D01*
X77742179Y-73302301D01*
X77743153Y-73295598D01*
X77743428Y-73292206D01*
X77743557Y-73288791D01*
X77743540Y-73285357D01*
X77743372Y-73281910D01*
X77743040Y-73278414D01*
X77742561Y-73274961D01*
X77741938Y-73271555D01*
X77741175Y-73268199D01*
X77740274Y-73264897D01*
X77739239Y-73261651D01*
X77738072Y-73258466D01*
X77736777Y-73255344D01*
X77735356Y-73252290D01*
X77733813Y-73249305D01*
X77732151Y-73246394D01*
X77730373Y-73243559D01*
X77728482Y-73240805D01*
X77726480Y-73238134D01*
X77724372Y-73235549D01*
X77722159Y-73233055D01*
X77719846Y-73230654D01*
X77717435Y-73228350D01*
X77714929Y-73226145D01*
X77712331Y-73224044D01*
X77709644Y-73222049D01*
X77706872Y-73220165D01*
X77704017Y-73218393D01*
X77701083Y-73216738D01*
X77698072Y-73215203D01*
X77694988Y-73213791D01*
X77691833Y-73212506D01*
X77688611Y-73211350D01*
X77685324Y-73210328D01*
X77681977Y-73209441D01*
X77678571Y-73208695D01*
X77675110Y-73208092D01*
X76914962Y-73092257D01*
X76914962Y-72340893D01*
X76914918Y-72338221D01*
X76914787Y-72335563D01*
X76914569Y-72332922D01*
X76914266Y-72330298D01*
X76913879Y-72327695D01*
X76913408Y-72325113D01*
X76912855Y-72322554D01*
X76912221Y-72320021D01*
X76911507Y-72317515D01*
X76910713Y-72315037D01*
X76909842Y-72312590D01*
X76908893Y-72310175D01*
X76907868Y-72307794D01*
X76906767Y-72305450D01*
X76905593Y-72303143D01*
X76904346Y-72300875D01*
X76903026Y-72298649D01*
X76901636Y-72296465D01*
X76900175Y-72294327D01*
X76898645Y-72292235D01*
X76897048Y-72290191D01*
X76895383Y-72288198D01*
X76893652Y-72286256D01*
X76891856Y-72284368D01*
X76889997Y-72282536D01*
X76888074Y-72280761D01*
X76886090Y-72279045D01*
X76884045Y-72277390D01*
X76881939Y-72275797D01*
X76879775Y-72274269D01*
X76877553Y-72272807D01*
X76875275Y-72271414D01*
X76714620Y-72176852D01*
X77404865Y-71976456D01*
X77407995Y-71975478D01*
X77411062Y-71974383D01*
X77417002Y-71971849D01*
X77422667Y-71968878D01*
X77428037Y-71965494D01*
X77433096Y-71961720D01*
X77437825Y-71957579D01*
X77442205Y-71953095D01*
X77446219Y-71948291D01*
X77449849Y-71943191D01*
X77453076Y-71937818D01*
X77455882Y-71932195D01*
X77458249Y-71926346D01*
X77460160Y-71920294D01*
X77461595Y-71914063D01*
X77462537Y-71907675D01*
X77462817Y-71904431D01*
X77462967Y-71901156D01*
X77463023Y-71898054D01*
X77462942Y-71894954D01*
X77462728Y-71891859D01*
X77462382Y-71888773D01*
X77461908Y-71885700D01*
X77461307Y-71882645D01*
X77460582Y-71879612D01*
X77459734Y-71876605D01*
X77458768Y-71873628D01*
X77457684Y-71870684D01*
X77456485Y-71867779D01*
X77455174Y-71864917D01*
X77453753Y-71862101D01*
X77452224Y-71859336D01*
X77450589Y-71856625D01*
X77448852Y-71853974D01*
X77447013Y-71851385D01*
X77445077Y-71848864D01*
X77443044Y-71846415D01*
X77440917Y-71844040D01*
X77438699Y-71841746D01*
X77436392Y-71839535D01*
X77433998Y-71837412D01*
X77431520Y-71835381D01*
X77428960Y-71833446D01*
X77426320Y-71831612D01*
X77423603Y-71829882D01*
X77420811Y-71828261D01*
X77417946Y-71826752D01*
X77415011Y-71825361D01*
X77412008Y-71824090D01*
X77408940Y-71822945D01*
X76428499Y-71480839D01*
X77517525Y-71126985D01*
X77523551Y-71124754D01*
X77529314Y-71122084D01*
X77534799Y-71118999D01*
X77539989Y-71115520D01*
X77544867Y-71111672D01*
X77549416Y-71107475D01*
X77553621Y-71102955D01*
X77557463Y-71098132D01*
X77560928Y-71093031D01*
X77563997Y-71087673D01*
X77566655Y-71082081D01*
X77568885Y-71076279D01*
X77570670Y-71070289D01*
X77571995Y-71064134D01*
X77572841Y-71057837D01*
X77573193Y-71051420D01*
X77573187Y-71048182D01*
X77573053Y-71044970D01*
X77572792Y-71041786D01*
X77572407Y-71038633D01*
X77571899Y-71035514D01*
X77571271Y-71032432D01*
X77570525Y-71029389D01*
X77569662Y-71026389D01*
X77568686Y-71023433D01*
X77567598Y-71020526D01*
X77566400Y-71017669D01*
X77565095Y-71014866D01*
X77563684Y-71012119D01*
X77562170Y-71009431D01*
X77560554Y-71006806D01*
X77558839Y-71004245D01*
X77557027Y-71001751D01*
X77555121Y-70999329D01*
X77553121Y-70996979D01*
X77551031Y-70994705D01*
X77548852Y-70992510D01*
X77546587Y-70990397D01*
X77544237Y-70988368D01*
X77541805Y-70986427D01*
X77539293Y-70984575D01*
X77536703Y-70982817D01*
X77534037Y-70981154D01*
X77531297Y-70979590D01*
X77528485Y-70978127D01*
X77525604Y-70976768D01*
X77522655Y-70975516D01*
X77519641Y-70974373D01*
X76883689Y-70747943D01*
X76883689Y-70072726D01*
X76929584Y-70046493D01*
X76976578Y-70021691D01*
X77024633Y-69998358D01*
X77073710Y-69976530D01*
X77123771Y-69956241D01*
X77174777Y-69937528D01*
X77226690Y-69920427D01*
X77279472Y-69904974D01*
X77333085Y-69891204D01*
X77387489Y-69879154D01*
X77442647Y-69868859D01*
X77498520Y-69860356D01*
X77555070Y-69853680D01*
X77612259Y-69848867D01*
X77670047Y-69845952D01*
X77728398Y-69844973D01*
X77806809Y-69846736D01*
D11*
X107233489Y-72585925D02*
X107733489Y-72585925D01*
X107733489Y-72395449D01*
X107709680Y-72347830D01*
X107685870Y-72324020D01*
X107638251Y-72300211D01*
X107566822Y-72300211D01*
X107519203Y-72324020D01*
X107495394Y-72347830D01*
X107471584Y-72395449D01*
X107471584Y-72585925D01*
X107495394Y-71919258D02*
X107471584Y-71847830D01*
X107447775Y-71824020D01*
X107400156Y-71800211D01*
X107328727Y-71800211D01*
X107281108Y-71824020D01*
X107257299Y-71847830D01*
X107233489Y-71895449D01*
X107233489Y-72085925D01*
X107733489Y-72085925D01*
X107733489Y-71919258D01*
X107709680Y-71871639D01*
X107685870Y-71847830D01*
X107638251Y-71824020D01*
X107590632Y-71824020D01*
X107543013Y-71847830D01*
X107519203Y-71871639D01*
X107495394Y-71919258D01*
X107495394Y-72085925D01*
X107733489Y-71490687D02*
X107733489Y-71443068D01*
X107709680Y-71395449D01*
X107685870Y-71371639D01*
X107638251Y-71347830D01*
X107543013Y-71324020D01*
X107423965Y-71324020D01*
X107328727Y-71347830D01*
X107281108Y-71371639D01*
X107257299Y-71395449D01*
X107233489Y-71443068D01*
X107233489Y-71490687D01*
X107257299Y-71538306D01*
X107281108Y-71562116D01*
X107328727Y-71585925D01*
X107423965Y-71609735D01*
X107543013Y-71609735D01*
X107638251Y-71585925D01*
X107685870Y-71562116D01*
X107709680Y-71538306D01*
X107733489Y-71490687D01*
D12*
X74368251Y-70315830D02*
X74368251Y-69553925D01*
X73987299Y-69934878D02*
X74749203Y-69934878D01*
D13*
X120151680Y-69672401D02*
X120199299Y-69767639D01*
X120199299Y-69910497D01*
X120151680Y-70053354D01*
X120056441Y-70148592D01*
X119961203Y-70196211D01*
X119770727Y-70243830D01*
X119627870Y-70243830D01*
X119437394Y-70196211D01*
X119342156Y-70148592D01*
X119246918Y-70053354D01*
X119199299Y-69910497D01*
X119199299Y-69815258D01*
X119246918Y-69672401D01*
X119294537Y-69624782D01*
X119627870Y-69624782D01*
X119627870Y-69815258D01*
X119199299Y-68624782D02*
X119675489Y-68958116D01*
X119199299Y-69196211D02*
X120199299Y-69196211D01*
X120199299Y-68815258D01*
X120151680Y-68720020D01*
X120104060Y-68672401D01*
X120008822Y-68624782D01*
X119865965Y-68624782D01*
X119770727Y-68672401D01*
X119723108Y-68720020D01*
X119675489Y-68815258D01*
X119675489Y-69196211D01*
X120199299Y-68005735D02*
X120199299Y-67815258D01*
X120151680Y-67720020D01*
X120056441Y-67624782D01*
X119865965Y-67577163D01*
X119532632Y-67577163D01*
X119342156Y-67624782D01*
X119246918Y-67720020D01*
X119199299Y-67815258D01*
X119199299Y-68005735D01*
X119246918Y-68100973D01*
X119342156Y-68196211D01*
X119532632Y-68243830D01*
X119865965Y-68243830D01*
X120056441Y-68196211D01*
X120151680Y-68100973D01*
X120199299Y-68005735D01*
X120199299Y-67148592D02*
X119389775Y-67148592D01*
X119294537Y-67100973D01*
X119246918Y-67053354D01*
X119199299Y-66958116D01*
X119199299Y-66767639D01*
X119246918Y-66672401D01*
X119294537Y-66624782D01*
X119389775Y-66577163D01*
X120199299Y-66577163D01*
X119199299Y-66100973D02*
X120199299Y-66100973D01*
X120199299Y-65720020D01*
X120151680Y-65624782D01*
X120104060Y-65577163D01*
X120008822Y-65529544D01*
X119865965Y-65529544D01*
X119770727Y-65577163D01*
X119723108Y-65624782D01*
X119675489Y-65720020D01*
X119675489Y-66100973D01*
X119199299Y-64339068D02*
X120199299Y-64339068D01*
X119199299Y-63767639D01*
X120199299Y-63767639D01*
X120199299Y-63100973D02*
X120199299Y-62910497D01*
X120151680Y-62815258D01*
X120056441Y-62720020D01*
X119865965Y-62672401D01*
X119532632Y-62672401D01*
X119342156Y-62720020D01*
X119246918Y-62815258D01*
X119199299Y-62910497D01*
X119199299Y-63100973D01*
X119246918Y-63196211D01*
X119342156Y-63291449D01*
X119532632Y-63339068D01*
X119865965Y-63339068D01*
X120056441Y-63291449D01*
X120151680Y-63196211D01*
X120199299Y-63100973D01*
X119294537Y-62243830D02*
X119246918Y-62196211D01*
X119199299Y-62243830D01*
X119246918Y-62291449D01*
X119294537Y-62243830D01*
X119199299Y-62243830D01*
X120199299Y-60529544D02*
X120199299Y-61005735D01*
X119723108Y-61053354D01*
X119770727Y-61005735D01*
X119818346Y-60910497D01*
X119818346Y-60672401D01*
X119770727Y-60577163D01*
X119723108Y-60529544D01*
X119627870Y-60481925D01*
X119389775Y-60481925D01*
X119294537Y-60529544D01*
X119246918Y-60577163D01*
X119199299Y-60672401D01*
X119199299Y-60910497D01*
X119246918Y-61005735D01*
X119294537Y-61053354D01*
D11*
X104947489Y-72585925D02*
X105447489Y-72585925D01*
X105447489Y-72395449D01*
X105423680Y-72347830D01*
X105399870Y-72324020D01*
X105352251Y-72300211D01*
X105280822Y-72300211D01*
X105233203Y-72324020D01*
X105209394Y-72347830D01*
X105185584Y-72395449D01*
X105185584Y-72585925D01*
X105209394Y-71919258D02*
X105185584Y-71847830D01*
X105161775Y-71824020D01*
X105114156Y-71800211D01*
X105042727Y-71800211D01*
X104995108Y-71824020D01*
X104971299Y-71847830D01*
X104947489Y-71895449D01*
X104947489Y-72085925D01*
X105447489Y-72085925D01*
X105447489Y-71919258D01*
X105423680Y-71871639D01*
X105399870Y-71847830D01*
X105352251Y-71824020D01*
X105304632Y-71824020D01*
X105257013Y-71847830D01*
X105233203Y-71871639D01*
X105209394Y-71919258D01*
X105209394Y-72085925D01*
X105399870Y-71609735D02*
X105423680Y-71585925D01*
X105447489Y-71538306D01*
X105447489Y-71419258D01*
X105423680Y-71371639D01*
X105399870Y-71347830D01*
X105352251Y-71324020D01*
X105304632Y-71324020D01*
X105233203Y-71347830D01*
X104947489Y-71633544D01*
X104947489Y-71324020D01*
D14*
X107190537Y-64440020D02*
X106547680Y-64440020D01*
X106419108Y-64482878D01*
X106333394Y-64568592D01*
X106290537Y-64697163D01*
X106290537Y-64782878D01*
X106290537Y-63582878D02*
X106290537Y-64011449D01*
X107190537Y-64011449D01*
X106376251Y-62768592D02*
X106333394Y-62811449D01*
X106290537Y-62940020D01*
X106290537Y-63025735D01*
X106333394Y-63154306D01*
X106419108Y-63240020D01*
X106504822Y-63282878D01*
X106676251Y-63325735D01*
X106804822Y-63325735D01*
X106976251Y-63282878D01*
X107061965Y-63240020D01*
X107147680Y-63154306D01*
X107190537Y-63025735D01*
X107190537Y-62940020D01*
X107147680Y-62811449D01*
X107104822Y-62768592D01*
X107190537Y-62125735D02*
X106547680Y-62125735D01*
X106419108Y-62168592D01*
X106333394Y-62254306D01*
X106290537Y-62382878D01*
X106290537Y-62468592D01*
X106290537Y-61268592D02*
X106290537Y-61697163D01*
X107190537Y-61697163D01*
X106376251Y-60454306D02*
X106333394Y-60497163D01*
X106290537Y-60625735D01*
X106290537Y-60711449D01*
X106333394Y-60840020D01*
X106419108Y-60925735D01*
X106504822Y-60968592D01*
X106676251Y-61011449D01*
X106804822Y-61011449D01*
X106976251Y-60968592D01*
X107061965Y-60925735D01*
X107147680Y-60840020D01*
X107190537Y-60711449D01*
X107190537Y-60625735D01*
X107147680Y-60497163D01*
X107104822Y-60454306D01*
X107190537Y-59811449D02*
X106547680Y-59811449D01*
X106419108Y-59854306D01*
X106333394Y-59940020D01*
X106290537Y-60068592D01*
X106290537Y-60154306D01*
X106290537Y-58954306D02*
X106290537Y-59382878D01*
X107190537Y-59382878D01*
X106376251Y-58140020D02*
X106333394Y-58182878D01*
X106290537Y-58311449D01*
X106290537Y-58397163D01*
X106333394Y-58525735D01*
X106419108Y-58611449D01*
X106504822Y-58654306D01*
X106676251Y-58697163D01*
X106804822Y-58697163D01*
X106976251Y-58654306D01*
X107061965Y-58611449D01*
X107147680Y-58525735D01*
X107190537Y-58397163D01*
X107190537Y-58311449D01*
X107147680Y-58182878D01*
X107104822Y-58140020D01*
X107190537Y-57497163D02*
X106547680Y-57497163D01*
X106419108Y-57540020D01*
X106333394Y-57625735D01*
X106290537Y-57754306D01*
X106290537Y-57840020D01*
X106290537Y-56640020D02*
X106290537Y-57068592D01*
X107190537Y-57068592D01*
X106376251Y-55825735D02*
X106333394Y-55868592D01*
X106290537Y-55997163D01*
X106290537Y-56082878D01*
X106333394Y-56211449D01*
X106419108Y-56297163D01*
X106504822Y-56340020D01*
X106676251Y-56382878D01*
X106804822Y-56382878D01*
X106976251Y-56340020D01*
X107061965Y-56297163D01*
X107147680Y-56211449D01*
X107190537Y-56082878D01*
X107190537Y-55997163D01*
X107147680Y-55868592D01*
X107104822Y-55825735D01*
D12*
X117440251Y-70526592D02*
X117440251Y-70183735D01*
X116840251Y-70355163D02*
X117440251Y-70355163D01*
X117154537Y-69983735D02*
X117154537Y-69783735D01*
X116840251Y-69698020D02*
X116840251Y-69983735D01*
X117440251Y-69983735D01*
X117440251Y-69698020D01*
X117011680Y-69469449D02*
X117011680Y-69183735D01*
X116840251Y-69526592D02*
X117440251Y-69326592D01*
X116840251Y-69126592D01*
X116840251Y-68926592D02*
X117440251Y-68926592D01*
X117011680Y-68726592D01*
X117440251Y-68526592D01*
X116840251Y-68526592D01*
X116840251Y-67783735D02*
X117440251Y-67783735D01*
X117011680Y-67583735D01*
X117440251Y-67383735D01*
X116840251Y-67383735D01*
X117154537Y-67098020D02*
X117154537Y-66898020D01*
X116840251Y-66812306D02*
X116840251Y-67098020D01*
X117440251Y-67098020D01*
X117440251Y-66812306D01*
X116840251Y-66555163D02*
X117440251Y-66555163D01*
X117011680Y-66355163D01*
X117440251Y-66155163D01*
X116840251Y-66155163D01*
X117154537Y-65669449D02*
X117125965Y-65583735D01*
X117097394Y-65555163D01*
X117040251Y-65526592D01*
X116954537Y-65526592D01*
X116897394Y-65555163D01*
X116868822Y-65583735D01*
X116840251Y-65640878D01*
X116840251Y-65869449D01*
X117440251Y-65869449D01*
X117440251Y-65669449D01*
X117411680Y-65612306D01*
X117383108Y-65583735D01*
X117325965Y-65555163D01*
X117268822Y-65555163D01*
X117211680Y-65583735D01*
X117183108Y-65612306D01*
X117154537Y-65669449D01*
X117154537Y-65869449D01*
X117154537Y-65269449D02*
X117154537Y-65069449D01*
X116840251Y-64983735D02*
X116840251Y-65269449D01*
X117440251Y-65269449D01*
X117440251Y-64983735D01*
X116840251Y-64383735D02*
X117125965Y-64583735D01*
X116840251Y-64726592D02*
X117440251Y-64726592D01*
X117440251Y-64498020D01*
X117411680Y-64440878D01*
X117383108Y-64412306D01*
X117325965Y-64383735D01*
X117240251Y-64383735D01*
X117183108Y-64412306D01*
X117154537Y-64440878D01*
X117125965Y-64498020D01*
X117125965Y-64726592D01*
X116868822Y-64155163D02*
X116840251Y-64069449D01*
X116840251Y-63926592D01*
X116868822Y-63869449D01*
X116897394Y-63840878D01*
X116954537Y-63812306D01*
X117011680Y-63812306D01*
X117068822Y-63840878D01*
X117097394Y-63869449D01*
X117125965Y-63926592D01*
X117154537Y-64040878D01*
X117183108Y-64098020D01*
X117211680Y-64126592D01*
X117268822Y-64155163D01*
X117325965Y-64155163D01*
X117383108Y-64126592D01*
X117411680Y-64098020D01*
X117440251Y-64040878D01*
X117440251Y-63898020D01*
X117411680Y-63812306D01*
X71463108Y-70212401D02*
X71415489Y-70069544D01*
X71367870Y-70021925D01*
X71272632Y-69974306D01*
X71129775Y-69974306D01*
X71034537Y-70021925D01*
X70986918Y-70069544D01*
X70939299Y-70164782D01*
X70939299Y-70545735D01*
X71939299Y-70545735D01*
X71939299Y-70212401D01*
X71891680Y-70117163D01*
X71844060Y-70069544D01*
X71748822Y-70021925D01*
X71653584Y-70021925D01*
X71558346Y-70069544D01*
X71510727Y-70117163D01*
X71463108Y-70212401D01*
X71463108Y-70545735D01*
X71225013Y-69593354D02*
X71225013Y-69117163D01*
X70939299Y-69688592D02*
X71939299Y-69355258D01*
X70939299Y-69021925D01*
X71939299Y-68831449D02*
X71939299Y-68260020D01*
X70939299Y-68545735D02*
X71939299Y-68545735D01*
X71939299Y-67260020D02*
X71939299Y-66640973D01*
X71558346Y-66974306D01*
X71558346Y-66831449D01*
X71510727Y-66736211D01*
X71463108Y-66688592D01*
X71367870Y-66640973D01*
X71129775Y-66640973D01*
X71034537Y-66688592D01*
X70986918Y-66736211D01*
X70939299Y-66831449D01*
X70939299Y-67117163D01*
X70986918Y-67212401D01*
X71034537Y-67260020D01*
X71034537Y-66212401D02*
X70986918Y-66164782D01*
X70939299Y-66212401D01*
X70986918Y-66260020D01*
X71034537Y-66212401D01*
X70939299Y-66212401D01*
X71939299Y-65831449D02*
X71939299Y-65164782D01*
X70939299Y-65593354D01*
D11*
X100010346Y-69656687D02*
X100010346Y-69418592D01*
X99867489Y-69704306D02*
X100367489Y-69537639D01*
X99867489Y-69370973D01*
X100367489Y-69275735D02*
X100367489Y-68990020D01*
X99867489Y-69132878D02*
X100367489Y-69132878D01*
X99867489Y-68823354D02*
X100367489Y-68823354D01*
X100010346Y-68656687D01*
X100367489Y-68490020D01*
X99867489Y-68490020D01*
X100129394Y-68251925D02*
X100129394Y-68085258D01*
X99867489Y-68013830D02*
X99867489Y-68251925D01*
X100367489Y-68251925D01*
X100367489Y-68013830D01*
X100343680Y-67537639D02*
X100367489Y-67585258D01*
X100367489Y-67656687D01*
X100343680Y-67728116D01*
X100296060Y-67775735D01*
X100248441Y-67799544D01*
X100153203Y-67823354D01*
X100081775Y-67823354D01*
X99986537Y-67799544D01*
X99938918Y-67775735D01*
X99891299Y-67728116D01*
X99867489Y-67656687D01*
X99867489Y-67609068D01*
X99891299Y-67537639D01*
X99915108Y-67513830D01*
X100081775Y-67513830D01*
X100081775Y-67609068D01*
X100010346Y-67323354D02*
X100010346Y-67085258D01*
X99867489Y-67370973D02*
X100367489Y-67204306D01*
X99867489Y-67037639D01*
X100367489Y-66918592D02*
X100367489Y-66609068D01*
X100177013Y-66775735D01*
X100177013Y-66704306D01*
X100153203Y-66656687D01*
X100129394Y-66632878D01*
X100081775Y-66609068D01*
X99962727Y-66609068D01*
X99915108Y-66632878D01*
X99891299Y-66656687D01*
X99867489Y-66704306D01*
X99867489Y-66847163D01*
X99891299Y-66894782D01*
X99915108Y-66918592D01*
X100319870Y-66418592D02*
X100343680Y-66394782D01*
X100367489Y-66347163D01*
X100367489Y-66228116D01*
X100343680Y-66180497D01*
X100319870Y-66156687D01*
X100272251Y-66132878D01*
X100224632Y-66132878D01*
X100153203Y-66156687D01*
X99867489Y-66442401D01*
X99867489Y-66132878D01*
X100153203Y-65847163D02*
X100177013Y-65894782D01*
X100200822Y-65918592D01*
X100248441Y-65942401D01*
X100272251Y-65942401D01*
X100319870Y-65918592D01*
X100343680Y-65894782D01*
X100367489Y-65847163D01*
X100367489Y-65751925D01*
X100343680Y-65704306D01*
X100319870Y-65680497D01*
X100272251Y-65656687D01*
X100248441Y-65656687D01*
X100200822Y-65680497D01*
X100177013Y-65704306D01*
X100153203Y-65751925D01*
X100153203Y-65847163D01*
X100129394Y-65894782D01*
X100105584Y-65918592D01*
X100057965Y-65942401D01*
X99962727Y-65942401D01*
X99915108Y-65918592D01*
X99891299Y-65894782D01*
X99867489Y-65847163D01*
X99867489Y-65751925D01*
X99891299Y-65704306D01*
X99915108Y-65680497D01*
X99962727Y-65656687D01*
X100057965Y-65656687D01*
X100105584Y-65680497D01*
X100129394Y-65704306D01*
X100153203Y-65751925D01*
X99867489Y-65442401D02*
X100367489Y-65442401D01*
X100367489Y-65251925D01*
X100343680Y-65204306D01*
X100319870Y-65180497D01*
X100272251Y-65156687D01*
X100200822Y-65156687D01*
X100153203Y-65180497D01*
X100129394Y-65204306D01*
X100105584Y-65251925D01*
X100105584Y-65442401D01*
X100129394Y-64775735D02*
X100105584Y-64704306D01*
X100081775Y-64680497D01*
X100034156Y-64656687D01*
X99962727Y-64656687D01*
X99915108Y-64680497D01*
X99891299Y-64704306D01*
X99867489Y-64751925D01*
X99867489Y-64942401D01*
X100367489Y-64942401D01*
X100367489Y-64775735D01*
X100343680Y-64728116D01*
X100319870Y-64704306D01*
X100272251Y-64680497D01*
X100224632Y-64680497D01*
X100177013Y-64704306D01*
X100153203Y-64728116D01*
X100129394Y-64775735D01*
X100129394Y-64942401D01*
X100057965Y-64442401D02*
X100057965Y-64061449D01*
X100010346Y-63847163D02*
X100010346Y-63609068D01*
X99867489Y-63894782D02*
X100367489Y-63728116D01*
X99867489Y-63561449D01*
D15*
X112485680Y-69432973D02*
X112504727Y-69471068D01*
X112504727Y-69528211D01*
X112485680Y-69585354D01*
X112447584Y-69623449D01*
X112409489Y-69642497D01*
X112333299Y-69661544D01*
X112276156Y-69661544D01*
X112199965Y-69642497D01*
X112161870Y-69623449D01*
X112123775Y-69585354D01*
X112104727Y-69528211D01*
X112104727Y-69490116D01*
X112123775Y-69432973D01*
X112142822Y-69413925D01*
X112276156Y-69413925D01*
X112276156Y-69490116D01*
X112504727Y-69166306D02*
X112504727Y-69090116D01*
X112485680Y-69052020D01*
X112447584Y-69013925D01*
X112371394Y-68994878D01*
X112238060Y-68994878D01*
X112161870Y-69013925D01*
X112123775Y-69052020D01*
X112104727Y-69090116D01*
X112104727Y-69166306D01*
X112123775Y-69204401D01*
X112161870Y-69242497D01*
X112238060Y-69261544D01*
X112371394Y-69261544D01*
X112447584Y-69242497D01*
X112485680Y-69204401D01*
X112504727Y-69166306D01*
X112504727Y-68823449D02*
X112180918Y-68823449D01*
X112142822Y-68804401D01*
X112123775Y-68785354D01*
X112104727Y-68747258D01*
X112104727Y-68671068D01*
X112123775Y-68632973D01*
X112142822Y-68613925D01*
X112180918Y-68594878D01*
X112504727Y-68594878D01*
X112104727Y-68175830D02*
X112295203Y-68309163D01*
X112104727Y-68404401D02*
X112504727Y-68404401D01*
X112504727Y-68252020D01*
X112485680Y-68213925D01*
X112466632Y-68194878D01*
X112428537Y-68175830D01*
X112371394Y-68175830D01*
X112333299Y-68194878D01*
X112314251Y-68213925D01*
X112295203Y-68252020D01*
X112295203Y-68404401D01*
X112104727Y-68004401D02*
X112504727Y-68004401D01*
X112104727Y-67509163D02*
X112504727Y-67509163D01*
X112104727Y-67280592D02*
X112333299Y-67452020D01*
X112504727Y-67280592D02*
X112276156Y-67509163D01*
X112104727Y-66880592D02*
X112295203Y-67013925D01*
X112104727Y-67109163D02*
X112504727Y-67109163D01*
X112504727Y-66956782D01*
X112485680Y-66918687D01*
X112466632Y-66899639D01*
X112428537Y-66880592D01*
X112371394Y-66880592D01*
X112333299Y-66899639D01*
X112314251Y-66918687D01*
X112295203Y-66956782D01*
X112295203Y-67109163D01*
X112104727Y-66709163D02*
X112504727Y-66709163D01*
X112123775Y-66537735D02*
X112104727Y-66480592D01*
X112104727Y-66385354D01*
X112123775Y-66347258D01*
X112142822Y-66328211D01*
X112180918Y-66309163D01*
X112219013Y-66309163D01*
X112257108Y-66328211D01*
X112276156Y-66347258D01*
X112295203Y-66385354D01*
X112314251Y-66461544D01*
X112333299Y-66499639D01*
X112352346Y-66518687D01*
X112390441Y-66537735D01*
X112428537Y-66537735D01*
X112466632Y-66518687D01*
X112485680Y-66499639D01*
X112504727Y-66461544D01*
X112504727Y-66366306D01*
X112485680Y-66309163D01*
X112104727Y-66137735D02*
X112504727Y-66137735D01*
X112314251Y-66137735D02*
X112314251Y-65909163D01*
X112104727Y-65909163D02*
X112504727Y-65909163D01*
X112104727Y-65718687D02*
X112504727Y-65718687D01*
X112104727Y-65490116D01*
X112504727Y-65490116D01*
X112219013Y-65318687D02*
X112219013Y-65128211D01*
X112104727Y-65356782D02*
X112504727Y-65223449D01*
X112104727Y-65090116D01*
D12*
X74368251Y-69045830D02*
X74368251Y-68283925D01*
D15*
X115267013Y-69804401D02*
X115267013Y-69613925D01*
X115152727Y-69842497D02*
X115552727Y-69709163D01*
X115152727Y-69575830D01*
X115152727Y-69213925D02*
X115343203Y-69347258D01*
X115152727Y-69442497D02*
X115552727Y-69442497D01*
X115552727Y-69290116D01*
X115533680Y-69252020D01*
X115514632Y-69232973D01*
X115476537Y-69213925D01*
X115419394Y-69213925D01*
X115381299Y-69232973D01*
X115362251Y-69252020D01*
X115343203Y-69290116D01*
X115343203Y-69442497D01*
X115552727Y-69042497D02*
X115228918Y-69042497D01*
X115190822Y-69023449D01*
X115171775Y-69004401D01*
X115152727Y-68966306D01*
X115152727Y-68890116D01*
X115171775Y-68852020D01*
X115190822Y-68832973D01*
X115228918Y-68813925D01*
X115552727Y-68813925D01*
X115152727Y-68623449D02*
X115552727Y-68623449D01*
X115152727Y-68394878D01*
X115552727Y-68394878D01*
X115552727Y-67785354D02*
X115267013Y-67785354D01*
X115209870Y-67804401D01*
X115171775Y-67842497D01*
X115152727Y-67899639D01*
X115152727Y-67937735D01*
X115343203Y-67518687D02*
X115152727Y-67518687D01*
X115552727Y-67652020D02*
X115343203Y-67518687D01*
X115552727Y-67385354D01*
X115552727Y-67175830D02*
X115552727Y-67099639D01*
X115533680Y-67061544D01*
X115495584Y-67023449D01*
X115419394Y-67004401D01*
X115286060Y-67004401D01*
X115209870Y-67023449D01*
X115171775Y-67061544D01*
X115152727Y-67099639D01*
X115152727Y-67175830D01*
X115171775Y-67213925D01*
X115209870Y-67252020D01*
X115286060Y-67271068D01*
X115419394Y-67271068D01*
X115495584Y-67252020D01*
X115533680Y-67213925D01*
X115552727Y-67175830D01*
X115552727Y-66890116D02*
X115552727Y-66661544D01*
X115152727Y-66775830D02*
X115552727Y-66775830D01*
X115152727Y-66528211D02*
X115552727Y-66528211D01*
X115362251Y-66528211D02*
X115362251Y-66299639D01*
X115152727Y-66299639D02*
X115552727Y-66299639D01*
X115152727Y-66109163D02*
X115552727Y-66109163D01*
X115171775Y-65937735D02*
X115152727Y-65880592D01*
X115152727Y-65785354D01*
X115171775Y-65747258D01*
X115190822Y-65728211D01*
X115228918Y-65709163D01*
X115267013Y-65709163D01*
X115305108Y-65728211D01*
X115324156Y-65747258D01*
X115343203Y-65785354D01*
X115362251Y-65861544D01*
X115381299Y-65899639D01*
X115400346Y-65918687D01*
X115438441Y-65937735D01*
X115476537Y-65937735D01*
X115514632Y-65918687D01*
X115533680Y-65899639D01*
X115552727Y-65861544D01*
X115552727Y-65766306D01*
X115533680Y-65709163D01*
X115152727Y-65537735D02*
X115552727Y-65537735D01*
X115362251Y-65537735D02*
X115362251Y-65309163D01*
X115152727Y-65309163D02*
X115552727Y-65309163D01*
D11*
X103931489Y-69704592D02*
X104431489Y-69704592D01*
X104074346Y-69537925D01*
X104431489Y-69371258D01*
X103931489Y-69371258D01*
X104431489Y-69037925D02*
X104431489Y-68942687D01*
X104407680Y-68895068D01*
X104360060Y-68847449D01*
X104264822Y-68823639D01*
X104098156Y-68823639D01*
X104002918Y-68847449D01*
X103955299Y-68895068D01*
X103931489Y-68942687D01*
X103931489Y-69037925D01*
X103955299Y-69085544D01*
X104002918Y-69133163D01*
X104098156Y-69156973D01*
X104264822Y-69156973D01*
X104360060Y-69133163D01*
X104407680Y-69085544D01*
X104431489Y-69037925D01*
X103955299Y-68633163D02*
X103931489Y-68561735D01*
X103931489Y-68442687D01*
X103955299Y-68395068D01*
X103979108Y-68371258D01*
X104026727Y-68347449D01*
X104074346Y-68347449D01*
X104121965Y-68371258D01*
X104145775Y-68395068D01*
X104169584Y-68442687D01*
X104193394Y-68537925D01*
X104217203Y-68585544D01*
X104241013Y-68609354D01*
X104288632Y-68633163D01*
X104336251Y-68633163D01*
X104383870Y-68609354D01*
X104407680Y-68585544D01*
X104431489Y-68537925D01*
X104431489Y-68418878D01*
X104407680Y-68347449D01*
X103931489Y-68133163D02*
X104431489Y-68133163D01*
D15*
X114251013Y-70156782D02*
X114251013Y-69966306D01*
X114136727Y-70194878D02*
X114536727Y-70061544D01*
X114136727Y-69928211D01*
X114136727Y-69794878D02*
X114536727Y-69794878D01*
X114251013Y-69661544D01*
X114536727Y-69528211D01*
X114136727Y-69528211D01*
X114136727Y-69337735D02*
X114536727Y-69337735D01*
X114536727Y-69204401D02*
X114536727Y-68975830D01*
X114136727Y-69090116D02*
X114536727Y-69090116D01*
X114536727Y-68594878D02*
X114536727Y-68366306D01*
X114136727Y-68480592D02*
X114536727Y-68480592D01*
X114536727Y-68156782D02*
X114536727Y-68080592D01*
X114517680Y-68042497D01*
X114479584Y-68004401D01*
X114403394Y-67985354D01*
X114270060Y-67985354D01*
X114193870Y-68004401D01*
X114155775Y-68042497D01*
X114136727Y-68080592D01*
X114136727Y-68156782D01*
X114155775Y-68194878D01*
X114193870Y-68232973D01*
X114270060Y-68252020D01*
X114403394Y-68252020D01*
X114479584Y-68232973D01*
X114517680Y-68194878D01*
X114536727Y-68156782D01*
X114136727Y-67813925D02*
X114536727Y-67813925D01*
X114136727Y-67585354D01*
X114536727Y-67585354D01*
X114327203Y-67318687D02*
X114136727Y-67318687D01*
X114536727Y-67452020D02*
X114327203Y-67318687D01*
X114536727Y-67185354D01*
X114536727Y-66632973D02*
X114251013Y-66632973D01*
X114193870Y-66652020D01*
X114155775Y-66690116D01*
X114136727Y-66747258D01*
X114136727Y-66785354D01*
X114536727Y-66366306D02*
X114536727Y-66290116D01*
X114517680Y-66252020D01*
X114479584Y-66213925D01*
X114403394Y-66194878D01*
X114270060Y-66194878D01*
X114193870Y-66213925D01*
X114155775Y-66252020D01*
X114136727Y-66290116D01*
X114136727Y-66366306D01*
X114155775Y-66404401D01*
X114193870Y-66442497D01*
X114270060Y-66461544D01*
X114403394Y-66461544D01*
X114479584Y-66442497D01*
X114517680Y-66404401D01*
X114536727Y-66366306D01*
X114155775Y-66042497D02*
X114136727Y-65985354D01*
X114136727Y-65890116D01*
X114155775Y-65852020D01*
X114174822Y-65832973D01*
X114212918Y-65813925D01*
X114251013Y-65813925D01*
X114289108Y-65832973D01*
X114308156Y-65852020D01*
X114327203Y-65890116D01*
X114346251Y-65966306D01*
X114365299Y-66004401D01*
X114384346Y-66023449D01*
X114422441Y-66042497D01*
X114460537Y-66042497D01*
X114498632Y-66023449D01*
X114517680Y-66004401D01*
X114536727Y-65966306D01*
X114536727Y-65871068D01*
X114517680Y-65813925D01*
X114346251Y-65642497D02*
X114346251Y-65509163D01*
X114136727Y-65452020D02*
X114136727Y-65642497D01*
X114536727Y-65642497D01*
X114536727Y-65452020D01*
X114136727Y-65280592D02*
X114536727Y-65280592D01*
X114536727Y-65128211D01*
X114517680Y-65090116D01*
X114498632Y-65071068D01*
X114460537Y-65052020D01*
X114403394Y-65052020D01*
X114365299Y-65071068D01*
X114346251Y-65090116D01*
X114327203Y-65128211D01*
X114327203Y-65280592D01*
X114136727Y-64880592D02*
X114536727Y-64880592D01*
X114346251Y-64880592D02*
X114346251Y-64652020D01*
X114136727Y-64652020D02*
X114536727Y-64652020D01*
D11*
X105709489Y-69537925D02*
X106209489Y-69537925D01*
X106209489Y-69347449D01*
X106185680Y-69299830D01*
X106161870Y-69276020D01*
X106114251Y-69252211D01*
X106042822Y-69252211D01*
X105995203Y-69276020D01*
X105971394Y-69299830D01*
X105947584Y-69347449D01*
X105947584Y-69537925D01*
X105971394Y-68871258D02*
X105947584Y-68799830D01*
X105923775Y-68776020D01*
X105876156Y-68752211D01*
X105804727Y-68752211D01*
X105757108Y-68776020D01*
X105733299Y-68799830D01*
X105709489Y-68847449D01*
X105709489Y-69037925D01*
X106209489Y-69037925D01*
X106209489Y-68871258D01*
X106185680Y-68823639D01*
X106161870Y-68799830D01*
X106114251Y-68776020D01*
X106066632Y-68776020D01*
X106019013Y-68799830D01*
X105995203Y-68823639D01*
X105971394Y-68871258D01*
X105971394Y-69037925D01*
X105709489Y-68276020D02*
X105709489Y-68561735D01*
X105709489Y-68418878D02*
X106209489Y-68418878D01*
X106138060Y-68466497D01*
X106090441Y-68514116D01*
X106066632Y-68561735D01*
X101923299Y-69561735D02*
X101899489Y-69490306D01*
X101899489Y-69371258D01*
X101923299Y-69323639D01*
X101947108Y-69299830D01*
X101994727Y-69276020D01*
X102042346Y-69276020D01*
X102089965Y-69299830D01*
X102113775Y-69323639D01*
X102137584Y-69371258D01*
X102161394Y-69466497D01*
X102185203Y-69514116D01*
X102209013Y-69537925D01*
X102256632Y-69561735D01*
X102304251Y-69561735D01*
X102351870Y-69537925D01*
X102375680Y-69514116D01*
X102399489Y-69466497D01*
X102399489Y-69347449D01*
X102375680Y-69276020D01*
X101947108Y-68776020D02*
X101923299Y-68799830D01*
X101899489Y-68871258D01*
X101899489Y-68918878D01*
X101923299Y-68990306D01*
X101970918Y-69037925D01*
X102018537Y-69061735D01*
X102113775Y-69085544D01*
X102185203Y-69085544D01*
X102280441Y-69061735D01*
X102328060Y-69037925D01*
X102375680Y-68990306D01*
X102399489Y-68918878D01*
X102399489Y-68871258D01*
X102375680Y-68799830D01*
X102351870Y-68776020D01*
X101899489Y-68561735D02*
X102399489Y-68561735D01*
X101899489Y-68276020D02*
X102185203Y-68490306D01*
X102399489Y-68276020D02*
X102113775Y-68561735D01*
D15*
X113330251Y-69956782D02*
X113311203Y-69899639D01*
X113292156Y-69880592D01*
X113254060Y-69861544D01*
X113196918Y-69861544D01*
X113158822Y-69880592D01*
X113139775Y-69899639D01*
X113120727Y-69937735D01*
X113120727Y-70090116D01*
X113520727Y-70090116D01*
X113520727Y-69956782D01*
X113501680Y-69918687D01*
X113482632Y-69899639D01*
X113444537Y-69880592D01*
X113406441Y-69880592D01*
X113368346Y-69899639D01*
X113349299Y-69918687D01*
X113330251Y-69956782D01*
X113330251Y-70090116D01*
X113120727Y-69690116D02*
X113520727Y-69690116D01*
X113330251Y-69690116D02*
X113330251Y-69461544D01*
X113120727Y-69461544D02*
X113520727Y-69461544D01*
X113235013Y-69290116D02*
X113235013Y-69099639D01*
X113120727Y-69328211D02*
X113520727Y-69194878D01*
X113120727Y-69061544D01*
X113120727Y-68699639D02*
X113311203Y-68832973D01*
X113120727Y-68928211D02*
X113520727Y-68928211D01*
X113520727Y-68775830D01*
X113501680Y-68737735D01*
X113482632Y-68718687D01*
X113444537Y-68699639D01*
X113387394Y-68699639D01*
X113349299Y-68718687D01*
X113330251Y-68737735D01*
X113311203Y-68775830D01*
X113311203Y-68928211D01*
X113235013Y-68547258D02*
X113235013Y-68356782D01*
X113120727Y-68585354D02*
X113520727Y-68452020D01*
X113120727Y-68318687D01*
X113520727Y-68242497D02*
X113520727Y-68013925D01*
X113120727Y-68128211D02*
X113520727Y-68128211D01*
X113120727Y-67880592D02*
X113520727Y-67880592D01*
X113330251Y-67880592D02*
X113330251Y-67652020D01*
X113120727Y-67652020D02*
X113520727Y-67652020D01*
X113139775Y-67175830D02*
X113120727Y-67118687D01*
X113120727Y-67023449D01*
X113139775Y-66985354D01*
X113158822Y-66966306D01*
X113196918Y-66947258D01*
X113235013Y-66947258D01*
X113273108Y-66966306D01*
X113292156Y-66985354D01*
X113311203Y-67023449D01*
X113330251Y-67099639D01*
X113349299Y-67137735D01*
X113368346Y-67156782D01*
X113406441Y-67175830D01*
X113444537Y-67175830D01*
X113482632Y-67156782D01*
X113501680Y-67137735D01*
X113520727Y-67099639D01*
X113520727Y-67004401D01*
X113501680Y-66947258D01*
X113120727Y-66547258D02*
X113311203Y-66680592D01*
X113120727Y-66775830D02*
X113520727Y-66775830D01*
X113520727Y-66623449D01*
X113501680Y-66585354D01*
X113482632Y-66566306D01*
X113444537Y-66547258D01*
X113387394Y-66547258D01*
X113349299Y-66566306D01*
X113330251Y-66585354D01*
X113311203Y-66623449D01*
X113311203Y-66775830D01*
X113120727Y-66375830D02*
X113520727Y-66375830D01*
X113120727Y-66185354D02*
X113520727Y-66185354D01*
X113120727Y-65956782D01*
X113520727Y-65956782D01*
X113120727Y-65766306D02*
X113520727Y-65766306D01*
X113520727Y-65632973D02*
X113120727Y-65499639D01*
X113520727Y-65366306D01*
X113235013Y-65252020D02*
X113235013Y-65061544D01*
X113120727Y-65290116D02*
X113520727Y-65156782D01*
X113120727Y-65023449D01*
X113139775Y-64909163D02*
X113120727Y-64852020D01*
X113120727Y-64756782D01*
X113139775Y-64718687D01*
X113158822Y-64699639D01*
X113196918Y-64680592D01*
X113235013Y-64680592D01*
X113273108Y-64699639D01*
X113292156Y-64718687D01*
X113311203Y-64756782D01*
X113330251Y-64832973D01*
X113349299Y-64871068D01*
X113368346Y-64890116D01*
X113406441Y-64909163D01*
X113444537Y-64909163D01*
X113482632Y-64890116D01*
X113501680Y-64871068D01*
X113520727Y-64832973D01*
X113520727Y-64737735D01*
X113501680Y-64680592D01*
D16*
X117260822Y-53087449D02*
X117260822Y-51587449D01*
X116689394Y-51587449D01*
X116546537Y-51658878D01*
X116475108Y-51730306D01*
X116403680Y-51873163D01*
X116403680Y-52087449D01*
X116475108Y-52230306D01*
X116546537Y-52301735D01*
X116689394Y-52373163D01*
X117260822Y-52373163D01*
X115475108Y-51587449D02*
X115189394Y-51587449D01*
X115046537Y-51658878D01*
X114903680Y-51801735D01*
X114832251Y-52087449D01*
X114832251Y-52587449D01*
X114903680Y-52873163D01*
X115046537Y-53016020D01*
X115189394Y-53087449D01*
X115475108Y-53087449D01*
X115617965Y-53016020D01*
X115760822Y-52873163D01*
X115832251Y-52587449D01*
X115832251Y-52087449D01*
X115760822Y-51801735D01*
X115617965Y-51658878D01*
X115475108Y-51587449D01*
X113332251Y-53087449D02*
X113832251Y-52373163D01*
X114189394Y-53087449D02*
X114189394Y-51587449D01*
X113617965Y-51587449D01*
X113475108Y-51658878D01*
X113403680Y-51730306D01*
X113332251Y-51873163D01*
X113332251Y-52087449D01*
X113403680Y-52230306D01*
X113475108Y-52301735D01*
X113617965Y-52373163D01*
X114189394Y-52373163D01*
X112903680Y-51587449D02*
X112046537Y-51587449D01*
X112475108Y-53087449D02*
X112475108Y-51587449D01*
X111617965Y-52658878D02*
X110903680Y-52658878D01*
X111760822Y-53087449D02*
X111260822Y-51587449D01*
X110760822Y-53087449D01*
X109760822Y-52301735D02*
X109546537Y-52373163D01*
X109475108Y-52444592D01*
X109403680Y-52587449D01*
X109403680Y-52801735D01*
X109475108Y-52944592D01*
X109546537Y-53016020D01*
X109689394Y-53087449D01*
X110260822Y-53087449D01*
X110260822Y-51587449D01*
X109760822Y-51587449D01*
X109617965Y-51658878D01*
X109546537Y-51730306D01*
X109475108Y-51873163D01*
X109475108Y-52016020D01*
X109546537Y-52158878D01*
X109617965Y-52230306D01*
X109760822Y-52301735D01*
X110260822Y-52301735D01*
X108046537Y-53087449D02*
X108760822Y-53087449D01*
X108760822Y-51587449D01*
X107546537Y-52301735D02*
X107046537Y-52301735D01*
X106832251Y-53087449D02*
X107546537Y-53087449D01*
X107546537Y-51587449D01*
X106832251Y-51587449D01*
X105046537Y-52301735D02*
X104546537Y-52301735D01*
X104332251Y-53087449D02*
X105046537Y-53087449D01*
X105046537Y-51587449D01*
X104332251Y-51587449D01*
X102832251Y-52944592D02*
X102903680Y-53016020D01*
X103117965Y-53087449D01*
X103260822Y-53087449D01*
X103475108Y-53016020D01*
X103617965Y-52873163D01*
X103689394Y-52730306D01*
X103760822Y-52444592D01*
X103760822Y-52230306D01*
X103689394Y-51944592D01*
X103617965Y-51801735D01*
X103475108Y-51658878D01*
X103260822Y-51587449D01*
X103117965Y-51587449D01*
X102903680Y-51658878D01*
X102832251Y-51730306D01*
X101403680Y-51658878D02*
X101546537Y-51587449D01*
X101760822Y-51587449D01*
X101975108Y-51658878D01*
X102117965Y-51801735D01*
X102189394Y-51944592D01*
X102260822Y-52230306D01*
X102260822Y-52444592D01*
X102189394Y-52730306D01*
X102117965Y-52873163D01*
X101975108Y-53016020D01*
X101760822Y-53087449D01*
X101617965Y-53087449D01*
X101403680Y-53016020D01*
X101332251Y-52944592D01*
X101332251Y-52444592D01*
X101617965Y-52444592D01*
X99546537Y-53087449D02*
X99546537Y-51587449D01*
X99046537Y-52658878D01*
X98546537Y-51587449D01*
X98546537Y-53087449D01*
X97903680Y-52658878D02*
X97189394Y-52658878D01*
X98046537Y-53087449D02*
X97546537Y-51587449D01*
X97046537Y-53087449D01*
X95689394Y-52944592D02*
X95760822Y-53016020D01*
X95975108Y-53087449D01*
X96117965Y-53087449D01*
X96332251Y-53016020D01*
X96475108Y-52873163D01*
X96546537Y-52730306D01*
X96617965Y-52444592D01*
X96617965Y-52230306D01*
X96546537Y-51944592D01*
X96475108Y-51801735D01*
X96332251Y-51658878D01*
X96117965Y-51587449D01*
X95975108Y-51587449D01*
X95760822Y-51658878D01*
X95689394Y-51730306D01*
X95046537Y-53087449D02*
X95046537Y-51587449D01*
X95046537Y-52301735D02*
X94189394Y-52301735D01*
X94189394Y-53087449D02*
X94189394Y-51587449D01*
X93475108Y-53087449D02*
X93475108Y-51587449D01*
X92760822Y-53087449D02*
X92760822Y-51587449D01*
X91903680Y-53087449D01*
X91903680Y-51587449D01*
X91189394Y-52301735D02*
X90689394Y-52301735D01*
X90475108Y-53087449D02*
X91189394Y-53087449D01*
X91189394Y-51587449D01*
X90475108Y-51587449D01*
D11*
X102915489Y-72752592D02*
X103415489Y-72752592D01*
X103058346Y-72585925D01*
X103415489Y-72419258D01*
X102915489Y-72419258D01*
X102915489Y-72181163D02*
X103415489Y-72181163D01*
X102939299Y-71966878D02*
X102915489Y-71895449D01*
X102915489Y-71776401D01*
X102939299Y-71728782D01*
X102963108Y-71704973D01*
X103010727Y-71681163D01*
X103058346Y-71681163D01*
X103105965Y-71704973D01*
X103129775Y-71728782D01*
X103153584Y-71776401D01*
X103177394Y-71871639D01*
X103201203Y-71919258D01*
X103225013Y-71943068D01*
X103272632Y-71966878D01*
X103320251Y-71966878D01*
X103367870Y-71943068D01*
X103391680Y-71919258D01*
X103415489Y-71871639D01*
X103415489Y-71752592D01*
X103391680Y-71681163D01*
X103415489Y-71371639D02*
X103415489Y-71276401D01*
X103391680Y-71228782D01*
X103344060Y-71181163D01*
X103248822Y-71157354D01*
X103082156Y-71157354D01*
X102986918Y-71181163D01*
X102939299Y-71228782D01*
X102915489Y-71276401D01*
X102915489Y-71371639D01*
X102939299Y-71419258D01*
X102986918Y-71466878D01*
X103082156Y-71490687D01*
X103248822Y-71490687D01*
X103344060Y-71466878D01*
X103391680Y-71419258D01*
X103415489Y-71371639D01*
D13*
X91497299Y-60790878D02*
X91259203Y-60790878D01*
X91354441Y-61028973D02*
X91259203Y-60790878D01*
X91354441Y-60552782D01*
X91068727Y-60933735D02*
X91259203Y-60790878D01*
X91068727Y-60648020D01*
D15*
%TO.C,JP8*%
X82433333Y-68480952D02*
X82433333Y-68766666D01*
X82452380Y-68823809D01*
X82490476Y-68861904D01*
X82547619Y-68880952D01*
X82585714Y-68880952D01*
X82242857Y-68880952D02*
X82242857Y-68480952D01*
X82090476Y-68480952D01*
X82052380Y-68500000D01*
X82033333Y-68519047D01*
X82014285Y-68557142D01*
X82014285Y-68614285D01*
X82033333Y-68652380D01*
X82052380Y-68671428D01*
X82090476Y-68690476D01*
X82242857Y-68690476D01*
X81785714Y-68652380D02*
X81823809Y-68633333D01*
X81842857Y-68614285D01*
X81861904Y-68576190D01*
X81861904Y-68557142D01*
X81842857Y-68519047D01*
X81823809Y-68500000D01*
X81785714Y-68480952D01*
X81709523Y-68480952D01*
X81671428Y-68500000D01*
X81652380Y-68519047D01*
X81633333Y-68557142D01*
X81633333Y-68576190D01*
X81652380Y-68614285D01*
X81671428Y-68633333D01*
X81709523Y-68652380D01*
X81785714Y-68652380D01*
X81823809Y-68671428D01*
X81842857Y-68690476D01*
X81861904Y-68728571D01*
X81861904Y-68804761D01*
X81842857Y-68842857D01*
X81823809Y-68861904D01*
X81785714Y-68880952D01*
X81709523Y-68880952D01*
X81671428Y-68861904D01*
X81652380Y-68842857D01*
X81633333Y-68804761D01*
X81633333Y-68728571D01*
X81652380Y-68690476D01*
X81671428Y-68671428D01*
X81709523Y-68652380D01*
%TO.C,C8*%
X85266666Y-71342857D02*
X85285714Y-71361904D01*
X85342857Y-71380952D01*
X85380952Y-71380952D01*
X85438095Y-71361904D01*
X85476190Y-71323809D01*
X85495238Y-71285714D01*
X85514285Y-71209523D01*
X85514285Y-71152380D01*
X85495238Y-71076190D01*
X85476190Y-71038095D01*
X85438095Y-71000000D01*
X85380952Y-70980952D01*
X85342857Y-70980952D01*
X85285714Y-71000000D01*
X85266666Y-71019047D01*
X85038095Y-71152380D02*
X85076190Y-71133333D01*
X85095238Y-71114285D01*
X85114285Y-71076190D01*
X85114285Y-71057142D01*
X85095238Y-71019047D01*
X85076190Y-71000000D01*
X85038095Y-70980952D01*
X84961904Y-70980952D01*
X84923809Y-71000000D01*
X84904761Y-71019047D01*
X84885714Y-71057142D01*
X84885714Y-71076190D01*
X84904761Y-71114285D01*
X84923809Y-71133333D01*
X84961904Y-71152380D01*
X85038095Y-71152380D01*
X85076190Y-71171428D01*
X85095238Y-71190476D01*
X85114285Y-71228571D01*
X85114285Y-71304761D01*
X85095238Y-71342857D01*
X85076190Y-71361904D01*
X85038095Y-71380952D01*
X84961904Y-71380952D01*
X84923809Y-71361904D01*
X84904761Y-71342857D01*
X84885714Y-71304761D01*
X84885714Y-71228571D01*
X84904761Y-71190476D01*
X84923809Y-71171428D01*
X84961904Y-71152380D01*
%TO.C,J4*%
X75589013Y-59358830D02*
X75589013Y-59644544D01*
X75608060Y-59701687D01*
X75646156Y-59739782D01*
X75703299Y-59758830D01*
X75741394Y-59758830D01*
X75227108Y-59492163D02*
X75227108Y-59758830D01*
X75322346Y-59339782D02*
X75417584Y-59625497D01*
X75169965Y-59625497D01*
%TO.C,Y1*%
X95204156Y-54529354D02*
X95204156Y-54719830D01*
X95337489Y-54319830D02*
X95204156Y-54529354D01*
X95070822Y-54319830D01*
X94727965Y-54719830D02*
X94956537Y-54719830D01*
X94842251Y-54719830D02*
X94842251Y-54319830D01*
X94880346Y-54376973D01*
X94918441Y-54415068D01*
X94956537Y-54434116D01*
%TO.C,J1*%
X83642632Y-53904544D02*
X83928346Y-53904544D01*
X83985489Y-53885497D01*
X84023584Y-53847401D01*
X84042632Y-53790258D01*
X84042632Y-53752163D01*
X84042632Y-54304544D02*
X84042632Y-54075973D01*
X84042632Y-54190258D02*
X83642632Y-54190258D01*
X83699775Y-54152163D01*
X83737870Y-54114068D01*
X83756918Y-54075973D01*
%TO.C,JP4*%
X110472727Y-72808211D02*
X110187013Y-72808211D01*
X110129870Y-72827258D01*
X110091775Y-72865354D01*
X110072727Y-72922497D01*
X110072727Y-72960592D01*
X110072727Y-72617735D02*
X110472727Y-72617735D01*
X110472727Y-72465354D01*
X110453680Y-72427258D01*
X110434632Y-72408211D01*
X110396537Y-72389163D01*
X110339394Y-72389163D01*
X110301299Y-72408211D01*
X110282251Y-72427258D01*
X110263203Y-72465354D01*
X110263203Y-72617735D01*
X110339394Y-72046306D02*
X110072727Y-72046306D01*
X110491775Y-72141544D02*
X110206060Y-72236782D01*
X110206060Y-71989163D01*
%TO.C,JP7*%
X116019047Y-62733333D02*
X115733333Y-62733333D01*
X115676190Y-62752380D01*
X115638095Y-62790476D01*
X115619047Y-62847619D01*
X115619047Y-62885714D01*
X115619047Y-62542857D02*
X116019047Y-62542857D01*
X116019047Y-62390476D01*
X116000000Y-62352380D01*
X115980952Y-62333333D01*
X115942857Y-62314285D01*
X115885714Y-62314285D01*
X115847619Y-62333333D01*
X115828571Y-62352380D01*
X115809523Y-62390476D01*
X115809523Y-62542857D01*
X116019047Y-62180952D02*
X116019047Y-61914285D01*
X115619047Y-62085714D01*
%TO.C,J5*%
X99550727Y-72608211D02*
X99265013Y-72608211D01*
X99207870Y-72627258D01*
X99169775Y-72665354D01*
X99150727Y-72722497D01*
X99150727Y-72760592D01*
X99550727Y-72227258D02*
X99550727Y-72417735D01*
X99360251Y-72436782D01*
X99379299Y-72417735D01*
X99398346Y-72379639D01*
X99398346Y-72284401D01*
X99379299Y-72246306D01*
X99360251Y-72227258D01*
X99322156Y-72208211D01*
X99226918Y-72208211D01*
X99188822Y-72227258D01*
X99169775Y-72246306D01*
X99150727Y-72284401D01*
X99150727Y-72379639D01*
X99169775Y-72417735D01*
X99188822Y-72436782D01*
%TO.C,JP6*%
X120886727Y-75094211D02*
X120601013Y-75094211D01*
X120543870Y-75113258D01*
X120505775Y-75151354D01*
X120486727Y-75208497D01*
X120486727Y-75246592D01*
X120486727Y-74903735D02*
X120886727Y-74903735D01*
X120886727Y-74751354D01*
X120867680Y-74713258D01*
X120848632Y-74694211D01*
X120810537Y-74675163D01*
X120753394Y-74675163D01*
X120715299Y-74694211D01*
X120696251Y-74713258D01*
X120677203Y-74751354D01*
X120677203Y-74903735D01*
X120886727Y-74332306D02*
X120886727Y-74408497D01*
X120867680Y-74446592D01*
X120848632Y-74465639D01*
X120791489Y-74503735D01*
X120715299Y-74522782D01*
X120562918Y-74522782D01*
X120524822Y-74503735D01*
X120505775Y-74484687D01*
X120486727Y-74446592D01*
X120486727Y-74370401D01*
X120505775Y-74332306D01*
X120524822Y-74313258D01*
X120562918Y-74294211D01*
X120658156Y-74294211D01*
X120696251Y-74313258D01*
X120715299Y-74332306D01*
X120734346Y-74370401D01*
X120734346Y-74446592D01*
X120715299Y-74484687D01*
X120696251Y-74503735D01*
X120658156Y-74522782D01*
%TO.C,C12*%
X94757142Y-73842857D02*
X94776190Y-73861904D01*
X94833333Y-73880952D01*
X94871428Y-73880952D01*
X94928571Y-73861904D01*
X94966666Y-73823809D01*
X94985714Y-73785714D01*
X95004761Y-73709523D01*
X95004761Y-73652380D01*
X94985714Y-73576190D01*
X94966666Y-73538095D01*
X94928571Y-73500000D01*
X94871428Y-73480952D01*
X94833333Y-73480952D01*
X94776190Y-73500000D01*
X94757142Y-73519047D01*
X94376190Y-73880952D02*
X94604761Y-73880952D01*
X94490476Y-73880952D02*
X94490476Y-73480952D01*
X94528571Y-73538095D01*
X94566666Y-73576190D01*
X94604761Y-73595238D01*
X94223809Y-73519047D02*
X94204761Y-73500000D01*
X94166666Y-73480952D01*
X94071428Y-73480952D01*
X94033333Y-73500000D01*
X94014285Y-73519047D01*
X93995238Y-73557142D01*
X93995238Y-73595238D01*
X94014285Y-73652380D01*
X94242857Y-73880952D01*
X93995238Y-73880952D01*
%TO.C,R11*%
X88176632Y-59263735D02*
X87986156Y-59130401D01*
X88176632Y-59035163D02*
X87776632Y-59035163D01*
X87776632Y-59187544D01*
X87795680Y-59225639D01*
X87814727Y-59244687D01*
X87852822Y-59263735D01*
X87909965Y-59263735D01*
X87948060Y-59244687D01*
X87967108Y-59225639D01*
X87986156Y-59187544D01*
X87986156Y-59035163D01*
X88176632Y-59644687D02*
X88176632Y-59416116D01*
X88176632Y-59530401D02*
X87776632Y-59530401D01*
X87833775Y-59492306D01*
X87871870Y-59454211D01*
X87890918Y-59416116D01*
X88176632Y-60025639D02*
X88176632Y-59797068D01*
X88176632Y-59911354D02*
X87776632Y-59911354D01*
X87833775Y-59873258D01*
X87871870Y-59835163D01*
X87890918Y-59797068D01*
%TO.C,C13*%
X91346537Y-57739735D02*
X91365584Y-57720687D01*
X91384632Y-57663544D01*
X91384632Y-57625449D01*
X91365584Y-57568306D01*
X91327489Y-57530211D01*
X91289394Y-57511163D01*
X91213203Y-57492116D01*
X91156060Y-57492116D01*
X91079870Y-57511163D01*
X91041775Y-57530211D01*
X91003680Y-57568306D01*
X90984632Y-57625449D01*
X90984632Y-57663544D01*
X91003680Y-57720687D01*
X91022727Y-57739735D01*
X91384632Y-58120687D02*
X91384632Y-57892116D01*
X91384632Y-58006401D02*
X90984632Y-58006401D01*
X91041775Y-57968306D01*
X91079870Y-57930211D01*
X91098918Y-57892116D01*
X90984632Y-58254020D02*
X90984632Y-58501639D01*
X91137013Y-58368306D01*
X91137013Y-58425449D01*
X91156060Y-58463544D01*
X91175108Y-58482592D01*
X91213203Y-58501639D01*
X91308441Y-58501639D01*
X91346537Y-58482592D01*
X91365584Y-58463544D01*
X91384632Y-58425449D01*
X91384632Y-58311163D01*
X91365584Y-58273068D01*
X91346537Y-58254020D01*
%TO.C,U3*%
X87728632Y-66328116D02*
X88052441Y-66328116D01*
X88090537Y-66347163D01*
X88109584Y-66366211D01*
X88128632Y-66404306D01*
X88128632Y-66480497D01*
X88109584Y-66518592D01*
X88090537Y-66537639D01*
X88052441Y-66556687D01*
X87728632Y-66556687D01*
X87728632Y-66709068D02*
X87728632Y-66956687D01*
X87881013Y-66823354D01*
X87881013Y-66880497D01*
X87900060Y-66918592D01*
X87919108Y-66937639D01*
X87957203Y-66956687D01*
X88052441Y-66956687D01*
X88090537Y-66937639D01*
X88109584Y-66918592D01*
X88128632Y-66880497D01*
X88128632Y-66766211D01*
X88109584Y-66728116D01*
X88090537Y-66709068D01*
%TO.C,JP3*%
X116314727Y-75094211D02*
X116029013Y-75094211D01*
X115971870Y-75113258D01*
X115933775Y-75151354D01*
X115914727Y-75208497D01*
X115914727Y-75246592D01*
X115914727Y-74903735D02*
X116314727Y-74903735D01*
X116314727Y-74751354D01*
X116295680Y-74713258D01*
X116276632Y-74694211D01*
X116238537Y-74675163D01*
X116181394Y-74675163D01*
X116143299Y-74694211D01*
X116124251Y-74713258D01*
X116105203Y-74751354D01*
X116105203Y-74903735D01*
X116314727Y-74541830D02*
X116314727Y-74294211D01*
X116162346Y-74427544D01*
X116162346Y-74370401D01*
X116143299Y-74332306D01*
X116124251Y-74313258D01*
X116086156Y-74294211D01*
X115990918Y-74294211D01*
X115952822Y-74313258D01*
X115933775Y-74332306D01*
X115914727Y-74370401D01*
X115914727Y-74484687D01*
X115933775Y-74522782D01*
X115952822Y-74541830D01*
%TO.C,JP5*%
X114028727Y-74078211D02*
X113743013Y-74078211D01*
X113685870Y-74097258D01*
X113647775Y-74135354D01*
X113628727Y-74192497D01*
X113628727Y-74230592D01*
X113628727Y-73887735D02*
X114028727Y-73887735D01*
X114028727Y-73735354D01*
X114009680Y-73697258D01*
X113990632Y-73678211D01*
X113952537Y-73659163D01*
X113895394Y-73659163D01*
X113857299Y-73678211D01*
X113838251Y-73697258D01*
X113819203Y-73735354D01*
X113819203Y-73887735D01*
X114028727Y-73297258D02*
X114028727Y-73487735D01*
X113838251Y-73506782D01*
X113857299Y-73487735D01*
X113876346Y-73449639D01*
X113876346Y-73354401D01*
X113857299Y-73316306D01*
X113838251Y-73297258D01*
X113800156Y-73278211D01*
X113704918Y-73278211D01*
X113666822Y-73297258D01*
X113647775Y-73316306D01*
X113628727Y-73354401D01*
X113628727Y-73449639D01*
X113647775Y-73487735D01*
X113666822Y-73506782D01*
%TO.C,C14*%
X101666537Y-59517735D02*
X101685584Y-59498687D01*
X101704632Y-59441544D01*
X101704632Y-59403449D01*
X101685584Y-59346306D01*
X101647489Y-59308211D01*
X101609394Y-59289163D01*
X101533203Y-59270116D01*
X101476060Y-59270116D01*
X101399870Y-59289163D01*
X101361775Y-59308211D01*
X101323680Y-59346306D01*
X101304632Y-59403449D01*
X101304632Y-59441544D01*
X101323680Y-59498687D01*
X101342727Y-59517735D01*
X101704632Y-59898687D02*
X101704632Y-59670116D01*
X101704632Y-59784401D02*
X101304632Y-59784401D01*
X101361775Y-59746306D01*
X101399870Y-59708211D01*
X101418918Y-59670116D01*
X101437965Y-60241544D02*
X101704632Y-60241544D01*
X101285584Y-60146306D02*
X101571299Y-60051068D01*
X101571299Y-60298687D01*
%TO.C,J2*%
X128901013Y-47191830D02*
X128901013Y-47477544D01*
X128920060Y-47534687D01*
X128958156Y-47572782D01*
X129015299Y-47591830D01*
X129053394Y-47591830D01*
X128729584Y-47229925D02*
X128710537Y-47210878D01*
X128672441Y-47191830D01*
X128577203Y-47191830D01*
X128539108Y-47210878D01*
X128520060Y-47229925D01*
X128501013Y-47268020D01*
X128501013Y-47306116D01*
X128520060Y-47363258D01*
X128748632Y-47591830D01*
X128501013Y-47591830D01*
%TO.C,TP1*%
X87804761Y-69480952D02*
X87576190Y-69480952D01*
X87690476Y-69880952D02*
X87690476Y-69480952D01*
X87442857Y-69880952D02*
X87442857Y-69480952D01*
X87290476Y-69480952D01*
X87252380Y-69500000D01*
X87233333Y-69519047D01*
X87214285Y-69557142D01*
X87214285Y-69614285D01*
X87233333Y-69652380D01*
X87252380Y-69671428D01*
X87290476Y-69690476D01*
X87442857Y-69690476D01*
X86833333Y-69880952D02*
X87061904Y-69880952D01*
X86947619Y-69880952D02*
X86947619Y-69480952D01*
X86985714Y-69538095D01*
X87023809Y-69576190D01*
X87061904Y-69595238D01*
D17*
%TO.C,C8*%
X84959420Y-69490000D02*
X85240580Y-69490000D01*
X84959420Y-70510000D02*
X85240580Y-70510000D01*
%TO.C,J4*%
X80155680Y-55832878D02*
X80155680Y-53832878D01*
X70755680Y-50032878D02*
X80155680Y-50032878D01*
X80155680Y-51932878D02*
X80155680Y-50032878D01*
X70755680Y-51932878D02*
X70755680Y-50032878D01*
X70755680Y-55832878D02*
X70755680Y-53832878D01*
%TO.C,Y1*%
X91813680Y-55538878D02*
X98363680Y-55538878D01*
X98363680Y-55538878D02*
X98363680Y-59438878D01*
X98363680Y-59438878D02*
X91813680Y-59438878D01*
%TO.C,J1*%
X85571680Y-55972878D02*
X85571680Y-53972878D01*
X86151680Y-55972878D02*
X86571680Y-55972878D01*
X87571680Y-55972878D02*
X87571680Y-53972878D01*
X88151680Y-53972878D02*
X88151680Y-55972878D01*
X84801680Y-53972878D02*
X89921680Y-53972878D01*
X88861680Y-53131093D02*
X88861680Y-53972878D01*
X86571680Y-55972878D02*
X86571680Y-53972878D01*
X86151680Y-53972878D02*
X86151680Y-55972878D01*
X89921680Y-53972878D02*
X89921680Y-53057371D01*
X89151680Y-53972878D02*
X89151680Y-55972878D01*
X86861680Y-53131093D02*
X86861680Y-53972878D01*
X85861680Y-53347878D02*
X85861680Y-53972878D01*
X85211680Y-53972878D02*
X85211680Y-55972878D01*
X85151680Y-53972878D02*
X85151680Y-55972878D01*
X84801680Y-53347878D02*
X84801680Y-53972878D01*
X87151680Y-55972878D02*
X87571680Y-55972878D01*
X89151680Y-55972878D02*
X89571680Y-55972878D01*
X84676680Y-51977878D02*
X84676680Y-52662878D01*
X88151680Y-55972878D02*
X88571680Y-55972878D01*
X85151680Y-55972878D02*
X85571680Y-55972878D01*
X89571680Y-55972878D02*
X89571680Y-53972878D01*
X87151680Y-53972878D02*
X87151680Y-55972878D01*
X85331680Y-53972878D02*
X85331680Y-55972878D01*
X87861680Y-53131093D02*
X87861680Y-53972878D01*
X88571680Y-55972878D02*
X88571680Y-53972878D01*
X85361680Y-51977878D02*
X84676680Y-51977878D01*
X85451680Y-53972878D02*
X85451680Y-55972878D01*
%TO.C,C12*%
X94365100Y-73238878D02*
X94646260Y-73238878D01*
X94365100Y-72218878D02*
X94646260Y-72218878D01*
%TO.C,R11*%
X88903180Y-59283620D02*
X88903180Y-59758136D01*
X89948180Y-59283620D02*
X89948180Y-59758136D01*
%TO.C,C13*%
X90328260Y-55962878D02*
X90047100Y-55962878D01*
X90328260Y-56982878D02*
X90047100Y-56982878D01*
D12*
%TO.C,U3*%
X90372680Y-70257878D02*
X90372680Y-69932878D01*
X90372680Y-70257878D02*
X90697680Y-70257878D01*
X90597680Y-63007878D02*
X90597680Y-61582878D01*
X90372680Y-63007878D02*
X90597680Y-63007878D01*
X97622680Y-63007878D02*
X97622680Y-63332878D01*
X97622680Y-63007878D02*
X97297680Y-63007878D01*
X90372680Y-63007878D02*
X90372680Y-63332878D01*
X97622680Y-70257878D02*
X97297680Y-70257878D01*
X97622680Y-70257878D02*
X97622680Y-69932878D01*
D17*
%TO.C,C14*%
X99583680Y-59915458D02*
X99583680Y-59634298D01*
X100603680Y-59915458D02*
X100603680Y-59634298D01*
%TO.C,J2*%
X125667680Y-65910878D02*
X126417680Y-65910878D01*
X131867680Y-65910878D02*
X131867680Y-64710878D01*
X131367680Y-51210878D02*
X131367680Y-48710878D01*
X131867680Y-55010878D02*
X133867680Y-55010878D01*
X125667680Y-51210878D02*
X125667680Y-54410878D01*
X125667680Y-57010878D02*
X125667680Y-65910878D01*
X131867680Y-61510878D02*
X131867680Y-55010878D01*
X126167680Y-51210878D02*
X125667680Y-51210878D01*
X131867680Y-52410878D02*
X133867680Y-52410878D01*
X131867680Y-51210878D02*
X131367680Y-51210878D01*
X126167680Y-48710878D02*
X126167680Y-51210878D01*
X129617680Y-65910878D02*
X131867680Y-65910878D01*
X131867680Y-52410878D02*
X131867680Y-51210878D01*
X131367680Y-48710878D02*
X126167680Y-48710878D01*
%TO.C,TP1*%
X87500000Y-68200000D02*
G75*
G03*
X87500000Y-68200000I-700000J0D01*
G01*
%TD*%
M02*
