M48
; DRILL file {KiCad (6.0.5)} date Wed Jun  1 22:14:32 2022
; FORMAT={-:-/ absolute / inch / decimal}
; #@! TF.CreationDate,2022-06-01T22:14:32+05:30
; #@! TF.GenerationSoftware,Kicad,Pcbnew,(6.0.5)
; #@! TF.FileFunction,Plated,1,2,PTH
FMAT,2
INCH
; #@! TA.AperFunction,Plated,PTH,ViaDrill
T1C0.0157
; #@! TA.AperFunction,Plated,PTH,ComponentDrill
T2C0.0197
; #@! TA.AperFunction,Plated,PTH,ComponentDrill
T3C0.0236
%
G90
G05
T1
X3.35Y-2.49
X3.37Y-1.63
X3.38Y-3.2
X3.38Y-3.26
X3.38Y-3.32
X3.3858Y-1.0236
X3.4288Y-1.8844
X3.4547Y-1.8406
X3.4557Y-2.5119
X3.46Y-2.73
X3.4657Y-2.1642
X3.4659Y-1.923
X3.4843Y-1.811
X3.4882Y-1.0383
X3.5Y-1.28
X3.5209Y-1.4291
X3.53Y-2.34
X3.5389Y-1.7672
X3.5492Y-2.2478
X3.55Y-1.57
X3.574Y-2.098
X3.586Y-1.3368
X3.6Y-1.23
X3.6Y-1.3958
X3.6122Y-1.939
X3.616Y-1.993
X3.6202Y-2.8002
X3.64Y-2.94
X3.65Y-1.52
X3.68Y-1.12
X3.69Y-3.07
X3.71Y-1.45
X3.71Y-2.37
X3.717Y-2.536
X3.73Y-1.3368
X3.74Y-3.29
X3.764Y-2.23
X3.78Y-2.76
X3.788Y-2.176
X3.7943Y-1.322
X3.82Y-2.54
X3.8386Y-1.4341
X3.84Y-2.23
X3.85Y-3.49
X3.87Y-3.06
X3.88Y-2.8052
X3.88Y-3.31
X3.9Y-1.0
X3.9198Y-2.0298
X3.9408Y-1.475
X3.97Y-2.96
X4.0Y-3.0872
X4.0401Y-1.18
X4.0409Y-3.2891
X4.0706Y-1.4479
X4.0801Y-1.4097
X4.11Y-1.3614
X4.12Y-2.79
X4.1205Y-1.3225
X4.1687Y-1.2587
X4.1797Y-1.9471
X4.19Y-2.36
X4.19Y-3.09
X4.1943Y-2.004
X4.1998Y-2.0902
X4.2Y-2.2049
X4.2113Y-2.54
X4.25Y-1.51
X4.25Y-3.4
X4.252Y-1.2402
T2
X3.38Y-2.7325
X3.38Y-2.7719
X3.38Y-2.8113
X3.38Y-2.8506
X3.38Y-2.89
X3.9606Y-3.38
X4.0Y-3.38
T3
G00X3.3769Y-3.1099
M15
G01X3.4005Y-3.1099
M16
G05
G00X3.3769Y-3.4501
M15
G01X3.4005Y-3.4501
M16
G05
G00X3.5316Y-3.1099
M15
G01X3.5749Y-3.1099
M16
G05
G00X3.5316Y-3.4501
M15
G01X3.5749Y-3.4501
M16
G05
T0
M30
