%TF.GenerationSoftware,KiCad,Pcbnew,(6.0.5)*%
%TF.CreationDate,2022-06-01T22:14:55+05:30*%
%TF.ProjectId,PORTABLE_ECG_MACHINE,504f5254-4142-44c4-955f-4543475f4d41,rev-1*%
%TF.SameCoordinates,Original*%
%TF.FileFunction,Legend,Bot*%
%TF.FilePolarity,Positive*%
%FSLAX46Y46*%
G04 Gerber Fmt 4.6, Leading zero omitted, Abs format (unit mm)*
G04 Created by KiCad (PCBNEW (6.0.5)) date 2022-06-01 22:14:55*
%MOMM*%
%LPD*%
G01*
G04 APERTURE LIST*
%ADD10C,0.125000*%
%ADD11C,0.150000*%
%ADD12C,0.200000*%
%ADD13C,0.100000*%
%ADD14C,0.375000*%
%ADD15C,0.120000*%
G04 APERTURE END LIST*
D10*
X105775047Y-51534190D02*
X105775047Y-51034190D01*
X105584571Y-51034190D01*
X105536952Y-51058000D01*
X105513142Y-51081809D01*
X105489333Y-51129428D01*
X105489333Y-51200857D01*
X105513142Y-51248476D01*
X105536952Y-51272285D01*
X105584571Y-51296095D01*
X105775047Y-51296095D01*
X105108380Y-51272285D02*
X105036952Y-51296095D01*
X105013142Y-51319904D01*
X104989333Y-51367523D01*
X104989333Y-51438952D01*
X105013142Y-51486571D01*
X105036952Y-51510380D01*
X105084571Y-51534190D01*
X105275047Y-51534190D01*
X105275047Y-51034190D01*
X105108380Y-51034190D01*
X105060761Y-51058000D01*
X105036952Y-51081809D01*
X105013142Y-51129428D01*
X105013142Y-51177047D01*
X105036952Y-51224666D01*
X105060761Y-51248476D01*
X105108380Y-51272285D01*
X105275047Y-51272285D01*
X104679809Y-51034190D02*
X104632190Y-51034190D01*
X104584571Y-51058000D01*
X104560761Y-51081809D01*
X104536952Y-51129428D01*
X104513142Y-51224666D01*
X104513142Y-51343714D01*
X104536952Y-51438952D01*
X104560761Y-51486571D01*
X104584571Y-51510380D01*
X104632190Y-51534190D01*
X104679809Y-51534190D01*
X104727428Y-51510380D01*
X104751238Y-51486571D01*
X104775047Y-51438952D01*
X104798857Y-51343714D01*
X104798857Y-51224666D01*
X104775047Y-51129428D01*
X104751238Y-51081809D01*
X104727428Y-51058000D01*
X104679809Y-51034190D01*
D11*
X103504952Y-84399428D02*
X102743047Y-84399428D01*
X103124000Y-84780380D02*
X103124000Y-84018476D01*
D12*
X102861523Y-38616000D02*
X102956761Y-38568380D01*
X103099619Y-38568380D01*
X103242476Y-38616000D01*
X103337714Y-38711238D01*
X103385333Y-38806476D01*
X103432952Y-38996952D01*
X103432952Y-39139809D01*
X103385333Y-39330285D01*
X103337714Y-39425523D01*
X103242476Y-39520761D01*
X103099619Y-39568380D01*
X103004380Y-39568380D01*
X102861523Y-39520761D01*
X102813904Y-39473142D01*
X102813904Y-39139809D01*
X103004380Y-39139809D01*
X101813904Y-39568380D02*
X102147238Y-39092190D01*
X102385333Y-39568380D02*
X102385333Y-38568380D01*
X102004380Y-38568380D01*
X101909142Y-38616000D01*
X101861523Y-38663619D01*
X101813904Y-38758857D01*
X101813904Y-38901714D01*
X101861523Y-38996952D01*
X101909142Y-39044571D01*
X102004380Y-39092190D01*
X102385333Y-39092190D01*
X101194857Y-38568380D02*
X101004380Y-38568380D01*
X100909142Y-38616000D01*
X100813904Y-38711238D01*
X100766285Y-38901714D01*
X100766285Y-39235047D01*
X100813904Y-39425523D01*
X100909142Y-39520761D01*
X101004380Y-39568380D01*
X101194857Y-39568380D01*
X101290095Y-39520761D01*
X101385333Y-39425523D01*
X101432952Y-39235047D01*
X101432952Y-38901714D01*
X101385333Y-38711238D01*
X101290095Y-38616000D01*
X101194857Y-38568380D01*
X100337714Y-38568380D02*
X100337714Y-39377904D01*
X100290095Y-39473142D01*
X100242476Y-39520761D01*
X100147238Y-39568380D01*
X99956761Y-39568380D01*
X99861523Y-39520761D01*
X99813904Y-39473142D01*
X99766285Y-39377904D01*
X99766285Y-38568380D01*
X99290095Y-39568380D02*
X99290095Y-38568380D01*
X98909142Y-38568380D01*
X98813904Y-38616000D01*
X98766285Y-38663619D01*
X98718666Y-38758857D01*
X98718666Y-38901714D01*
X98766285Y-38996952D01*
X98813904Y-39044571D01*
X98909142Y-39092190D01*
X99290095Y-39092190D01*
X97528190Y-39568380D02*
X97528190Y-38568380D01*
X96956761Y-39568380D01*
X96956761Y-38568380D01*
X96290095Y-38568380D02*
X96099619Y-38568380D01*
X96004380Y-38616000D01*
X95909142Y-38711238D01*
X95861523Y-38901714D01*
X95861523Y-39235047D01*
X95909142Y-39425523D01*
X96004380Y-39520761D01*
X96099619Y-39568380D01*
X96290095Y-39568380D01*
X96385333Y-39520761D01*
X96480571Y-39425523D01*
X96528190Y-39235047D01*
X96528190Y-38901714D01*
X96480571Y-38711238D01*
X96385333Y-38616000D01*
X96290095Y-38568380D01*
X95432952Y-39473142D02*
X95385333Y-39520761D01*
X95432952Y-39568380D01*
X95480571Y-39520761D01*
X95432952Y-39473142D01*
X95432952Y-39568380D01*
X93718666Y-38568380D02*
X94194857Y-38568380D01*
X94242476Y-39044571D01*
X94194857Y-38996952D01*
X94099619Y-38949333D01*
X93861523Y-38949333D01*
X93766285Y-38996952D01*
X93718666Y-39044571D01*
X93671047Y-39139809D01*
X93671047Y-39377904D01*
X93718666Y-39473142D01*
X93766285Y-39520761D01*
X93861523Y-39568380D01*
X94099619Y-39568380D01*
X94194857Y-39520761D01*
X94242476Y-39473142D01*
D10*
X105775047Y-53820190D02*
X105775047Y-53320190D01*
X105584571Y-53320190D01*
X105536952Y-53344000D01*
X105513142Y-53367809D01*
X105489333Y-53415428D01*
X105489333Y-53486857D01*
X105513142Y-53534476D01*
X105536952Y-53558285D01*
X105584571Y-53582095D01*
X105775047Y-53582095D01*
X105108380Y-53558285D02*
X105036952Y-53582095D01*
X105013142Y-53605904D01*
X104989333Y-53653523D01*
X104989333Y-53724952D01*
X105013142Y-53772571D01*
X105036952Y-53796380D01*
X105084571Y-53820190D01*
X105275047Y-53820190D01*
X105275047Y-53320190D01*
X105108380Y-53320190D01*
X105060761Y-53344000D01*
X105036952Y-53367809D01*
X105013142Y-53415428D01*
X105013142Y-53463047D01*
X105036952Y-53510666D01*
X105060761Y-53534476D01*
X105108380Y-53558285D01*
X105275047Y-53558285D01*
X104798857Y-53367809D02*
X104775047Y-53344000D01*
X104727428Y-53320190D01*
X104608380Y-53320190D01*
X104560761Y-53344000D01*
X104536952Y-53367809D01*
X104513142Y-53415428D01*
X104513142Y-53463047D01*
X104536952Y-53534476D01*
X104822666Y-53820190D01*
X104513142Y-53820190D01*
D11*
X103715714Y-41327428D02*
X103372857Y-41327428D01*
X103544285Y-41927428D02*
X103544285Y-41327428D01*
X103172857Y-41613142D02*
X102972857Y-41613142D01*
X102887142Y-41927428D02*
X103172857Y-41927428D01*
X103172857Y-41327428D01*
X102887142Y-41327428D01*
X102658571Y-41756000D02*
X102372857Y-41756000D01*
X102715714Y-41927428D02*
X102515714Y-41327428D01*
X102315714Y-41927428D01*
X102115714Y-41927428D02*
X102115714Y-41327428D01*
X101915714Y-41756000D01*
X101715714Y-41327428D01*
X101715714Y-41927428D01*
X100972857Y-41927428D02*
X100972857Y-41327428D01*
X100772857Y-41756000D01*
X100572857Y-41327428D01*
X100572857Y-41927428D01*
X100287142Y-41613142D02*
X100087142Y-41613142D01*
X100001428Y-41927428D02*
X100287142Y-41927428D01*
X100287142Y-41327428D01*
X100001428Y-41327428D01*
X99744285Y-41927428D02*
X99744285Y-41327428D01*
X99544285Y-41756000D01*
X99344285Y-41327428D01*
X99344285Y-41927428D01*
X98858571Y-41613142D02*
X98772857Y-41641714D01*
X98744285Y-41670285D01*
X98715714Y-41727428D01*
X98715714Y-41813142D01*
X98744285Y-41870285D01*
X98772857Y-41898857D01*
X98830000Y-41927428D01*
X99058571Y-41927428D01*
X99058571Y-41327428D01*
X98858571Y-41327428D01*
X98801428Y-41356000D01*
X98772857Y-41384571D01*
X98744285Y-41441714D01*
X98744285Y-41498857D01*
X98772857Y-41556000D01*
X98801428Y-41584571D01*
X98858571Y-41613142D01*
X99058571Y-41613142D01*
X98458571Y-41613142D02*
X98258571Y-41613142D01*
X98172857Y-41927428D02*
X98458571Y-41927428D01*
X98458571Y-41327428D01*
X98172857Y-41327428D01*
X97572857Y-41927428D02*
X97772857Y-41641714D01*
X97915714Y-41927428D02*
X97915714Y-41327428D01*
X97687142Y-41327428D01*
X97630000Y-41356000D01*
X97601428Y-41384571D01*
X97572857Y-41441714D01*
X97572857Y-41527428D01*
X97601428Y-41584571D01*
X97630000Y-41613142D01*
X97687142Y-41641714D01*
X97915714Y-41641714D01*
X97344285Y-41898857D02*
X97258571Y-41927428D01*
X97115714Y-41927428D01*
X97058571Y-41898857D01*
X97030000Y-41870285D01*
X97001428Y-41813142D01*
X97001428Y-41756000D01*
X97030000Y-41698857D01*
X97058571Y-41670285D01*
X97115714Y-41641714D01*
X97230000Y-41613142D01*
X97287142Y-41584571D01*
X97315714Y-41556000D01*
X97344285Y-41498857D01*
X97344285Y-41441714D01*
X97315714Y-41384571D01*
X97287142Y-41356000D01*
X97230000Y-41327428D01*
X97087142Y-41327428D01*
X97001428Y-41356000D01*
X103401523Y-87304571D02*
X103258666Y-87352190D01*
X103211047Y-87399809D01*
X103163428Y-87495047D01*
X103163428Y-87637904D01*
X103211047Y-87733142D01*
X103258666Y-87780761D01*
X103353904Y-87828380D01*
X103734857Y-87828380D01*
X103734857Y-86828380D01*
X103401523Y-86828380D01*
X103306285Y-86876000D01*
X103258666Y-86923619D01*
X103211047Y-87018857D01*
X103211047Y-87114095D01*
X103258666Y-87209333D01*
X103306285Y-87256952D01*
X103401523Y-87304571D01*
X103734857Y-87304571D01*
X102782476Y-87542666D02*
X102306285Y-87542666D01*
X102877714Y-87828380D02*
X102544380Y-86828380D01*
X102211047Y-87828380D01*
X102020571Y-86828380D02*
X101449142Y-86828380D01*
X101734857Y-87828380D02*
X101734857Y-86828380D01*
X100449142Y-86828380D02*
X99830095Y-86828380D01*
X100163428Y-87209333D01*
X100020571Y-87209333D01*
X99925333Y-87256952D01*
X99877714Y-87304571D01*
X99830095Y-87399809D01*
X99830095Y-87637904D01*
X99877714Y-87733142D01*
X99925333Y-87780761D01*
X100020571Y-87828380D01*
X100306285Y-87828380D01*
X100401523Y-87780761D01*
X100449142Y-87733142D01*
X99401523Y-87733142D02*
X99353904Y-87780761D01*
X99401523Y-87828380D01*
X99449142Y-87780761D01*
X99401523Y-87733142D01*
X99401523Y-87828380D01*
X99020571Y-86828380D02*
X98353904Y-86828380D01*
X98782476Y-87828380D01*
D10*
X102845809Y-58757333D02*
X102607714Y-58757333D01*
X102893428Y-58900190D02*
X102726761Y-58400190D01*
X102560095Y-58900190D01*
X102464857Y-58400190D02*
X102179142Y-58400190D01*
X102322000Y-58900190D02*
X102322000Y-58400190D01*
X102012476Y-58900190D02*
X102012476Y-58400190D01*
X101845809Y-58757333D01*
X101679142Y-58400190D01*
X101679142Y-58900190D01*
X101441047Y-58638285D02*
X101274380Y-58638285D01*
X101202952Y-58900190D02*
X101441047Y-58900190D01*
X101441047Y-58400190D01*
X101202952Y-58400190D01*
X100726761Y-58424000D02*
X100774380Y-58400190D01*
X100845809Y-58400190D01*
X100917238Y-58424000D01*
X100964857Y-58471619D01*
X100988666Y-58519238D01*
X101012476Y-58614476D01*
X101012476Y-58685904D01*
X100988666Y-58781142D01*
X100964857Y-58828761D01*
X100917238Y-58876380D01*
X100845809Y-58900190D01*
X100798190Y-58900190D01*
X100726761Y-58876380D01*
X100702952Y-58852571D01*
X100702952Y-58685904D01*
X100798190Y-58685904D01*
X100512476Y-58757333D02*
X100274380Y-58757333D01*
X100560095Y-58900190D02*
X100393428Y-58400190D01*
X100226761Y-58900190D01*
X100107714Y-58400190D02*
X99798190Y-58400190D01*
X99964857Y-58590666D01*
X99893428Y-58590666D01*
X99845809Y-58614476D01*
X99822000Y-58638285D01*
X99798190Y-58685904D01*
X99798190Y-58804952D01*
X99822000Y-58852571D01*
X99845809Y-58876380D01*
X99893428Y-58900190D01*
X100036285Y-58900190D01*
X100083904Y-58876380D01*
X100107714Y-58852571D01*
X99607714Y-58447809D02*
X99583904Y-58424000D01*
X99536285Y-58400190D01*
X99417238Y-58400190D01*
X99369619Y-58424000D01*
X99345809Y-58447809D01*
X99322000Y-58495428D01*
X99322000Y-58543047D01*
X99345809Y-58614476D01*
X99631523Y-58900190D01*
X99322000Y-58900190D01*
X99036285Y-58614476D02*
X99083904Y-58590666D01*
X99107714Y-58566857D01*
X99131523Y-58519238D01*
X99131523Y-58495428D01*
X99107714Y-58447809D01*
X99083904Y-58424000D01*
X99036285Y-58400190D01*
X98941047Y-58400190D01*
X98893428Y-58424000D01*
X98869619Y-58447809D01*
X98845809Y-58495428D01*
X98845809Y-58519238D01*
X98869619Y-58566857D01*
X98893428Y-58590666D01*
X98941047Y-58614476D01*
X99036285Y-58614476D01*
X99083904Y-58638285D01*
X99107714Y-58662095D01*
X99131523Y-58709714D01*
X99131523Y-58804952D01*
X99107714Y-58852571D01*
X99083904Y-58876380D01*
X99036285Y-58900190D01*
X98941047Y-58900190D01*
X98893428Y-58876380D01*
X98869619Y-58852571D01*
X98845809Y-58804952D01*
X98845809Y-58709714D01*
X98869619Y-58662095D01*
X98893428Y-58638285D01*
X98941047Y-58614476D01*
X98631523Y-58900190D02*
X98631523Y-58400190D01*
X98441047Y-58400190D01*
X98393428Y-58424000D01*
X98369619Y-58447809D01*
X98345809Y-58495428D01*
X98345809Y-58566857D01*
X98369619Y-58614476D01*
X98393428Y-58638285D01*
X98441047Y-58662095D01*
X98631523Y-58662095D01*
X97964857Y-58638285D02*
X97893428Y-58662095D01*
X97869619Y-58685904D01*
X97845809Y-58733523D01*
X97845809Y-58804952D01*
X97869619Y-58852571D01*
X97893428Y-58876380D01*
X97941047Y-58900190D01*
X98131523Y-58900190D01*
X98131523Y-58400190D01*
X97964857Y-58400190D01*
X97917238Y-58424000D01*
X97893428Y-58447809D01*
X97869619Y-58495428D01*
X97869619Y-58543047D01*
X97893428Y-58590666D01*
X97917238Y-58614476D01*
X97964857Y-58638285D01*
X98131523Y-58638285D01*
X97631523Y-58709714D02*
X97250571Y-58709714D01*
X97036285Y-58757333D02*
X96798190Y-58757333D01*
X97083904Y-58900190D02*
X96917238Y-58400190D01*
X96750571Y-58900190D01*
D13*
X102622095Y-46282000D02*
X102660190Y-46262952D01*
X102717333Y-46262952D01*
X102774476Y-46282000D01*
X102812571Y-46320095D01*
X102831619Y-46358190D01*
X102850666Y-46434380D01*
X102850666Y-46491523D01*
X102831619Y-46567714D01*
X102812571Y-46605809D01*
X102774476Y-46643904D01*
X102717333Y-46662952D01*
X102679238Y-46662952D01*
X102622095Y-46643904D01*
X102603047Y-46624857D01*
X102603047Y-46491523D01*
X102679238Y-46491523D01*
X102355428Y-46262952D02*
X102279238Y-46262952D01*
X102241142Y-46282000D01*
X102203047Y-46320095D01*
X102184000Y-46396285D01*
X102184000Y-46529619D01*
X102203047Y-46605809D01*
X102241142Y-46643904D01*
X102279238Y-46662952D01*
X102355428Y-46662952D01*
X102393523Y-46643904D01*
X102431619Y-46605809D01*
X102450666Y-46529619D01*
X102450666Y-46396285D01*
X102431619Y-46320095D01*
X102393523Y-46282000D01*
X102355428Y-46262952D01*
X102012571Y-46262952D02*
X102012571Y-46586761D01*
X101993523Y-46624857D01*
X101974476Y-46643904D01*
X101936380Y-46662952D01*
X101860190Y-46662952D01*
X101822095Y-46643904D01*
X101803047Y-46624857D01*
X101784000Y-46586761D01*
X101784000Y-46262952D01*
X101364952Y-46662952D02*
X101498285Y-46472476D01*
X101593523Y-46662952D02*
X101593523Y-46262952D01*
X101441142Y-46262952D01*
X101403047Y-46282000D01*
X101384000Y-46301047D01*
X101364952Y-46339142D01*
X101364952Y-46396285D01*
X101384000Y-46434380D01*
X101403047Y-46453428D01*
X101441142Y-46472476D01*
X101593523Y-46472476D01*
X101193523Y-46662952D02*
X101193523Y-46262952D01*
X100698285Y-46662952D02*
X100698285Y-46262952D01*
X100469714Y-46662952D02*
X100641142Y-46434380D01*
X100469714Y-46262952D02*
X100698285Y-46491523D01*
X100069714Y-46662952D02*
X100203047Y-46472476D01*
X100298285Y-46662952D02*
X100298285Y-46262952D01*
X100145904Y-46262952D01*
X100107809Y-46282000D01*
X100088761Y-46301047D01*
X100069714Y-46339142D01*
X100069714Y-46396285D01*
X100088761Y-46434380D01*
X100107809Y-46453428D01*
X100145904Y-46472476D01*
X100298285Y-46472476D01*
X99898285Y-46662952D02*
X99898285Y-46262952D01*
X99726857Y-46643904D02*
X99669714Y-46662952D01*
X99574476Y-46662952D01*
X99536380Y-46643904D01*
X99517333Y-46624857D01*
X99498285Y-46586761D01*
X99498285Y-46548666D01*
X99517333Y-46510571D01*
X99536380Y-46491523D01*
X99574476Y-46472476D01*
X99650666Y-46453428D01*
X99688761Y-46434380D01*
X99707809Y-46415333D01*
X99726857Y-46377238D01*
X99726857Y-46339142D01*
X99707809Y-46301047D01*
X99688761Y-46282000D01*
X99650666Y-46262952D01*
X99555428Y-46262952D01*
X99498285Y-46282000D01*
X99326857Y-46662952D02*
X99326857Y-46262952D01*
X99326857Y-46453428D02*
X99098285Y-46453428D01*
X99098285Y-46662952D02*
X99098285Y-46262952D01*
X98907809Y-46662952D02*
X98907809Y-46262952D01*
X98679238Y-46662952D01*
X98679238Y-46262952D01*
X98507809Y-46548666D02*
X98317333Y-46548666D01*
X98545904Y-46662952D02*
X98412571Y-46262952D01*
X98279238Y-46662952D01*
D11*
X102234952Y-84399428D02*
X101473047Y-84399428D01*
D13*
X102993523Y-43500666D02*
X102803047Y-43500666D01*
X103031619Y-43614952D02*
X102898285Y-43214952D01*
X102764952Y-43614952D01*
X102403047Y-43614952D02*
X102536380Y-43424476D01*
X102631619Y-43614952D02*
X102631619Y-43214952D01*
X102479238Y-43214952D01*
X102441142Y-43234000D01*
X102422095Y-43253047D01*
X102403047Y-43291142D01*
X102403047Y-43348285D01*
X102422095Y-43386380D01*
X102441142Y-43405428D01*
X102479238Y-43424476D01*
X102631619Y-43424476D01*
X102231619Y-43214952D02*
X102231619Y-43538761D01*
X102212571Y-43576857D01*
X102193523Y-43595904D01*
X102155428Y-43614952D01*
X102079238Y-43614952D01*
X102041142Y-43595904D01*
X102022095Y-43576857D01*
X102003047Y-43538761D01*
X102003047Y-43214952D01*
X101812571Y-43614952D02*
X101812571Y-43214952D01*
X101584000Y-43614952D01*
X101584000Y-43214952D01*
X100974476Y-43214952D02*
X100974476Y-43500666D01*
X100993523Y-43557809D01*
X101031619Y-43595904D01*
X101088761Y-43614952D01*
X101126857Y-43614952D01*
X100707809Y-43424476D02*
X100707809Y-43614952D01*
X100841142Y-43214952D02*
X100707809Y-43424476D01*
X100574476Y-43214952D01*
X100364952Y-43214952D02*
X100288761Y-43214952D01*
X100250666Y-43234000D01*
X100212571Y-43272095D01*
X100193523Y-43348285D01*
X100193523Y-43481619D01*
X100212571Y-43557809D01*
X100250666Y-43595904D01*
X100288761Y-43614952D01*
X100364952Y-43614952D01*
X100403047Y-43595904D01*
X100441142Y-43557809D01*
X100460190Y-43481619D01*
X100460190Y-43348285D01*
X100441142Y-43272095D01*
X100403047Y-43234000D01*
X100364952Y-43214952D01*
X100079238Y-43214952D02*
X99850666Y-43214952D01*
X99964952Y-43614952D02*
X99964952Y-43214952D01*
X99717333Y-43614952D02*
X99717333Y-43214952D01*
X99717333Y-43405428D02*
X99488761Y-43405428D01*
X99488761Y-43614952D02*
X99488761Y-43214952D01*
X99298285Y-43614952D02*
X99298285Y-43214952D01*
X99126857Y-43595904D02*
X99069714Y-43614952D01*
X98974476Y-43614952D01*
X98936380Y-43595904D01*
X98917333Y-43576857D01*
X98898285Y-43538761D01*
X98898285Y-43500666D01*
X98917333Y-43462571D01*
X98936380Y-43443523D01*
X98974476Y-43424476D01*
X99050666Y-43405428D01*
X99088761Y-43386380D01*
X99107809Y-43367333D01*
X99126857Y-43329238D01*
X99126857Y-43291142D01*
X99107809Y-43253047D01*
X99088761Y-43234000D01*
X99050666Y-43214952D01*
X98955428Y-43214952D01*
X98898285Y-43234000D01*
X98726857Y-43614952D02*
X98726857Y-43214952D01*
X98726857Y-43405428D02*
X98498285Y-43405428D01*
X98498285Y-43614952D02*
X98498285Y-43214952D01*
D10*
X102893714Y-54836190D02*
X102893714Y-54336190D01*
X102727047Y-54693333D01*
X102560380Y-54336190D01*
X102560380Y-54836190D01*
X102227047Y-54336190D02*
X102131809Y-54336190D01*
X102084190Y-54360000D01*
X102036571Y-54407619D01*
X102012761Y-54502857D01*
X102012761Y-54669523D01*
X102036571Y-54764761D01*
X102084190Y-54812380D01*
X102131809Y-54836190D01*
X102227047Y-54836190D01*
X102274666Y-54812380D01*
X102322285Y-54764761D01*
X102346095Y-54669523D01*
X102346095Y-54502857D01*
X102322285Y-54407619D01*
X102274666Y-54360000D01*
X102227047Y-54336190D01*
X101822285Y-54812380D02*
X101750857Y-54836190D01*
X101631809Y-54836190D01*
X101584190Y-54812380D01*
X101560380Y-54788571D01*
X101536571Y-54740952D01*
X101536571Y-54693333D01*
X101560380Y-54645714D01*
X101584190Y-54621904D01*
X101631809Y-54598095D01*
X101727047Y-54574285D01*
X101774666Y-54550476D01*
X101798476Y-54526666D01*
X101822285Y-54479047D01*
X101822285Y-54431428D01*
X101798476Y-54383809D01*
X101774666Y-54360000D01*
X101727047Y-54336190D01*
X101608000Y-54336190D01*
X101536571Y-54360000D01*
X101322285Y-54836190D02*
X101322285Y-54336190D01*
D13*
X103345904Y-44516666D02*
X103155428Y-44516666D01*
X103384000Y-44630952D02*
X103250666Y-44230952D01*
X103117333Y-44630952D01*
X102984000Y-44630952D02*
X102984000Y-44230952D01*
X102850666Y-44516666D01*
X102717333Y-44230952D01*
X102717333Y-44630952D01*
X102526857Y-44630952D02*
X102526857Y-44230952D01*
X102393523Y-44230952D02*
X102164952Y-44230952D01*
X102279238Y-44630952D02*
X102279238Y-44230952D01*
X101784000Y-44230952D02*
X101555428Y-44230952D01*
X101669714Y-44630952D02*
X101669714Y-44230952D01*
X101345904Y-44230952D02*
X101269714Y-44230952D01*
X101231619Y-44250000D01*
X101193523Y-44288095D01*
X101174476Y-44364285D01*
X101174476Y-44497619D01*
X101193523Y-44573809D01*
X101231619Y-44611904D01*
X101269714Y-44630952D01*
X101345904Y-44630952D01*
X101384000Y-44611904D01*
X101422095Y-44573809D01*
X101441142Y-44497619D01*
X101441142Y-44364285D01*
X101422095Y-44288095D01*
X101384000Y-44250000D01*
X101345904Y-44230952D01*
X101003047Y-44630952D02*
X101003047Y-44230952D01*
X100774476Y-44630952D01*
X100774476Y-44230952D01*
X100507809Y-44440476D02*
X100507809Y-44630952D01*
X100641142Y-44230952D02*
X100507809Y-44440476D01*
X100374476Y-44230952D01*
X99822095Y-44230952D02*
X99822095Y-44516666D01*
X99841142Y-44573809D01*
X99879238Y-44611904D01*
X99936380Y-44630952D01*
X99974476Y-44630952D01*
X99555428Y-44230952D02*
X99479238Y-44230952D01*
X99441142Y-44250000D01*
X99403047Y-44288095D01*
X99384000Y-44364285D01*
X99384000Y-44497619D01*
X99403047Y-44573809D01*
X99441142Y-44611904D01*
X99479238Y-44630952D01*
X99555428Y-44630952D01*
X99593523Y-44611904D01*
X99631619Y-44573809D01*
X99650666Y-44497619D01*
X99650666Y-44364285D01*
X99631619Y-44288095D01*
X99593523Y-44250000D01*
X99555428Y-44230952D01*
X99231619Y-44611904D02*
X99174476Y-44630952D01*
X99079238Y-44630952D01*
X99041142Y-44611904D01*
X99022095Y-44592857D01*
X99003047Y-44554761D01*
X99003047Y-44516666D01*
X99022095Y-44478571D01*
X99041142Y-44459523D01*
X99079238Y-44440476D01*
X99155428Y-44421428D01*
X99193523Y-44402380D01*
X99212571Y-44383333D01*
X99231619Y-44345238D01*
X99231619Y-44307142D01*
X99212571Y-44269047D01*
X99193523Y-44250000D01*
X99155428Y-44230952D01*
X99060190Y-44230952D01*
X99003047Y-44250000D01*
X98831619Y-44421428D02*
X98698285Y-44421428D01*
X98641142Y-44630952D02*
X98831619Y-44630952D01*
X98831619Y-44230952D01*
X98641142Y-44230952D01*
X98469714Y-44630952D02*
X98469714Y-44230952D01*
X98317333Y-44230952D01*
X98279238Y-44250000D01*
X98260190Y-44269047D01*
X98241142Y-44307142D01*
X98241142Y-44364285D01*
X98260190Y-44402380D01*
X98279238Y-44421428D01*
X98317333Y-44440476D01*
X98469714Y-44440476D01*
X98069714Y-44630952D02*
X98069714Y-44230952D01*
X98069714Y-44421428D02*
X97841142Y-44421428D01*
X97841142Y-44630952D02*
X97841142Y-44230952D01*
D10*
X102727047Y-53058190D02*
X102727047Y-52558190D01*
X102536571Y-52558190D01*
X102488952Y-52582000D01*
X102465142Y-52605809D01*
X102441333Y-52653428D01*
X102441333Y-52724857D01*
X102465142Y-52772476D01*
X102488952Y-52796285D01*
X102536571Y-52820095D01*
X102727047Y-52820095D01*
X102060380Y-52796285D02*
X101988952Y-52820095D01*
X101965142Y-52843904D01*
X101941333Y-52891523D01*
X101941333Y-52962952D01*
X101965142Y-53010571D01*
X101988952Y-53034380D01*
X102036571Y-53058190D01*
X102227047Y-53058190D01*
X102227047Y-52558190D01*
X102060380Y-52558190D01*
X102012761Y-52582000D01*
X101988952Y-52605809D01*
X101965142Y-52653428D01*
X101965142Y-52701047D01*
X101988952Y-52748666D01*
X102012761Y-52772476D01*
X102060380Y-52796285D01*
X102227047Y-52796285D01*
X101465142Y-53058190D02*
X101750857Y-53058190D01*
X101608000Y-53058190D02*
X101608000Y-52558190D01*
X101655619Y-52629619D01*
X101703238Y-52677238D01*
X101750857Y-52701047D01*
X102750857Y-56844380D02*
X102679428Y-56868190D01*
X102560380Y-56868190D01*
X102512761Y-56844380D01*
X102488952Y-56820571D01*
X102465142Y-56772952D01*
X102465142Y-56725333D01*
X102488952Y-56677714D01*
X102512761Y-56653904D01*
X102560380Y-56630095D01*
X102655619Y-56606285D01*
X102703238Y-56582476D01*
X102727047Y-56558666D01*
X102750857Y-56511047D01*
X102750857Y-56463428D01*
X102727047Y-56415809D01*
X102703238Y-56392000D01*
X102655619Y-56368190D01*
X102536571Y-56368190D01*
X102465142Y-56392000D01*
X101965142Y-56820571D02*
X101988952Y-56844380D01*
X102060380Y-56868190D01*
X102108000Y-56868190D01*
X102179428Y-56844380D01*
X102227047Y-56796761D01*
X102250857Y-56749142D01*
X102274666Y-56653904D01*
X102274666Y-56582476D01*
X102250857Y-56487238D01*
X102227047Y-56439619D01*
X102179428Y-56392000D01*
X102108000Y-56368190D01*
X102060380Y-56368190D01*
X101988952Y-56392000D01*
X101965142Y-56415809D01*
X101750857Y-56868190D02*
X101750857Y-56368190D01*
X101465142Y-56868190D02*
X101679428Y-56582476D01*
X101465142Y-56368190D02*
X101750857Y-56653904D01*
D13*
X103145904Y-45437428D02*
X103088761Y-45456476D01*
X103069714Y-45475523D01*
X103050666Y-45513619D01*
X103050666Y-45570761D01*
X103069714Y-45608857D01*
X103088761Y-45627904D01*
X103126857Y-45646952D01*
X103279238Y-45646952D01*
X103279238Y-45246952D01*
X103145904Y-45246952D01*
X103107809Y-45266000D01*
X103088761Y-45285047D01*
X103069714Y-45323142D01*
X103069714Y-45361238D01*
X103088761Y-45399333D01*
X103107809Y-45418380D01*
X103145904Y-45437428D01*
X103279238Y-45437428D01*
X102879238Y-45646952D02*
X102879238Y-45246952D01*
X102879238Y-45437428D02*
X102650666Y-45437428D01*
X102650666Y-45646952D02*
X102650666Y-45246952D01*
X102479238Y-45532666D02*
X102288761Y-45532666D01*
X102517333Y-45646952D02*
X102384000Y-45246952D01*
X102250666Y-45646952D01*
X101888761Y-45646952D02*
X102022095Y-45456476D01*
X102117333Y-45646952D02*
X102117333Y-45246952D01*
X101964952Y-45246952D01*
X101926857Y-45266000D01*
X101907809Y-45285047D01*
X101888761Y-45323142D01*
X101888761Y-45380285D01*
X101907809Y-45418380D01*
X101926857Y-45437428D01*
X101964952Y-45456476D01*
X102117333Y-45456476D01*
X101736380Y-45532666D02*
X101545904Y-45532666D01*
X101774476Y-45646952D02*
X101641142Y-45246952D01*
X101507809Y-45646952D01*
X101431619Y-45246952D02*
X101203047Y-45246952D01*
X101317333Y-45646952D02*
X101317333Y-45246952D01*
X101069714Y-45646952D02*
X101069714Y-45246952D01*
X101069714Y-45437428D02*
X100841142Y-45437428D01*
X100841142Y-45646952D02*
X100841142Y-45246952D01*
X100364952Y-45627904D02*
X100307809Y-45646952D01*
X100212571Y-45646952D01*
X100174476Y-45627904D01*
X100155428Y-45608857D01*
X100136380Y-45570761D01*
X100136380Y-45532666D01*
X100155428Y-45494571D01*
X100174476Y-45475523D01*
X100212571Y-45456476D01*
X100288761Y-45437428D01*
X100326857Y-45418380D01*
X100345904Y-45399333D01*
X100364952Y-45361238D01*
X100364952Y-45323142D01*
X100345904Y-45285047D01*
X100326857Y-45266000D01*
X100288761Y-45246952D01*
X100193523Y-45246952D01*
X100136380Y-45266000D01*
X99736380Y-45646952D02*
X99869714Y-45456476D01*
X99964952Y-45646952D02*
X99964952Y-45246952D01*
X99812571Y-45246952D01*
X99774476Y-45266000D01*
X99755428Y-45285047D01*
X99736380Y-45323142D01*
X99736380Y-45380285D01*
X99755428Y-45418380D01*
X99774476Y-45437428D01*
X99812571Y-45456476D01*
X99964952Y-45456476D01*
X99564952Y-45646952D02*
X99564952Y-45246952D01*
X99374476Y-45646952D02*
X99374476Y-45246952D01*
X99145904Y-45646952D01*
X99145904Y-45246952D01*
X98955428Y-45646952D02*
X98955428Y-45246952D01*
X98822095Y-45246952D02*
X98688761Y-45646952D01*
X98555428Y-45246952D01*
X98441142Y-45532666D02*
X98250666Y-45532666D01*
X98479238Y-45646952D02*
X98345904Y-45246952D01*
X98212571Y-45646952D01*
X98098285Y-45627904D02*
X98041142Y-45646952D01*
X97945904Y-45646952D01*
X97907809Y-45627904D01*
X97888761Y-45608857D01*
X97869714Y-45570761D01*
X97869714Y-45532666D01*
X97888761Y-45494571D01*
X97907809Y-45475523D01*
X97945904Y-45456476D01*
X98022095Y-45437428D01*
X98060190Y-45418380D01*
X98079238Y-45399333D01*
X98098285Y-45361238D01*
X98098285Y-45323142D01*
X98079238Y-45285047D01*
X98060190Y-45266000D01*
X98022095Y-45246952D01*
X97926857Y-45246952D01*
X97869714Y-45266000D01*
D14*
X84919428Y-68221142D02*
X86419428Y-68221142D01*
X86419428Y-67649714D01*
X86348000Y-67506857D01*
X86276571Y-67435428D01*
X86133714Y-67364000D01*
X85919428Y-67364000D01*
X85776571Y-67435428D01*
X85705142Y-67506857D01*
X85633714Y-67649714D01*
X85633714Y-68221142D01*
X86419428Y-66435428D02*
X86419428Y-66149714D01*
X86348000Y-66006857D01*
X86205142Y-65864000D01*
X85919428Y-65792571D01*
X85419428Y-65792571D01*
X85133714Y-65864000D01*
X84990857Y-66006857D01*
X84919428Y-66149714D01*
X84919428Y-66435428D01*
X84990857Y-66578285D01*
X85133714Y-66721142D01*
X85419428Y-66792571D01*
X85919428Y-66792571D01*
X86205142Y-66721142D01*
X86348000Y-66578285D01*
X86419428Y-66435428D01*
X84919428Y-64292571D02*
X85633714Y-64792571D01*
X84919428Y-65149714D02*
X86419428Y-65149714D01*
X86419428Y-64578285D01*
X86348000Y-64435428D01*
X86276571Y-64364000D01*
X86133714Y-64292571D01*
X85919428Y-64292571D01*
X85776571Y-64364000D01*
X85705142Y-64435428D01*
X85633714Y-64578285D01*
X85633714Y-65149714D01*
X86419428Y-63864000D02*
X86419428Y-63006857D01*
X84919428Y-63435428D02*
X86419428Y-63435428D01*
X85348000Y-62578285D02*
X85348000Y-61864000D01*
X84919428Y-62721142D02*
X86419428Y-62221142D01*
X84919428Y-61721142D01*
X85705142Y-60721142D02*
X85633714Y-60506857D01*
X85562285Y-60435428D01*
X85419428Y-60364000D01*
X85205142Y-60364000D01*
X85062285Y-60435428D01*
X84990857Y-60506857D01*
X84919428Y-60649714D01*
X84919428Y-61221142D01*
X86419428Y-61221142D01*
X86419428Y-60721142D01*
X86348000Y-60578285D01*
X86276571Y-60506857D01*
X86133714Y-60435428D01*
X85990857Y-60435428D01*
X85848000Y-60506857D01*
X85776571Y-60578285D01*
X85705142Y-60721142D01*
X85705142Y-61221142D01*
X84919428Y-59006857D02*
X84919428Y-59721142D01*
X86419428Y-59721142D01*
X85705142Y-58506857D02*
X85705142Y-58006857D01*
X84919428Y-57792571D02*
X84919428Y-58506857D01*
X86419428Y-58506857D01*
X86419428Y-57792571D01*
X85705142Y-56006857D02*
X85705142Y-55506857D01*
X84919428Y-55292571D02*
X84919428Y-56006857D01*
X86419428Y-56006857D01*
X86419428Y-55292571D01*
X85062285Y-53792571D02*
X84990857Y-53864000D01*
X84919428Y-54078285D01*
X84919428Y-54221142D01*
X84990857Y-54435428D01*
X85133714Y-54578285D01*
X85276571Y-54649714D01*
X85562285Y-54721142D01*
X85776571Y-54721142D01*
X86062285Y-54649714D01*
X86205142Y-54578285D01*
X86348000Y-54435428D01*
X86419428Y-54221142D01*
X86419428Y-54078285D01*
X86348000Y-53864000D01*
X86276571Y-53792571D01*
X86348000Y-52364000D02*
X86419428Y-52506857D01*
X86419428Y-52721142D01*
X86348000Y-52935428D01*
X86205142Y-53078285D01*
X86062285Y-53149714D01*
X85776571Y-53221142D01*
X85562285Y-53221142D01*
X85276571Y-53149714D01*
X85133714Y-53078285D01*
X84990857Y-52935428D01*
X84919428Y-52721142D01*
X84919428Y-52578285D01*
X84990857Y-52364000D01*
X85062285Y-52292571D01*
X85562285Y-52292571D01*
X85562285Y-52578285D01*
X84919428Y-50506857D02*
X86419428Y-50506857D01*
X85348000Y-50006857D01*
X86419428Y-49506857D01*
X84919428Y-49506857D01*
X85348000Y-48864000D02*
X85348000Y-48149714D01*
X84919428Y-49006857D02*
X86419428Y-48506857D01*
X84919428Y-48006857D01*
X85062285Y-46649714D02*
X84990857Y-46721142D01*
X84919428Y-46935428D01*
X84919428Y-47078285D01*
X84990857Y-47292571D01*
X85133714Y-47435428D01*
X85276571Y-47506857D01*
X85562285Y-47578285D01*
X85776571Y-47578285D01*
X86062285Y-47506857D01*
X86205142Y-47435428D01*
X86348000Y-47292571D01*
X86419428Y-47078285D01*
X86419428Y-46935428D01*
X86348000Y-46721142D01*
X86276571Y-46649714D01*
X84919428Y-46006857D02*
X86419428Y-46006857D01*
X85705142Y-46006857D02*
X85705142Y-45149714D01*
X84919428Y-45149714D02*
X86419428Y-45149714D01*
X84919428Y-44435428D02*
X86419428Y-44435428D01*
X84919428Y-43721142D02*
X86419428Y-43721142D01*
X84919428Y-42864000D01*
X86419428Y-42864000D01*
X85705142Y-42149714D02*
X85705142Y-41649714D01*
X84919428Y-41435428D02*
X84919428Y-42149714D01*
X86419428Y-42149714D01*
X86419428Y-41435428D01*
D10*
X105941714Y-55852190D02*
X105941714Y-55352190D01*
X105775047Y-55709333D01*
X105608380Y-55352190D01*
X105608380Y-55852190D01*
X105370285Y-55852190D02*
X105370285Y-55352190D01*
X105156000Y-55828380D02*
X105084571Y-55852190D01*
X104965523Y-55852190D01*
X104917904Y-55828380D01*
X104894095Y-55804571D01*
X104870285Y-55756952D01*
X104870285Y-55709333D01*
X104894095Y-55661714D01*
X104917904Y-55637904D01*
X104965523Y-55614095D01*
X105060761Y-55590285D01*
X105108380Y-55566476D01*
X105132190Y-55542666D01*
X105156000Y-55495047D01*
X105156000Y-55447428D01*
X105132190Y-55399809D01*
X105108380Y-55376000D01*
X105060761Y-55352190D01*
X104941714Y-55352190D01*
X104870285Y-55376000D01*
X104560761Y-55352190D02*
X104465523Y-55352190D01*
X104417904Y-55376000D01*
X104370285Y-55423619D01*
X104346476Y-55518857D01*
X104346476Y-55685523D01*
X104370285Y-55780761D01*
X104417904Y-55828380D01*
X104465523Y-55852190D01*
X104560761Y-55852190D01*
X104608380Y-55828380D01*
X104656000Y-55780761D01*
X104679809Y-55685523D01*
X104679809Y-55518857D01*
X104656000Y-55423619D01*
X104608380Y-55376000D01*
X104560761Y-55352190D01*
D12*
X93980000Y-67270380D02*
X93980000Y-67508476D01*
X94218095Y-67413238D02*
X93980000Y-67508476D01*
X93741904Y-67413238D01*
X94122857Y-67698952D02*
X93980000Y-67508476D01*
X93837142Y-67698952D01*
D10*
%TO.C,J4*%
X92493190Y-83145333D02*
X92850333Y-83145333D01*
X92921761Y-83121523D01*
X92969380Y-83073904D01*
X92993190Y-83002476D01*
X92993190Y-82954857D01*
X92659857Y-83597714D02*
X92993190Y-83597714D01*
X92469380Y-83478666D02*
X92826523Y-83359619D01*
X92826523Y-83669142D01*
%TO.C,Y1*%
X86700095Y-63007904D02*
X86938190Y-63007904D01*
X86438190Y-62841238D02*
X86700095Y-63007904D01*
X86438190Y-63174571D01*
X86938190Y-63603142D02*
X86938190Y-63317428D01*
X86938190Y-63460285D02*
X86438190Y-63460285D01*
X86509619Y-63412666D01*
X86557238Y-63365047D01*
X86581047Y-63317428D01*
%TO.C,J1*%
X87393666Y-74632190D02*
X87393666Y-74989333D01*
X87417476Y-75060761D01*
X87465095Y-75108380D01*
X87536523Y-75132190D01*
X87584142Y-75132190D01*
X86893666Y-75132190D02*
X87179380Y-75132190D01*
X87036523Y-75132190D02*
X87036523Y-74632190D01*
X87084142Y-74703619D01*
X87131761Y-74751238D01*
X87179380Y-74775047D01*
%TO.C,JP4*%
X106080666Y-48240190D02*
X106080666Y-48597333D01*
X106104476Y-48668761D01*
X106152095Y-48716380D01*
X106223523Y-48740190D01*
X106271142Y-48740190D01*
X105842571Y-48740190D02*
X105842571Y-48240190D01*
X105652095Y-48240190D01*
X105604476Y-48264000D01*
X105580666Y-48287809D01*
X105556857Y-48335428D01*
X105556857Y-48406857D01*
X105580666Y-48454476D01*
X105604476Y-48478285D01*
X105652095Y-48502095D01*
X105842571Y-48502095D01*
X105128285Y-48406857D02*
X105128285Y-48740190D01*
X105247333Y-48216380D02*
X105366380Y-48573523D01*
X105056857Y-48573523D01*
%TO.C,J5*%
X105830666Y-59162190D02*
X105830666Y-59519333D01*
X105854476Y-59590761D01*
X105902095Y-59638380D01*
X105973523Y-59662190D01*
X106021142Y-59662190D01*
X105354476Y-59162190D02*
X105592571Y-59162190D01*
X105616380Y-59400285D01*
X105592571Y-59376476D01*
X105544952Y-59352666D01*
X105425904Y-59352666D01*
X105378285Y-59376476D01*
X105354476Y-59400285D01*
X105330666Y-59447904D01*
X105330666Y-59566952D01*
X105354476Y-59614571D01*
X105378285Y-59638380D01*
X105425904Y-59662190D01*
X105544952Y-59662190D01*
X105592571Y-59638380D01*
X105616380Y-59614571D01*
%TO.C,JP6*%
X108366666Y-37826190D02*
X108366666Y-38183333D01*
X108390476Y-38254761D01*
X108438095Y-38302380D01*
X108509523Y-38326190D01*
X108557142Y-38326190D01*
X108128571Y-38326190D02*
X108128571Y-37826190D01*
X107938095Y-37826190D01*
X107890476Y-37850000D01*
X107866666Y-37873809D01*
X107842857Y-37921428D01*
X107842857Y-37992857D01*
X107866666Y-38040476D01*
X107890476Y-38064285D01*
X107938095Y-38088095D01*
X108128571Y-38088095D01*
X107414285Y-37826190D02*
X107509523Y-37826190D01*
X107557142Y-37850000D01*
X107580952Y-37873809D01*
X107628571Y-37945238D01*
X107652380Y-38040476D01*
X107652380Y-38230952D01*
X107628571Y-38278571D01*
X107604761Y-38302380D01*
X107557142Y-38326190D01*
X107461904Y-38326190D01*
X107414285Y-38302380D01*
X107390476Y-38278571D01*
X107366666Y-38230952D01*
X107366666Y-38111904D01*
X107390476Y-38064285D01*
X107414285Y-38040476D01*
X107461904Y-38016666D01*
X107557142Y-38016666D01*
X107604761Y-38040476D01*
X107628571Y-38064285D01*
X107652380Y-38111904D01*
%TO.C,C12*%
X106029428Y-66698571D02*
X106053238Y-66722380D01*
X106124666Y-66746190D01*
X106172285Y-66746190D01*
X106243714Y-66722380D01*
X106291333Y-66674761D01*
X106315142Y-66627142D01*
X106338952Y-66531904D01*
X106338952Y-66460476D01*
X106315142Y-66365238D01*
X106291333Y-66317619D01*
X106243714Y-66270000D01*
X106172285Y-66246190D01*
X106124666Y-66246190D01*
X106053238Y-66270000D01*
X106029428Y-66293809D01*
X105553238Y-66746190D02*
X105838952Y-66746190D01*
X105696095Y-66746190D02*
X105696095Y-66246190D01*
X105743714Y-66317619D01*
X105791333Y-66365238D01*
X105838952Y-66389047D01*
X105362761Y-66293809D02*
X105338952Y-66270000D01*
X105291333Y-66246190D01*
X105172285Y-66246190D01*
X105124666Y-66270000D01*
X105100857Y-66293809D01*
X105077047Y-66341428D01*
X105077047Y-66389047D01*
X105100857Y-66460476D01*
X105386571Y-66746190D01*
X105077047Y-66746190D01*
%TO.C,R11*%
X93031428Y-70998190D02*
X93198095Y-70760095D01*
X93317142Y-70998190D02*
X93317142Y-70498190D01*
X93126666Y-70498190D01*
X93079047Y-70522000D01*
X93055238Y-70545809D01*
X93031428Y-70593428D01*
X93031428Y-70664857D01*
X93055238Y-70712476D01*
X93079047Y-70736285D01*
X93126666Y-70760095D01*
X93317142Y-70760095D01*
X92555238Y-70998190D02*
X92840952Y-70998190D01*
X92698095Y-70998190D02*
X92698095Y-70498190D01*
X92745714Y-70569619D01*
X92793333Y-70617238D01*
X92840952Y-70641047D01*
X92079047Y-70998190D02*
X92364761Y-70998190D01*
X92221904Y-70998190D02*
X92221904Y-70498190D01*
X92269523Y-70569619D01*
X92317142Y-70617238D01*
X92364761Y-70641047D01*
%TO.C,C13*%
X91507428Y-67742571D02*
X91531238Y-67766380D01*
X91602666Y-67790190D01*
X91650285Y-67790190D01*
X91721714Y-67766380D01*
X91769333Y-67718761D01*
X91793142Y-67671142D01*
X91816952Y-67575904D01*
X91816952Y-67504476D01*
X91793142Y-67409238D01*
X91769333Y-67361619D01*
X91721714Y-67314000D01*
X91650285Y-67290190D01*
X91602666Y-67290190D01*
X91531238Y-67314000D01*
X91507428Y-67337809D01*
X91031238Y-67790190D02*
X91316952Y-67790190D01*
X91174095Y-67790190D02*
X91174095Y-67290190D01*
X91221714Y-67361619D01*
X91269333Y-67409238D01*
X91316952Y-67433047D01*
X90864571Y-67290190D02*
X90555047Y-67290190D01*
X90721714Y-67480666D01*
X90650285Y-67480666D01*
X90602666Y-67504476D01*
X90578857Y-67528285D01*
X90555047Y-67575904D01*
X90555047Y-67694952D01*
X90578857Y-67742571D01*
X90602666Y-67766380D01*
X90650285Y-67790190D01*
X90793142Y-67790190D01*
X90840761Y-67766380D01*
X90864571Y-67742571D01*
%TO.C,U3*%
X100202952Y-70546190D02*
X100202952Y-70950952D01*
X100179142Y-70998571D01*
X100155333Y-71022380D01*
X100107714Y-71046190D01*
X100012476Y-71046190D01*
X99964857Y-71022380D01*
X99941047Y-70998571D01*
X99917238Y-70950952D01*
X99917238Y-70546190D01*
X99726761Y-70546190D02*
X99417238Y-70546190D01*
X99583904Y-70736666D01*
X99512476Y-70736666D01*
X99464857Y-70760476D01*
X99441047Y-70784285D01*
X99417238Y-70831904D01*
X99417238Y-70950952D01*
X99441047Y-70998571D01*
X99464857Y-71022380D01*
X99512476Y-71046190D01*
X99655333Y-71046190D01*
X99702952Y-71022380D01*
X99726761Y-70998571D01*
%TO.C,JP3*%
X108366666Y-42398190D02*
X108366666Y-42755333D01*
X108390476Y-42826761D01*
X108438095Y-42874380D01*
X108509523Y-42898190D01*
X108557142Y-42898190D01*
X108128571Y-42898190D02*
X108128571Y-42398190D01*
X107938095Y-42398190D01*
X107890476Y-42422000D01*
X107866666Y-42445809D01*
X107842857Y-42493428D01*
X107842857Y-42564857D01*
X107866666Y-42612476D01*
X107890476Y-42636285D01*
X107938095Y-42660095D01*
X108128571Y-42660095D01*
X107676190Y-42398190D02*
X107366666Y-42398190D01*
X107533333Y-42588666D01*
X107461904Y-42588666D01*
X107414285Y-42612476D01*
X107390476Y-42636285D01*
X107366666Y-42683904D01*
X107366666Y-42802952D01*
X107390476Y-42850571D01*
X107414285Y-42874380D01*
X107461904Y-42898190D01*
X107604761Y-42898190D01*
X107652380Y-42874380D01*
X107676190Y-42850571D01*
%TO.C,JP5*%
X107350666Y-44684190D02*
X107350666Y-45041333D01*
X107374476Y-45112761D01*
X107422095Y-45160380D01*
X107493523Y-45184190D01*
X107541142Y-45184190D01*
X107112571Y-45184190D02*
X107112571Y-44684190D01*
X106922095Y-44684190D01*
X106874476Y-44708000D01*
X106850666Y-44731809D01*
X106826857Y-44779428D01*
X106826857Y-44850857D01*
X106850666Y-44898476D01*
X106874476Y-44922285D01*
X106922095Y-44946095D01*
X107112571Y-44946095D01*
X106374476Y-44684190D02*
X106612571Y-44684190D01*
X106636380Y-44922285D01*
X106612571Y-44898476D01*
X106564952Y-44874666D01*
X106445904Y-44874666D01*
X106398285Y-44898476D01*
X106374476Y-44922285D01*
X106350666Y-44969904D01*
X106350666Y-45088952D01*
X106374476Y-45136571D01*
X106398285Y-45160380D01*
X106445904Y-45184190D01*
X106564952Y-45184190D01*
X106612571Y-45160380D01*
X106636380Y-45136571D01*
D11*
%TO.C,C14*%
X93606857Y-57601142D02*
X93654476Y-57648761D01*
X93797333Y-57696380D01*
X93892571Y-57696380D01*
X94035428Y-57648761D01*
X94130666Y-57553523D01*
X94178285Y-57458285D01*
X94225904Y-57267809D01*
X94225904Y-57124952D01*
X94178285Y-56934476D01*
X94130666Y-56839238D01*
X94035428Y-56744000D01*
X93892571Y-56696380D01*
X93797333Y-56696380D01*
X93654476Y-56744000D01*
X93606857Y-56791619D01*
X92654476Y-57696380D02*
X93225904Y-57696380D01*
X92940190Y-57696380D02*
X92940190Y-56696380D01*
X93035428Y-56839238D01*
X93130666Y-56934476D01*
X93225904Y-56982095D01*
X91797333Y-57029714D02*
X91797333Y-57696380D01*
X92035428Y-56648761D02*
X92273523Y-57363047D01*
X91654476Y-57363047D01*
D10*
%TO.C,J2*%
X80326190Y-29833333D02*
X80683333Y-29833333D01*
X80754761Y-29809523D01*
X80802380Y-29761904D01*
X80826190Y-29690476D01*
X80826190Y-29642857D01*
X80373809Y-30047619D02*
X80350000Y-30071428D01*
X80326190Y-30119047D01*
X80326190Y-30238095D01*
X80350000Y-30285714D01*
X80373809Y-30309523D01*
X80421428Y-30333333D01*
X80469047Y-30333333D01*
X80540476Y-30309523D01*
X80826190Y-30023809D01*
X80826190Y-30333333D01*
%TO.C,TP1*%
X103500952Y-72878190D02*
X103215238Y-72878190D01*
X103358095Y-73378190D02*
X103358095Y-72878190D01*
X103048571Y-73378190D02*
X103048571Y-72878190D01*
X102858095Y-72878190D01*
X102810476Y-72902000D01*
X102786666Y-72925809D01*
X102762857Y-72973428D01*
X102762857Y-73044857D01*
X102786666Y-73092476D01*
X102810476Y-73116285D01*
X102858095Y-73140095D01*
X103048571Y-73140095D01*
X102286666Y-73378190D02*
X102572380Y-73378190D01*
X102429523Y-73378190D02*
X102429523Y-72878190D01*
X102477142Y-72949619D01*
X102524761Y-72997238D01*
X102572380Y-73021047D01*
D15*
%TO.C,J4*%
X89022000Y-78612000D02*
X87022000Y-78612000D01*
X83222000Y-88012000D02*
X83222000Y-78612000D01*
X85122000Y-78612000D02*
X83222000Y-78612000D01*
X85122000Y-88012000D02*
X83222000Y-88012000D01*
X89022000Y-88012000D02*
X87022000Y-88012000D01*
%TO.C,Y1*%
X87712000Y-66446000D02*
X87712000Y-59896000D01*
X87712000Y-59896000D02*
X91612000Y-59896000D01*
X91612000Y-59896000D02*
X91612000Y-66446000D01*
%TO.C,J1*%
X89162000Y-73196000D02*
X87162000Y-73196000D01*
X89162000Y-72616000D02*
X89162000Y-72196000D01*
X89162000Y-71196000D02*
X87162000Y-71196000D01*
X87162000Y-70616000D02*
X89162000Y-70616000D01*
X87162000Y-73966000D02*
X87162000Y-68846000D01*
X86320215Y-69906000D02*
X87162000Y-69906000D01*
X89162000Y-72196000D02*
X87162000Y-72196000D01*
X87162000Y-72616000D02*
X89162000Y-72616000D01*
X87162000Y-68846000D02*
X86246493Y-68846000D01*
X87162000Y-69616000D02*
X89162000Y-69616000D01*
X86320215Y-71906000D02*
X87162000Y-71906000D01*
X86537000Y-72906000D02*
X87162000Y-72906000D01*
X87162000Y-73556000D02*
X89162000Y-73556000D01*
X87162000Y-73616000D02*
X89162000Y-73616000D01*
X86537000Y-73966000D02*
X87162000Y-73966000D01*
X89162000Y-71616000D02*
X89162000Y-71196000D01*
X89162000Y-69616000D02*
X89162000Y-69196000D01*
X85167000Y-74091000D02*
X85852000Y-74091000D01*
X89162000Y-70616000D02*
X89162000Y-70196000D01*
X89162000Y-73616000D02*
X89162000Y-73196000D01*
X89162000Y-69196000D02*
X87162000Y-69196000D01*
X87162000Y-71616000D02*
X89162000Y-71616000D01*
X87162000Y-73436000D02*
X89162000Y-73436000D01*
X86320215Y-70906000D02*
X87162000Y-70906000D01*
X89162000Y-70196000D02*
X87162000Y-70196000D01*
X85167000Y-73406000D02*
X85167000Y-74091000D01*
X87162000Y-73316000D02*
X89162000Y-73316000D01*
%TO.C,C12*%
X106428000Y-64402580D02*
X106428000Y-64121420D01*
X105408000Y-64402580D02*
X105408000Y-64121420D01*
%TO.C,R11*%
X92472742Y-69864500D02*
X92947258Y-69864500D01*
X92472742Y-68819500D02*
X92947258Y-68819500D01*
%TO.C,C13*%
X89152000Y-68439420D02*
X89152000Y-68720580D01*
X90172000Y-68439420D02*
X90172000Y-68720580D01*
D11*
%TO.C,U3*%
X103447000Y-68395000D02*
X103122000Y-68395000D01*
X103447000Y-68395000D02*
X103447000Y-68070000D01*
X96197000Y-68170000D02*
X94772000Y-68170000D01*
X96197000Y-68395000D02*
X96197000Y-68170000D01*
X96197000Y-61145000D02*
X96522000Y-61145000D01*
X96197000Y-61145000D02*
X96197000Y-61470000D01*
X96197000Y-68395000D02*
X96522000Y-68395000D01*
X103447000Y-61145000D02*
X103447000Y-61470000D01*
X103447000Y-61145000D02*
X103122000Y-61145000D01*
D15*
%TO.C,C14*%
X93104580Y-59184000D02*
X92823420Y-59184000D01*
X93104580Y-58164000D02*
X92823420Y-58164000D01*
%TO.C,J2*%
X99100000Y-33100000D02*
X99100000Y-32350000D01*
X99100000Y-26900000D02*
X97900000Y-26900000D01*
X84400000Y-27400000D02*
X81900000Y-27400000D01*
X88200000Y-26900000D02*
X88200000Y-24900000D01*
X84400000Y-33100000D02*
X87600000Y-33100000D01*
X90200000Y-33100000D02*
X99100000Y-33100000D01*
X94700000Y-26900000D02*
X88200000Y-26900000D01*
X84400000Y-32600000D02*
X84400000Y-33100000D01*
X85600000Y-26900000D02*
X85600000Y-24900000D01*
X84400000Y-26900000D02*
X84400000Y-27400000D01*
X81900000Y-32600000D02*
X84400000Y-32600000D01*
X99100000Y-29150000D02*
X99100000Y-26900000D01*
X85600000Y-26900000D02*
X84400000Y-26900000D01*
X81900000Y-27400000D02*
X81900000Y-32600000D01*
%TO.C,TP1*%
X101792000Y-72898000D02*
G75*
G03*
X101792000Y-72898000I-700000J0D01*
G01*
%TD*%
M02*
