M48
; DRILL file {KiCad (6.0.5)} date Sun Jun  5 00:42:14 2022
; FORMAT={-:-/ absolute / metric / decimal}
; #@! TF.CreationDate,2022-06-05T00:42:14+05:30
; #@! TF.GenerationSoftware,Kicad,Pcbnew,(6.0.5)
; #@! TF.FileFunction,Plated,1,2,PTH
FMAT,2
METRIC
; #@! TA.AperFunction,Plated,PTH,ViaDrill
T1C0.400
; #@! TA.AperFunction,Plated,PTH,ComponentDrill
T2C0.500
; #@! TA.AperFunction,Plated,PTH,ComponentDrill
T3C0.600
%
G90
G05
T1
X70.122Y-64.601
X72.408Y-74.761
X74.44Y-52.663
X74.694Y-65.363
X75.202Y-61.807
X75.225Y-69.45
X75.964Y-52.663
X77.488Y-52.663
X79.877Y-68.36
X80.282Y-73.237
X81.044Y-59.267
X81.044Y-65.109
X84.5Y-66.9
X85.085Y-68.4
X86.632Y-61.299
X87.517Y-64.093
X87.517Y-65.363
X87.902Y-71.459
X89.426Y-54.695
X94.966Y-54.587
X95.522Y-51.901
X96.284Y-64.093
X97.808Y-61.807
X97.868Y-72.911
X98.768Y-60.911
X99.332Y-56.473
X99.768Y-72.911
X100.668Y-56.511
X102.764Y-73.491
X102.888Y-54.187
X105.174Y-64.855
X105.868Y-73.779
X106.368Y-57.811
X106.468Y-60.611
X107.876Y-73.819
X107.95Y-57.785
X108.919Y-54.695
X109.312Y-72.976
X109.768Y-67.915
X109.855Y-58.42
X110.905Y-53.902
X114.518Y-59.006
X117.366Y-52.409
X117.968Y-68.611
X118.89Y-56.981
X120.16Y-59.521
X120.414Y-74.761
X121.302Y-66.908
X121.938Y-61.045
X121.991Y-70.204
X122.341Y-64.311
X122.468Y-56.241
X122.961Y-70.445
X123.314Y-58.251
X124.187Y-71.205
X124.813Y-57.896
X124.813Y-61.553
X125.176Y-71.471
X125.189Y-63.185
X126.256Y-55.711
X126.796Y-72.696
X127.268Y-74.811
X127.526Y-58.251
X128.796Y-69.429
X130.32Y-60.283
X132.395Y-55.41
X132.768Y-52.811
X133.368Y-65.871
T2
X72.916Y-67.411
X72.916Y-68.411
X85.362Y-52.663
X86.362Y-52.663
X87.362Y-52.663
X88.362Y-52.663
X89.362Y-52.663
T3
G00X71.136Y-52.583
M15
G01X71.136Y-53.183
M16
G05
G00X71.136Y-56.513
M15
G01X71.136Y-57.613
M16
G05
G00X79.776Y-52.583
M15
G01X79.776Y-53.183
M16
G05
G00X79.776Y-56.513
M15
G01X79.776Y-57.613
M16
G05
T0
M30
