%TF.GenerationSoftware,KiCad,Pcbnew,(6.0.5)*%
%TF.CreationDate,2022-06-01T22:14:55+05:30*%
%TF.ProjectId,PORTABLE_ECG_MACHINE,504f5254-4142-44c4-955f-4543475f4d41,rev-1*%
%TF.SameCoordinates,Original*%
%TF.FileFunction,Legend,Top*%
%TF.FilePolarity,Positive*%
%FSLAX46Y46*%
G04 Gerber Fmt 4.6, Leading zero omitted, Abs format (unit mm)*
G04 Created by KiCad (PCBNEW (6.0.5)) date 2022-06-01 22:14:55*
%MOMM*%
%LPD*%
G01*
G04 APERTURE LIST*
%ADD10C,0.175000*%
%ADD11C,0.125000*%
%ADD12C,0.120000*%
%ADD13C,0.127000*%
%ADD14C,0.100000*%
%ADD15C,0.200000*%
%ADD16C,0.250000*%
G04 APERTURE END LIST*
D10*
X107820666Y-58842666D02*
X107820666Y-58709333D01*
X107854000Y-58642666D01*
X107920666Y-58576000D01*
X108054000Y-58542666D01*
X108287333Y-58542666D01*
X108420666Y-58576000D01*
X108487333Y-58642666D01*
X108520666Y-58709333D01*
X108520666Y-58842666D01*
X108487333Y-58909333D01*
X108420666Y-58976000D01*
X108287333Y-59009333D01*
X108054000Y-59009333D01*
X107920666Y-58976000D01*
X107854000Y-58909333D01*
X107820666Y-58842666D01*
X108520666Y-57909333D02*
X108520666Y-58242666D01*
X107820666Y-58242666D01*
X108154000Y-57676000D02*
X108154000Y-57442666D01*
X108520666Y-57342666D02*
X108520666Y-57676000D01*
X107820666Y-57676000D01*
X107820666Y-57342666D01*
X108520666Y-57042666D02*
X107820666Y-57042666D01*
X107820666Y-56876000D01*
X107854000Y-56776000D01*
X107920666Y-56709333D01*
X107987333Y-56676000D01*
X108120666Y-56642666D01*
X108220666Y-56642666D01*
X108354000Y-56676000D01*
X108420666Y-56709333D01*
X108487333Y-56776000D01*
X108520666Y-56876000D01*
X108520666Y-57042666D01*
X108520666Y-55442666D02*
X108520666Y-55842666D01*
X108520666Y-55642666D02*
X107820666Y-55642666D01*
X107920666Y-55709333D01*
X107987333Y-55776000D01*
X108020666Y-55842666D01*
X107887333Y-55176000D02*
X107854000Y-55142666D01*
X107820666Y-55076000D01*
X107820666Y-54909333D01*
X107854000Y-54842666D01*
X107887333Y-54809333D01*
X107954000Y-54776000D01*
X108020666Y-54776000D01*
X108120666Y-54809333D01*
X108520666Y-55209333D01*
X108520666Y-54776000D01*
X108120666Y-54376000D02*
X108087333Y-54442666D01*
X108054000Y-54476000D01*
X107987333Y-54509333D01*
X107954000Y-54509333D01*
X107887333Y-54476000D01*
X107854000Y-54442666D01*
X107820666Y-54376000D01*
X107820666Y-54242666D01*
X107854000Y-54176000D01*
X107887333Y-54142666D01*
X107954000Y-54109333D01*
X107987333Y-54109333D01*
X108054000Y-54142666D01*
X108087333Y-54176000D01*
X108120666Y-54242666D01*
X108120666Y-54376000D01*
X108154000Y-54442666D01*
X108187333Y-54476000D01*
X108254000Y-54509333D01*
X108387333Y-54509333D01*
X108454000Y-54476000D01*
X108487333Y-54442666D01*
X108520666Y-54376000D01*
X108520666Y-54242666D01*
X108487333Y-54176000D01*
X108454000Y-54142666D01*
X108387333Y-54109333D01*
X108254000Y-54109333D01*
X108187333Y-54142666D01*
X108154000Y-54176000D01*
X108120666Y-54242666D01*
X107820666Y-53709333D02*
X107987333Y-53709333D01*
X107920666Y-53876000D02*
X107987333Y-53709333D01*
X107920666Y-53542666D01*
X108120666Y-53809333D02*
X107987333Y-53709333D01*
X108120666Y-53609333D01*
X107820666Y-52976000D02*
X107820666Y-53109333D01*
X107854000Y-53176000D01*
X107887333Y-53209333D01*
X107987333Y-53276000D01*
X108120666Y-53309333D01*
X108387333Y-53309333D01*
X108454000Y-53276000D01*
X108487333Y-53242666D01*
X108520666Y-53176000D01*
X108520666Y-53042666D01*
X108487333Y-52976000D01*
X108454000Y-52942666D01*
X108387333Y-52909333D01*
X108220666Y-52909333D01*
X108154000Y-52942666D01*
X108120666Y-52976000D01*
X108087333Y-53042666D01*
X108087333Y-53176000D01*
X108120666Y-53242666D01*
X108154000Y-53276000D01*
X108220666Y-53309333D01*
X108054000Y-52309333D02*
X108520666Y-52309333D01*
X107787333Y-52476000D02*
X108287333Y-52642666D01*
X108287333Y-52209333D01*
D11*
%TO.C,U5*%
X91567047Y-52812190D02*
X91567047Y-53216952D01*
X91590857Y-53264571D01*
X91614666Y-53288380D01*
X91662285Y-53312190D01*
X91757523Y-53312190D01*
X91805142Y-53288380D01*
X91828952Y-53264571D01*
X91852761Y-53216952D01*
X91852761Y-52812190D01*
X92328952Y-52812190D02*
X92090857Y-52812190D01*
X92067047Y-53050285D01*
X92090857Y-53026476D01*
X92138476Y-53002666D01*
X92257523Y-53002666D01*
X92305142Y-53026476D01*
X92328952Y-53050285D01*
X92352761Y-53097904D01*
X92352761Y-53216952D01*
X92328952Y-53264571D01*
X92305142Y-53288380D01*
X92257523Y-53312190D01*
X92138476Y-53312190D01*
X92090857Y-53288380D01*
X92067047Y-53264571D01*
%TO.C,R3*%
X101008666Y-62456190D02*
X100842000Y-62218095D01*
X100722952Y-62456190D02*
X100722952Y-61956190D01*
X100913428Y-61956190D01*
X100961047Y-61980000D01*
X100984857Y-62003809D01*
X101008666Y-62051428D01*
X101008666Y-62122857D01*
X100984857Y-62170476D01*
X100961047Y-62194285D01*
X100913428Y-62218095D01*
X100722952Y-62218095D01*
X101175333Y-61956190D02*
X101484857Y-61956190D01*
X101318190Y-62146666D01*
X101389619Y-62146666D01*
X101437238Y-62170476D01*
X101461047Y-62194285D01*
X101484857Y-62241904D01*
X101484857Y-62360952D01*
X101461047Y-62408571D01*
X101437238Y-62432380D01*
X101389619Y-62456190D01*
X101246761Y-62456190D01*
X101199142Y-62432380D01*
X101175333Y-62408571D01*
%TO.C,JP1*%
X99405333Y-71608190D02*
X99405333Y-71965333D01*
X99381523Y-72036761D01*
X99333904Y-72084380D01*
X99262476Y-72108190D01*
X99214857Y-72108190D01*
X99643428Y-72108190D02*
X99643428Y-71608190D01*
X99833904Y-71608190D01*
X99881523Y-71632000D01*
X99905333Y-71655809D01*
X99929142Y-71703428D01*
X99929142Y-71774857D01*
X99905333Y-71822476D01*
X99881523Y-71846285D01*
X99833904Y-71870095D01*
X99643428Y-71870095D01*
X100405333Y-72108190D02*
X100119619Y-72108190D01*
X100262476Y-72108190D02*
X100262476Y-71608190D01*
X100214857Y-71679619D01*
X100167238Y-71727238D01*
X100119619Y-71751047D01*
%TO.C,R14*%
X93912571Y-34516190D02*
X93745904Y-34278095D01*
X93626857Y-34516190D02*
X93626857Y-34016190D01*
X93817333Y-34016190D01*
X93864952Y-34040000D01*
X93888761Y-34063809D01*
X93912571Y-34111428D01*
X93912571Y-34182857D01*
X93888761Y-34230476D01*
X93864952Y-34254285D01*
X93817333Y-34278095D01*
X93626857Y-34278095D01*
X94388761Y-34516190D02*
X94103047Y-34516190D01*
X94245904Y-34516190D02*
X94245904Y-34016190D01*
X94198285Y-34087619D01*
X94150666Y-34135238D01*
X94103047Y-34159047D01*
X94817333Y-34182857D02*
X94817333Y-34516190D01*
X94698285Y-33992380D02*
X94579238Y-34349523D01*
X94888761Y-34349523D01*
%TO.C,RST_CP1*%
X102429619Y-82014190D02*
X102262952Y-81776095D01*
X102143904Y-82014190D02*
X102143904Y-81514190D01*
X102334380Y-81514190D01*
X102382000Y-81538000D01*
X102405809Y-81561809D01*
X102429619Y-81609428D01*
X102429619Y-81680857D01*
X102405809Y-81728476D01*
X102382000Y-81752285D01*
X102334380Y-81776095D01*
X102143904Y-81776095D01*
X102620095Y-81990380D02*
X102691523Y-82014190D01*
X102810571Y-82014190D01*
X102858190Y-81990380D01*
X102882000Y-81966571D01*
X102905809Y-81918952D01*
X102905809Y-81871333D01*
X102882000Y-81823714D01*
X102858190Y-81799904D01*
X102810571Y-81776095D01*
X102715333Y-81752285D01*
X102667714Y-81728476D01*
X102643904Y-81704666D01*
X102620095Y-81657047D01*
X102620095Y-81609428D01*
X102643904Y-81561809D01*
X102667714Y-81538000D01*
X102715333Y-81514190D01*
X102834380Y-81514190D01*
X102905809Y-81538000D01*
X103048666Y-81514190D02*
X103334380Y-81514190D01*
X103191523Y-82014190D02*
X103191523Y-81514190D01*
X103382000Y-82061809D02*
X103762952Y-82061809D01*
X104167714Y-81966571D02*
X104143904Y-81990380D01*
X104072476Y-82014190D01*
X104024857Y-82014190D01*
X103953428Y-81990380D01*
X103905809Y-81942761D01*
X103882000Y-81895142D01*
X103858190Y-81799904D01*
X103858190Y-81728476D01*
X103882000Y-81633238D01*
X103905809Y-81585619D01*
X103953428Y-81538000D01*
X104024857Y-81514190D01*
X104072476Y-81514190D01*
X104143904Y-81538000D01*
X104167714Y-81561809D01*
X104382000Y-82014190D02*
X104382000Y-81514190D01*
X104572476Y-81514190D01*
X104620095Y-81538000D01*
X104643904Y-81561809D01*
X104667714Y-81609428D01*
X104667714Y-81680857D01*
X104643904Y-81728476D01*
X104620095Y-81752285D01*
X104572476Y-81776095D01*
X104382000Y-81776095D01*
X105143904Y-82014190D02*
X104858190Y-82014190D01*
X105001047Y-82014190D02*
X105001047Y-81514190D01*
X104953428Y-81585619D01*
X104905809Y-81633238D01*
X104858190Y-81657047D01*
%TO.C,R23*%
X94166571Y-50518190D02*
X93999904Y-50280095D01*
X93880857Y-50518190D02*
X93880857Y-50018190D01*
X94071333Y-50018190D01*
X94118952Y-50042000D01*
X94142761Y-50065809D01*
X94166571Y-50113428D01*
X94166571Y-50184857D01*
X94142761Y-50232476D01*
X94118952Y-50256285D01*
X94071333Y-50280095D01*
X93880857Y-50280095D01*
X94357047Y-50065809D02*
X94380857Y-50042000D01*
X94428476Y-50018190D01*
X94547523Y-50018190D01*
X94595142Y-50042000D01*
X94618952Y-50065809D01*
X94642761Y-50113428D01*
X94642761Y-50161047D01*
X94618952Y-50232476D01*
X94333238Y-50518190D01*
X94642761Y-50518190D01*
X94809428Y-50018190D02*
X95118952Y-50018190D01*
X94952285Y-50208666D01*
X95023714Y-50208666D01*
X95071333Y-50232476D01*
X95095142Y-50256285D01*
X95118952Y-50303904D01*
X95118952Y-50422952D01*
X95095142Y-50470571D01*
X95071333Y-50494380D01*
X95023714Y-50518190D01*
X94880857Y-50518190D01*
X94833238Y-50494380D01*
X94809428Y-50470571D01*
%TO.C,C22*%
X86551571Y-62146571D02*
X86527761Y-62170380D01*
X86456333Y-62194190D01*
X86408714Y-62194190D01*
X86337285Y-62170380D01*
X86289666Y-62122761D01*
X86265857Y-62075142D01*
X86242047Y-61979904D01*
X86242047Y-61908476D01*
X86265857Y-61813238D01*
X86289666Y-61765619D01*
X86337285Y-61718000D01*
X86408714Y-61694190D01*
X86456333Y-61694190D01*
X86527761Y-61718000D01*
X86551571Y-61741809D01*
X86742047Y-61741809D02*
X86765857Y-61718000D01*
X86813476Y-61694190D01*
X86932523Y-61694190D01*
X86980142Y-61718000D01*
X87003952Y-61741809D01*
X87027761Y-61789428D01*
X87027761Y-61837047D01*
X87003952Y-61908476D01*
X86718238Y-62194190D01*
X87027761Y-62194190D01*
X87218238Y-61741809D02*
X87242047Y-61718000D01*
X87289666Y-61694190D01*
X87408714Y-61694190D01*
X87456333Y-61718000D01*
X87480142Y-61741809D01*
X87503952Y-61789428D01*
X87503952Y-61837047D01*
X87480142Y-61908476D01*
X87194428Y-62194190D01*
X87503952Y-62194190D01*
%TO.C,D-1*%
X95079428Y-74724190D02*
X95079428Y-74224190D01*
X95198476Y-74224190D01*
X95269904Y-74248000D01*
X95317523Y-74295619D01*
X95341333Y-74343238D01*
X95365142Y-74438476D01*
X95365142Y-74509904D01*
X95341333Y-74605142D01*
X95317523Y-74652761D01*
X95269904Y-74700380D01*
X95198476Y-74724190D01*
X95079428Y-74724190D01*
X95579428Y-74533714D02*
X95960380Y-74533714D01*
X96460380Y-74724190D02*
X96174666Y-74724190D01*
X96317523Y-74724190D02*
X96317523Y-74224190D01*
X96269904Y-74295619D01*
X96222285Y-74343238D01*
X96174666Y-74367047D01*
%TO.C,C15*%
X98738571Y-26594571D02*
X98714761Y-26618380D01*
X98643333Y-26642190D01*
X98595714Y-26642190D01*
X98524285Y-26618380D01*
X98476666Y-26570761D01*
X98452857Y-26523142D01*
X98429047Y-26427904D01*
X98429047Y-26356476D01*
X98452857Y-26261238D01*
X98476666Y-26213619D01*
X98524285Y-26166000D01*
X98595714Y-26142190D01*
X98643333Y-26142190D01*
X98714761Y-26166000D01*
X98738571Y-26189809D01*
X99214761Y-26642190D02*
X98929047Y-26642190D01*
X99071904Y-26642190D02*
X99071904Y-26142190D01*
X99024285Y-26213619D01*
X98976666Y-26261238D01*
X98929047Y-26285047D01*
X99667142Y-26142190D02*
X99429047Y-26142190D01*
X99405238Y-26380285D01*
X99429047Y-26356476D01*
X99476666Y-26332666D01*
X99595714Y-26332666D01*
X99643333Y-26356476D01*
X99667142Y-26380285D01*
X99690952Y-26427904D01*
X99690952Y-26546952D01*
X99667142Y-26594571D01*
X99643333Y-26618380D01*
X99595714Y-26642190D01*
X99476666Y-26642190D01*
X99429047Y-26618380D01*
X99405238Y-26594571D01*
%TO.C,R13*%
X89848571Y-35024190D02*
X89681904Y-34786095D01*
X89562857Y-35024190D02*
X89562857Y-34524190D01*
X89753333Y-34524190D01*
X89800952Y-34548000D01*
X89824761Y-34571809D01*
X89848571Y-34619428D01*
X89848571Y-34690857D01*
X89824761Y-34738476D01*
X89800952Y-34762285D01*
X89753333Y-34786095D01*
X89562857Y-34786095D01*
X90324761Y-35024190D02*
X90039047Y-35024190D01*
X90181904Y-35024190D02*
X90181904Y-34524190D01*
X90134285Y-34595619D01*
X90086666Y-34643238D01*
X90039047Y-34667047D01*
X90491428Y-34524190D02*
X90800952Y-34524190D01*
X90634285Y-34714666D01*
X90705714Y-34714666D01*
X90753333Y-34738476D01*
X90777142Y-34762285D01*
X90800952Y-34809904D01*
X90800952Y-34928952D01*
X90777142Y-34976571D01*
X90753333Y-35000380D01*
X90705714Y-35024190D01*
X90562857Y-35024190D01*
X90515238Y-35000380D01*
X90491428Y-34976571D01*
%TO.C,REF\u002A\u002A*%
X112871333Y-71854190D02*
X112704666Y-71616095D01*
X112585619Y-71854190D02*
X112585619Y-71354190D01*
X112776095Y-71354190D01*
X112823714Y-71378000D01*
X112847523Y-71401809D01*
X112871333Y-71449428D01*
X112871333Y-71520857D01*
X112847523Y-71568476D01*
X112823714Y-71592285D01*
X112776095Y-71616095D01*
X112585619Y-71616095D01*
X113085619Y-71592285D02*
X113252285Y-71592285D01*
X113323714Y-71854190D02*
X113085619Y-71854190D01*
X113085619Y-71354190D01*
X113323714Y-71354190D01*
X113704666Y-71592285D02*
X113538000Y-71592285D01*
X113538000Y-71854190D02*
X113538000Y-71354190D01*
X113776095Y-71354190D01*
X114038000Y-71354190D02*
X114038000Y-71473238D01*
X113918952Y-71425619D02*
X114038000Y-71473238D01*
X114157047Y-71425619D01*
X113966571Y-71568476D02*
X114038000Y-71473238D01*
X114109428Y-71568476D01*
X114418952Y-71354190D02*
X114418952Y-71473238D01*
X114299904Y-71425619D02*
X114418952Y-71473238D01*
X114538000Y-71425619D01*
X114347523Y-71568476D02*
X114418952Y-71473238D01*
X114490380Y-71568476D01*
%TO.C,R22*%
X87928571Y-60046190D02*
X87761904Y-59808095D01*
X87642857Y-60046190D02*
X87642857Y-59546190D01*
X87833333Y-59546190D01*
X87880952Y-59570000D01*
X87904761Y-59593809D01*
X87928571Y-59641428D01*
X87928571Y-59712857D01*
X87904761Y-59760476D01*
X87880952Y-59784285D01*
X87833333Y-59808095D01*
X87642857Y-59808095D01*
X88119047Y-59593809D02*
X88142857Y-59570000D01*
X88190476Y-59546190D01*
X88309523Y-59546190D01*
X88357142Y-59570000D01*
X88380952Y-59593809D01*
X88404761Y-59641428D01*
X88404761Y-59689047D01*
X88380952Y-59760476D01*
X88095238Y-60046190D01*
X88404761Y-60046190D01*
X88595238Y-59593809D02*
X88619047Y-59570000D01*
X88666666Y-59546190D01*
X88785714Y-59546190D01*
X88833333Y-59570000D01*
X88857142Y-59593809D01*
X88880952Y-59641428D01*
X88880952Y-59689047D01*
X88857142Y-59760476D01*
X88571428Y-60046190D01*
X88880952Y-60046190D01*
%TO.C,C20*%
X90423171Y-67879971D02*
X90399361Y-67903780D01*
X90327933Y-67927590D01*
X90280314Y-67927590D01*
X90208885Y-67903780D01*
X90161266Y-67856161D01*
X90137457Y-67808542D01*
X90113647Y-67713304D01*
X90113647Y-67641876D01*
X90137457Y-67546638D01*
X90161266Y-67499019D01*
X90208885Y-67451400D01*
X90280314Y-67427590D01*
X90327933Y-67427590D01*
X90399361Y-67451400D01*
X90423171Y-67475209D01*
X90613647Y-67475209D02*
X90637457Y-67451400D01*
X90685076Y-67427590D01*
X90804123Y-67427590D01*
X90851742Y-67451400D01*
X90875552Y-67475209D01*
X90899361Y-67522828D01*
X90899361Y-67570447D01*
X90875552Y-67641876D01*
X90589838Y-67927590D01*
X90899361Y-67927590D01*
X91208885Y-67427590D02*
X91256504Y-67427590D01*
X91304123Y-67451400D01*
X91327933Y-67475209D01*
X91351742Y-67522828D01*
X91375552Y-67618066D01*
X91375552Y-67737114D01*
X91351742Y-67832352D01*
X91327933Y-67879971D01*
X91304123Y-67903780D01*
X91256504Y-67927590D01*
X91208885Y-67927590D01*
X91161266Y-67903780D01*
X91137457Y-67879971D01*
X91113647Y-67832352D01*
X91089838Y-67737114D01*
X91089838Y-67618066D01*
X91113647Y-67522828D01*
X91137457Y-67475209D01*
X91161266Y-67451400D01*
X91208885Y-67427590D01*
%TO.C,R8*%
X104056666Y-31722190D02*
X103890000Y-31484095D01*
X103770952Y-31722190D02*
X103770952Y-31222190D01*
X103961428Y-31222190D01*
X104009047Y-31246000D01*
X104032857Y-31269809D01*
X104056666Y-31317428D01*
X104056666Y-31388857D01*
X104032857Y-31436476D01*
X104009047Y-31460285D01*
X103961428Y-31484095D01*
X103770952Y-31484095D01*
X104342380Y-31436476D02*
X104294761Y-31412666D01*
X104270952Y-31388857D01*
X104247142Y-31341238D01*
X104247142Y-31317428D01*
X104270952Y-31269809D01*
X104294761Y-31246000D01*
X104342380Y-31222190D01*
X104437619Y-31222190D01*
X104485238Y-31246000D01*
X104509047Y-31269809D01*
X104532857Y-31317428D01*
X104532857Y-31341238D01*
X104509047Y-31388857D01*
X104485238Y-31412666D01*
X104437619Y-31436476D01*
X104342380Y-31436476D01*
X104294761Y-31460285D01*
X104270952Y-31484095D01*
X104247142Y-31531714D01*
X104247142Y-31626952D01*
X104270952Y-31674571D01*
X104294761Y-31698380D01*
X104342380Y-31722190D01*
X104437619Y-31722190D01*
X104485238Y-31698380D01*
X104509047Y-31674571D01*
X104532857Y-31626952D01*
X104532857Y-31531714D01*
X104509047Y-31484095D01*
X104485238Y-31460285D01*
X104437619Y-31436476D01*
%TO.C,R20*%
X103192571Y-40990190D02*
X103025904Y-40752095D01*
X102906857Y-40990190D02*
X102906857Y-40490190D01*
X103097333Y-40490190D01*
X103144952Y-40514000D01*
X103168761Y-40537809D01*
X103192571Y-40585428D01*
X103192571Y-40656857D01*
X103168761Y-40704476D01*
X103144952Y-40728285D01*
X103097333Y-40752095D01*
X102906857Y-40752095D01*
X103383047Y-40537809D02*
X103406857Y-40514000D01*
X103454476Y-40490190D01*
X103573523Y-40490190D01*
X103621142Y-40514000D01*
X103644952Y-40537809D01*
X103668761Y-40585428D01*
X103668761Y-40633047D01*
X103644952Y-40704476D01*
X103359238Y-40990190D01*
X103668761Y-40990190D01*
X103978285Y-40490190D02*
X104025904Y-40490190D01*
X104073523Y-40514000D01*
X104097333Y-40537809D01*
X104121142Y-40585428D01*
X104144952Y-40680666D01*
X104144952Y-40799714D01*
X104121142Y-40894952D01*
X104097333Y-40942571D01*
X104073523Y-40966380D01*
X104025904Y-40990190D01*
X103978285Y-40990190D01*
X103930666Y-40966380D01*
X103906857Y-40942571D01*
X103883047Y-40894952D01*
X103859238Y-40799714D01*
X103859238Y-40680666D01*
X103883047Y-40585428D01*
X103906857Y-40537809D01*
X103930666Y-40514000D01*
X103978285Y-40490190D01*
%TO.C,R26*%
X91118571Y-57884190D02*
X90951904Y-57646095D01*
X90832857Y-57884190D02*
X90832857Y-57384190D01*
X91023333Y-57384190D01*
X91070952Y-57408000D01*
X91094761Y-57431809D01*
X91118571Y-57479428D01*
X91118571Y-57550857D01*
X91094761Y-57598476D01*
X91070952Y-57622285D01*
X91023333Y-57646095D01*
X90832857Y-57646095D01*
X91309047Y-57431809D02*
X91332857Y-57408000D01*
X91380476Y-57384190D01*
X91499523Y-57384190D01*
X91547142Y-57408000D01*
X91570952Y-57431809D01*
X91594761Y-57479428D01*
X91594761Y-57527047D01*
X91570952Y-57598476D01*
X91285238Y-57884190D01*
X91594761Y-57884190D01*
X92023333Y-57384190D02*
X91928095Y-57384190D01*
X91880476Y-57408000D01*
X91856666Y-57431809D01*
X91809047Y-57503238D01*
X91785238Y-57598476D01*
X91785238Y-57788952D01*
X91809047Y-57836571D01*
X91832857Y-57860380D01*
X91880476Y-57884190D01*
X91975714Y-57884190D01*
X92023333Y-57860380D01*
X92047142Y-57836571D01*
X92070952Y-57788952D01*
X92070952Y-57669904D01*
X92047142Y-57622285D01*
X92023333Y-57598476D01*
X91975714Y-57574666D01*
X91880476Y-57574666D01*
X91832857Y-57598476D01*
X91809047Y-57622285D01*
X91785238Y-57669904D01*
%TO.C,Q1*%
X101044380Y-54629809D02*
X100996761Y-54606000D01*
X100949142Y-54558380D01*
X100877714Y-54486952D01*
X100830095Y-54463142D01*
X100782476Y-54463142D01*
X100806285Y-54582190D02*
X100758666Y-54558380D01*
X100711047Y-54510761D01*
X100687238Y-54415523D01*
X100687238Y-54248857D01*
X100711047Y-54153619D01*
X100758666Y-54106000D01*
X100806285Y-54082190D01*
X100901523Y-54082190D01*
X100949142Y-54106000D01*
X100996761Y-54153619D01*
X101020571Y-54248857D01*
X101020571Y-54415523D01*
X100996761Y-54510761D01*
X100949142Y-54558380D01*
X100901523Y-54582190D01*
X100806285Y-54582190D01*
X101496761Y-54582190D02*
X101211047Y-54582190D01*
X101353904Y-54582190D02*
X101353904Y-54082190D01*
X101306285Y-54153619D01*
X101258666Y-54201238D01*
X101211047Y-54225047D01*
%TO.C,REF\u002A\u002A*%
X111347333Y-34770190D02*
X111180666Y-34532095D01*
X111061619Y-34770190D02*
X111061619Y-34270190D01*
X111252095Y-34270190D01*
X111299714Y-34294000D01*
X111323523Y-34317809D01*
X111347333Y-34365428D01*
X111347333Y-34436857D01*
X111323523Y-34484476D01*
X111299714Y-34508285D01*
X111252095Y-34532095D01*
X111061619Y-34532095D01*
X111561619Y-34508285D02*
X111728285Y-34508285D01*
X111799714Y-34770190D02*
X111561619Y-34770190D01*
X111561619Y-34270190D01*
X111799714Y-34270190D01*
X112180666Y-34508285D02*
X112014000Y-34508285D01*
X112014000Y-34770190D02*
X112014000Y-34270190D01*
X112252095Y-34270190D01*
X112514000Y-34270190D02*
X112514000Y-34389238D01*
X112394952Y-34341619D02*
X112514000Y-34389238D01*
X112633047Y-34341619D01*
X112442571Y-34484476D02*
X112514000Y-34389238D01*
X112585428Y-34484476D01*
X112894952Y-34270190D02*
X112894952Y-34389238D01*
X112775904Y-34341619D02*
X112894952Y-34389238D01*
X113014000Y-34341619D01*
X112823523Y-34484476D02*
X112894952Y-34389238D01*
X112966380Y-34484476D01*
%TO.C,R7*%
X107912666Y-84324190D02*
X107746000Y-84086095D01*
X107626952Y-84324190D02*
X107626952Y-83824190D01*
X107817428Y-83824190D01*
X107865047Y-83848000D01*
X107888857Y-83871809D01*
X107912666Y-83919428D01*
X107912666Y-83990857D01*
X107888857Y-84038476D01*
X107865047Y-84062285D01*
X107817428Y-84086095D01*
X107626952Y-84086095D01*
X108079333Y-83824190D02*
X108412666Y-83824190D01*
X108198380Y-84324190D01*
%TO.C,C11*%
X102040571Y-29819151D02*
X102016761Y-29842960D01*
X101945333Y-29866770D01*
X101897714Y-29866770D01*
X101826285Y-29842960D01*
X101778666Y-29795341D01*
X101754857Y-29747722D01*
X101731047Y-29652484D01*
X101731047Y-29581056D01*
X101754857Y-29485818D01*
X101778666Y-29438199D01*
X101826285Y-29390580D01*
X101897714Y-29366770D01*
X101945333Y-29366770D01*
X102016761Y-29390580D01*
X102040571Y-29414389D01*
X102516761Y-29866770D02*
X102231047Y-29866770D01*
X102373904Y-29866770D02*
X102373904Y-29366770D01*
X102326285Y-29438199D01*
X102278666Y-29485818D01*
X102231047Y-29509627D01*
X102992952Y-29866770D02*
X102707238Y-29866770D01*
X102850095Y-29866770D02*
X102850095Y-29366770D01*
X102802476Y-29438199D01*
X102754857Y-29485818D01*
X102707238Y-29509627D01*
%TO.C,R25*%
X89848571Y-46200190D02*
X89681904Y-45962095D01*
X89562857Y-46200190D02*
X89562857Y-45700190D01*
X89753333Y-45700190D01*
X89800952Y-45724000D01*
X89824761Y-45747809D01*
X89848571Y-45795428D01*
X89848571Y-45866857D01*
X89824761Y-45914476D01*
X89800952Y-45938285D01*
X89753333Y-45962095D01*
X89562857Y-45962095D01*
X90039047Y-45747809D02*
X90062857Y-45724000D01*
X90110476Y-45700190D01*
X90229523Y-45700190D01*
X90277142Y-45724000D01*
X90300952Y-45747809D01*
X90324761Y-45795428D01*
X90324761Y-45843047D01*
X90300952Y-45914476D01*
X90015238Y-46200190D01*
X90324761Y-46200190D01*
X90777142Y-45700190D02*
X90539047Y-45700190D01*
X90515238Y-45938285D01*
X90539047Y-45914476D01*
X90586666Y-45890666D01*
X90705714Y-45890666D01*
X90753333Y-45914476D01*
X90777142Y-45938285D01*
X90800952Y-45985904D01*
X90800952Y-46104952D01*
X90777142Y-46152571D01*
X90753333Y-46176380D01*
X90705714Y-46200190D01*
X90586666Y-46200190D01*
X90539047Y-46176380D01*
X90515238Y-46152571D01*
%TO.C,R9*%
X105834666Y-27404190D02*
X105668000Y-27166095D01*
X105548952Y-27404190D02*
X105548952Y-26904190D01*
X105739428Y-26904190D01*
X105787047Y-26928000D01*
X105810857Y-26951809D01*
X105834666Y-26999428D01*
X105834666Y-27070857D01*
X105810857Y-27118476D01*
X105787047Y-27142285D01*
X105739428Y-27166095D01*
X105548952Y-27166095D01*
X106072761Y-27404190D02*
X106168000Y-27404190D01*
X106215619Y-27380380D01*
X106239428Y-27356571D01*
X106287047Y-27285142D01*
X106310857Y-27189904D01*
X106310857Y-26999428D01*
X106287047Y-26951809D01*
X106263238Y-26928000D01*
X106215619Y-26904190D01*
X106120380Y-26904190D01*
X106072761Y-26928000D01*
X106048952Y-26951809D01*
X106025142Y-26999428D01*
X106025142Y-27118476D01*
X106048952Y-27166095D01*
X106072761Y-27189904D01*
X106120380Y-27213714D01*
X106215619Y-27213714D01*
X106263238Y-27189904D01*
X106287047Y-27166095D01*
X106310857Y-27118476D01*
%TO.C,U4*%
X94869047Y-59162190D02*
X94869047Y-59566952D01*
X94892857Y-59614571D01*
X94916666Y-59638380D01*
X94964285Y-59662190D01*
X95059523Y-59662190D01*
X95107142Y-59638380D01*
X95130952Y-59614571D01*
X95154761Y-59566952D01*
X95154761Y-59162190D01*
X95607142Y-59328857D02*
X95607142Y-59662190D01*
X95488095Y-59138380D02*
X95369047Y-59495523D01*
X95678571Y-59495523D01*
%TO.C,SELECT1*%
X92017860Y-30432200D02*
X92041670Y-30360771D01*
X92041670Y-30241724D01*
X92017860Y-30194105D01*
X91994051Y-30170295D01*
X91946432Y-30146486D01*
X91898813Y-30146486D01*
X91851194Y-30170295D01*
X91827384Y-30194105D01*
X91803575Y-30241724D01*
X91779765Y-30336962D01*
X91755956Y-30384581D01*
X91732146Y-30408390D01*
X91684527Y-30432200D01*
X91636908Y-30432200D01*
X91589289Y-30408390D01*
X91565480Y-30384581D01*
X91541670Y-30336962D01*
X91541670Y-30217914D01*
X91565480Y-30146486D01*
X91779765Y-29932200D02*
X91779765Y-29765533D01*
X92041670Y-29694105D02*
X92041670Y-29932200D01*
X91541670Y-29932200D01*
X91541670Y-29694105D01*
X92041670Y-29241724D02*
X92041670Y-29479819D01*
X91541670Y-29479819D01*
X91779765Y-29075057D02*
X91779765Y-28908390D01*
X92041670Y-28836962D02*
X92041670Y-29075057D01*
X91541670Y-29075057D01*
X91541670Y-28836962D01*
X91994051Y-28336962D02*
X92017860Y-28360771D01*
X92041670Y-28432200D01*
X92041670Y-28479819D01*
X92017860Y-28551248D01*
X91970241Y-28598867D01*
X91922622Y-28622676D01*
X91827384Y-28646486D01*
X91755956Y-28646486D01*
X91660718Y-28622676D01*
X91613099Y-28598867D01*
X91565480Y-28551248D01*
X91541670Y-28479819D01*
X91541670Y-28432200D01*
X91565480Y-28360771D01*
X91589289Y-28336962D01*
X91541670Y-28194105D02*
X91541670Y-27908390D01*
X92041670Y-28051248D02*
X91541670Y-28051248D01*
X92041670Y-27479819D02*
X92041670Y-27765533D01*
X92041670Y-27622676D02*
X91541670Y-27622676D01*
X91613099Y-27670295D01*
X91660718Y-27717914D01*
X91684527Y-27765533D01*
%TO.C,R12*%
X88832571Y-25626190D02*
X88665904Y-25388095D01*
X88546857Y-25626190D02*
X88546857Y-25126190D01*
X88737333Y-25126190D01*
X88784952Y-25150000D01*
X88808761Y-25173809D01*
X88832571Y-25221428D01*
X88832571Y-25292857D01*
X88808761Y-25340476D01*
X88784952Y-25364285D01*
X88737333Y-25388095D01*
X88546857Y-25388095D01*
X89308761Y-25626190D02*
X89023047Y-25626190D01*
X89165904Y-25626190D02*
X89165904Y-25126190D01*
X89118285Y-25197619D01*
X89070666Y-25245238D01*
X89023047Y-25269047D01*
X89499238Y-25173809D02*
X89523047Y-25150000D01*
X89570666Y-25126190D01*
X89689714Y-25126190D01*
X89737333Y-25150000D01*
X89761142Y-25173809D01*
X89784952Y-25221428D01*
X89784952Y-25269047D01*
X89761142Y-25340476D01*
X89475428Y-25626190D01*
X89784952Y-25626190D01*
%TO.C,C21*%
X88678571Y-62146571D02*
X88654761Y-62170380D01*
X88583333Y-62194190D01*
X88535714Y-62194190D01*
X88464285Y-62170380D01*
X88416666Y-62122761D01*
X88392857Y-62075142D01*
X88369047Y-61979904D01*
X88369047Y-61908476D01*
X88392857Y-61813238D01*
X88416666Y-61765619D01*
X88464285Y-61718000D01*
X88535714Y-61694190D01*
X88583333Y-61694190D01*
X88654761Y-61718000D01*
X88678571Y-61741809D01*
X88869047Y-61741809D02*
X88892857Y-61718000D01*
X88940476Y-61694190D01*
X89059523Y-61694190D01*
X89107142Y-61718000D01*
X89130952Y-61741809D01*
X89154761Y-61789428D01*
X89154761Y-61837047D01*
X89130952Y-61908476D01*
X88845238Y-62194190D01*
X89154761Y-62194190D01*
X89630952Y-62194190D02*
X89345238Y-62194190D01*
X89488095Y-62194190D02*
X89488095Y-61694190D01*
X89440476Y-61765619D01*
X89392857Y-61813238D01*
X89345238Y-61837047D01*
%TO.C,REF\u002A\u002A*%
X78327333Y-76426190D02*
X78160666Y-76188095D01*
X78041619Y-76426190D02*
X78041619Y-75926190D01*
X78232095Y-75926190D01*
X78279714Y-75950000D01*
X78303523Y-75973809D01*
X78327333Y-76021428D01*
X78327333Y-76092857D01*
X78303523Y-76140476D01*
X78279714Y-76164285D01*
X78232095Y-76188095D01*
X78041619Y-76188095D01*
X78541619Y-76164285D02*
X78708285Y-76164285D01*
X78779714Y-76426190D02*
X78541619Y-76426190D01*
X78541619Y-75926190D01*
X78779714Y-75926190D01*
X79160666Y-76164285D02*
X78994000Y-76164285D01*
X78994000Y-76426190D02*
X78994000Y-75926190D01*
X79232095Y-75926190D01*
X79494000Y-75926190D02*
X79494000Y-76045238D01*
X79374952Y-75997619D02*
X79494000Y-76045238D01*
X79613047Y-75997619D01*
X79422571Y-76140476D02*
X79494000Y-76045238D01*
X79565428Y-76140476D01*
X79874952Y-75926190D02*
X79874952Y-76045238D01*
X79755904Y-75997619D02*
X79874952Y-76045238D01*
X79994000Y-75997619D01*
X79803523Y-76140476D02*
X79874952Y-76045238D01*
X79946380Y-76140476D01*
%TO.C,C2*%
X100754666Y-80696571D02*
X100730857Y-80720380D01*
X100659428Y-80744190D01*
X100611809Y-80744190D01*
X100540380Y-80720380D01*
X100492761Y-80672761D01*
X100468952Y-80625142D01*
X100445142Y-80529904D01*
X100445142Y-80458476D01*
X100468952Y-80363238D01*
X100492761Y-80315619D01*
X100540380Y-80268000D01*
X100611809Y-80244190D01*
X100659428Y-80244190D01*
X100730857Y-80268000D01*
X100754666Y-80291809D01*
X100945142Y-80291809D02*
X100968952Y-80268000D01*
X101016571Y-80244190D01*
X101135619Y-80244190D01*
X101183238Y-80268000D01*
X101207047Y-80291809D01*
X101230857Y-80339428D01*
X101230857Y-80387047D01*
X101207047Y-80458476D01*
X100921333Y-80744190D01*
X101230857Y-80744190D01*
%TO.C,U6*%
X106152190Y-54990952D02*
X106556952Y-54990952D01*
X106604571Y-54967142D01*
X106628380Y-54943333D01*
X106652190Y-54895714D01*
X106652190Y-54800476D01*
X106628380Y-54752857D01*
X106604571Y-54729047D01*
X106556952Y-54705238D01*
X106152190Y-54705238D01*
X106152190Y-54252857D02*
X106152190Y-54348095D01*
X106176000Y-54395714D01*
X106199809Y-54419523D01*
X106271238Y-54467142D01*
X106366476Y-54490952D01*
X106556952Y-54490952D01*
X106604571Y-54467142D01*
X106628380Y-54443333D01*
X106652190Y-54395714D01*
X106652190Y-54300476D01*
X106628380Y-54252857D01*
X106604571Y-54229047D01*
X106556952Y-54205238D01*
X106437904Y-54205238D01*
X106390285Y-54229047D01*
X106366476Y-54252857D01*
X106342666Y-54300476D01*
X106342666Y-54395714D01*
X106366476Y-54443333D01*
X106390285Y-54467142D01*
X106437904Y-54490952D01*
%TO.C,R5*%
X97198666Y-45179990D02*
X97032000Y-44941895D01*
X96912952Y-45179990D02*
X96912952Y-44679990D01*
X97103428Y-44679990D01*
X97151047Y-44703800D01*
X97174857Y-44727609D01*
X97198666Y-44775228D01*
X97198666Y-44846657D01*
X97174857Y-44894276D01*
X97151047Y-44918085D01*
X97103428Y-44941895D01*
X96912952Y-44941895D01*
X97651047Y-44679990D02*
X97412952Y-44679990D01*
X97389142Y-44918085D01*
X97412952Y-44894276D01*
X97460571Y-44870466D01*
X97579619Y-44870466D01*
X97627238Y-44894276D01*
X97651047Y-44918085D01*
X97674857Y-44965704D01*
X97674857Y-45084752D01*
X97651047Y-45132371D01*
X97627238Y-45156180D01*
X97579619Y-45179990D01*
X97460571Y-45179990D01*
X97412952Y-45156180D01*
X97389142Y-45132371D01*
%TO.C,RA1*%
X85046380Y-30960190D02*
X84879714Y-30722095D01*
X84760666Y-30960190D02*
X84760666Y-30460190D01*
X84951142Y-30460190D01*
X84998761Y-30484000D01*
X85022571Y-30507809D01*
X85046380Y-30555428D01*
X85046380Y-30626857D01*
X85022571Y-30674476D01*
X84998761Y-30698285D01*
X84951142Y-30722095D01*
X84760666Y-30722095D01*
X85236857Y-30817333D02*
X85474952Y-30817333D01*
X85189238Y-30960190D02*
X85355904Y-30460190D01*
X85522571Y-30960190D01*
X85951142Y-30960190D02*
X85665428Y-30960190D01*
X85808285Y-30960190D02*
X85808285Y-30460190D01*
X85760666Y-30531619D01*
X85713047Y-30579238D01*
X85665428Y-30603047D01*
%TO.C,C17*%
X107120571Y-26848571D02*
X107096761Y-26872380D01*
X107025333Y-26896190D01*
X106977714Y-26896190D01*
X106906285Y-26872380D01*
X106858666Y-26824761D01*
X106834857Y-26777142D01*
X106811047Y-26681904D01*
X106811047Y-26610476D01*
X106834857Y-26515238D01*
X106858666Y-26467619D01*
X106906285Y-26420000D01*
X106977714Y-26396190D01*
X107025333Y-26396190D01*
X107096761Y-26420000D01*
X107120571Y-26443809D01*
X107596761Y-26896190D02*
X107311047Y-26896190D01*
X107453904Y-26896190D02*
X107453904Y-26396190D01*
X107406285Y-26467619D01*
X107358666Y-26515238D01*
X107311047Y-26539047D01*
X107763428Y-26396190D02*
X108096761Y-26396190D01*
X107882476Y-26896190D01*
%TO.C,D+1*%
X97365428Y-74724190D02*
X97365428Y-74224190D01*
X97484476Y-74224190D01*
X97555904Y-74248000D01*
X97603523Y-74295619D01*
X97627333Y-74343238D01*
X97651142Y-74438476D01*
X97651142Y-74509904D01*
X97627333Y-74605142D01*
X97603523Y-74652761D01*
X97555904Y-74700380D01*
X97484476Y-74724190D01*
X97365428Y-74724190D01*
X97865428Y-74533714D02*
X98246380Y-74533714D01*
X98055904Y-74724190D02*
X98055904Y-74343238D01*
X98746380Y-74724190D02*
X98460666Y-74724190D01*
X98603523Y-74724190D02*
X98603523Y-74224190D01*
X98555904Y-74295619D01*
X98508285Y-74343238D01*
X98460666Y-74367047D01*
%TO.C,C24*%
X89848571Y-47930571D02*
X89824761Y-47954380D01*
X89753333Y-47978190D01*
X89705714Y-47978190D01*
X89634285Y-47954380D01*
X89586666Y-47906761D01*
X89562857Y-47859142D01*
X89539047Y-47763904D01*
X89539047Y-47692476D01*
X89562857Y-47597238D01*
X89586666Y-47549619D01*
X89634285Y-47502000D01*
X89705714Y-47478190D01*
X89753333Y-47478190D01*
X89824761Y-47502000D01*
X89848571Y-47525809D01*
X90039047Y-47525809D02*
X90062857Y-47502000D01*
X90110476Y-47478190D01*
X90229523Y-47478190D01*
X90277142Y-47502000D01*
X90300952Y-47525809D01*
X90324761Y-47573428D01*
X90324761Y-47621047D01*
X90300952Y-47692476D01*
X90015238Y-47978190D01*
X90324761Y-47978190D01*
X90753333Y-47644857D02*
X90753333Y-47978190D01*
X90634285Y-47454380D02*
X90515238Y-47811523D01*
X90824761Y-47811523D01*
%TO.C,C10*%
X107628571Y-29896571D02*
X107604761Y-29920380D01*
X107533333Y-29944190D01*
X107485714Y-29944190D01*
X107414285Y-29920380D01*
X107366666Y-29872761D01*
X107342857Y-29825142D01*
X107319047Y-29729904D01*
X107319047Y-29658476D01*
X107342857Y-29563238D01*
X107366666Y-29515619D01*
X107414285Y-29468000D01*
X107485714Y-29444190D01*
X107533333Y-29444190D01*
X107604761Y-29468000D01*
X107628571Y-29491809D01*
X108104761Y-29944190D02*
X107819047Y-29944190D01*
X107961904Y-29944190D02*
X107961904Y-29444190D01*
X107914285Y-29515619D01*
X107866666Y-29563238D01*
X107819047Y-29587047D01*
X108414285Y-29444190D02*
X108461904Y-29444190D01*
X108509523Y-29468000D01*
X108533333Y-29491809D01*
X108557142Y-29539428D01*
X108580952Y-29634666D01*
X108580952Y-29753714D01*
X108557142Y-29848952D01*
X108533333Y-29896571D01*
X108509523Y-29920380D01*
X108461904Y-29944190D01*
X108414285Y-29944190D01*
X108366666Y-29920380D01*
X108342857Y-29896571D01*
X108319047Y-29848952D01*
X108295238Y-29753714D01*
X108295238Y-29634666D01*
X108319047Y-29539428D01*
X108342857Y-29491809D01*
X108366666Y-29468000D01*
X108414285Y-29444190D01*
%TO.C,R16*%
X90356571Y-42390190D02*
X90189904Y-42152095D01*
X90070857Y-42390190D02*
X90070857Y-41890190D01*
X90261333Y-41890190D01*
X90308952Y-41914000D01*
X90332761Y-41937809D01*
X90356571Y-41985428D01*
X90356571Y-42056857D01*
X90332761Y-42104476D01*
X90308952Y-42128285D01*
X90261333Y-42152095D01*
X90070857Y-42152095D01*
X90832761Y-42390190D02*
X90547047Y-42390190D01*
X90689904Y-42390190D02*
X90689904Y-41890190D01*
X90642285Y-41961619D01*
X90594666Y-42009238D01*
X90547047Y-42033047D01*
X91261333Y-41890190D02*
X91166095Y-41890190D01*
X91118476Y-41914000D01*
X91094666Y-41937809D01*
X91047047Y-42009238D01*
X91023238Y-42104476D01*
X91023238Y-42294952D01*
X91047047Y-42342571D01*
X91070857Y-42366380D01*
X91118476Y-42390190D01*
X91213714Y-42390190D01*
X91261333Y-42366380D01*
X91285142Y-42342571D01*
X91308952Y-42294952D01*
X91308952Y-42175904D01*
X91285142Y-42128285D01*
X91261333Y-42104476D01*
X91213714Y-42080666D01*
X91118476Y-42080666D01*
X91070857Y-42104476D01*
X91047047Y-42128285D01*
X91023238Y-42175904D01*
%TO.C,C4*%
X102278666Y-64694571D02*
X102254857Y-64718380D01*
X102183428Y-64742190D01*
X102135809Y-64742190D01*
X102064380Y-64718380D01*
X102016761Y-64670761D01*
X101992952Y-64623142D01*
X101969142Y-64527904D01*
X101969142Y-64456476D01*
X101992952Y-64361238D01*
X102016761Y-64313619D01*
X102064380Y-64266000D01*
X102135809Y-64242190D01*
X102183428Y-64242190D01*
X102254857Y-64266000D01*
X102278666Y-64289809D01*
X102707238Y-64408857D02*
X102707238Y-64742190D01*
X102588190Y-64218380D02*
X102469142Y-64575523D01*
X102778666Y-64575523D01*
%TO.C,B_TEMP1*%
X88154761Y-50016285D02*
X88226190Y-50040095D01*
X88250000Y-50063904D01*
X88273809Y-50111523D01*
X88273809Y-50182952D01*
X88250000Y-50230571D01*
X88226190Y-50254380D01*
X88178571Y-50278190D01*
X87988095Y-50278190D01*
X87988095Y-49778190D01*
X88154761Y-49778190D01*
X88202380Y-49802000D01*
X88226190Y-49825809D01*
X88250000Y-49873428D01*
X88250000Y-49921047D01*
X88226190Y-49968666D01*
X88202380Y-49992476D01*
X88154761Y-50016285D01*
X87988095Y-50016285D01*
X88369047Y-50325809D02*
X88750000Y-50325809D01*
X88797619Y-49778190D02*
X89083333Y-49778190D01*
X88940476Y-50278190D02*
X88940476Y-49778190D01*
X89250000Y-50016285D02*
X89416666Y-50016285D01*
X89488095Y-50278190D02*
X89250000Y-50278190D01*
X89250000Y-49778190D01*
X89488095Y-49778190D01*
X89702380Y-50278190D02*
X89702380Y-49778190D01*
X89869047Y-50135333D01*
X90035714Y-49778190D01*
X90035714Y-50278190D01*
X90273809Y-50278190D02*
X90273809Y-49778190D01*
X90464285Y-49778190D01*
X90511904Y-49802000D01*
X90535714Y-49825809D01*
X90559523Y-49873428D01*
X90559523Y-49944857D01*
X90535714Y-49992476D01*
X90511904Y-50016285D01*
X90464285Y-50040095D01*
X90273809Y-50040095D01*
X91035714Y-50278190D02*
X90750000Y-50278190D01*
X90892857Y-50278190D02*
X90892857Y-49778190D01*
X90845238Y-49849619D01*
X90797619Y-49897238D01*
X90750000Y-49921047D01*
%TO.C,RL1*%
X87598285Y-40104190D02*
X87431619Y-39866095D01*
X87312571Y-40104190D02*
X87312571Y-39604190D01*
X87503047Y-39604190D01*
X87550666Y-39628000D01*
X87574476Y-39651809D01*
X87598285Y-39699428D01*
X87598285Y-39770857D01*
X87574476Y-39818476D01*
X87550666Y-39842285D01*
X87503047Y-39866095D01*
X87312571Y-39866095D01*
X88050666Y-40104190D02*
X87812571Y-40104190D01*
X87812571Y-39604190D01*
X88479238Y-40104190D02*
X88193523Y-40104190D01*
X88336380Y-40104190D02*
X88336380Y-39604190D01*
X88288761Y-39675619D01*
X88241142Y-39723238D01*
X88193523Y-39747047D01*
%TO.C,C5*%
X105936571Y-62313333D02*
X105960380Y-62337142D01*
X105984190Y-62408571D01*
X105984190Y-62456190D01*
X105960380Y-62527619D01*
X105912761Y-62575238D01*
X105865142Y-62599047D01*
X105769904Y-62622857D01*
X105698476Y-62622857D01*
X105603238Y-62599047D01*
X105555619Y-62575238D01*
X105508000Y-62527619D01*
X105484190Y-62456190D01*
X105484190Y-62408571D01*
X105508000Y-62337142D01*
X105531809Y-62313333D01*
X105484190Y-61860952D02*
X105484190Y-62099047D01*
X105722285Y-62122857D01*
X105698476Y-62099047D01*
X105674666Y-62051428D01*
X105674666Y-61932380D01*
X105698476Y-61884761D01*
X105722285Y-61860952D01*
X105769904Y-61837142D01*
X105888952Y-61837142D01*
X105936571Y-61860952D01*
X105960380Y-61884761D01*
X105984190Y-61932380D01*
X105984190Y-62051428D01*
X105960380Y-62099047D01*
X105936571Y-62122857D01*
%TO.C,R4*%
X107866666Y-47486932D02*
X107700000Y-47248837D01*
X107580952Y-47486932D02*
X107580952Y-46986932D01*
X107771428Y-46986932D01*
X107819047Y-47010742D01*
X107842857Y-47034551D01*
X107866666Y-47082170D01*
X107866666Y-47153599D01*
X107842857Y-47201218D01*
X107819047Y-47225027D01*
X107771428Y-47248837D01*
X107580952Y-47248837D01*
X108295238Y-47153599D02*
X108295238Y-47486932D01*
X108176190Y-46963122D02*
X108057142Y-47320265D01*
X108366666Y-47320265D01*
%TO.C,R6*%
X95725990Y-52204133D02*
X95487895Y-52370800D01*
X95725990Y-52489847D02*
X95225990Y-52489847D01*
X95225990Y-52299371D01*
X95249800Y-52251752D01*
X95273609Y-52227942D01*
X95321228Y-52204133D01*
X95392657Y-52204133D01*
X95440276Y-52227942D01*
X95464085Y-52251752D01*
X95487895Y-52299371D01*
X95487895Y-52489847D01*
X95225990Y-51775561D02*
X95225990Y-51870800D01*
X95249800Y-51918419D01*
X95273609Y-51942228D01*
X95345038Y-51989847D01*
X95440276Y-52013657D01*
X95630752Y-52013657D01*
X95678371Y-51989847D01*
X95702180Y-51966038D01*
X95725990Y-51918419D01*
X95725990Y-51823180D01*
X95702180Y-51775561D01*
X95678371Y-51751752D01*
X95630752Y-51727942D01*
X95511704Y-51727942D01*
X95464085Y-51751752D01*
X95440276Y-51775561D01*
X95416466Y-51823180D01*
X95416466Y-51918419D01*
X95440276Y-51966038D01*
X95464085Y-51989847D01*
X95511704Y-52013657D01*
%TO.C,R21*%
X98928571Y-42644190D02*
X98761904Y-42406095D01*
X98642857Y-42644190D02*
X98642857Y-42144190D01*
X98833333Y-42144190D01*
X98880952Y-42168000D01*
X98904761Y-42191809D01*
X98928571Y-42239428D01*
X98928571Y-42310857D01*
X98904761Y-42358476D01*
X98880952Y-42382285D01*
X98833333Y-42406095D01*
X98642857Y-42406095D01*
X99119047Y-42191809D02*
X99142857Y-42168000D01*
X99190476Y-42144190D01*
X99309523Y-42144190D01*
X99357142Y-42168000D01*
X99380952Y-42191809D01*
X99404761Y-42239428D01*
X99404761Y-42287047D01*
X99380952Y-42358476D01*
X99095238Y-42644190D01*
X99404761Y-42644190D01*
X99880952Y-42644190D02*
X99595238Y-42644190D01*
X99738095Y-42644190D02*
X99738095Y-42144190D01*
X99690476Y-42215619D01*
X99642857Y-42263238D01*
X99595238Y-42287047D01*
%TO.C,R10*%
X102548571Y-26896190D02*
X102381904Y-26658095D01*
X102262857Y-26896190D02*
X102262857Y-26396190D01*
X102453333Y-26396190D01*
X102500952Y-26420000D01*
X102524761Y-26443809D01*
X102548571Y-26491428D01*
X102548571Y-26562857D01*
X102524761Y-26610476D01*
X102500952Y-26634285D01*
X102453333Y-26658095D01*
X102262857Y-26658095D01*
X103024761Y-26896190D02*
X102739047Y-26896190D01*
X102881904Y-26896190D02*
X102881904Y-26396190D01*
X102834285Y-26467619D01*
X102786666Y-26515238D01*
X102739047Y-26539047D01*
X103334285Y-26396190D02*
X103381904Y-26396190D01*
X103429523Y-26420000D01*
X103453333Y-26443809D01*
X103477142Y-26491428D01*
X103500952Y-26586666D01*
X103500952Y-26705714D01*
X103477142Y-26800952D01*
X103453333Y-26848571D01*
X103429523Y-26872380D01*
X103381904Y-26896190D01*
X103334285Y-26896190D01*
X103286666Y-26872380D01*
X103262857Y-26848571D01*
X103239047Y-26800952D01*
X103215238Y-26705714D01*
X103215238Y-26586666D01*
X103239047Y-26491428D01*
X103262857Y-26443809D01*
X103286666Y-26420000D01*
X103334285Y-26396190D01*
%TO.C,REF\u002A\u002A*%
X81121333Y-38326190D02*
X80954666Y-38088095D01*
X80835619Y-38326190D02*
X80835619Y-37826190D01*
X81026095Y-37826190D01*
X81073714Y-37850000D01*
X81097523Y-37873809D01*
X81121333Y-37921428D01*
X81121333Y-37992857D01*
X81097523Y-38040476D01*
X81073714Y-38064285D01*
X81026095Y-38088095D01*
X80835619Y-38088095D01*
X81335619Y-38064285D02*
X81502285Y-38064285D01*
X81573714Y-38326190D02*
X81335619Y-38326190D01*
X81335619Y-37826190D01*
X81573714Y-37826190D01*
X81954666Y-38064285D02*
X81788000Y-38064285D01*
X81788000Y-38326190D02*
X81788000Y-37826190D01*
X82026095Y-37826190D01*
X82288000Y-37826190D02*
X82288000Y-37945238D01*
X82168952Y-37897619D02*
X82288000Y-37945238D01*
X82407047Y-37897619D01*
X82216571Y-38040476D02*
X82288000Y-37945238D01*
X82359428Y-38040476D01*
X82668952Y-37826190D02*
X82668952Y-37945238D01*
X82549904Y-37897619D02*
X82668952Y-37945238D01*
X82788000Y-37897619D01*
X82597523Y-38040476D02*
X82668952Y-37945238D01*
X82740380Y-38040476D01*
%TO.C,C1*%
X99738666Y-85014571D02*
X99714857Y-85038380D01*
X99643428Y-85062190D01*
X99595809Y-85062190D01*
X99524380Y-85038380D01*
X99476761Y-84990761D01*
X99452952Y-84943142D01*
X99429142Y-84847904D01*
X99429142Y-84776476D01*
X99452952Y-84681238D01*
X99476761Y-84633619D01*
X99524380Y-84586000D01*
X99595809Y-84562190D01*
X99643428Y-84562190D01*
X99714857Y-84586000D01*
X99738666Y-84609809D01*
X100214857Y-85062190D02*
X99929142Y-85062190D01*
X100072000Y-85062190D02*
X100072000Y-84562190D01*
X100024380Y-84633619D01*
X99976761Y-84681238D01*
X99929142Y-84705047D01*
%TO.C,R17*%
X95182571Y-41628190D02*
X95015904Y-41390095D01*
X94896857Y-41628190D02*
X94896857Y-41128190D01*
X95087333Y-41128190D01*
X95134952Y-41152000D01*
X95158761Y-41175809D01*
X95182571Y-41223428D01*
X95182571Y-41294857D01*
X95158761Y-41342476D01*
X95134952Y-41366285D01*
X95087333Y-41390095D01*
X94896857Y-41390095D01*
X95658761Y-41628190D02*
X95373047Y-41628190D01*
X95515904Y-41628190D02*
X95515904Y-41128190D01*
X95468285Y-41199619D01*
X95420666Y-41247238D01*
X95373047Y-41271047D01*
X95825428Y-41128190D02*
X96158761Y-41128190D01*
X95944476Y-41628190D01*
%TO.C,DRIVE1*%
X92041670Y-86014581D02*
X91541670Y-86014581D01*
X91541670Y-85895533D01*
X91565480Y-85824105D01*
X91613099Y-85776486D01*
X91660718Y-85752676D01*
X91755956Y-85728867D01*
X91827384Y-85728867D01*
X91922622Y-85752676D01*
X91970241Y-85776486D01*
X92017860Y-85824105D01*
X92041670Y-85895533D01*
X92041670Y-86014581D01*
X92041670Y-85228867D02*
X91803575Y-85395533D01*
X92041670Y-85514581D02*
X91541670Y-85514581D01*
X91541670Y-85324105D01*
X91565480Y-85276486D01*
X91589289Y-85252676D01*
X91636908Y-85228867D01*
X91708337Y-85228867D01*
X91755956Y-85252676D01*
X91779765Y-85276486D01*
X91803575Y-85324105D01*
X91803575Y-85514581D01*
X92041670Y-85014581D02*
X91541670Y-85014581D01*
X91541670Y-84847914D02*
X92041670Y-84681248D01*
X91541670Y-84514581D01*
X91779765Y-84347914D02*
X91779765Y-84181248D01*
X92041670Y-84109819D02*
X92041670Y-84347914D01*
X91541670Y-84347914D01*
X91541670Y-84109819D01*
X92041670Y-83633629D02*
X92041670Y-83919343D01*
X92041670Y-83776486D02*
X91541670Y-83776486D01*
X91613099Y-83824105D01*
X91660718Y-83871724D01*
X91684527Y-83919343D01*
%TO.C,C18*%
X107882571Y-39802571D02*
X107858761Y-39826380D01*
X107787333Y-39850190D01*
X107739714Y-39850190D01*
X107668285Y-39826380D01*
X107620666Y-39778761D01*
X107596857Y-39731142D01*
X107573047Y-39635904D01*
X107573047Y-39564476D01*
X107596857Y-39469238D01*
X107620666Y-39421619D01*
X107668285Y-39374000D01*
X107739714Y-39350190D01*
X107787333Y-39350190D01*
X107858761Y-39374000D01*
X107882571Y-39397809D01*
X108358761Y-39850190D02*
X108073047Y-39850190D01*
X108215904Y-39850190D02*
X108215904Y-39350190D01*
X108168285Y-39421619D01*
X108120666Y-39469238D01*
X108073047Y-39493047D01*
X108644476Y-39564476D02*
X108596857Y-39540666D01*
X108573047Y-39516857D01*
X108549238Y-39469238D01*
X108549238Y-39445428D01*
X108573047Y-39397809D01*
X108596857Y-39374000D01*
X108644476Y-39350190D01*
X108739714Y-39350190D01*
X108787333Y-39374000D01*
X108811142Y-39397809D01*
X108834952Y-39445428D01*
X108834952Y-39469238D01*
X108811142Y-39516857D01*
X108787333Y-39540666D01*
X108739714Y-39564476D01*
X108644476Y-39564476D01*
X108596857Y-39588285D01*
X108573047Y-39612095D01*
X108549238Y-39659714D01*
X108549238Y-39754952D01*
X108573047Y-39802571D01*
X108596857Y-39826380D01*
X108644476Y-39850190D01*
X108739714Y-39850190D01*
X108787333Y-39826380D01*
X108811142Y-39802571D01*
X108834952Y-39754952D01*
X108834952Y-39659714D01*
X108811142Y-39612095D01*
X108787333Y-39588285D01*
X108739714Y-39564476D01*
%TO.C,Q2*%
X98682180Y-51894009D02*
X98634561Y-51870200D01*
X98586942Y-51822580D01*
X98515514Y-51751152D01*
X98467895Y-51727342D01*
X98420276Y-51727342D01*
X98444085Y-51846390D02*
X98396466Y-51822580D01*
X98348847Y-51774961D01*
X98325038Y-51679723D01*
X98325038Y-51513057D01*
X98348847Y-51417819D01*
X98396466Y-51370200D01*
X98444085Y-51346390D01*
X98539323Y-51346390D01*
X98586942Y-51370200D01*
X98634561Y-51417819D01*
X98658371Y-51513057D01*
X98658371Y-51679723D01*
X98634561Y-51774961D01*
X98586942Y-51822580D01*
X98539323Y-51846390D01*
X98444085Y-51846390D01*
X98848847Y-51394009D02*
X98872657Y-51370200D01*
X98920276Y-51346390D01*
X99039323Y-51346390D01*
X99086942Y-51370200D01*
X99110752Y-51394009D01*
X99134561Y-51441628D01*
X99134561Y-51489247D01*
X99110752Y-51560676D01*
X98825038Y-51846390D01*
X99134561Y-51846390D01*
%TO.C,JP2*%
X102545333Y-70647190D02*
X102545333Y-71004333D01*
X102521523Y-71075761D01*
X102473904Y-71123380D01*
X102402476Y-71147190D01*
X102354857Y-71147190D01*
X102783428Y-71147190D02*
X102783428Y-70647190D01*
X102973904Y-70647190D01*
X103021523Y-70671000D01*
X103045333Y-70694809D01*
X103069142Y-70742428D01*
X103069142Y-70813857D01*
X103045333Y-70861476D01*
X103021523Y-70885285D01*
X102973904Y-70909095D01*
X102783428Y-70909095D01*
X103259619Y-70694809D02*
X103283428Y-70671000D01*
X103331047Y-70647190D01*
X103450095Y-70647190D01*
X103497714Y-70671000D01*
X103521523Y-70694809D01*
X103545333Y-70742428D01*
X103545333Y-70790047D01*
X103521523Y-70861476D01*
X103235809Y-71147190D01*
X103545333Y-71147190D01*
%TO.C,R19*%
X105596571Y-37056190D02*
X105429904Y-36818095D01*
X105310857Y-37056190D02*
X105310857Y-36556190D01*
X105501333Y-36556190D01*
X105548952Y-36580000D01*
X105572761Y-36603809D01*
X105596571Y-36651428D01*
X105596571Y-36722857D01*
X105572761Y-36770476D01*
X105548952Y-36794285D01*
X105501333Y-36818095D01*
X105310857Y-36818095D01*
X106072761Y-37056190D02*
X105787047Y-37056190D01*
X105929904Y-37056190D02*
X105929904Y-36556190D01*
X105882285Y-36627619D01*
X105834666Y-36675238D01*
X105787047Y-36699047D01*
X106310857Y-37056190D02*
X106406095Y-37056190D01*
X106453714Y-37032380D01*
X106477523Y-37008571D01*
X106525142Y-36937142D01*
X106548952Y-36841904D01*
X106548952Y-36651428D01*
X106525142Y-36603809D01*
X106501333Y-36580000D01*
X106453714Y-36556190D01*
X106358476Y-36556190D01*
X106310857Y-36580000D01*
X106287047Y-36603809D01*
X106263238Y-36651428D01*
X106263238Y-36770476D01*
X106287047Y-36818095D01*
X106310857Y-36841904D01*
X106358476Y-36865714D01*
X106453714Y-36865714D01*
X106501333Y-36841904D01*
X106525142Y-36818095D01*
X106548952Y-36770476D01*
%TO.C,R24*%
X96452571Y-53312190D02*
X96285904Y-53074095D01*
X96166857Y-53312190D02*
X96166857Y-52812190D01*
X96357333Y-52812190D01*
X96404952Y-52836000D01*
X96428761Y-52859809D01*
X96452571Y-52907428D01*
X96452571Y-52978857D01*
X96428761Y-53026476D01*
X96404952Y-53050285D01*
X96357333Y-53074095D01*
X96166857Y-53074095D01*
X96643047Y-52859809D02*
X96666857Y-52836000D01*
X96714476Y-52812190D01*
X96833523Y-52812190D01*
X96881142Y-52836000D01*
X96904952Y-52859809D01*
X96928761Y-52907428D01*
X96928761Y-52955047D01*
X96904952Y-53026476D01*
X96619238Y-53312190D01*
X96928761Y-53312190D01*
X97357333Y-52978857D02*
X97357333Y-53312190D01*
X97238285Y-52788380D02*
X97119238Y-53145523D01*
X97428761Y-53145523D01*
%TO.C,SW1*%
X85008333Y-50748380D02*
X85079761Y-50772190D01*
X85198809Y-50772190D01*
X85246428Y-50748380D01*
X85270238Y-50724571D01*
X85294047Y-50676952D01*
X85294047Y-50629333D01*
X85270238Y-50581714D01*
X85246428Y-50557904D01*
X85198809Y-50534095D01*
X85103571Y-50510285D01*
X85055952Y-50486476D01*
X85032142Y-50462666D01*
X85008333Y-50415047D01*
X85008333Y-50367428D01*
X85032142Y-50319809D01*
X85055952Y-50296000D01*
X85103571Y-50272190D01*
X85222619Y-50272190D01*
X85294047Y-50296000D01*
X85460714Y-50272190D02*
X85579761Y-50772190D01*
X85675000Y-50415047D01*
X85770238Y-50772190D01*
X85889285Y-50272190D01*
X86341666Y-50772190D02*
X86055952Y-50772190D01*
X86198809Y-50772190D02*
X86198809Y-50272190D01*
X86151190Y-50343619D01*
X86103571Y-50391238D01*
X86055952Y-50415047D01*
%TO.C,J3*%
X101557333Y-84027190D02*
X101557333Y-84384333D01*
X101533523Y-84455761D01*
X101485904Y-84503380D01*
X101414476Y-84527190D01*
X101366857Y-84527190D01*
X101747809Y-84027190D02*
X102057333Y-84027190D01*
X101890666Y-84217666D01*
X101962095Y-84217666D01*
X102009714Y-84241476D01*
X102033523Y-84265285D01*
X102057333Y-84312904D01*
X102057333Y-84431952D01*
X102033523Y-84479571D01*
X102009714Y-84503380D01*
X101962095Y-84527190D01*
X101819238Y-84527190D01*
X101771619Y-84503380D01*
X101747809Y-84479571D01*
%TO.C,C3*%
X105580666Y-88570571D02*
X105556857Y-88594380D01*
X105485428Y-88618190D01*
X105437809Y-88618190D01*
X105366380Y-88594380D01*
X105318761Y-88546761D01*
X105294952Y-88499142D01*
X105271142Y-88403904D01*
X105271142Y-88332476D01*
X105294952Y-88237238D01*
X105318761Y-88189619D01*
X105366380Y-88142000D01*
X105437809Y-88118190D01*
X105485428Y-88118190D01*
X105556857Y-88142000D01*
X105580666Y-88165809D01*
X105747333Y-88118190D02*
X106056857Y-88118190D01*
X105890190Y-88308666D01*
X105961619Y-88308666D01*
X106009238Y-88332476D01*
X106033047Y-88356285D01*
X106056857Y-88403904D01*
X106056857Y-88522952D01*
X106033047Y-88570571D01*
X106009238Y-88594380D01*
X105961619Y-88618190D01*
X105818761Y-88618190D01*
X105771142Y-88594380D01*
X105747333Y-88570571D01*
%TO.C,R2*%
X97147866Y-42766990D02*
X96981200Y-42528895D01*
X96862152Y-42766990D02*
X96862152Y-42266990D01*
X97052628Y-42266990D01*
X97100247Y-42290800D01*
X97124057Y-42314609D01*
X97147866Y-42362228D01*
X97147866Y-42433657D01*
X97124057Y-42481276D01*
X97100247Y-42505085D01*
X97052628Y-42528895D01*
X96862152Y-42528895D01*
X97338342Y-42314609D02*
X97362152Y-42290800D01*
X97409771Y-42266990D01*
X97528819Y-42266990D01*
X97576438Y-42290800D01*
X97600247Y-42314609D01*
X97624057Y-42362228D01*
X97624057Y-42409847D01*
X97600247Y-42481276D01*
X97314533Y-42766990D01*
X97624057Y-42766990D01*
%TO.C,LA1*%
X85108380Y-27912190D02*
X84870285Y-27912190D01*
X84870285Y-27412190D01*
X85251238Y-27769333D02*
X85489333Y-27769333D01*
X85203619Y-27912190D02*
X85370285Y-27412190D01*
X85536952Y-27912190D01*
X85965523Y-27912190D02*
X85679809Y-27912190D01*
X85822666Y-27912190D02*
X85822666Y-27412190D01*
X85775047Y-27483619D01*
X85727428Y-27531238D01*
X85679809Y-27555047D01*
%TO.C,U2*%
X102957047Y-73102590D02*
X102957047Y-73507352D01*
X102980857Y-73554971D01*
X103004666Y-73578780D01*
X103052285Y-73602590D01*
X103147523Y-73602590D01*
X103195142Y-73578780D01*
X103218952Y-73554971D01*
X103242761Y-73507352D01*
X103242761Y-73102590D01*
X103457047Y-73150209D02*
X103480857Y-73126400D01*
X103528476Y-73102590D01*
X103647523Y-73102590D01*
X103695142Y-73126400D01*
X103718952Y-73150209D01*
X103742761Y-73197828D01*
X103742761Y-73245447D01*
X103718952Y-73316876D01*
X103433238Y-73602590D01*
X103742761Y-73602590D01*
%TO.C,R27*%
X94166571Y-57376190D02*
X93999904Y-57138095D01*
X93880857Y-57376190D02*
X93880857Y-56876190D01*
X94071333Y-56876190D01*
X94118952Y-56900000D01*
X94142761Y-56923809D01*
X94166571Y-56971428D01*
X94166571Y-57042857D01*
X94142761Y-57090476D01*
X94118952Y-57114285D01*
X94071333Y-57138095D01*
X93880857Y-57138095D01*
X94357047Y-56923809D02*
X94380857Y-56900000D01*
X94428476Y-56876190D01*
X94547523Y-56876190D01*
X94595142Y-56900000D01*
X94618952Y-56923809D01*
X94642761Y-56971428D01*
X94642761Y-57019047D01*
X94618952Y-57090476D01*
X94333238Y-57376190D01*
X94642761Y-57376190D01*
X94809428Y-56876190D02*
X95142761Y-56876190D01*
X94928476Y-57376190D01*
%TO.C,C16*%
X92388571Y-39294571D02*
X92364761Y-39318380D01*
X92293333Y-39342190D01*
X92245714Y-39342190D01*
X92174285Y-39318380D01*
X92126666Y-39270761D01*
X92102857Y-39223142D01*
X92079047Y-39127904D01*
X92079047Y-39056476D01*
X92102857Y-38961238D01*
X92126666Y-38913619D01*
X92174285Y-38866000D01*
X92245714Y-38842190D01*
X92293333Y-38842190D01*
X92364761Y-38866000D01*
X92388571Y-38889809D01*
X92864761Y-39342190D02*
X92579047Y-39342190D01*
X92721904Y-39342190D02*
X92721904Y-38842190D01*
X92674285Y-38913619D01*
X92626666Y-38961238D01*
X92579047Y-38985047D01*
X93293333Y-38842190D02*
X93198095Y-38842190D01*
X93150476Y-38866000D01*
X93126666Y-38889809D01*
X93079047Y-38961238D01*
X93055238Y-39056476D01*
X93055238Y-39246952D01*
X93079047Y-39294571D01*
X93102857Y-39318380D01*
X93150476Y-39342190D01*
X93245714Y-39342190D01*
X93293333Y-39318380D01*
X93317142Y-39294571D01*
X93340952Y-39246952D01*
X93340952Y-39127904D01*
X93317142Y-39080285D01*
X93293333Y-39056476D01*
X93245714Y-39032666D01*
X93150476Y-39032666D01*
X93102857Y-39056476D01*
X93079047Y-39080285D01*
X93055238Y-39127904D01*
%TO.C,R1*%
X104310666Y-83030190D02*
X104144000Y-82792095D01*
X104024952Y-83030190D02*
X104024952Y-82530190D01*
X104215428Y-82530190D01*
X104263047Y-82554000D01*
X104286857Y-82577809D01*
X104310666Y-82625428D01*
X104310666Y-82696857D01*
X104286857Y-82744476D01*
X104263047Y-82768285D01*
X104215428Y-82792095D01*
X104024952Y-82792095D01*
X104786857Y-83030190D02*
X104501142Y-83030190D01*
X104644000Y-83030190D02*
X104644000Y-82530190D01*
X104596380Y-82601619D01*
X104548761Y-82649238D01*
X104501142Y-82673047D01*
%TO.C,GREEN1*%
X86680000Y-49071428D02*
X86656190Y-49119047D01*
X86656190Y-49190476D01*
X86680000Y-49261904D01*
X86727619Y-49309523D01*
X86775238Y-49333333D01*
X86870476Y-49357142D01*
X86941904Y-49357142D01*
X87037142Y-49333333D01*
X87084761Y-49309523D01*
X87132380Y-49261904D01*
X87156190Y-49190476D01*
X87156190Y-49142857D01*
X87132380Y-49071428D01*
X87108571Y-49047619D01*
X86941904Y-49047619D01*
X86941904Y-49142857D01*
X87156190Y-48547619D02*
X86918095Y-48714285D01*
X87156190Y-48833333D02*
X86656190Y-48833333D01*
X86656190Y-48642857D01*
X86680000Y-48595238D01*
X86703809Y-48571428D01*
X86751428Y-48547619D01*
X86822857Y-48547619D01*
X86870476Y-48571428D01*
X86894285Y-48595238D01*
X86918095Y-48642857D01*
X86918095Y-48833333D01*
X86894285Y-48333333D02*
X86894285Y-48166666D01*
X87156190Y-48095238D02*
X87156190Y-48333333D01*
X86656190Y-48333333D01*
X86656190Y-48095238D01*
X86894285Y-47880952D02*
X86894285Y-47714285D01*
X87156190Y-47642857D02*
X87156190Y-47880952D01*
X86656190Y-47880952D01*
X86656190Y-47642857D01*
X87156190Y-47428571D02*
X86656190Y-47428571D01*
X87156190Y-47142857D01*
X86656190Y-47142857D01*
X87156190Y-46642857D02*
X87156190Y-46928571D01*
X87156190Y-46785714D02*
X86656190Y-46785714D01*
X86727619Y-46833333D01*
X86775238Y-46880952D01*
X86799047Y-46928571D01*
%TO.C,IC1*%
X100880918Y-34082004D02*
X100880918Y-33582004D01*
X101404728Y-34034385D02*
X101380918Y-34058194D01*
X101309490Y-34082004D01*
X101261871Y-34082004D01*
X101190442Y-34058194D01*
X101142823Y-34010575D01*
X101119014Y-33962956D01*
X101095204Y-33867718D01*
X101095204Y-33796290D01*
X101119014Y-33701052D01*
X101142823Y-33653433D01*
X101190442Y-33605814D01*
X101261871Y-33582004D01*
X101309490Y-33582004D01*
X101380918Y-33605814D01*
X101404728Y-33629623D01*
X101880918Y-34082004D02*
X101595204Y-34082004D01*
X101738061Y-34082004D02*
X101738061Y-33582004D01*
X101690442Y-33653433D01*
X101642823Y-33701052D01*
X101595204Y-33724861D01*
%TO.C,C23*%
X89848571Y-44120571D02*
X89824761Y-44144380D01*
X89753333Y-44168190D01*
X89705714Y-44168190D01*
X89634285Y-44144380D01*
X89586666Y-44096761D01*
X89562857Y-44049142D01*
X89539047Y-43953904D01*
X89539047Y-43882476D01*
X89562857Y-43787238D01*
X89586666Y-43739619D01*
X89634285Y-43692000D01*
X89705714Y-43668190D01*
X89753333Y-43668190D01*
X89824761Y-43692000D01*
X89848571Y-43715809D01*
X90039047Y-43715809D02*
X90062857Y-43692000D01*
X90110476Y-43668190D01*
X90229523Y-43668190D01*
X90277142Y-43692000D01*
X90300952Y-43715809D01*
X90324761Y-43763428D01*
X90324761Y-43811047D01*
X90300952Y-43882476D01*
X90015238Y-44168190D01*
X90324761Y-44168190D01*
X90491428Y-43668190D02*
X90800952Y-43668190D01*
X90634285Y-43858666D01*
X90705714Y-43858666D01*
X90753333Y-43882476D01*
X90777142Y-43906285D01*
X90800952Y-43953904D01*
X90800952Y-44072952D01*
X90777142Y-44120571D01*
X90753333Y-44144380D01*
X90705714Y-44168190D01*
X90562857Y-44168190D01*
X90515238Y-44144380D01*
X90491428Y-44120571D01*
%TO.C,C6*%
X100602571Y-44533333D02*
X100626380Y-44557142D01*
X100650190Y-44628571D01*
X100650190Y-44676190D01*
X100626380Y-44747619D01*
X100578761Y-44795238D01*
X100531142Y-44819047D01*
X100435904Y-44842857D01*
X100364476Y-44842857D01*
X100269238Y-44819047D01*
X100221619Y-44795238D01*
X100174000Y-44747619D01*
X100150190Y-44676190D01*
X100150190Y-44628571D01*
X100174000Y-44557142D01*
X100197809Y-44533333D01*
X100150190Y-44104761D02*
X100150190Y-44200000D01*
X100174000Y-44247619D01*
X100197809Y-44271428D01*
X100269238Y-44319047D01*
X100364476Y-44342857D01*
X100554952Y-44342857D01*
X100602571Y-44319047D01*
X100626380Y-44295238D01*
X100650190Y-44247619D01*
X100650190Y-44152380D01*
X100626380Y-44104761D01*
X100602571Y-44080952D01*
X100554952Y-44057142D01*
X100435904Y-44057142D01*
X100388285Y-44080952D01*
X100364476Y-44104761D01*
X100340666Y-44152380D01*
X100340666Y-44247619D01*
X100364476Y-44295238D01*
X100388285Y-44319047D01*
X100435904Y-44342857D01*
%TO.C,C7*%
X104912666Y-43358571D02*
X104888857Y-43382380D01*
X104817428Y-43406190D01*
X104769809Y-43406190D01*
X104698380Y-43382380D01*
X104650761Y-43334761D01*
X104626952Y-43287142D01*
X104603142Y-43191904D01*
X104603142Y-43120476D01*
X104626952Y-43025238D01*
X104650761Y-42977619D01*
X104698380Y-42930000D01*
X104769809Y-42906190D01*
X104817428Y-42906190D01*
X104888857Y-42930000D01*
X104912666Y-42953809D01*
X105079333Y-42906190D02*
X105412666Y-42906190D01*
X105198380Y-43406190D01*
%TO.C,RED1*%
X87094190Y-45009523D02*
X86856095Y-45176190D01*
X87094190Y-45295238D02*
X86594190Y-45295238D01*
X86594190Y-45104761D01*
X86618000Y-45057142D01*
X86641809Y-45033333D01*
X86689428Y-45009523D01*
X86760857Y-45009523D01*
X86808476Y-45033333D01*
X86832285Y-45057142D01*
X86856095Y-45104761D01*
X86856095Y-45295238D01*
X86832285Y-44795238D02*
X86832285Y-44628571D01*
X87094190Y-44557142D02*
X87094190Y-44795238D01*
X86594190Y-44795238D01*
X86594190Y-44557142D01*
X87094190Y-44342857D02*
X86594190Y-44342857D01*
X86594190Y-44223809D01*
X86618000Y-44152380D01*
X86665619Y-44104761D01*
X86713238Y-44080952D01*
X86808476Y-44057142D01*
X86879904Y-44057142D01*
X86975142Y-44080952D01*
X87022761Y-44104761D01*
X87070380Y-44152380D01*
X87094190Y-44223809D01*
X87094190Y-44342857D01*
X87094190Y-43580952D02*
X87094190Y-43866666D01*
X87094190Y-43723809D02*
X86594190Y-43723809D01*
X86665619Y-43771428D01*
X86713238Y-43819047D01*
X86737047Y-43866666D01*
%TO.C,D1*%
X105294952Y-84554190D02*
X105294952Y-84054190D01*
X105414000Y-84054190D01*
X105485428Y-84078000D01*
X105533047Y-84125619D01*
X105556857Y-84173238D01*
X105580666Y-84268476D01*
X105580666Y-84339904D01*
X105556857Y-84435142D01*
X105533047Y-84482761D01*
X105485428Y-84530380D01*
X105414000Y-84554190D01*
X105294952Y-84554190D01*
X106056857Y-84554190D02*
X105771142Y-84554190D01*
X105914000Y-84554190D02*
X105914000Y-84054190D01*
X105866380Y-84125619D01*
X105818761Y-84173238D01*
X105771142Y-84197047D01*
%TO.C,C19*%
X100911151Y-40564571D02*
X100887341Y-40588380D01*
X100815913Y-40612190D01*
X100768294Y-40612190D01*
X100696865Y-40588380D01*
X100649246Y-40540761D01*
X100625437Y-40493142D01*
X100601627Y-40397904D01*
X100601627Y-40326476D01*
X100625437Y-40231238D01*
X100649246Y-40183619D01*
X100696865Y-40136000D01*
X100768294Y-40112190D01*
X100815913Y-40112190D01*
X100887341Y-40136000D01*
X100911151Y-40159809D01*
X101387341Y-40612190D02*
X101101627Y-40612190D01*
X101244484Y-40612190D02*
X101244484Y-40112190D01*
X101196865Y-40183619D01*
X101149246Y-40231238D01*
X101101627Y-40255047D01*
X101625437Y-40612190D02*
X101720675Y-40612190D01*
X101768294Y-40588380D01*
X101792103Y-40564571D01*
X101839722Y-40493142D01*
X101863532Y-40397904D01*
X101863532Y-40207428D01*
X101839722Y-40159809D01*
X101815913Y-40136000D01*
X101768294Y-40112190D01*
X101673056Y-40112190D01*
X101625437Y-40136000D01*
X101601627Y-40159809D01*
X101577818Y-40207428D01*
X101577818Y-40326476D01*
X101601627Y-40374095D01*
X101625437Y-40397904D01*
X101673056Y-40421714D01*
X101768294Y-40421714D01*
X101815913Y-40397904D01*
X101839722Y-40374095D01*
X101863532Y-40326476D01*
%TO.C,R18*%
X97722571Y-38326190D02*
X97555904Y-38088095D01*
X97436857Y-38326190D02*
X97436857Y-37826190D01*
X97627333Y-37826190D01*
X97674952Y-37850000D01*
X97698761Y-37873809D01*
X97722571Y-37921428D01*
X97722571Y-37992857D01*
X97698761Y-38040476D01*
X97674952Y-38064285D01*
X97627333Y-38088095D01*
X97436857Y-38088095D01*
X98198761Y-38326190D02*
X97913047Y-38326190D01*
X98055904Y-38326190D02*
X98055904Y-37826190D01*
X98008285Y-37897619D01*
X97960666Y-37945238D01*
X97913047Y-37969047D01*
X98484476Y-38040476D02*
X98436857Y-38016666D01*
X98413047Y-37992857D01*
X98389238Y-37945238D01*
X98389238Y-37921428D01*
X98413047Y-37873809D01*
X98436857Y-37850000D01*
X98484476Y-37826190D01*
X98579714Y-37826190D01*
X98627333Y-37850000D01*
X98651142Y-37873809D01*
X98674952Y-37921428D01*
X98674952Y-37945238D01*
X98651142Y-37992857D01*
X98627333Y-38016666D01*
X98579714Y-38040476D01*
X98484476Y-38040476D01*
X98436857Y-38064285D01*
X98413047Y-38088095D01*
X98389238Y-38135714D01*
X98389238Y-38230952D01*
X98413047Y-38278571D01*
X98436857Y-38302380D01*
X98484476Y-38326190D01*
X98579714Y-38326190D01*
X98627333Y-38302380D01*
X98651142Y-38278571D01*
X98674952Y-38230952D01*
X98674952Y-38135714D01*
X98651142Y-38088095D01*
X98627333Y-38064285D01*
X98579714Y-38040476D01*
%TO.C,D2*%
X99452952Y-76680190D02*
X99452952Y-76180190D01*
X99572000Y-76180190D01*
X99643428Y-76204000D01*
X99691047Y-76251619D01*
X99714857Y-76299238D01*
X99738666Y-76394476D01*
X99738666Y-76465904D01*
X99714857Y-76561142D01*
X99691047Y-76608761D01*
X99643428Y-76656380D01*
X99572000Y-76680190D01*
X99452952Y-76680190D01*
X99929142Y-76227809D02*
X99952952Y-76204000D01*
X100000571Y-76180190D01*
X100119619Y-76180190D01*
X100167238Y-76204000D01*
X100191047Y-76227809D01*
X100214857Y-76275428D01*
X100214857Y-76323047D01*
X100191047Y-76394476D01*
X99905333Y-76680190D01*
X100214857Y-76680190D01*
%TO.C,D3*%
X94880952Y-78458190D02*
X94880952Y-77958190D01*
X95000000Y-77958190D01*
X95071428Y-77982000D01*
X95119047Y-78029619D01*
X95142857Y-78077238D01*
X95166666Y-78172476D01*
X95166666Y-78243904D01*
X95142857Y-78339142D01*
X95119047Y-78386761D01*
X95071428Y-78434380D01*
X95000000Y-78458190D01*
X94880952Y-78458190D01*
X95333333Y-77958190D02*
X95642857Y-77958190D01*
X95476190Y-78148666D01*
X95547619Y-78148666D01*
X95595238Y-78172476D01*
X95619047Y-78196285D01*
X95642857Y-78243904D01*
X95642857Y-78362952D01*
X95619047Y-78410571D01*
X95595238Y-78434380D01*
X95547619Y-78458190D01*
X95404761Y-78458190D01*
X95357142Y-78434380D01*
X95333333Y-78410571D01*
%TO.C,R15*%
X89340571Y-27658190D02*
X89173904Y-27420095D01*
X89054857Y-27658190D02*
X89054857Y-27158190D01*
X89245333Y-27158190D01*
X89292952Y-27182000D01*
X89316761Y-27205809D01*
X89340571Y-27253428D01*
X89340571Y-27324857D01*
X89316761Y-27372476D01*
X89292952Y-27396285D01*
X89245333Y-27420095D01*
X89054857Y-27420095D01*
X89816761Y-27658190D02*
X89531047Y-27658190D01*
X89673904Y-27658190D02*
X89673904Y-27158190D01*
X89626285Y-27229619D01*
X89578666Y-27277238D01*
X89531047Y-27301047D01*
X90269142Y-27158190D02*
X90031047Y-27158190D01*
X90007238Y-27396285D01*
X90031047Y-27372476D01*
X90078666Y-27348666D01*
X90197714Y-27348666D01*
X90245333Y-27372476D01*
X90269142Y-27396285D01*
X90292952Y-27443904D01*
X90292952Y-27562952D01*
X90269142Y-27610571D01*
X90245333Y-27634380D01*
X90197714Y-27658190D01*
X90078666Y-27658190D01*
X90031047Y-27634380D01*
X90007238Y-27610571D01*
D12*
%TO.C,U5*%
X91477600Y-53710400D02*
X92277600Y-53710400D01*
X91477600Y-53710400D02*
X90677600Y-53710400D01*
X91477600Y-56830400D02*
X90677600Y-56830400D01*
X91477600Y-56830400D02*
X93277600Y-56830400D01*
%TO.C,R3*%
X101614500Y-60689258D02*
X101614500Y-60214742D01*
X100569500Y-60689258D02*
X100569500Y-60214742D01*
%TO.C,R14*%
X93488742Y-36082500D02*
X93963258Y-36082500D01*
X93488742Y-35037500D02*
X93963258Y-35037500D01*
%TO.C,RST_CP1*%
X106364000Y-81788000D02*
G75*
G03*
X106364000Y-81788000I-700000J0D01*
G01*
%TO.C,R23*%
X93574900Y-50529258D02*
X93574900Y-50054742D01*
X92529900Y-50529258D02*
X92529900Y-50054742D01*
%TO.C,C22*%
X87510000Y-63859420D02*
X87510000Y-64140580D01*
X86490000Y-63859420D02*
X86490000Y-64140580D01*
%TO.C,D-1*%
X96458000Y-75946000D02*
G75*
G03*
X96458000Y-75946000I-700000J0D01*
G01*
%TO.C,C15*%
X99820000Y-26556580D02*
X99820000Y-26275420D01*
X100840000Y-26556580D02*
X100840000Y-26275420D01*
%TO.C,R13*%
X90409500Y-36592742D02*
X90409500Y-37067258D01*
X91454500Y-36592742D02*
X91454500Y-37067258D01*
%TO.C,R22*%
X88012742Y-60727500D02*
X88487258Y-60727500D01*
X88012742Y-61772500D02*
X88487258Y-61772500D01*
%TO.C,C20*%
X89640580Y-65990000D02*
X89359420Y-65990000D01*
X89640580Y-67010000D02*
X89359420Y-67010000D01*
%TO.C,R8*%
X105680742Y-31764500D02*
X106155258Y-31764500D01*
X105680742Y-30719500D02*
X106155258Y-30719500D01*
%TO.C,R20*%
X103900500Y-38878742D02*
X103900500Y-39353258D01*
X102855500Y-38878742D02*
X102855500Y-39353258D01*
%TO.C,R26*%
X91456742Y-59450500D02*
X91931258Y-59450500D01*
X91456742Y-58405500D02*
X91931258Y-58405500D01*
%TO.C,Q1*%
X98770000Y-56642000D02*
X98770000Y-58317000D01*
X101890000Y-56642000D02*
X101890000Y-57292000D01*
X98770000Y-56642000D02*
X98770000Y-55992000D01*
X101890000Y-56642000D02*
X101890000Y-55992000D01*
%TO.C,R7*%
X107427500Y-81804742D02*
X107427500Y-82279258D01*
X108472500Y-81804742D02*
X108472500Y-82279258D01*
%TO.C,C11*%
X102990000Y-29640580D02*
X102990000Y-29359420D01*
X104010000Y-29640580D02*
X104010000Y-29359420D01*
%TO.C,R25*%
X92654658Y-46496500D02*
X92180142Y-46496500D01*
X92654658Y-45451500D02*
X92180142Y-45451500D01*
%TO.C,R9*%
X105680742Y-27671500D02*
X106155258Y-27671500D01*
X105680742Y-28716500D02*
X106155258Y-28716500D01*
%TO.C,U4*%
X91650000Y-60090000D02*
X97660000Y-60090000D01*
X97660000Y-60090000D02*
X97660000Y-61350000D01*
X97660000Y-66910000D02*
X97660000Y-65650000D01*
X93900000Y-66910000D02*
X97660000Y-66910000D01*
D13*
%TO.C,SELECT1*%
X94547750Y-26406000D02*
X96460250Y-26406000D01*
X94547750Y-31506000D02*
X96460250Y-31506000D01*
X98054000Y-30868500D02*
X98054000Y-27043500D01*
X92954000Y-30868500D02*
X92954000Y-27043500D01*
X96904000Y-28956000D02*
G75*
G03*
X96904000Y-28956000I-1400000J0D01*
G01*
D12*
%TO.C,R12*%
X86853500Y-25924742D02*
X86853500Y-26399258D01*
X87898500Y-25924742D02*
X87898500Y-26399258D01*
%TO.C,C21*%
X89510000Y-63859420D02*
X89510000Y-64140580D01*
X88490000Y-63859420D02*
X88490000Y-64140580D01*
%TO.C,C2*%
X100697420Y-81278000D02*
X100978580Y-81278000D01*
X100697420Y-82298000D02*
X100978580Y-82298000D01*
%TO.C,U6*%
X105449000Y-66268000D02*
X105449000Y-43968000D01*
X105449000Y-43968000D02*
X103299000Y-43968000D01*
X103299000Y-66268000D02*
X105449000Y-66268000D01*
D14*
X100899000Y-47118000D02*
G75*
G03*
X100899000Y-47118000I-350000J0D01*
G01*
X100899000Y-63118000D02*
G75*
G03*
X100899000Y-63118000I-350000J0D01*
G01*
D12*
%TO.C,R5*%
X97519258Y-45705500D02*
X97044742Y-45705500D01*
X97519258Y-46750500D02*
X97044742Y-46750500D01*
%TO.C,RA1*%
X87200000Y-31000000D02*
G75*
G03*
X87200000Y-31000000I-700000J0D01*
G01*
%TO.C,C17*%
X106312580Y-26164000D02*
X106031420Y-26164000D01*
X106312580Y-25144000D02*
X106031420Y-25144000D01*
%TO.C,D+1*%
X98744000Y-75946000D02*
G75*
G03*
X98744000Y-75946000I-700000J0D01*
G01*
%TO.C,C24*%
X92430980Y-47242000D02*
X92149820Y-47242000D01*
X92430980Y-48262000D02*
X92149820Y-48262000D01*
%TO.C,C10*%
X105777420Y-30228000D02*
X106058580Y-30228000D01*
X105777420Y-29208000D02*
X106058580Y-29208000D01*
%TO.C,R16*%
X92726742Y-42686500D02*
X93201258Y-42686500D01*
X92726742Y-41641500D02*
X93201258Y-41641500D01*
%TO.C,C4*%
X101602000Y-64375420D02*
X101602000Y-64656580D01*
X100582000Y-64375420D02*
X100582000Y-64656580D01*
%TO.C,B_TEMP1*%
X90200000Y-51500000D02*
G75*
G03*
X90200000Y-51500000I-700000J0D01*
G01*
%TO.C,RL1*%
X90108000Y-40386000D02*
G75*
G03*
X90108000Y-40386000I-700000J0D01*
G01*
%TO.C,C5*%
X107698000Y-62370580D02*
X107698000Y-62089420D01*
X106678000Y-62370580D02*
X106678000Y-62089420D01*
%TO.C,R4*%
X106157500Y-47735258D02*
X106157500Y-47260742D01*
X107202500Y-47735258D02*
X107202500Y-47260742D01*
%TO.C,R6*%
X97298742Y-51547500D02*
X97773258Y-51547500D01*
X97298742Y-52592500D02*
X97773258Y-52592500D01*
%TO.C,R21*%
X99487258Y-41772500D02*
X99012742Y-41772500D01*
X99487258Y-40727500D02*
X99012742Y-40727500D01*
%TO.C,R10*%
X103107258Y-25131500D02*
X102632742Y-25131500D01*
X103107258Y-26176500D02*
X102632742Y-26176500D01*
%TO.C,C1*%
X100978580Y-83056000D02*
X100697420Y-83056000D01*
X100978580Y-84076000D02*
X100697420Y-84076000D01*
%TO.C,R17*%
X96026500Y-39861258D02*
X96026500Y-39386742D01*
X94981500Y-39861258D02*
X94981500Y-39386742D01*
D13*
%TO.C,DRIVE1*%
X92954000Y-86748500D02*
X92954000Y-82923500D01*
X98054000Y-86748500D02*
X98054000Y-82923500D01*
X94547750Y-82286000D02*
X96460250Y-82286000D01*
X94547750Y-87386000D02*
X96460250Y-87386000D01*
X96904000Y-84836000D02*
G75*
G03*
X96904000Y-84836000I-1400000J0D01*
G01*
D12*
%TO.C,C18*%
X107698000Y-39609420D02*
X107698000Y-39890580D01*
X106678000Y-39609420D02*
X106678000Y-39890580D01*
%TO.C,Q2*%
X97536000Y-47716000D02*
X95861000Y-47716000D01*
X97536000Y-50836000D02*
X98186000Y-50836000D01*
X97536000Y-50836000D02*
X96886000Y-50836000D01*
X97536000Y-47716000D02*
X98186000Y-47716000D01*
%TO.C,R19*%
X106022500Y-38512742D02*
X106022500Y-38987258D01*
X104977500Y-38512742D02*
X104977500Y-38987258D01*
%TO.C,R24*%
X96363058Y-53782700D02*
X95888542Y-53782700D01*
X96363058Y-54827700D02*
X95888542Y-54827700D01*
%TO.C,SW1*%
X87120000Y-53900000D02*
X87120000Y-55600000D01*
X85280000Y-58950000D02*
X86070000Y-58950000D01*
X82980000Y-55400000D02*
X84270000Y-55400000D01*
X86070000Y-52050000D02*
X85280000Y-52050000D01*
X84270000Y-54100000D02*
X82980000Y-54100000D01*
X82770000Y-54300000D02*
X82770000Y-55200000D01*
X82980000Y-55400000D02*
X82770000Y-55200000D01*
X82980000Y-54100000D02*
X82770000Y-54300000D01*
X84270000Y-52650000D02*
X84270000Y-58350000D01*
X87120000Y-56900000D02*
X87120000Y-57100000D01*
%TO.C,J3*%
X102285000Y-85167000D02*
X102285000Y-85852000D01*
X101750000Y-87162000D02*
X101750000Y-89162000D01*
X101810000Y-89162000D02*
X101390000Y-89162000D01*
X101630000Y-87162000D02*
X101630000Y-89162000D01*
X100040000Y-87162000D02*
X100040000Y-86246493D01*
X102160000Y-87162000D02*
X100040000Y-87162000D01*
X101810000Y-87162000D02*
X101810000Y-89162000D01*
X100390000Y-89162000D02*
X100390000Y-87162000D01*
X100810000Y-89162000D02*
X100390000Y-89162000D01*
X101390000Y-89162000D02*
X101390000Y-87162000D01*
X101510000Y-87162000D02*
X101510000Y-89162000D01*
X100810000Y-87162000D02*
X100810000Y-89162000D01*
X102160000Y-86537000D02*
X102160000Y-87162000D01*
X101600000Y-85167000D02*
X102285000Y-85167000D01*
X101100000Y-86537000D02*
X101100000Y-87162000D01*
%TO.C,C3*%
X105523420Y-87632000D02*
X105804580Y-87632000D01*
X105523420Y-86612000D02*
X105804580Y-86612000D01*
%TO.C,R2*%
X97044742Y-44210500D02*
X97519258Y-44210500D01*
X97044742Y-43165500D02*
X97519258Y-43165500D01*
%TO.C,LA1*%
X86806000Y-28702000D02*
G75*
G03*
X86806000Y-28702000I-700000J0D01*
G01*
D13*
%TO.C,U2*%
X107056000Y-74716000D02*
X107656000Y-74716000D01*
X102656000Y-79716000D02*
X102656000Y-79116000D01*
X102656000Y-75316000D02*
X102656000Y-74716000D01*
X103256000Y-79716000D02*
X102656000Y-79716000D01*
X102656000Y-74716000D02*
X103256000Y-74716000D01*
X107656000Y-74716000D02*
X107656000Y-75316000D01*
X107656000Y-79116000D02*
X107656000Y-79716000D01*
X107656000Y-79716000D02*
X107056000Y-79716000D01*
D15*
X101956000Y-75716000D02*
G75*
G03*
X101956000Y-75716000I-100000J0D01*
G01*
D12*
%TO.C,R27*%
X95888542Y-57541900D02*
X96363058Y-57541900D01*
X95888542Y-58586900D02*
X96363058Y-58586900D01*
%TO.C,C16*%
X92061420Y-39622000D02*
X92342580Y-39622000D01*
X92061420Y-40642000D02*
X92342580Y-40642000D01*
%TO.C,R1*%
X104664742Y-83297500D02*
X105139258Y-83297500D01*
X104664742Y-84342500D02*
X105139258Y-84342500D01*
%TO.C,GREEN1*%
X86235000Y-46515000D02*
X84765000Y-46515000D01*
X86235000Y-48800000D02*
X86235000Y-46515000D01*
X84765000Y-46515000D02*
X84765000Y-48800000D01*
D16*
%TO.C,IC1*%
X99094014Y-32105814D02*
G75*
G03*
X99094014Y-32105814I-125000J0D01*
G01*
D12*
%TO.C,C23*%
X92109420Y-43990000D02*
X92390580Y-43990000D01*
X92109420Y-45010000D02*
X92390580Y-45010000D01*
%TO.C,C6*%
X101344000Y-44590580D02*
X101344000Y-44309420D01*
X102364000Y-44590580D02*
X102364000Y-44309420D01*
%TO.C,C7*%
X105916000Y-43320580D02*
X105916000Y-43039420D01*
X106936000Y-43320580D02*
X106936000Y-43039420D01*
%TO.C,RED1*%
X84765000Y-43700000D02*
X84765000Y-45985000D01*
X86235000Y-45985000D02*
X86235000Y-43700000D01*
X84765000Y-45985000D02*
X86235000Y-45985000D01*
%TO.C,D1*%
X104179000Y-84863000D02*
X104179000Y-86333000D01*
X106464000Y-84863000D02*
X104179000Y-84863000D01*
X104179000Y-86333000D02*
X106464000Y-86333000D01*
%TO.C,C19*%
X101232580Y-39760000D02*
X100951420Y-39760000D01*
X101232580Y-38740000D02*
X100951420Y-38740000D01*
%TO.C,R18*%
X97587742Y-38727500D02*
X98062258Y-38727500D01*
X97587742Y-39772500D02*
X98062258Y-39772500D01*
%TO.C,D2*%
X98833000Y-77001000D02*
X98833000Y-79286000D01*
X100303000Y-79286000D02*
X100303000Y-77001000D01*
X100303000Y-77001000D02*
X98833000Y-77001000D01*
%TO.C,D3*%
X97509000Y-77001000D02*
X96039000Y-77001000D01*
X96039000Y-77001000D02*
X96039000Y-79286000D01*
X97509000Y-79286000D02*
X97509000Y-77001000D01*
%TO.C,R15*%
X89262742Y-29022500D02*
X89737258Y-29022500D01*
X89262742Y-27977500D02*
X89737258Y-27977500D01*
%TD*%
M02*
