%TF.GenerationSoftware,KiCad,Pcbnew,(6.0.5)*%
%TF.CreationDate,2022-06-05T00:42:26+05:30*%
%TF.ProjectId,PORTABLE_ECG_MACHINE,504f5254-4142-44c4-955f-4543475f4d41,rev-1*%
%TF.SameCoordinates,Original*%
%TF.FileFunction,Paste,Top*%
%TF.FilePolarity,Positive*%
%FSLAX46Y46*%
G04 Gerber Fmt 4.6, Leading zero omitted, Abs format (unit mm)*
G04 Created by KiCad (PCBNEW (6.0.5)) date 2022-06-05 00:42:26*
%MOMM*%
%LPD*%
G01*
G04 APERTURE LIST*
G04 Aperture macros list*
%AMRoundRect*
0 Rectangle with rounded corners*
0 $1 Rounding radius*
0 $2 $3 $4 $5 $6 $7 $8 $9 X,Y pos of 4 corners*
0 Add a 4 corners polygon primitive as box body*
4,1,4,$2,$3,$4,$5,$6,$7,$8,$9,$2,$3,0*
0 Add four circle primitives for the rounded corners*
1,1,$1+$1,$2,$3*
1,1,$1+$1,$4,$5*
1,1,$1+$1,$6,$7*
1,1,$1+$1,$8,$9*
0 Add four rect primitives between the rounded corners*
20,1,$1+$1,$2,$3,$4,$5,0*
20,1,$1+$1,$4,$5,$6,$7,0*
20,1,$1+$1,$6,$7,$8,$9,0*
20,1,$1+$1,$8,$9,$2,$3,0*%
%AMFreePoly0*
4,1,17,0.095671,0.230970,0.176777,0.176777,0.230970,0.095671,0.250000,0.000000,0.230970,-0.095671,0.176777,-0.176777,0.095671,-0.230970,0.000000,-0.250000,-0.095671,-0.230970,-0.176777,-0.176777,-0.230970,-0.095671,-0.250000,0.000000,-0.230970,0.095671,-0.176777,0.176777,-0.095671,0.230970,0.000000,0.250000,0.095671,0.230970,0.095671,0.230970,$1*%
G04 Aperture macros list end*
%ADD10C,0.010000*%
%ADD11RoundRect,0.200000X-0.200000X-0.275000X0.200000X-0.275000X0.200000X0.275000X-0.200000X0.275000X0*%
%ADD12O,0.600000X0.500000*%
%ADD13FreePoly0,90.000000*%
%ADD14RoundRect,0.200000X-0.275000X0.200000X-0.275000X-0.200000X0.275000X-0.200000X0.275000X0.200000X0*%
%ADD15RoundRect,0.225000X0.225000X0.250000X-0.225000X0.250000X-0.225000X-0.250000X0.225000X-0.250000X0*%
%ADD16RoundRect,0.225000X-0.225000X-0.250000X0.225000X-0.250000X0.225000X0.250000X-0.225000X0.250000X0*%
%ADD17RoundRect,0.200000X0.200000X0.275000X-0.200000X0.275000X-0.200000X-0.275000X0.200000X-0.275000X0*%
%ADD18RoundRect,0.225000X0.250000X-0.225000X0.250000X0.225000X-0.250000X0.225000X-0.250000X-0.225000X0*%
%ADD19RoundRect,0.150000X-0.587500X-0.150000X0.587500X-0.150000X0.587500X0.150000X-0.587500X0.150000X0*%
%ADD20RoundRect,0.200000X0.275000X-0.200000X0.275000X0.200000X-0.275000X0.200000X-0.275000X-0.200000X0*%
%ADD21RoundRect,0.042000X0.258000X-0.943000X0.258000X0.943000X-0.258000X0.943000X-0.258000X-0.943000X0*%
%ADD22R,1.500000X2.000000*%
%ADD23R,3.800000X2.000000*%
%ADD24R,1.600000X1.000000*%
%ADD25RoundRect,0.225000X-0.250000X0.225000X-0.250000X-0.225000X0.250000X-0.225000X0.250000X0.225000X0*%
%ADD26R,0.400000X2.000000*%
%ADD27RoundRect,0.150000X-0.150000X0.587500X-0.150000X-0.587500X0.150000X-0.587500X0.150000X0.587500X0*%
%ADD28R,1.000000X0.800000*%
%ADD29R,0.700000X1.500000*%
%ADD30RoundRect,0.062400X0.067600X0.422600X-0.067600X0.422600X-0.067600X-0.422600X0.067600X-0.422600X0*%
%ADD31RoundRect,0.062400X-0.422600X0.067600X-0.422600X-0.067600X0.422600X-0.067600X0.422600X0.067600X0*%
%ADD32RoundRect,0.218750X0.218750X0.256250X-0.218750X0.256250X-0.218750X-0.256250X0.218750X-0.256250X0*%
%ADD33R,0.300000X0.800000*%
%ADD34R,0.800000X0.300000*%
%ADD35R,2.750000X2.750000*%
%ADD36RoundRect,0.218750X-0.218750X-0.256250X0.218750X-0.256250X0.218750X0.256250X-0.218750X0.256250X0*%
%ADD37RoundRect,0.218750X-0.256250X0.218750X-0.256250X-0.218750X0.256250X-0.218750X0.256250X0.218750X0*%
G04 APERTURE END LIST*
%TO.C,U5*%
G36*
X104215680Y-60927878D02*
G01*
X102575680Y-60927878D01*
X102575680Y-59637878D01*
X104215680Y-59637878D01*
X104215680Y-60927878D01*
G37*
D10*
X104215680Y-60927878D02*
X102575680Y-60927878D01*
X102575680Y-59637878D01*
X104215680Y-59637878D01*
X104215680Y-60927878D01*
%TO.C,U2*%
G36*
X82540680Y-72955878D02*
G01*
X80560888Y-72955878D01*
X80560888Y-70976086D01*
X82540680Y-70976086D01*
X82540680Y-72955878D01*
G37*
X82540680Y-72955878D02*
X80560888Y-72955878D01*
X80560888Y-70976086D01*
X82540680Y-70976086D01*
X82540680Y-72955878D01*
%TD*%
D11*
%TO.C,R3*%
X97490680Y-67902878D03*
X99140680Y-67902878D03*
%TD*%
D12*
%TO.C,JP1*%
X86063680Y-65570878D03*
D13*
X86063680Y-66470878D03*
X86063680Y-67370878D03*
%TD*%
D14*
%TO.C,R14*%
X123207680Y-59711878D03*
X123207680Y-61361878D03*
%TD*%
%TO.C,R23*%
X107967680Y-58695878D03*
X107967680Y-60345878D03*
%TD*%
D15*
%TO.C,C22*%
X93502680Y-53678878D03*
X91952680Y-53678878D03*
%TD*%
D16*
%TO.C,C15*%
X131576680Y-67140878D03*
X133126680Y-67140878D03*
%TD*%
D17*
%TO.C,R13*%
X122762680Y-57742878D03*
X121112680Y-57742878D03*
%TD*%
D14*
%TO.C,R22*%
X96283680Y-53107878D03*
X96283680Y-54757878D03*
%TD*%
D18*
%TO.C,C20*%
X90187680Y-57501878D03*
X90187680Y-55951878D03*
%TD*%
D14*
%TO.C,R8*%
X127525680Y-71903878D03*
X127525680Y-73553878D03*
%TD*%
D17*
%TO.C,R20*%
X120476680Y-70188878D03*
X118826680Y-70188878D03*
%TD*%
D14*
%TO.C,R26*%
X99331680Y-58187878D03*
X99331680Y-59837878D03*
%TD*%
D19*
%TO.C,Q1*%
X101730180Y-66660878D03*
X101730180Y-68560878D03*
X103605180Y-67610878D03*
%TD*%
D17*
%TO.C,R7*%
X77550680Y-74760878D03*
X75900680Y-74760878D03*
%TD*%
D16*
%TO.C,C11*%
X128492680Y-70310878D03*
X130042680Y-70310878D03*
%TD*%
D20*
%TO.C,R25*%
X112031680Y-59583878D03*
X112031680Y-57933878D03*
%TD*%
D21*
%TO.C,U5*%
X101490680Y-62757878D03*
X102760680Y-62757878D03*
X104030680Y-62757878D03*
X105300680Y-62757878D03*
X105300680Y-57807878D03*
X104030680Y-57807878D03*
X102760680Y-57807878D03*
X101490680Y-57807878D03*
%TD*%
D14*
%TO.C,R9*%
X130573680Y-71903878D03*
X130573680Y-73553878D03*
%TD*%
D22*
%TO.C,U4*%
X95789680Y-59164878D03*
X93489680Y-59164878D03*
X91189680Y-59164878D03*
D23*
X93489680Y-65464878D03*
%TD*%
D24*
%TO.C,SELECT1*%
X126611680Y-60414878D03*
X133011680Y-60414878D03*
X126611680Y-64214878D03*
X133011680Y-64214878D03*
%TD*%
D17*
%TO.C,R12*%
X133430680Y-54186878D03*
X131780680Y-54186878D03*
%TD*%
D15*
%TO.C,C21*%
X93502680Y-55710878D03*
X91952680Y-55710878D03*
%TD*%
D25*
%TO.C,C2*%
X76979680Y-66873878D03*
X76979680Y-68423878D03*
%TD*%
D26*
%TO.C,U6*%
X93499680Y-71109878D03*
X94199680Y-71109878D03*
X94899680Y-71109878D03*
X95599680Y-71109878D03*
X96299680Y-71109878D03*
X96999680Y-71109878D03*
X97699680Y-71109878D03*
X98399680Y-71109878D03*
X99099680Y-71109878D03*
X99799680Y-71109878D03*
X100499680Y-71109878D03*
X101199680Y-71109878D03*
X101899680Y-71109878D03*
X102599680Y-71109878D03*
X103299680Y-71109878D03*
X103999680Y-71109878D03*
X104699680Y-71109878D03*
X105399680Y-71109878D03*
X106099680Y-71109878D03*
X106799680Y-71109878D03*
X107499680Y-71109878D03*
X108199680Y-71109878D03*
X108899680Y-71109878D03*
X109599680Y-71109878D03*
X110299680Y-71109878D03*
X110999680Y-71109878D03*
X111699680Y-71109878D03*
X112399680Y-71109878D03*
X113099680Y-71109878D03*
X113799680Y-71109878D03*
%TD*%
D20*
%TO.C,R5*%
X112539680Y-65425878D03*
X112539680Y-63775878D03*
%TD*%
D18*
%TO.C,C17*%
X133113680Y-73757878D03*
X133113680Y-72207878D03*
%TD*%
D25*
%TO.C,C24*%
X109855000Y-60185000D03*
X109855000Y-61735000D03*
%TD*%
%TO.C,C10*%
X129049680Y-71953878D03*
X129049680Y-73503878D03*
%TD*%
D14*
%TO.C,R16*%
X116603680Y-58949878D03*
X116603680Y-60599878D03*
%TD*%
D15*
%TO.C,C4*%
X95026680Y-67902878D03*
X93476680Y-67902878D03*
%TD*%
D16*
%TO.C,C5*%
X95192680Y-73210878D03*
X96742680Y-73210878D03*
%TD*%
D11*
%TO.C,R4*%
X110444680Y-73490878D03*
X112094680Y-73490878D03*
%TD*%
D14*
%TO.C,R6*%
X107459680Y-64791878D03*
X107459680Y-66441878D03*
%TD*%
D20*
%TO.C,R21*%
X117517680Y-66885878D03*
X117517680Y-65235878D03*
%TD*%
%TO.C,R10*%
X133113680Y-70505878D03*
X133113680Y-68855878D03*
%TD*%
D18*
%TO.C,C1*%
X75201680Y-68423878D03*
X75201680Y-66873878D03*
%TD*%
D11*
%TO.C,R17*%
X118318680Y-62314878D03*
X119968680Y-62314878D03*
%TD*%
D24*
%TO.C,DRIVE1*%
X70731680Y-60414878D03*
X77131680Y-60414878D03*
X70731680Y-64214878D03*
X77131680Y-64214878D03*
%TD*%
D15*
%TO.C,C18*%
X119792680Y-73998878D03*
X118242680Y-73998878D03*
%TD*%
D27*
%TO.C,Q2*%
X110949680Y-64425378D03*
X109049680Y-64425378D03*
X109999680Y-66300378D03*
%TD*%
D12*
%TO.C,JP2*%
X87079680Y-68110878D03*
D13*
X87079680Y-69010878D03*
X87079680Y-69910878D03*
%TD*%
D17*
%TO.C,R19*%
X120842680Y-72310878D03*
X119192680Y-72310878D03*
%TD*%
D11*
%TO.C,R24*%
X111570000Y-61595000D03*
X113220000Y-61595000D03*
%TD*%
D28*
%TO.C,SW1*%
X106283680Y-53590878D03*
X98983680Y-51380878D03*
X106283680Y-51380878D03*
X98983680Y-53590878D03*
D29*
X104883680Y-54240878D03*
X101883680Y-54240878D03*
X100383680Y-54240878D03*
%TD*%
D25*
%TO.C,C3*%
X71645680Y-71699878D03*
X71645680Y-73249878D03*
%TD*%
D14*
%TO.C,R2*%
X115079680Y-63267878D03*
X115079680Y-64917878D03*
%TD*%
D30*
%TO.C,U2*%
X83051680Y-69596878D03*
X82551680Y-69596878D03*
X82051680Y-69596878D03*
X81551680Y-69596878D03*
X81051680Y-69596878D03*
X80551680Y-69596878D03*
X80051680Y-69596878D03*
D31*
X79181680Y-70466878D03*
X79181680Y-70966878D03*
X79181680Y-71466878D03*
X79181680Y-71966878D03*
X79181680Y-72466878D03*
X79181680Y-72966878D03*
X79181680Y-73466878D03*
D30*
X80051680Y-74336878D03*
X80551680Y-74336878D03*
X81051680Y-74336878D03*
X81551680Y-74336878D03*
X82051680Y-74336878D03*
X82551680Y-74336878D03*
X83051680Y-74336878D03*
D31*
X83921680Y-73466878D03*
X83921680Y-72966878D03*
X83921680Y-72466878D03*
X83921680Y-71966878D03*
X83921680Y-71466878D03*
X83921680Y-70966878D03*
X83921680Y-70466878D03*
%TD*%
D14*
%TO.C,R27*%
X99331680Y-62505878D03*
X99331680Y-64155878D03*
%TD*%
D25*
%TO.C,C16*%
X118635680Y-58237878D03*
X118635680Y-59787878D03*
%TD*%
D14*
%TO.C,R1*%
X74947680Y-70887878D03*
X74947680Y-72537878D03*
%TD*%
D32*
%TO.C,GREEN1*%
X111555180Y-52662878D03*
X109980180Y-52662878D03*
%TD*%
D33*
%TO.C,IC1*%
X125911866Y-66179892D03*
X125411866Y-66179892D03*
X124911866Y-66179892D03*
X124411866Y-66179892D03*
X123911866Y-66179892D03*
D34*
X122911866Y-67179892D03*
X122911866Y-67679892D03*
X122911866Y-68179892D03*
X122911866Y-68679892D03*
X122911866Y-69179892D03*
D33*
X123911866Y-70179892D03*
X124411866Y-70179892D03*
X124911866Y-70179892D03*
X125411866Y-70179892D03*
X125911866Y-70179892D03*
D34*
X126911866Y-69179892D03*
X126911866Y-68679892D03*
X126911866Y-68179892D03*
X126911866Y-67679892D03*
X126911866Y-67179892D03*
D35*
X124911866Y-68179892D03*
%TD*%
D25*
%TO.C,C23*%
X113555680Y-57729878D03*
X113555680Y-59279878D03*
%TD*%
D16*
%TO.C,C6*%
X113542680Y-68664878D03*
X115092680Y-68664878D03*
%TD*%
%TO.C,C7*%
X114812680Y-73236878D03*
X116362680Y-73236878D03*
%TD*%
D36*
%TO.C,RED1*%
X113480180Y-52662878D03*
X115055180Y-52662878D03*
%TD*%
D37*
%TO.C,D1*%
X73169680Y-71687378D03*
X73169680Y-73262378D03*
%TD*%
D18*
%TO.C,C19*%
X119517680Y-68677878D03*
X119517680Y-67127878D03*
%TD*%
D14*
%TO.C,R18*%
X119517680Y-63810878D03*
X119517680Y-65460878D03*
%TD*%
D36*
%TO.C,D2*%
X81080180Y-66378878D03*
X82655180Y-66378878D03*
%TD*%
D32*
%TO.C,D3*%
X81069180Y-63584878D03*
X79494180Y-63584878D03*
%TD*%
D14*
%TO.C,R15*%
X130267680Y-55485878D03*
X130267680Y-57135878D03*
%TD*%
M02*
